<svg width="24" height="24" viewBox="0 0 24 24" fill="none" xmlns="http://www.w3.org/2000/svg">
<path d="M23.319 11.8431H0.681016C0.304901 11.8431 0 12.2699 0 12.7964V16.8714C0 17.3978 0.304901 17.8246 0.681016 17.8246H23.319C23.6951 17.8246 24 17.3978 24 16.8714V12.7964C24 12.2699 23.6951 11.8431 23.319 11.8431Z" fill="#D46164"/>
<path d="M2.8009 9.32224C2.62799 9.38784 2.44479 9.41988 2.26038 9.41686C2.03456 9.42351 1.81055 9.37181 1.60922 9.26661C1.43267 9.16836 1.29543 9.00965 1.22106 8.81769L4.11381 8.2421C4.12288 7.85999 4.02826 7.48302 3.84053 7.1535C3.66489 6.85453 3.41186 6.61147 3.11016 6.45125C2.79335 6.2865 2.44237 6.20336 2.08746 6.2085C1.71593 6.20306 1.34893 6.29466 1.02093 6.47483C0.710165 6.64503 0.451695 6.90078 0.273638 7.21366C0.0901387 7.53652 -0.00418033 7.90473 0.000354241 8.27868C-0.00659876 8.65596 0.0889295 9.02779 0.275754 9.35247C0.463787 9.66989 0.735861 9.92564 1.06054 10.0889C1.42451 10.2724 1.82597 10.3637 2.23136 10.3552C2.93875 10.3552 3.48351 10.1406 3.84476 9.711L3.24166 9.03898C3.11409 9.16202 2.96475 9.25845 2.80121 9.32254L2.8009 9.32224ZM2.15397 7.13627C2.32296 7.13627 2.48923 7.17708 2.63978 7.25599C2.79032 7.33458 2.92062 7.44886 3.02007 7.58943L1.1083 7.99089C1.16332 7.74784 1.29664 7.53139 1.48648 7.3763C1.67633 7.22122 1.91152 7.13658 2.15397 7.13627Z" fill="#9F9F9F"/>
<path d="M14.8175 6.66105C15.1095 6.96154 15.2559 7.41258 15.2559 8.01386V10.3513H14.1062V8.19706C14.1243 7.9395 14.0554 7.68314 13.9115 7.47183C13.8417 7.39233 13.7555 7.33005 13.6591 7.28954C13.5626 7.24903 13.4586 7.2318 13.3547 7.23875C13.2365 7.23362 13.1183 7.25508 13.0085 7.30133C12.8988 7.34758 12.8002 7.41772 12.7195 7.5069C12.5469 7.73484 12.4623 8.02021 12.4825 8.30861V10.3561H11.3265V8.19736C11.3265 7.55829 11.0759 7.23906 10.575 7.23906C10.4565 7.23331 10.3383 7.25417 10.2285 7.30042C10.1188 7.34668 10.0202 7.41711 9.93983 7.5069C9.76812 7.73332 9.68407 8.01749 9.70493 8.30408V10.3516H8.55527V6.27138H9.65415V6.74177C9.80258 6.56855 9.98789 6.43372 10.1962 6.34756C10.4193 6.25415 10.6581 6.20759 10.899 6.21031C11.1617 6.20608 11.4217 6.26443 11.659 6.38021C11.8821 6.49055 12.0714 6.66256 12.2053 6.8769C12.3679 6.66377 12.5786 6.49478 12.8193 6.38474C13.0756 6.26715 13.3538 6.2079 13.6343 6.21062C13.851 6.19943 14.0675 6.23359 14.2709 6.31098C14.4744 6.38837 14.6603 6.50778 14.8175 6.66166V6.66105Z" fill="#9F9F9F"/>
<path d="M8.38114 6.2082H7.08063L6.36689 7.14685L7.0117 8.05226L8.38114 6.2082Z" fill="#D46164"/>
<path d="M8.3228 10.3555L5.32515 6.2082H4.01163L5.51258 8.28745L3.96629 10.3555H5.31003L6.16616 9.20162L6.99417 10.3555H8.3228Z" fill="#9F9F9F"/>
<path d="M23.7276 7.17618C23.5405 6.86511 23.2703 6.6157 22.9495 6.4579C22.6 6.28649 22.2167 6.20094 21.8298 6.2085H20.0141V10.3552H21.779C22.1659 10.3625 22.6 10.2116 22.9492 10.0402C23.2684 9.8818 23.5372 9.6327 23.7231 9.32193C23.913 8.99454 24.0085 8.61817 23.9994 8.23727C24.0058 7.86452 23.9114 7.49722 23.7273 7.17618H23.7276ZM21.1466 7.21517H21.7793C22.0677 7.19794 22.3512 7.29861 22.568 7.49511C22.665 7.59215 22.7406 7.70974 22.7899 7.83974C22.8389 7.96973 22.8603 8.10879 22.8528 8.24815C22.8609 8.38751 22.8395 8.52718 22.7902 8.65747C22.7412 8.78776 22.6653 8.90566 22.568 9.003C22.3512 9.1995 22.0677 9.30017 21.7793 9.28294H21.1466V7.21517Z" fill="#9F9F9F"/>
<path d="M18.3406 9.28264C18.1679 9.34793 17.9851 9.37967 17.801 9.37695C17.5754 9.38391 17.352 9.33221 17.151 9.22701C16.9748 9.12906 16.8375 8.97066 16.7634 8.779L19.6568 8.20462C19.6653 7.82311 19.57 7.44674 19.3817 7.11783C19.2064 6.81946 18.9539 6.57671 18.6525 6.41709C18.3273 6.25415 17.9699 6.17162 17.6084 6.17555C17.2468 6.17978 16.891 6.27047 16.5694 6.44067C16.2586 6.61057 15.9998 6.86571 15.8215 7.17799C15.6377 7.50297 15.5439 7.87359 15.5506 8.24966C15.5436 8.62633 15.6389 8.99726 15.8254 9.32133C16.0128 9.63815 16.2846 9.89329 16.6087 10.0565C16.9717 10.24 17.3726 10.3313 17.7771 10.3223C18.4811 10.3223 19.0271 10.1079 19.3853 9.67926L18.7834 9.00844C18.6544 9.12876 18.5038 9.22217 18.3397 9.28294L18.3406 9.28264ZM17.7012 7.1006C17.8699 7.1006 18.0364 7.14141 18.187 7.22001C18.3375 7.29861 18.4678 7.41258 18.5676 7.55285L16.6594 7.9537C16.7139 7.71156 16.8466 7.49541 17.0358 7.34033C17.2251 7.18555 17.4593 7.1009 17.7012 7.1006Z" fill="#9F9F9F"/>
<path d="M9.98901 12.4995H10.8266V13.0971H10.8761C10.9198 13.0093 10.9818 12.9157 11.0618 12.8161C11.1418 12.7164 11.25 12.631 11.3866 12.5595C11.5232 12.4879 11.6971 12.4523 11.9089 12.4523C12.1882 12.4523 12.4401 12.5232 12.6655 12.6652C12.8906 12.8072 13.0696 13.0167 13.2021 13.2933C13.3346 13.5703 13.4007 13.9092 13.4007 14.3109C13.4007 14.7126 13.3356 15.0451 13.2055 15.3227C13.0753 15.6003 12.898 15.8122 12.6736 15.9579C12.4492 16.1037 12.1954 16.1769 11.9113 16.1769C11.7042 16.1769 11.5327 16.1423 11.3961 16.0735C11.2595 16.0044 11.1503 15.921 11.0679 15.823C10.9856 15.7251 10.9215 15.6322 10.8761 15.5444H10.8408V17.4691H9.98901V12.4995ZM10.8242 14.3065C10.8242 14.5404 10.8574 14.7448 10.9242 14.9207C10.991 15.0963 11.0873 15.2332 11.2137 15.3312C11.3398 15.4292 11.4933 15.4783 11.6737 15.4783C11.854 15.4783 12.0194 15.4278 12.1465 15.3264C12.2737 15.2251 12.3696 15.0865 12.4347 14.9099C12.4997 14.7333 12.5323 14.5322 12.5323 14.3065C12.5323 14.0807 12.5001 13.8831 12.4357 13.7089C12.3713 13.5347 12.2757 13.3984 12.1486 13.2994C12.0215 13.2004 11.8632 13.1513 11.6733 13.1513C11.4835 13.1513 11.3367 13.1991 11.21 13.2947C11.0829 13.3903 10.9869 13.5245 10.9218 13.697C10.8568 13.8696 10.8242 14.0726 10.8242 14.3065Z" fill="#FFCFD0"/>
<path d="M14.8363 16.1864C14.6071 16.1864 14.4014 16.1454 14.2187 16.063C14.036 15.9807 13.8916 15.8586 13.7858 15.6973C13.68 15.5356 13.6272 15.3366 13.6272 15.0997C13.6272 14.896 13.6648 14.7272 13.74 14.5939C13.8153 14.4607 13.918 14.3539 14.0482 14.274C14.1783 14.194 14.3254 14.1333 14.4892 14.0916C14.6529 14.0499 14.8227 14.0197 14.9986 14.0011C15.2105 13.979 15.382 13.9591 15.5139 13.9411C15.6457 13.9231 15.7416 13.895 15.802 13.8563C15.8623 13.8177 15.8925 13.758 15.8925 13.6764V13.6621C15.8925 13.4848 15.8399 13.3476 15.7349 13.2503C15.6298 13.153 15.4783 13.1045 15.2806 13.1045C15.0722 13.1045 14.9068 13.1499 14.7854 13.2411C14.6637 13.332 14.582 13.4394 14.5397 13.5635L13.7444 13.4506C13.8071 13.2309 13.9105 13.0472 14.0549 12.8988C14.1993 12.7506 14.3756 12.6391 14.5844 12.5645C14.7929 12.49 15.0237 12.4527 15.2762 12.4527C15.4505 12.4527 15.6237 12.473 15.7962 12.5137C15.9687 12.5544 16.1264 12.6215 16.2691 12.7147C16.4118 12.8079 16.5267 12.9347 16.6138 13.0947C16.7009 13.2547 16.7443 13.4547 16.7443 13.6947V16.1132H15.9257V15.6166H15.8976C15.8457 15.7169 15.7732 15.8108 15.6799 15.8976C15.5867 15.9847 15.4698 16.0546 15.3295 16.1071C15.1891 16.1596 15.0247 16.1861 14.8366 16.1861L14.8363 16.1864ZM15.0573 15.5607C15.2281 15.5607 15.3766 15.5264 15.502 15.4583C15.6274 15.3902 15.7243 15.2997 15.7925 15.1865C15.8606 15.0732 15.8949 14.9505 15.8949 14.817V14.3912C15.8681 14.4133 15.823 14.4336 15.7596 14.4522C15.6962 14.4712 15.625 14.4875 15.5467 14.5017C15.4684 14.516 15.3905 14.5285 15.3139 14.5394C15.2369 14.5502 15.1705 14.5597 15.1139 14.5675C14.9868 14.5848 14.8732 14.6129 14.7729 14.6522C14.6725 14.6916 14.5932 14.7461 14.5352 14.8156C14.4773 14.8855 14.4481 14.9753 14.4481 15.0851C14.4481 15.242 14.5054 15.3603 14.62 15.4403C14.7346 15.5203 14.8803 15.5603 15.0576 15.5603L15.0573 15.5607Z" fill="#FFCFD0"/>
<path d="M20.1279 13.4547L19.3513 13.5394C19.3293 13.4611 19.2913 13.3872 19.2371 13.3184C19.1828 13.2496 19.1103 13.1937 19.0195 13.1513C18.9286 13.1089 18.8171 13.0879 18.6852 13.0879C18.508 13.0879 18.3595 13.1262 18.2395 13.2032C18.1195 13.2801 18.0602 13.3798 18.0619 13.5021C18.0602 13.6072 18.0992 13.6926 18.1785 13.7587C18.2578 13.8245 18.389 13.8787 18.5727 13.9211L19.1893 14.0529C19.5313 14.1268 19.7859 14.2434 19.9526 14.4034C20.1197 14.5634 20.2042 14.7729 20.2055 15.0315C20.2038 15.259 20.1377 15.4593 20.0065 15.6325C19.8757 15.8057 19.694 15.941 19.4618 16.0383C19.2296 16.1356 18.9632 16.184 18.6618 16.184C18.2195 16.184 17.8636 16.0912 17.5938 15.9054C17.3239 15.7197 17.1633 15.4603 17.1114 15.1278L17.9419 15.0478C17.9795 15.2109 18.0595 15.3339 18.1819 15.4173C18.3042 15.5003 18.4632 15.542 18.6595 15.542C18.8557 15.542 19.0245 15.5003 19.1476 15.4173C19.2706 15.3342 19.3323 15.2315 19.3323 15.1092C19.3323 15.0058 19.2927 14.92 19.2133 14.8526C19.134 14.7851 19.0113 14.7333 18.8452 14.6973L18.2286 14.5678C17.8819 14.4956 17.6256 14.3736 17.4592 14.2021C17.2928 14.0302 17.2107 13.8126 17.2121 13.5492C17.2104 13.3265 17.2714 13.1333 17.3944 12.9693C17.5175 12.8055 17.6893 12.6784 17.9097 12.5883C18.13 12.4981 18.3846 12.453 18.673 12.453C19.0964 12.453 19.4303 12.5432 19.674 12.7235C19.9181 12.9038 20.0689 13.1479 20.1269 13.4553L20.1279 13.4547Z" fill="#FFCFD0"/>
<path d="M23.4342 13.4547L22.6576 13.5394C22.6356 13.4611 22.5976 13.3872 22.5434 13.3184C22.4891 13.2496 22.4166 13.1937 22.3258 13.1513C22.2349 13.1089 22.1234 13.0879 21.9915 13.0879C21.8142 13.0879 21.6658 13.1262 21.5458 13.2032C21.4258 13.2801 21.3665 13.3798 21.3682 13.5021C21.3665 13.6072 21.4055 13.6926 21.4848 13.7587C21.5641 13.8245 21.6953 13.8787 21.879 13.9211L22.4956 14.0529C22.8376 14.1268 23.0922 14.2434 23.2589 14.4034C23.426 14.5634 23.5104 14.7729 23.5118 15.0315C23.5101 15.259 23.444 15.4593 23.3128 15.6325C23.182 15.8057 23.0003 15.941 22.7681 16.0383C22.5359 16.1356 22.2695 16.184 21.9681 16.184C21.5258 16.184 21.1699 16.0912 20.9001 15.9054C20.6302 15.7197 20.4696 15.4603 20.4177 15.1278L21.2482 15.0478C21.2858 15.2109 21.3658 15.3339 21.4882 15.4173C21.6105 15.5003 21.7695 15.542 21.9658 15.542C22.162 15.542 22.3308 15.5003 22.4539 15.4173C22.5769 15.3342 22.6386 15.2315 22.6386 15.1092C22.6386 15.0058 22.599 14.92 22.5196 14.8526C22.4403 14.7851 22.3176 14.7333 22.1515 14.6973L21.5349 14.5678C21.1882 14.4956 20.9319 14.3736 20.7655 14.2021C20.599 14.0302 20.517 13.8126 20.5184 13.5492C20.5167 13.3265 20.5777 13.1333 20.7007 12.9693C20.8238 12.8055 20.9956 12.6784 21.216 12.5883C21.4363 12.4981 21.6909 12.453 21.9793 12.453C22.4027 12.453 22.7366 12.5432 22.9803 12.7235C23.2244 12.9038 23.3752 13.1479 23.4332 13.4553L23.4342 13.4547Z" fill="#FFCFD0"/>
</svg>
