<svg width="24" height="24" viewBox="0 0 24 24" fill="none" xmlns="http://www.w3.org/2000/svg">
<path d="M23.319 11.8431H0.681016C0.304901 11.8431 0 12.2699 0 12.7964V16.8714C0 17.3978 0.304901 17.8246 0.681016 17.8246H23.319C23.6951 17.8246 24 17.3978 24 16.8714V12.7964C24 12.2699 23.6951 11.8431 23.319 11.8431Z" fill="#2684B5"/>
<path d="M15.5275 12.5503V17.2573H14.6954V12.5503H15.5275Z" fill="#CFE1EC"/>
<path d="M16.8011 13.2261C16.6693 13.2261 16.556 13.1821 16.461 13.094C16.3659 13.0059 16.3186 12.8999 16.3186 12.7758C16.3186 12.6516 16.3659 12.5433 16.461 12.4552C16.556 12.3671 16.6693 12.3231 16.8011 12.3231C16.9328 12.3231 17.0481 12.3671 17.1425 12.4552C17.2368 12.5433 17.2838 12.6503 17.2838 12.7758C17.2838 12.9013 17.2368 13.0059 17.1425 13.094C17.0481 13.1821 16.9345 13.2261 16.8011 13.2261ZM16.3828 17.2576V13.7274H17.215V17.2576H16.3828Z" fill="#CFE1EC"/>
<path d="M19.8577 13.7271V14.3708H17.7709V13.7271H19.8577ZM18.2925 17.2573V13.3937C18.2925 13.1562 18.3418 12.9585 18.4408 12.8006C18.5395 12.6426 18.6726 12.5248 18.8395 12.4466C19.0064 12.3685 19.1918 12.3294 19.3958 12.3294C19.5399 12.3294 19.6677 12.341 19.7796 12.3638C19.8915 12.3867 19.9743 12.4075 20.0279 12.4258L19.8624 13.0695C19.8273 13.0589 19.7826 13.0476 19.7289 13.036C19.6753 13.0244 19.6157 13.0188 19.5498 13.0188C19.3951 13.0188 19.2859 13.0559 19.2223 13.1304C19.1587 13.2049 19.1269 13.3109 19.1269 13.4486V17.257H18.2925V17.2573Z" fill="#CFE1EC"/>
<path d="M21.9402 17.3262C21.5862 17.3262 21.2809 17.2523 21.0243 17.1043C20.7677 16.9566 20.5703 16.7467 20.4326 16.4745C20.2945 16.2027 20.2256 15.8818 20.2256 15.5126C20.2256 15.1434 20.2948 14.8304 20.4336 14.5553C20.5723 14.2801 20.7664 14.0659 21.016 13.9119C21.2657 13.7579 21.5591 13.6807 21.8962 13.6807C22.1137 13.6807 22.3194 13.7155 22.5134 13.7854C22.7071 13.8553 22.879 13.9629 23.0283 14.1082C23.1777 14.2539 23.2952 14.4387 23.3813 14.6632C23.4671 14.8877 23.5101 15.1546 23.5101 15.4642V15.7192H20.6164V15.1583H22.7124C22.7108 14.999 22.6763 14.8569 22.6091 14.7318C22.5416 14.6069 22.4479 14.5086 22.3277 14.4364C22.2075 14.3645 22.0674 14.3284 21.9081 14.3284C21.7379 14.3284 21.5886 14.3695 21.4598 14.4513C21.3309 14.5334 21.2309 14.6407 21.1598 14.7732C21.0886 14.9056 21.0521 15.051 21.0505 15.2086V15.698C21.0505 15.9033 21.0879 16.0791 21.1631 16.2255C21.2382 16.3719 21.3432 16.4838 21.478 16.5609C21.6127 16.6384 21.7707 16.6772 21.9515 16.6772C22.0727 16.6772 22.182 16.6599 22.2803 16.6255C22.3783 16.5911 22.4634 16.5401 22.5356 16.4725C22.6075 16.405 22.6621 16.3215 22.6989 16.2219L23.4757 16.3093C23.4267 16.5146 23.3336 16.6934 23.1965 16.846C23.0595 16.9984 22.8843 17.1166 22.6714 17.2C22.4585 17.2835 22.2147 17.3252 21.9406 17.3252L21.9402 17.3262Z" fill="#CFE1EC"/>
<path d="M2.8009 9.32224C2.62799 9.38784 2.44479 9.41988 2.26038 9.41686C2.03456 9.42351 1.81055 9.37181 1.60922 9.26661C1.43267 9.16836 1.29543 9.00965 1.22106 8.81769L4.11381 8.2421C4.12288 7.85999 4.02826 7.48302 3.84053 7.1535C3.66489 6.85453 3.41186 6.61147 3.11016 6.45125C2.79335 6.2865 2.44237 6.20336 2.08746 6.2085C1.71593 6.20306 1.34893 6.29466 1.02093 6.47483C0.710165 6.64503 0.451695 6.90078 0.273638 7.21366C0.0901387 7.53652 -0.00418033 7.90473 0.000354241 8.27868C-0.00659876 8.65596 0.0889295 9.02779 0.275754 9.35247C0.463787 9.66989 0.735861 9.92564 1.06054 10.0889C1.42451 10.2724 1.82597 10.3637 2.23136 10.3552C2.93875 10.3552 3.48351 10.1406 3.84476 9.711L3.24166 9.03898C3.11409 9.16202 2.96475 9.25845 2.80121 9.32254L2.8009 9.32224ZM2.15397 7.13627C2.32296 7.13627 2.48923 7.17708 2.63978 7.25599C2.79032 7.33458 2.92062 7.44886 3.02007 7.58943L1.1083 7.99089C1.16332 7.74784 1.29664 7.53139 1.48648 7.3763C1.67633 7.22122 1.91152 7.13658 2.15397 7.13627Z" fill="#9F9F9F"/>
<path d="M14.8175 6.66105C15.1095 6.96154 15.2559 7.41258 15.2559 8.01386V10.3513H14.1062V8.19706C14.1243 7.9395 14.0554 7.68314 13.9115 7.47183C13.8417 7.39233 13.7555 7.33005 13.6591 7.28954C13.5626 7.24903 13.4586 7.2318 13.3547 7.23875C13.2365 7.23362 13.1183 7.25508 13.0085 7.30133C12.8988 7.34758 12.8002 7.41772 12.7195 7.5069C12.5469 7.73484 12.4623 8.02021 12.4825 8.30861V10.3561H11.3265V8.19736C11.3265 7.55829 11.0759 7.23906 10.575 7.23906C10.4565 7.23331 10.3383 7.25417 10.2285 7.30042C10.1188 7.34668 10.0202 7.41711 9.93983 7.5069C9.76812 7.73332 9.68407 8.01749 9.70493 8.30408V10.3516H8.55527V6.27138H9.65415V6.74177C9.80258 6.56855 9.98789 6.43372 10.1962 6.34756C10.4193 6.25415 10.6581 6.20759 10.899 6.21031C11.1617 6.20608 11.4217 6.26443 11.659 6.38021C11.8821 6.49055 12.0714 6.66256 12.2053 6.8769C12.3679 6.66377 12.5786 6.49478 12.8193 6.38474C13.0756 6.26715 13.3538 6.2079 13.6343 6.21062C13.851 6.19943 14.0675 6.23359 14.2709 6.31098C14.4744 6.38837 14.6603 6.50778 14.8175 6.66166V6.66105Z" fill="#9F9F9F"/>
<path d="M8.38114 6.2082H7.08063L6.36689 7.14685L7.0117 8.05226L8.38114 6.2082Z" fill="#2684B5"/>
<path d="M8.3228 10.3555L5.32515 6.2082H4.01163L5.51258 8.28745L3.96629 10.3555H5.31003L6.16616 9.20162L6.99417 10.3555H8.3228Z" fill="#9F9F9F"/>
<path d="M23.7276 7.17618C23.5405 6.86511 23.2703 6.6157 22.9495 6.4579C22.6 6.28649 22.2167 6.20094 21.8298 6.2085H20.0141V10.3552H21.779C22.1659 10.3625 22.6 10.2116 22.9492 10.0402C23.2684 9.8818 23.5372 9.6327 23.7231 9.32193C23.913 8.99454 24.0085 8.61817 23.9994 8.23727C24.0058 7.86452 23.9114 7.49722 23.7273 7.17618H23.7276ZM21.1466 7.21517H21.7793C22.0677 7.19794 22.3512 7.29861 22.568 7.49511C22.665 7.59215 22.7406 7.70974 22.7899 7.83974C22.8389 7.96973 22.8603 8.10879 22.8528 8.24815C22.8609 8.38751 22.8395 8.52718 22.7902 8.65747C22.7412 8.78776 22.6653 8.90566 22.568 9.003C22.3512 9.1995 22.0677 9.30017 21.7793 9.28294H21.1466V7.21517Z" fill="#9F9F9F"/>
<path d="M18.3406 9.28264C18.1679 9.34793 17.9851 9.37967 17.801 9.37695C17.5754 9.38391 17.352 9.33221 17.151 9.22701C16.9748 9.12906 16.8375 8.97066 16.7634 8.779L19.6568 8.20462C19.6653 7.82311 19.57 7.44674 19.3817 7.11783C19.2064 6.81946 18.9539 6.57671 18.6525 6.41709C18.3273 6.25415 17.9699 6.17162 17.6084 6.17555C17.2468 6.17978 16.891 6.27047 16.5694 6.44067C16.2586 6.61057 15.9998 6.86571 15.8215 7.17799C15.6377 7.50297 15.5439 7.87359 15.5506 8.24966C15.5436 8.62633 15.6389 8.99726 15.8254 9.32133C16.0128 9.63815 16.2846 9.89329 16.6087 10.0565C16.9717 10.24 17.3726 10.3313 17.7771 10.3223C18.4811 10.3223 19.0271 10.1079 19.3853 9.67926L18.7834 9.00844C18.6544 9.12876 18.5038 9.22217 18.3397 9.28294L18.3406 9.28264ZM17.7012 7.1006C17.8699 7.1006 18.0364 7.14141 18.187 7.22001C18.3375 7.29861 18.4678 7.41258 18.5676 7.55285L16.6594 7.9537C16.7139 7.71156 16.8466 7.49541 17.0358 7.34033C17.2251 7.18555 17.4593 7.1009 17.7012 7.1006Z" fill="#9F9F9F"/>
</svg>
