<svg width="24" height="24" viewBox="0 0 24 24" fill="none" xmlns="http://www.w3.org/2000/svg">
<path d="M24 16.125C24 18.4031 22.7351 20.25 20.25 20.25H3.75C1.26487 20.25 0 18.4031 0 16.125V7.875C0 5.59688 1.26487 3.75 3.75 3.75H20.25C22.7351 3.75 24 5.59688 24 7.875V16.125Z" fill="#009B3A"/>
<path d="M23 12.1935L12 18L1 12.1935L12.0002 6L23 12.1935Z" fill="#FEDF01"/>
<path d="M10.4538 11.2571C9.59328 11.2571 8.78656 11.4571 8.0605 11.8C8.03361 11.9714 8.03361 12.1143 8.03361 12.2857C8.03361 14.6571 9.83529 16.5714 12.0672 16.5714C13.5731 16.5714 14.8908 15.6857 15.5899 14.4C14.595 12.5429 12.6588 11.2571 10.4538 11.2571Z" fill="#002776"/>
<path d="M16.0471 12.9714C16.0739 12.7429 16.1008 12.5143 16.1008 12.2857C16.1008 9.91429 14.2992 8 12.0672 8C10.4807 8 9.10924 8.97143 8.43698 10.4C9.08235 10.2 9.75462 10.0857 10.4538 10.0857C12.7395 10.0857 14.7563 11.2286 16.0471 12.9714Z" fill="#002776"/>
<path d="M10.4538 10.0857C9.75462 10.0857 9.08235 10.2 8.43698 10.4C8.24874 10.8286 8.11429 11.2857 8.0605 11.8C8.78656 11.4571 9.59328 11.2571 10.4538 11.2571C12.6588 11.2571 14.595 12.5143 15.5899 14.3714C15.8319 13.9429 15.9664 13.4571 16.0471 12.9714C14.7563 11.2286 12.7395 10.0857 10.4538 10.0857Z" fill="white"/>
<path d="M9.37815 12.5714C9.52666 12.5714 9.64706 12.4435 9.64706 12.2857C9.64706 12.1279 9.52666 12 9.37815 12C9.22964 12 9.10924 12.1279 9.10924 12.2857C9.10924 12.4435 9.22964 12.5714 9.37815 12.5714Z" fill="white"/>
<path d="M10.4538 14.2857C10.6023 14.2857 10.7227 14.1578 10.7227 14C10.7227 13.8422 10.6023 13.7143 10.4538 13.7143C10.3053 13.7143 10.1849 13.8422 10.1849 14C10.1849 14.1578 10.3053 14.2857 10.4538 14.2857Z" fill="white"/>
<path d="M12.0672 14.2857C12.2157 14.2857 12.3361 14.1578 12.3361 14C12.3361 13.8422 12.2157 13.7143 12.0672 13.7143C11.9187 13.7143 11.7983 13.8422 11.7983 14C11.7983 14.1578 11.9187 14.2857 12.0672 14.2857Z" fill="white"/>
<path d="M12.0672 15.4286C12.2157 15.4286 12.3361 15.3007 12.3361 15.1429C12.3361 14.9851 12.2157 14.8571 12.0672 14.8571C11.9187 14.8571 11.7983 14.9851 11.7983 15.1429C11.7983 15.3007 11.9187 15.4286 12.0672 15.4286Z" fill="white"/>
<path d="M14.2185 14.2857C14.367 14.2857 14.4874 14.1578 14.4874 14C14.4874 13.8422 14.367 13.7143 14.2185 13.7143C14.07 13.7143 13.9496 13.8422 13.9496 14C13.9496 14.1578 14.07 14.2857 14.2185 14.2857Z" fill="white"/>
<path d="M14.2185 15.4286C14.367 15.4286 14.4874 15.3007 14.4874 15.1429C14.4874 14.9851 14.367 14.8571 14.2185 14.8571C14.07 14.8571 13.9496 14.9851 13.9496 15.1429C13.9496 15.3007 14.07 15.4286 14.2185 15.4286Z" fill="white"/>
<path d="M13.1429 14.8571C13.2914 14.8571 13.4118 14.7292 13.4118 14.5714C13.4118 14.4136 13.2914 14.2857 13.1429 14.2857C12.9943 14.2857 12.874 14.4136 12.874 14.5714C12.874 14.7292 12.9943 14.8571 13.1429 14.8571Z" fill="white"/>
<path d="M9.37815 13.7143C9.52666 13.7143 9.64706 13.5864 9.64706 13.4286C9.64706 13.2708 9.52666 13.1429 9.37815 13.1429C9.22964 13.1429 9.10924 13.2708 9.10924 13.4286C9.10924 13.5864 9.22964 13.7143 9.37815 13.7143Z" fill="white"/>
</svg>
