<svg width="24" height="24" viewBox="0 0 24 24" fill="none" xmlns="http://www.w3.org/2000/svg">
<path d="M4 3C4 2.44772 4.44772 2 5 2H12.5928L12.7113 8.37334H20V21C20 21.5523 19.5523 22 19 22H5C4.44772 22 4 21.5523 4 21V3Z" fill="#2684B5"/>
<path d="M12.594 2.00476L19.998 8.37936H12.594L12.594 2.00476Z" fill="#C5DCE8"/>
<path d="M19.9981 14.7539L12.594 8.37936H19.998L19.9981 14.7539Z" fill="#1170A2" fill-opacity="0.97"/>
<path d="M7.22088 14.252V18.6156H6.4304V14.252H7.22088Z" fill="white"/>
<path d="M8.07688 14.252H9.04421L10.3397 17.4139H10.3908L11.6863 14.252H12.6536V18.6156H11.8951V15.6177H11.8546L10.6486 18.6028H10.0819L8.87589 15.6113H8.8354V18.6156H8.07688V14.252Z" fill="white"/>
<path d="M16.4377 15.6454C16.4022 15.5304 16.3532 15.4274 16.2907 15.3365C16.2296 15.2442 16.1557 15.1653 16.0691 15.1C15.9838 15.0346 15.8858 14.9856 15.775 14.953C15.6642 14.9189 15.5435 14.9018 15.4128 14.9018C15.1784 14.9018 14.9696 14.9608 14.7864 15.0787C14.6032 15.1966 14.459 15.3699 14.3539 15.5986C14.2502 15.8258 14.1983 16.1028 14.1983 16.4295C14.1983 16.7591 14.2502 17.0382 14.3539 17.2669C14.4576 17.4956 14.6017 17.6696 14.7864 17.7889C14.9711 17.9068 15.1855 17.9657 15.4299 17.9657C15.6515 17.9657 15.8432 17.9231 16.0051 17.8379C16.1685 17.7527 16.2942 17.6319 16.3823 17.4757C16.4703 17.318 16.5144 17.1334 16.5144 16.9217L16.6934 16.9494H15.5087V16.3315H17.2793V16.8557C17.2793 17.2292 17.1998 17.5524 17.0407 17.8251C16.8816 18.0978 16.6628 18.3081 16.3844 18.4558C16.106 18.6021 15.7864 18.6753 15.4256 18.6753C15.0236 18.6753 14.6706 18.5851 14.3667 18.4047C14.0641 18.2228 13.8276 17.965 13.6571 17.6312C13.4881 17.296 13.4036 16.8983 13.4036 16.438C13.4036 16.0858 13.4533 15.7711 13.5527 15.4942C13.6536 15.2172 13.7942 14.9821 13.9746 14.7889C14.155 14.5943 14.3667 14.4466 14.6096 14.3457C14.8525 14.2434 15.1167 14.1923 15.4022 14.1923C15.6436 14.1923 15.8688 14.2278 16.0776 14.2988C16.2864 14.3684 16.4718 14.4679 16.6337 14.5971C16.7971 14.7264 16.9313 14.8798 17.0364 15.0574C17.1415 15.2349 17.2104 15.4309 17.2431 15.6454H16.4377Z" fill="white"/>
</svg>
