<svg width="24" height="24" viewBox="0 0 24 24" fill="none" xmlns="http://www.w3.org/2000/svg">
<path d="M21 4H3C1.9 4 1 4.9 1 6V18C1 19.1 1.9 20 3 20H21C22.1 20 22.99 19.1 22.99 18L23 6C23 4.9 22.1 4 21 4Z" fill="black"/>
<path d="M10.111 8.59928H13.8962V15.4006H10.111V8.59928Z" fill="#FF5F00"/>
<path d="M10.3513 12C10.3513 10.6181 11.0002 9.3924 11.9975 8.59929C11.2646 8.0225 10.3393 7.67403 9.32993 7.67403C6.93854 7.67403 5.00391 9.60867 5.00391 12C5.00391 14.3913 6.93855 16.326 9.32987 16.326C10.3393 16.326 11.2645 15.9775 11.9975 15.4007C11.0002 14.6196 10.3513 13.3819 10.3513 12Z" fill="#EB001B"/>
<path d="M19.0031 12C19.0031 14.3913 17.0685 16.326 14.6772 16.326C13.6678 16.326 12.7425 15.9775 12.0095 15.4007C13.0189 14.6076 13.6558 13.3819 13.6558 12C13.6558 10.6181 13.0069 9.3924 12.0095 8.59929C12.7425 8.0225 13.6678 7.67403 14.6772 7.67403C17.0685 7.67403 19.0031 9.62071 19.0031 12Z" fill="#F79E1B"/>
</svg>
