<svg width="24" height="24" viewBox="0 0 24 24" fill="none" xmlns="http://www.w3.org/2000/svg">
<path d="M21 4H3C1.9 4 1 4.9 1 6V18C1 19.1 1.9 20 3 20H21C22.1 20 22.99 19.1 22.99 18L23 6C23 4.9 22.1 4 21 4Z" fill="#222357"/>
<path d="M12.3092 10.9105C12.299 11.743 13.0308 12.2075 13.5821 12.4837C14.1485 12.7671 14.3387 12.9488 14.3365 13.2023C14.3323 13.5901 13.8847 13.7613 13.4659 13.7679C12.7352 13.7796 12.3103 13.5651 11.9725 13.4029L11.7093 14.6693C12.0482 14.8298 12.6757 14.9699 13.3264 14.976C14.8538 14.976 15.8531 14.2008 15.8585 12.9988C15.8645 11.4734 13.8064 11.389 13.8204 10.7071C13.8253 10.5004 14.0171 10.2797 14.4376 10.2237C14.6457 10.1953 15.2202 10.1736 15.8715 10.482L16.1271 9.25671C15.7769 9.12558 15.3267 9.00001 14.7662 9.00001C13.3286 9.00001 12.3174 9.7858 12.3092 10.9105ZM18.5835 9.10556C18.3046 9.10556 18.0696 9.27283 17.9647 9.52953L15.7828 14.886H17.3091L17.6128 14.023H19.4779L19.6541 14.886H20.9994L19.8255 9.10556H18.5835ZM18.797 10.6671L19.2375 12.8377H18.0312L18.797 10.6671ZM10.4587 9.10563L9.25561 14.8859H10.71L11.9126 9.10548L10.4587 9.10563ZM8.3071 9.10548L6.79325 13.04L6.18087 9.69464C6.10902 9.32119 5.82526 9.10556 5.51015 9.10556H3.03549L3.00082 9.27341C3.50886 9.38676 4.08608 9.56958 4.43579 9.76519C4.6498 9.88469 4.71083 9.98915 4.78114 10.2731L5.94099 14.886H7.47797L9.83437 9.10556L8.3071 9.10548Z" fill="white"/>
</svg>
