<svg width="24" height="24" viewBox="0 0 24 24" fill="none" xmlns="http://www.w3.org/2000/svg">
<path d="M4 3C4 2.44772 4.44772 2 5 2H12.5928L12.7113 8.37334H20V21C20 21.5523 19.5523 22 19 22H5C4.44772 22 4 21.5523 4 21V3Z" fill="#D46164"/>
<path d="M12.594 2.00476L19.998 8.37936H12.594L12.594 2.00476Z" fill="#FFCFD0"/>
<path d="M19.9981 14.7539L12.594 8.37936H19.998L19.9981 14.7539Z" fill="#C05457" fill-opacity="0.75"/>
<path d="M6.4304 18.6156V14.252H8.06676C8.40199 14.252 8.68324 14.3145 8.91051 14.4395C9.1392 14.5645 9.31179 14.7363 9.42827 14.9551C9.54616 15.1724 9.60511 15.4196 9.60511 15.6966C9.60511 15.9764 9.54616 16.225 9.42827 16.4423C9.31037 16.6596 9.13636 16.8308 8.90625 16.9558C8.67614 17.0794 8.39276 17.1412 8.05611 17.1412H7.22088V16.4913H7.94957C8.1456 16.4913 8.30611 16.4572 8.43111 16.389C8.55611 16.3209 8.64844 16.2271 8.7081 16.1078C8.76918 15.9885 8.79972 15.8514 8.79972 15.6966C8.79972 15.5417 8.76918 15.4054 8.7081 15.2875C8.64844 15.1696 8.5554 15.078 8.42898 15.0126C8.30398 14.9459 8.14276 14.9125 7.94531 14.9125H7.22088V18.6156H6.4304Z" fill="white"/>
<path d="M11.7704 18.6156H10.2917V14.252H11.8002C12.2335 14.252 12.6056 14.3393 12.9167 14.514C13.2292 14.6873 13.4693 14.9366 13.6369 15.2619C13.8045 15.5872 13.8883 15.9764 13.8883 16.4295C13.8883 16.8841 13.8038 17.2747 13.6348 17.6014C13.4672 17.9281 13.225 18.1788 12.9082 18.3535C12.5929 18.5282 12.2136 18.6156 11.7704 18.6156ZM11.0822 17.9317H11.7321C12.036 17.9317 12.2896 17.8763 12.4927 17.7655C12.6958 17.6532 12.8485 17.4863 12.9508 17.2647C13.0531 17.0417 13.1042 16.7633 13.1042 16.4295C13.1042 16.0957 13.0531 15.8187 12.9508 15.5986C12.8485 15.377 12.6973 15.2115 12.497 15.1021C12.2981 14.9913 12.051 14.9359 11.7555 14.9359H11.0822V17.9317Z" fill="white"/>
<path d="M14.6394 18.6156V14.252H17.4348V14.9146H15.4299V16.0993H17.2431V16.7619H15.4299V18.6156H14.6394Z" fill="white"/>
</svg>
