<svg width="24" height="24" viewBox="0 0 24 24" fill="none" xmlns="http://www.w3.org/2000/svg">
<path d="M12.0002 17.3934C10.798 17.3934 9.81443 16.4098 9.81443 15.2077C9.81443 14.0055 10.798 13.0219 12.0002 13.0219C13.2024 13.0219 14.186 14.0055 14.186 15.2077C14.186 16.4098 13.2024 17.3934 12.0002 17.3934ZM12.0002 9.74318C14.5576 9.74318 19.6505 11.0109 19.6505 13.5683V19.1749C19.6505 20.1257 18.8964 20.9344 17.8363 21.5355V13.4372C17.8363 12.8251 14.8418 11.4262 12.0002 11.4262C9.15869 11.4262 6.16416 12.8251 6.16416 13.4372V19.306C6.16416 19.5792 6.87454 20.082 7.93465 20.5082C8.72154 19.5792 10.8308 19.0984 12.0002 19.0984C13.4538 19.0984 16.3718 19.8197 16.3718 21.2842V22.1913C14.8745 22.7268 13.1696 23 12.0002 23C10.8308 23 9.13684 22.7268 7.62864 22.1913C5.84722 21.5574 4.34995 20.5519 4.34995 19.1749V13.5683C4.34995 11.0109 9.44285 9.74318 12.0002 9.74318ZM12.0002 2.91257C10.9401 2.91257 10.0877 3.76503 10.0877 4.82514C10.0877 5.88525 10.9401 6.73771 12.0002 6.73771C13.0603 6.73771 13.9128 5.88525 13.9128 4.82514C13.9128 3.76503 13.0603 2.91257 12.0002 2.91257ZM12.0002 8.65028C9.89093 8.65028 8.17509 6.93443 8.17509 4.82514C8.17509 2.71585 9.89093 1.00001 12.0002 1.00001C14.1095 1.00001 15.8254 2.71585 15.8254 4.82514C15.8254 6.93443 14.1095 8.65028 12.0002 8.65028Z" fill="black"/>
<path fill-rule="evenodd" clip-rule="evenodd" d="M17.6863 21.793V13.4372C17.6863 13.4178 17.6711 13.3646 17.5907 13.2756C17.5147 13.1914 17.3977 13.0944 17.2407 12.9895C16.9275 12.7803 16.4751 12.5527 15.9298 12.3421C14.8393 11.921 13.3987 11.5762 12.0002 11.5762C10.6017 11.5762 9.16118 11.921 8.07065 12.3421C7.52535 12.5527 7.07296 12.7803 6.75978 12.9895C6.60275 13.0944 6.48573 13.1914 6.40971 13.2756C6.32933 13.3646 6.31416 13.4178 6.31416 13.4372V19.306C6.31416 19.3158 6.32518 19.3623 6.40311 19.4487C6.47549 19.529 6.58705 19.6232 6.73682 19.7261C7.01679 19.9185 7.41414 20.1304 7.89364 20.3294C8.32677 19.8729 9.04444 19.5367 9.78008 19.3115C10.5643 19.0714 11.3988 18.9484 12.0002 18.9484C12.7455 18.9484 13.8573 19.1321 14.7867 19.5028C15.2515 19.6881 15.6801 19.9239 15.9949 20.2146C16.3109 20.5063 16.5218 20.8632 16.5218 21.2842V22.2969L16.4223 22.3325C14.9097 22.8735 13.1877 23.15 12.0002 23.15C10.8125 23.15 9.10161 22.8734 7.57845 22.3326C6.67887 22.0125 5.84066 21.5952 5.22464 21.0765C4.60819 20.5574 4.19995 19.9235 4.19995 19.1749V13.5683C4.19995 12.8741 4.54678 12.2783 5.08383 11.7816C5.61978 11.286 6.35475 10.8794 7.1604 10.5574C8.7715 9.91356 10.703 9.59318 12.0002 9.59318C13.2974 9.59318 15.229 9.91356 16.84 10.5574C17.6457 10.8794 18.3807 11.286 18.9166 11.7816C19.4537 12.2783 19.8005 12.8741 19.8005 13.5683V19.1749C19.8005 20.2104 18.9825 21.058 17.9103 21.666L17.6863 21.793ZM7.93465 20.5082C6.87454 20.082 6.16416 19.5792 6.16416 19.306V13.4372C6.16416 12.8251 9.15869 11.4262 12.0002 11.4262C14.8418 11.4262 17.8363 12.8251 17.8363 13.4372V21.5355C17.887 21.5068 17.937 21.4775 17.9863 21.4478C18.9668 20.8567 19.6505 20.0802 19.6505 19.1749V13.5683C19.6505 11.0109 14.5576 9.74318 12.0002 9.74318C9.44285 9.74318 4.34995 11.0109 4.34995 13.5683V19.1749C4.34995 20.5519 5.84722 21.5574 7.62864 22.1913C9.13684 22.7268 10.8308 23 12.0002 23C13.1696 23 14.8745 22.7268 16.3718 22.1913V21.2842C16.3718 19.8197 13.4538 19.0984 12.0002 19.0984C10.8308 19.0984 8.72154 19.5792 7.93465 20.5082ZM12.0002 17.5434C10.7152 17.5434 9.66443 16.4927 9.66443 15.2077C9.66443 13.9226 10.7152 12.8719 12.0002 12.8719C13.2853 12.8719 14.336 13.9226 14.336 15.2077C14.336 16.4927 13.2853 17.5434 12.0002 17.5434ZM12.0002 3.06257C11.023 3.06257 10.2377 3.84788 10.2377 4.82514C10.2377 5.80241 11.023 6.58771 12.0002 6.58771C12.9775 6.58771 13.7628 5.80241 13.7628 4.82514C13.7628 3.84788 12.9775 3.06257 12.0002 3.06257ZM12.0002 8.80028C9.80809 8.80028 8.02509 7.01728 8.02509 4.82514C8.02509 2.63301 9.80809 0.850006 12.0002 0.850006C14.1924 0.850006 15.9754 2.63301 15.9754 4.82514C15.9754 7.01728 14.1924 8.80028 12.0002 8.80028ZM9.81443 15.2077C9.81443 16.4098 10.798 17.3934 12.0002 17.3934C13.2024 17.3934 14.186 16.4098 14.186 15.2077C14.186 14.0055 13.2024 13.0219 12.0002 13.0219C10.798 13.0219 9.81443 14.0055 9.81443 15.2077ZM10.0877 4.82514C10.0877 3.76503 10.9401 2.91257 12.0002 2.91257C13.0603 2.91257 13.9128 3.76503 13.9128 4.82514C13.9128 5.88525 13.0603 6.73771 12.0002 6.73771C10.9401 6.73771 10.0877 5.88525 10.0877 4.82514ZM8.17509 4.82514C8.17509 6.93443 9.89093 8.65028 12.0002 8.65028C14.1095 8.65028 15.8254 6.93443 15.8254 4.82514C15.8254 2.71585 14.1095 1.00001 12.0002 1.00001C9.89093 1.00001 8.17509 2.71585 8.17509 4.82514Z" fill="black"/>
</svg>
