<svg width="24" height="24" viewBox="0 0 24 24" fill="none" xmlns="http://www.w3.org/2000/svg">
<path d="M20 9.99999C18.58 7.56999 15.5 6.68999 13 7.99999V2.99999H11V7.99999C8.50002 6.68999 5.42002 7.56999 4.00002 9.99999C2.00002 13 7.00002 22 9.00002 22C11 22 11 21 12 21C13 21 13 22 15 22C17 22 22 13 20 9.99999ZM18.25 13.38C17.63 15.85 16.41 18.12 14.7 20C14.5 20 14.27 19.9 14.1 19.75C12.87 18.76 11.13 18.76 9.90002 19.75C9.73002 19.9 9.50002 20 9.30002 20C7.59002 18.13 6.36002 15.85 5.75002 13.39C5.50002 12.66 5.45002 11.87 5.66002 11.12C6.24002 10.09 7.32002 9.42999 8.50002 9.39999C9.06002 9.40999 9.61002 9.53999 10.11 9.78999L11 10.24H13L13.89 9.78999C14.39 9.53999 14.94 9.40999 15.5 9.39999C16.68 9.42999 17.76 10.08 18.34 11.11C18.55 11.86 18.5 12.65 18.25 13.38ZM11 4.99999C5.38002 8.06999 4.11002 3.77999 4.11002 3.77999C4.11002 3.77999 6.77002 0.18999 11 4.99999Z" fill="black"/>
</svg>
