<svg width="24" height="24" viewBox="0 0 24 24" fill="none" xmlns="http://www.w3.org/2000/svg">
<path d="M21.1667 4H2.83333C1.83417 4.03667 1.03667 4.83417 1 5.83333V18.6667C1.03667 19.6658 1.83417 20.4633 2.83333 20.5H21.1667C22.1658 20.4633 22.9633 19.6658 23 18.6667V5.83333C22.9633 4.83417 22.1658 4.03667 21.1667 4ZM21.1667 18.6667H2.83333V5.83333H21.1667V18.6667ZM13.8333 16.8333V15.6875C13.8333 14.1658 10.7717 13.3958 9.25 13.3958C7.72833 13.3958 4.66667 14.1658 4.66667 15.6875V16.8333H13.8333ZM9.25 7.66667C8.64221 7.66667 8.05932 7.90811 7.62955 8.33788C7.19978 8.76765 6.95833 9.35055 6.95833 9.95833C6.95833 10.2593 7.01761 10.5573 7.13278 10.8353C7.24794 11.1134 7.41675 11.366 7.62955 11.5788C8.05932 12.0086 8.64221 12.25 9.25 12.25C9.55095 12.25 9.84895 12.1907 10.127 12.0756C10.405 11.9604 10.6577 11.7916 10.8705 11.5788C11.0833 11.366 11.2521 11.1134 11.3672 10.8353C11.4824 10.5573 11.5417 10.2593 11.5417 9.95833C11.5417 9.65739 11.4824 9.35939 11.3672 9.08135C11.2521 8.80331 11.0833 8.55068 10.8705 8.33788C10.6577 8.12508 10.405 7.95628 10.127 7.84111C9.84895 7.72594 9.55095 7.66667 9.25 7.66667ZM13.8333 7.66667V8.58333H19.3333V7.66667H13.8333ZM13.8333 9.5V10.4167H19.3333V9.5H13.8333ZM13.8333 11.3333V12.25H17.5V11.3333H13.8333Z" fill="black"/>
</svg>
