<svg width="24" height="24" viewBox="0 0 24 24" fill="none" xmlns="http://www.w3.org/2000/svg">
<path d="M9 20C9 21.1 8.1 22 7 22C5.9 22 5 21.1 5 20C5 18.9 5.9 18 7 18C8.1 18 9 18.9 9 20ZM17 18C15.9 18 15 18.9 15 20C15 21.1 15.9 22 17 22C18.1 22 19 21.1 19 20C19 18.9 18.1 18 17 18ZM7.2 14.8V14.7L8.1 13H15.5C16.2 13 16.9 12.6 17.2 12L21.1 5.00002L19.4 4.00002L15.5 11H8.5L4.3 2.00002H1V4.00002H3L6.6 11.6L5.2 14C5.1 14.3 5 14.6 5 15C5 16.1 5.9 17 7 17H19V15H7.4C7.3 15 7.2 14.9 7.2 14.8ZM18 2.80002L16.6 1.40002L11.8 6.20002L9.2 3.60002L7.8 5.00002L11.8 9.00002L18 2.80002Z" fill="black"/>
</svg>
