<svg width="24" height="24" viewBox="0 0 24 24" fill="none" xmlns="http://www.w3.org/2000/svg">
<path d="M13.54 23H6C4.9 23 4 22.11 4 21V3C4 1.89 4.89 1 6 1H16C17.1 1 18 1.89 18 3V13C17.3 13 16.63 13.13 16 13.35V5H6V19H12C12 20.54 12.58 21.94 13.54 23Z" fill="black"/>
<path fill-rule="evenodd" clip-rule="evenodd" d="M17.4 22.8L18 23.3L18.6 22.8C18.7515 22.6561 18.8996 22.5161 19.0439 22.3798C20.8041 20.7165 22 19.5864 22 18.2C22 16.9 21 16 19.8 16C19.1 16 18.4 16.3 18 16.8C17.6 16.3 16.9 16 16.2 16C15 16 14 17 14 18.2C14 19.5864 15.1959 20.7165 16.9561 22.3798C17.1004 22.5161 17.2485 22.6561 17.4 22.8Z" fill="black"/>
</svg>
