<svg width="688" height="464" viewBox="0 0 688 464" fill="none" xmlns="http://www.w3.org/2000/svg">
<rect x="0.5" y="0.5" width="687" height="463" rx="31.5" fill="white"/>
<rect x="0.5" y="0.5" width="687" height="463" rx="31.5" stroke="#CCCCCC"/>
<path d="M102 85.72L97.4 81.86L96.11 83.39L100.71 87.25L102 85.72ZM87.88 83.39L86.6 81.86L82 85.71L83.29 87.24L87.88 83.39ZM92.5 88H91V94L95.75 96.85L96.5 95.62L92.5 93.25V88ZM92 84C87.03 84 83 88.03 83 93C83 97.97 87.02 102 92 102C96.97 102 101 97.97 101 93C101 88.03 96.97 84 92 84ZM92 100C88.13 100 85 96.87 85 93C85 89.13 88.13 86 92 86C95.87 86 99 89.13 99 93C99 96.87 95.87 100 92 100Z" fill="black"/>
<path d="M148 82C142.5 82 138 86.5 138 92C138 97.5 142.5 102 148 102C153.5 102 158 97.5 158 92C158 86.5 153.5 82 148 82ZM148 100C143.59 100 140 96.41 140 92C140 87.59 143.59 84 148 84C152.41 84 156 87.59 156 92C156 96.41 152.41 100 148 100ZM148.5 87H147V93L152.2 96.2L153 94.9L148.5 92.2V87Z" fill="black"/>
<path d="M199.88 83.39L198.6 81.86L194 85.71L195.29 87.24L199.88 83.39ZM214 85.72L209.4 81.86L208.11 83.39L212.71 87.25L214 85.72ZM204 84C199.03 84 195 88.03 195 93C195 97.97 199.02 102 204 102C208.97 102 213 97.97 213 93C213 88.03 208.97 84 204 84ZM204 100C200.13 100 197 96.87 197 93C197 89.13 200.13 86 204 86C207.87 86 211 89.13 211 93C211 96.87 207.87 100 204 100ZM205 89H203V92H200V94H203V97H205V94H208V92H205V89Z" fill="black"/>
<path d="M266 81.01L256 81C254.9 81 254 81.9 254 83V86H256V85H266V99H256V98H254V101C254 102.1 254.9 103 256 103H266C267.1 103 268 102.1 268 101V83C268 81.9 267.1 81.01 266 81.01ZM258 95H260V88H253V90H256.59L251 95.59L252.41 97L258 91.41V95Z" fill="black"/>
<path d="M321 81H311C309.9 81 309 81.9 309 83V101C309 102.1 309.9 103 311 103H321C322.1 103 323 102.1 323 101V83C323 81.9 322.1 81 321 81ZM311 84V83H321V84H311ZM311 98V86H321V98H311ZM311 101V100H321V101H311Z" fill="black"/>
<path d="M320 87H312V89H320V87Z" fill="black"/>
<path d="M382 96V94L373.5 89V83.5C373.5 82.67 372.83 82 372 82C371.17 82 370.5 82.67 370.5 83.5V89L362 94V96L370.5 93.5V99L368 100.5V102L372 101L376 102V100.5L373.5 99V93.5L382 96Z" fill="black"/>
<path d="M426.5 87.67V83.5C426.5 82.67 427.17 82 428 82C428.83 82 429.5 82.67 429.5 83.5V89L438 94V96L433.51 94.68L426.5 87.67ZM435.78 102.61L437.19 101.2L429.5 93.5L425.56 89.56L418.81 82.81L417.39 84.22L423.77 90.6L418 94V96L426.5 93.5V99L424 100.5V102L428 101L432 102V100.5L429.5 99V96.33L435.78 102.61Z" fill="black"/>
<path d="M487.67 84H486V82H482V84H480.33C479.6 84 479 84.6 479 85.33V100.66C479 101.4 479.6 102 480.33 102H487.66C488.4 102 489 101.4 489 100.67V85.33C489 84.6 488.4 84 487.67 84ZM485 98H483V96H485V98ZM485 94H483V89H485V94Z" fill="black"/>
<path d="M543.67 84H542V82H538V84H536.33C535.6 84 535 84.6 535 85.33V100.66C535 101.4 535.6 102 536.33 102H543.66C544.4 102 545 101.4 545 100.67V85.33C545 84.6 544.4 84 543.67 84ZM539 100V94.5H537L541 87V92.5H543L539 100Z" fill="black"/>
<path d="M599.67 84H598V82H594V84H592.33C591.6 84 591 84.6 591 85.33V100.66C591 101.4 591.6 102 592.33 102H599.66C600.4 102 601 101.4 601 100.67V85.33C601 84.6 600.4 84 599.67 84Z" fill="black"/>
<path d="M95.67 140H94V138H90V140H88.33C87.6 140 87 140.6 87 141.33V156.66C87 157.4 87.6 158 88.33 158H95.66C96.4 158 97 157.4 97 156.67V141.33C97 140.6 96.4 140 95.67 140ZM93 154H91V152H93V154ZM94.3 148.69C94.3 148.69 93.92 149.11 93.63 149.4C93.15 149.88 92.8 150.55 92.8 151H91.2C91.2 150.17 91.66 149.48 92.13 149L93.06 148.06C93.33 147.79 93.5 147.41 93.5 147C93.5 146.17 92.83 145.5 92 145.5C91.17 145.5 90.5 146.17 90.5 147H89C89 145.34 90.34 144 92 144C93.66 144 95 145.34 95 147C95 147.66 94.73 148.26 94.3 148.69Z" fill="black"/>
<path d="M153.71 143.71L148 138H147V145.59L142.41 141L141 142.41L146.59 148L141 153.59L142.41 155L147 150.41V158H148L153.71 152.29L149.41 148L153.71 143.71ZM149 141.83L150.88 143.71L149 145.59V141.83ZM150.88 152.29L149 154.17V150.41L150.88 152.29Z" fill="black"/>
<path d="M199 148L197 146L195 148L197 150L199 148ZM209.71 143.71L204 138H203V145.59L198.41 141L197 142.41L202.59 148L197 153.59L198.41 155L203 150.41V158H204L209.71 152.29L205.41 148L209.71 143.71ZM205 141.83L206.88 143.71L205 145.59V141.83ZM206.88 152.29L205 154.17V150.41L206.88 152.29ZM211 146L209 148L211 150L213 148L211 146Z" fill="black"/>
<path d="M261 141.83L262.88 143.71L261.28 145.31L262.69 146.72L265.71 143.7L260 138H259V143.03L261 145.03V141.83ZM253.41 140L252 141.41L258.59 148L253 153.59L254.41 155L259 150.41V158H260L264.29 153.71L266.59 156L268 154.59L253.41 140ZM261 154.17V150.41L262.88 152.29L261 154.17Z" fill="black"/>
<path d="M318.24 148.01L320.56 150.33C320.84 149.61 321 148.82 321 148C321 147.18 320.84 146.41 320.57 145.69L318.24 148.01ZM323.53 142.71L322.27 143.97C322.9 145.18 323.25 146.54 323.25 147.99C323.25 149.44 322.89 150.81 322.27 152.01L323.47 153.21C324.44 151.67 325.01 149.85 325.01 147.9C325 146.01 324.46 144.23 323.53 142.71ZM319.71 143.71L314 138H313V145.59L308.41 141L307 142.41L312.59 148L307 153.59L308.41 155L313 150.41V158H314L319.71 152.29L315.41 148L319.71 143.71ZM315 141.83L316.88 143.71L315 145.59V141.83ZM316.88 152.29L315 154.17V150.41L316.88 152.29Z" fill="black"/>
<g clip-path="url(#clip0_4136_13923)">
<path d="M371 143L367.8 152H369.7L370.4 150H373.6L374.3 152H376.2L373 143H371ZM370.85 148.65L372 145L373.15 148.65H370.85ZM380 144.69V140H375.31L372 136.69L368.69 140H364V144.69L360.69 148L364 151.31V156H368.69L372 159.31L375.31 156H380V151.31L383.31 148L380 144.69ZM378 150.48V154H374.48L372 156.48L369.52 154H366V150.48L363.52 148L366 145.52V142H369.52L372 139.52L374.48 142H378V145.52L380.48 148L378 150.48Z" fill="black"/>
</g>
<g clip-path="url(#clip1_4136_13923)">
<path d="M436 144.69V140H431.31L428 136.69L424.69 140H420V144.69L416.69 148L420 151.31V156H424.69L428 159.31L431.31 156H436V151.31L439.31 148L436 144.69ZM434 150.48V154H430.48L428 156.48L425.52 154H422V150.48L419.52 148L422 145.52V142H425.52L428 139.52L430.48 142H434V145.52L436.48 148L434 150.48ZM428 142C424.69 142 422 144.69 422 148C422 151.31 424.69 154 428 154C431.31 154 434 151.31 434 148C434 144.69 431.31 142 428 142ZM428 152C425.79 152 424 150.21 424 148C424 145.79 425.79 144 428 144C430.21 144 432 145.79 432 148C432 150.21 430.21 152 428 152Z" fill="black"/>
<path d="M428 150.5C429.381 150.5 430.5 149.381 430.5 148C430.5 146.619 429.381 145.5 428 145.5C426.619 145.5 425.5 146.619 425.5 148C425.5 149.381 426.619 150.5 428 150.5Z" fill="black"/>
</g>
<g clip-path="url(#clip2_4136_13923)">
<path d="M492 144.69V140H487.31L484 136.69L480.69 140H476V144.69L472.69 148L476 151.31V156H480.69L484 159.31L487.31 156H492V151.31L495.31 148L492 144.69ZM490 150.48V154H486.48L484 156.48L481.52 154H478V150.48L475.52 148L478 145.52V142H481.52L484 139.52L486.48 142H490V145.52L492.48 148L490 150.48ZM484 142C480.69 142 478 144.69 478 148C478 151.31 480.69 154 484 154C487.31 154 490 151.31 490 148C490 144.69 487.31 142 484 142ZM484 152C481.79 152 480 150.21 480 148C480 145.79 481.79 144 484 144C486.21 144 488 145.79 488 148C488 150.21 486.21 152 484 152Z" fill="black"/>
</g>
<g clip-path="url(#clip3_4136_13923)">
<path d="M548 144.69V140H543.31L540 136.69L536.69 140H532V144.69L528.69 148L532 151.31V156H536.69L540 159.31L543.31 156H548V151.31L551.31 148L548 144.69ZM546 150.48V154H542.48L540 156.48L537.52 154H534V150.48L531.52 148L534 145.52V142H537.52L540 139.52L542.48 142H546V145.52L548.48 148L546 150.48ZM540 142V154C543.31 154 546 151.31 546 148C546 144.69 543.31 142 540 142Z" fill="black"/>
</g>
<path d="M597 138.05V141.08C600.39 141.57 603 144.47 603 148C603 148.9 602.82 149.75 602.52 150.54L605.12 152.07C605.68 150.83 606 149.45 606 148C606 142.82 602.05 138.55 597 138.05ZM596 155C592.13 155 589 151.87 589 148C589 144.47 591.61 141.57 595 141.08V138.05C589.94 138.55 586 142.81 586 148C586 153.52 590.47 158 595.99 158C599.3 158 602.23 156.39 604.05 153.91L601.45 152.38C600.17 153.98 598.21 155 596 155Z" fill="black"/>
<path d="M87 197H97V199H99V195C99 193.9 98.1 193.01 97 193.01L87 193C85.9 193 85 193.9 85 195V199H87V197ZM95.41 208.59L100 204L95.41 199.41L94 200.83L97.17 204L94 207.17L95.41 208.59ZM90 207.17L86.83 204L90 200.83L88.59 199.41L84 204L88.59 208.59L90 207.17ZM97 211H87V209H85V213C85 214.1 85.9 215 87 215H97C98.1 215 99 214.1 99 213V209H97V211Z" fill="black"/>
<path d="M140 198H158V196H140C138.9 196 138 196.9 138 198V209H136V212H150V209H140V198ZM159 200H153C152.45 200 152 200.45 152 201V211C152 211.55 152.45 212 153 212H159C159.55 212 160 211.55 160 211V201C160 200.45 159.55 200 159 200ZM158 209H154V202H158V209Z" fill="black"/>
<path d="M213 195H195C193.9 195 193 195.9 193 197V209C193 210.1 193.9 211 195 211H200V213H208V211H213C214.1 211 215 210.1 215 209V197C215 195.9 214.1 195 213 195ZM213 209H195V197H213V209ZM211 200H200V202H211V200ZM211 204H200V206H211V204ZM199 200H197V202H199V200ZM199 204H197V206H199V204Z" fill="black"/>
<path d="M255 210H257V198H255V210ZM259 214H261V194H259V214ZM251 206H253V202H251V206ZM263 210H265V198H263V210ZM267 202V206H269V202H267Z" fill="black"/>
<path d="M316 200C313.79 200 312 201.79 312 204C312 206.21 313.79 208 316 208C318.21 208 320 206.21 320 204C320 201.79 318.21 200 316 200ZM324.94 203C324.48 198.83 321.17 195.52 317 195.06V193H315V195.06C310.83 195.52 307.52 198.83 307.06 203H305V205H307.06C307.52 209.17 310.83 212.48 315 212.94V215H317V212.94C321.17 212.48 324.48 209.17 324.94 205H327V203H324.94ZM316 211C312.13 211 309 207.87 309 204C309 200.13 312.13 197 316 197C319.87 197 323 200.13 323 204C323 207.87 319.87 211 316 211Z" fill="black"/>
<path d="M383 205V203H380.94C380.48 198.83 377.17 195.52 373 195.06V193H371V195.06C370.02 195.17 369.09 195.44 368.23 195.84L369.76 197.37C370.46 197.13 371.22 197 372 197C375.87 197 379 200.13 379 204C379 204.79 378.87 205.54 378.63 206.24L380.16 207.77C380.56 206.91 380.83 205.98 380.94 205H383ZM364.41 194.86L363 196.27L365.04 198.31C363.97 199.62 363.26 201.23 363.06 203H361V205H363.06C363.52 209.17 366.83 212.48 371 212.94V215H373V212.94C374.77 212.74 376.38 212.03 377.69 210.96L379.73 213L381.14 211.59L364.41 194.86ZM372 211C368.13 211 365 207.87 365 204C365 202.39 365.55 200.91 366.46 199.73L376.27 209.54C375.09 210.45 373.61 211 372 211Z" fill="black"/>
<path d="M436.94 203C436.48 198.83 433.17 195.52 429 195.06V193H427V195.06C422.83 195.52 419.52 198.83 419.06 203H417V205H419.06C419.52 209.17 422.83 212.48 427 212.94V215H429V212.94C433.17 212.48 436.48 209.17 436.94 205H439V203H436.94ZM428 211C424.13 211 421 207.87 421 204C421 200.13 424.13 197 428 197C431.87 197 435 200.13 435 204C435 207.87 431.87 211 428 211Z" fill="black"/>
<path d="M491 193H481C479.9 193 479 193.9 479 195V198H481V196H491V212H481V210H479V213C479 214.1 479.9 215 481 215H491C492.1 215 493 214.1 493 213V195C493 193.9 492.1 193 491 193ZM479.01 205.47L476.46 202.92L475.19 204.19L479 208L486.19 200.81L484.92 199.54L479.01 205.47Z" fill="black"/>
<path d="M541.54 215H534C532.9 215 532 214.11 532 213V195C532 193.89 532.89 193 534 193H544C545.1 193 546 193.89 546 195V205C545.3 205 544.63 205.13 544 205.35V197H534V211H540C540 212.54 540.58 213.94 541.54 215ZM544.75 214.16L542 211.16L543.16 210L544.75 211.59L548.34 208L549.5 209.41L544.75 214.16Z" fill="black"/>
<path d="M597 200.2L596 199.2L592 203.2L588 199.2L587 200.2L591 204.2L587 208.2L588 209.2L592 205.2L596 209.2L597 208.2L593 204.2L597 200.2ZM603 193H593C591.9 193 591 193.9 591 195V198H593V196H603V212H593V210H591V213C591 214.1 591.9 215 593 215H603C604.1 215 605 214.1 605 213V195C605 193.9 604.1 193 603 193Z" fill="black"/>
<path d="M99 249H89C87.9 249 87 249.9 87 251V254H89V252H99V268H89V266H87V269C87 270.1 87.9 271 89 271H99C100.1 271 101 270.1 101 269V251C101 249.9 100.1 249 99 249ZM90.8 259V257.5C90.8 256.1 89.4 255 88 255C86.6 255 85.2 256.1 85.2 257.5V259C84.6 259 84 259.6 84 260.2V263.7C84 264.4 84.6 265 85.2 265H90.7C91.4 265 92 264.4 92 263.8V260.3C92 259.6 91.4 259 90.8 259ZM89.5 259H86.5V257.5C86.5 256.7 87.2 256.2 88 256.2C88.8 256.2 89.5 256.7 89.5 257.5V259Z" fill="black"/>
<path d="M156.1 255.7L155.1 256.7C156.9 258.5 156.9 261.3 155.1 263.2L156.1 264.2C158.6 261.9 158.6 258.1 156.1 255.7ZM154 257.8L153 258.8C153.5 259.5 153.5 260.4 153 261.1L154 262.1C155.2 260.9 155.2 259.1 154 257.8ZM150 249H140C138.9 249 138 249.9 138 251V269C138 270.1 138.9 271 140 271H150C151.1 271 152 270.1 152 269V251C152 249.9 151.1 249 150 249ZM150 268H140V252H150V268Z" fill="black"/>
<path d="M199 251V254H201V252H211V268H201V266H199V269C199 270.1 199.9 271 201 271H211C212.1 271 213 270.1 213 269V251C213 249.9 212.1 249 211 249H201C199.9 249 199 249.9 199 251ZM201.5 263.5C201.79 263.38 202.05 263.21 202.3 263.02L202.28 263.05L203.29 263.44C203.52 263.53 203.78 263.44 203.9 263.22L204.74 261.76C204.86 261.55 204.81 261.27 204.62 261.12L203.77 260.44L203.75 260.47C203.77 260.31 203.8 260.15 203.8 259.99C203.8 259.83 203.77 259.67 203.75 259.51L203.77 259.54L204.62 258.86C204.81 258.71 204.86 258.43 204.74 258.22L203.9 256.76C203.78 256.55 203.52 256.45 203.29 256.54L202.28 256.93L202.3 256.96C202.05 256.79 201.79 256.62 201.5 256.5L201.33 255.42C201.3 255.18 201.09 255 200.84 255H199.16C198.91 255 198.7 255.18 198.67 255.42L198.5 256.5C198.21 256.62 197.95 256.79 197.7 256.98L197.72 256.95L196.7 256.56C196.47 256.47 196.21 256.56 196.09 256.78L195.25 258.24C195.13 258.45 195.18 258.73 195.37 258.88L196.22 259.56L196.24 259.53C196.22 259.68 196.19 259.84 196.19 260C196.19 260.16 196.22 260.32 196.24 260.48L196.22 260.45L195.37 261.13C195.18 261.28 195.13 261.56 195.25 261.77L196.09 263.23C196.21 263.44 196.47 263.54 196.7 263.45L197.71 263.06L197.7 263.02C197.95 263.21 198.21 263.38 198.5 263.5L198.67 264.57C198.7 264.82 198.91 265 199.16 265H200.84C201.09 265 201.3 264.82 201.33 264.58L201.5 263.5ZM198 260C198 258.9 198.9 258 200 258C201.1 258 202 258.9 202 260C202 261.1 201.1 262 200 262C198.9 262 198 261.1 198 260Z" fill="black"/>
<path d="M265 253V261.61L267 263.61V251C267 249.9 266.1 249 265 249H255C254.29 249 253.67 249.37 253.32 249.93L256.39 253H265ZM249.49 251.76L253 255.27V269C253 270.1 253.9 271 255 271H265C266.02 271 266.85 270.23 266.98 269.25L268.7 270.97L270.11 269.56L250.9 250.35L249.49 251.76ZM255 257.27L264.73 267H255V257.27Z" fill="black"/>
<path d="M324 250H308C306.9 250 306 250.9 306 252V268C306 269.1 306.9 270 308 270H324C325.1 270 326 269.1 326 268V252C326 250.9 325.1 250 324 250ZM324 268H308V252H324V268ZM322 254H317C315.9 254 315 254.9 315 256V258.28C314.4 258.63 314 259.26 314 260C314 261.1 314.9 262 316 262C317.1 262 318 261.1 318 260C318 259.26 317.6 258.62 317 258.28V256H320V264H312V256H314V254H310V266H322V254Z" fill="black"/>
<path d="M381 253H363C361.9 253 361 253.9 361 255V265C361 266.1 361.9 267 363 267H381C382.1 267 383 266.1 383 265V255C383 253.9 382.1 253 381 253ZM379 265H365V255H379V265ZM370 264H374C374.55 264 375 263.55 375 263V260C375 259.45 374.55 259 374 259V258C374 256.89 373.1 256 372 256C370.89 256 370 256.9 370 258V259C369.45 259 369 259.45 369 260V263C369 263.55 369.45 264 370 264ZM370.8 258C370.8 257.34 371.34 256.8 372 256.8C372.66 256.8 373.2 257.34 373.2 258V259H370.8V258Z" fill="black"/>
<path d="M426 264H430C430.55 264 431 263.55 431 263V260C431 259.45 430.55 259 430 259V258C430 256.89 429.1 256 428 256C426.89 256 426 256.9 426 258V259C425.45 259 425 259.45 425 260V263C425 263.55 425.45 264 426 264ZM426.8 258C426.8 257.34 427.34 256.8 428 256.8C428.66 256.8 429.2 257.34 429.2 258V259H426.8V258ZM433 249H423C421.9 249 421 249.9 421 251V269C421 270.1 421.9 271 423 271H433C434.1 271 435 270.1 435 269V251C435 249.9 434.1 249 433 249ZM433 267H423V253H433V267Z" fill="black"/>
<path d="M494.3 261.77L491.73 259.2L490.32 260.61L492.54 262.83L486.88 268.49L475.56 257.17L481.22 251.51L483.32 253.61L484.73 252.2L482.28 249.75C481.69 249.16 480.74 249.16 480.16 249.75L473.8 256.11C473.21 256.7 473.21 257.65 473.8 258.23L485.82 270.25C486.41 270.84 487.36 270.84 487.94 270.25L494.3 263.89C494.89 263.3 494.89 262.35 494.3 261.77ZM479.52 269.48C476.25 267.94 473.91 264.76 473.55 261H472.05C472.56 267.16 477.71 272 484 272L484.66 271.97L480.85 268.15L479.52 269.48ZM487.05 258H492.05C492.6 258 493.05 257.55 493.05 257V253C493.05 252.45 492.6 252 492.05 252V251.5C492.05 250.12 490.93 249 489.55 249C488.17 249 487.05 250.12 487.05 251.5V252C486.5 252 486.05 252.45 486.05 253V257C486.05 257.55 486.5 258 487.05 258ZM487.85 251.5C487.85 250.56 488.61 249.8 489.55 249.8C490.49 249.8 491.25 250.56 491.25 251.5V252H487.85V251.5Z" fill="black"/>
<g clip-path="url(#clip4_4136_13923)">
<path d="M544.48 250.52C547.75 252.07 550.09 255.24 550.45 259H551.95C551.44 252.84 546.29 248 540 248L539.34 248.03L543.15 251.84L544.48 250.52ZM538.23 249.75C537.64 249.16 536.69 249.16 536.11 249.75L529.75 256.11C529.16 256.7 529.16 257.65 529.75 258.23L541.77 270.25C542.36 270.84 543.31 270.84 543.89 270.25L550.25 263.89C550.84 263.3 550.84 262.35 550.25 261.77L538.23 249.75ZM542.83 269.19L530.81 257.17L537.17 250.81L549.19 262.83L542.83 269.19ZM535.52 269.48C532.25 267.94 529.91 264.76 529.55 261H528.05C528.56 267.16 533.71 272 540 272L540.66 271.97L536.85 268.16L535.52 269.48Z" fill="black"/>
</g>
<path d="M602 252V268H590V256.83L594.83 252H602ZM602 250H594L588 256V268C588 269.1 588.9 270 590 270H602C603.1 270 604 269.1 604 268V252C604 250.9 603.1 250 602 250ZM593 255H595V259H593V255ZM596 255H598V259H596V255ZM599 255H601V259H599V255Z" fill="black"/>
<path d="M95.5 321H89C86.79 321 85 319.21 85 317C85 315.07 86.36 313.44 88.22 313.08C89.04 311.8 90.47 311 92 311C93.95 311 95.66 312.28 96.26 314.09C97.84 314.45 99 315.84 99 317.5C99 319.43 97.43 321 95.5 321ZM88.74 315.02C87.74 315.15 87 315.99 87 317C87 318.1 87.9 319 89 319H95.5C96.33 319 97 318.33 97 317.5C97 316.67 96.33 316 95.5 316H94.63L94.46 315.14C94.29 313.92 93.23 313 92 313C91.04 313 90.16 313.57 89.74 314.45L89.47 315.02H88.74ZM101 307H83C81.9 307 81 307.9 81 309V323C81 324.1 81.9 325 83 325H101C102.1 325 103 324.1 103 323V309C103 307.9 102.1 307 101 307ZM101 323.01H83V308.99H101V323.01Z" fill="black"/>
<path d="M138 326H158V306L138 326Z" fill="black"/>
<path d="M209 308H212V324H209V308ZM197 318H200V324H197V318ZM203 313H206V324H203V313Z" fill="black"/>
<path d="M268 322H270V314H268V322ZM268 326H270V324H268V326ZM250 326H266V312H270V306L250 326Z" fill="black"/>
<path d="M314.83 309H321V318.11L323 320.11V309C323 307.9 322.1 307 321 307H314L311.94 309.06L313.36 310.48L314.83 309ZM325.26 325.21L307.79 307.74L306.38 309.15L309 311.77V323C309 324.11 309.9 325 311 325H322.23L323.85 326.62L325.26 325.21ZM311 323V313.79L320.23 323H311Z" fill="black"/>
<path d="M380 310.83V324H366.83L380 310.83ZM382 306L362 326H382V306Z" fill="black"/>
<path d="M437 305L428.69 313.31L437 321.61V305ZM420.91 308.36L419.5 309.77L425.86 316.14L417 325H434.73L436.73 327L438.14 325.59L420.91 308.36Z" fill="black"/>
<path d="M484.01 325.49L495.64 311C495.19 310.66 490.71 307 484 307C477.28 307 472.81 310.66 472.36 311L483.99 325.49L484 325.5L484.01 325.49Z" fill="black"/>
<path d="M548.5 313.5C548.86 313.5 549.21 313.54 549.55 313.61L551.64 311C551.19 310.66 546.71 307 540 307C533.28 307 528.81 310.66 528.36 311L540 325.5L543.5 321.14V318.5C543.5 315.7 545.7 313.5 548.5 313.5ZM551 320V318.5C551 317.1 549.9 316 548.5 316C547.1 316 546 317.1 546 318.5V320C545.5 320 545 320.5 545 321V325C545 325.5 545.5 326 546 326H551C551.5 326 552 325.5 552 325V321C552 320.5 551.5 320 551 320ZM550 320H547V318.5C547 317.7 547.7 317 548.5 317C549.3 317 550 317.7 550 318.5V320Z" fill="black"/>
<path d="M607.64 311C607.19 310.66 602.71 307 596 307C594.68 307 593.45 307.14 592.31 307.38L602.43 317.5L607.64 311ZM587.41 305.31L586 306.72L588.05 308.77C585.91 309.76 584.59 310.82 584.36 311L596 325.5L599.91 320.63L603.23 323.95L604.64 322.54L587.41 305.31Z" fill="black"/>
<path d="M82 380H102V376H82V380ZM84 377H86V379H84V377ZM82 364V368H102V364H82ZM86 367H84V365H86V367ZM82 374H102V370H82V374ZM84 371H86V373H84V371Z" fill="black"/>
<path d="M151 373V365C151 363.34 149.66 362 148 362C146.34 362 145 363.34 145 365V373C143.79 373.91 143 375.37 143 377C143 379.76 145.24 382 148 382C150.76 382 153 379.76 153 377C153 375.37 152.21 373.91 151 373ZM147 365C147 364.45 147.45 364 148 364C148.55 364 149 364.45 149 365H148V366H149V368H148V369H149V371H147V365Z" fill="black"/>
<path d="M207 367V371H208V373H205V365H207L204 361L201 365H203V373H200V370.93C200.7 370.56 201.2 369.85 201.2 369C201.2 367.79 200.21 366.8 199 366.8C197.79 366.8 196.8 367.79 196.8 369C196.8 369.85 197.3 370.56 198 370.93V373C198 374.11 198.89 375 200 375H203V378.05C202.29 378.42 201.8 379.15 201.8 380C201.8 381.22 202.79 382.2 204 382.2C205.21 382.2 206.2 381.22 206.2 380C206.2 379.15 205.71 378.42 205 378.05V375H208C209.11 375 210 374.11 210 373V371H211V367H207Z" fill="black"/>
<path d="M252 364H259V362H252C250.9 362 250 362.9 250 364V371H252V364ZM258 373L254 378H266L263 374L260.97 376.71L258 373ZM265 368.5C265 367.67 264.33 367 263.5 367C262.67 367 262 367.67 262 368.5C262 369.33 262.67 370 263.5 370C264.33 370 265 369.33 265 368.5ZM268 362H261V364H268V371H270V364C270 362.9 269.1 362 268 362ZM268 380H261V382H268C269.1 382 270 381.1 270 380V373H268V380ZM252 373H250V380C250 381.1 250.9 382 252 382H259V380H252V373Z" fill="black"/>
<path d="M320.66 364.52L323.49 367.35L320.66 370.18L317.83 367.35L320.66 364.52ZM313 365V369H309V365H313ZM323 375V379H319V375H323ZM313 375V379H309V375H313ZM320.66 361.69L315 367.34L320.66 373L326.32 367.34L320.66 361.69ZM315 363H307V371H315V363ZM325 373H317V381H325V373ZM315 373H307V381H315V373Z" fill="black"/>
<path d="M381.31 369.58L384 366C380.66 363.49 376.5 362 372 362C367.5 362 363.34 363.49 360 366L372 382L375.5 377.33V374.5C375.5 371.74 377.74 369.5 380.5 369.5C380.78 369.5 381.05 369.54 381.31 369.58ZM383 376V374.5C383 373.12 381.88 372 380.5 372C379.12 372 378 373.12 378 374.5V376C377.45 376 377 376.45 377 377V381C377 381.55 377.45 382 378 382H383C383.55 382 384 381.55 384 381V377C384 376.45 383.55 376 383 376ZM382 376H379V374.5C379 373.67 379.67 373 380.5 373C381.33 373 382 373.67 382 374.5V376Z" fill="black"/>
<path d="M428 371C426.9 371 426 371.9 426 373C426 374.1 426.9 375 428 375C429.1 375 430 374.1 430 373C430 371.9 429.1 371 428 371ZM434 373C434 369.69 431.31 367 428 367C424.69 367 422 369.69 422 373C422 375.22 423.21 377.15 425 378.19L426 376.45C424.81 375.75 424 374.48 424 373C424 370.79 425.79 369 428 369C430.21 369 432 370.79 432 373C432 374.48 431.19 375.75 430 376.45L431 378.19C432.79 377.15 434 375.22 434 373ZM428 363C422.48 363 418 367.48 418 373C418 376.7 420.01 379.92 422.99 381.65L423.99 379.92C421.61 378.53 420 375.96 420 373C420 368.58 423.58 365 428 365C432.42 365 436 368.58 436 373C436 375.96 434.39 378.53 432 379.92L433 381.65C435.99 379.92 438 376.7 438 373C438 367.48 433.52 363 428 363Z" fill="black"/>
<defs>
<clipPath id="clip0_4136_13923">
<rect width="24" height="24" fill="white" transform="translate(360 136)"/>
</clipPath>
<clipPath id="clip1_4136_13923">
<rect width="24" height="24" fill="white" transform="translate(416 136)"/>
</clipPath>
<clipPath id="clip2_4136_13923">
<rect width="24" height="24" fill="white" transform="translate(472 136)"/>
</clipPath>
<clipPath id="clip3_4136_13923">
<rect width="24" height="24" fill="white" transform="translate(528 136)"/>
</clipPath>
<clipPath id="clip4_4136_13923">
<rect width="24" height="24" fill="white" transform="translate(528 248)"/>
</clipPath>
</defs>
</svg>
