<svg width="24" height="24" viewBox="0 0 24 24" fill="none" xmlns="http://www.w3.org/2000/svg">
<path d="M5.63158 1C3.07363 1 1 3.07363 1 5.63158V18.3684C1 20.9264 3.07363 23 5.63158 23H9.98384V14.8947H7.03881V11.5412H9.98456V8.98586C9.98456 6.07954 11.7171 4.47368 14.3665 4.47368C15.6329 4.47368 16.9598 4.7002 16.9598 4.7002V7.55477H15.4972C14.0564 7.55477 13.607 8.44888 13.607 9.36615V11.5419H16.8241L16.3096 14.8947H13.6095V23H18.3684C20.9264 23 23 20.9264 23 18.3684V5.63158C23 3.07363 20.9264 1 18.3684 1H5.63158Z" fill="black"/>
</svg>
