<svg width="24" height="24" viewBox="0 0 24 24" fill="none" xmlns="http://www.w3.org/2000/svg">
<path fill-rule="evenodd" clip-rule="evenodd" d="M12 21.7075C17.3613 21.7075 21.7075 17.3613 21.7075 12C21.7075 6.63867 17.3613 2.29245 12 2.29245C6.63867 2.29245 2.29245 6.63867 2.29245 12C2.29245 17.3613 6.63867 21.7075 12 21.7075ZM12 22.5C17.799 22.5 22.5 17.799 22.5 12C22.5 6.20101 17.799 1.5 12 1.5C6.20101 1.5 1.5 6.20101 1.5 12C1.5 17.799 6.20101 22.5 12 22.5Z" fill="black"/>
<path fill-rule="evenodd" clip-rule="evenodd" d="M13.7821 17.5617C13.8835 17.78 13.7887 18.0392 13.5704 18.1406C12.5614 18.6091 11.5618 18.6951 10.7427 18.3192C9.91199 17.9378 9.37037 17.1292 9.19245 16.032L10.0529 15.8925C10.1967 16.779 10.6027 17.2957 11.1064 17.5269C11.6218 17.7635 12.3434 17.7492 13.2032 17.35C13.4216 17.2486 13.6807 17.3434 13.7821 17.5617Z" fill="black"/>
<path fill-rule="evenodd" clip-rule="evenodd" d="M12.5943 13.1887V11.4057H13.3868V13.9811H11.2075V13.1887H12.5943Z" fill="black"/>
<path d="M17.5472 9.42453C17.5472 9.86219 17.1924 10.217 16.7547 10.217C16.3171 10.217 15.9623 9.86219 15.9623 9.42453C15.9623 8.98687 16.3171 8.63208 16.7547 8.63208C17.1924 8.63208 17.5472 8.98687 17.5472 9.42453Z" fill="black"/>
<path d="M8.03774 9.42453C8.03774 9.86219 7.68294 10.217 7.24528 10.217C6.80762 10.217 6.45283 9.86219 6.45283 9.42453C6.45283 8.98687 6.80762 8.63208 7.24528 8.63208C7.68294 8.63208 8.03774 8.98687 8.03774 9.42453Z" fill="black"/>
<path fill-rule="evenodd" clip-rule="evenodd" d="M1 12C1 5.92487 5.92487 1 12 1C18.0751 1 23 5.92487 23 12C23 18.0751 18.0751 23 12 23C5.92487 23 1 18.0751 1 12ZM12 2.79245C6.91481 2.79245 2.79245 6.91481 2.79245 12C2.79245 17.0852 6.91481 21.2075 12 21.2075C17.0852 21.2075 21.2075 17.0852 21.2075 12C21.2075 6.91481 17.0852 2.79245 12 2.79245ZM7.24528 9.13208C7.08377 9.13208 6.95283 9.26301 6.95283 9.42453C6.95283 9.58605 7.08377 9.71698 7.24528 9.71698C7.4068 9.71698 7.53774 9.58605 7.53774 9.42453C7.53774 9.26301 7.4068 9.13208 7.24528 9.13208ZM5.95283 9.42453C5.95283 8.71073 6.53148 8.13208 7.24528 8.13208C7.95908 8.13208 8.53774 8.71073 8.53774 9.42453C8.53774 10.1383 7.95908 10.717 7.24528 10.717C6.53148 10.717 5.95283 10.1383 5.95283 9.42453ZM16.7547 9.13208C16.5932 9.13208 16.4623 9.26301 16.4623 9.42453C16.4623 9.58605 16.5932 9.71698 16.7547 9.71698C16.9162 9.71698 17.0472 9.58605 17.0472 9.42453C17.0472 9.26301 16.9162 9.13208 16.7547 9.13208ZM15.4623 9.42453C15.4623 8.71073 16.0409 8.13208 16.7547 8.13208C17.4685 8.13208 18.0472 8.71073 18.0472 9.42453C18.0472 10.1383 17.4685 10.717 16.7547 10.717C16.0409 10.717 15.4623 10.1383 15.4623 9.42453ZM12.0943 10.9057H13.8868V14.4811H10.7075V12.6887H12.0943V10.9057ZM9.97288 15.399C10.2455 15.3548 10.5023 15.5399 10.5465 15.8125C10.6705 16.5771 10.9982 16.9271 11.315 17.0725C11.6567 17.2294 12.219 17.2557 12.9926 16.8965C13.4614 16.6788 14.0179 16.8824 14.2356 17.3511C14.4533 17.8199 14.2497 18.3764 13.7809 18.5941C12.6868 19.1021 11.5276 19.2296 10.5342 18.7736C9.51534 18.3059 8.89632 17.3295 8.6989 16.1121C8.67767 15.9812 8.70931 15.8472 8.78686 15.7396C8.86441 15.6321 8.98152 15.5597 9.11242 15.5385L9.97288 15.399Z" fill="black"/>
</svg>
