<svg width="24" height="24" viewBox="0 0 24 24" fill="none" xmlns="http://www.w3.org/2000/svg">
<path fill-rule="evenodd" clip-rule="evenodd" d="M15.88 17.29L14.01 15.42L12.39 13.8L9.88 11.29L7.88 9.29L7 8.41L5 6.41L1 2.41L2.41 1L23.29 21.88L21.88 23.29L17.88 19.29C17.8888 19.2636 17.8047 19.1834 17.6508 19.0608L15.88 17.29Z" fill="black"/>
<path fill-rule="evenodd" clip-rule="evenodd" d="M18 17.41V18H6V16.39C6 15.21 6.68 14.13 7.76 13.65C8.93 13.14 10.37 12.75 12 12.75C12.4984 12.75 12.9791 12.7855 13.4397 12.8497L18 17.41ZM8.07857 15.978C8.07575 15.9852 8.0729 15.9926 8.07 16H15.93C15.9257 15.9902 15.9215 15.9804 15.9174 15.9708C15.8252 15.756 15.757 15.5972 15.02 15.31C14.05 14.93 13.03 14.75 12 14.75C10.97 14.75 9.95 14.93 8.98 15.31C8.22514 15.6003 8.16335 15.7595 8.07857 15.978Z" fill="black"/>
<path d="M21.41 18L19.4892 16.0792C19.4394 15.3653 19.2197 14.6944 18.87 14.1C19.24 14.04 19.61 14 20 14C20.99 14 21.93 14.21 22.78 14.58C23.52 14.9 24 15.62 24 16.43V18H21.41Z" fill="black"/>
<path d="M14.3176 10.9076L12.8812 9.47124C12.957 9.33062 13 9.17009 13 9C13 8.45 12.55 8 12 8C11.8299 8 11.6694 8.04304 11.5288 8.11876L10.0924 6.6824C10.6104 6.25583 11.2747 6 12 6C13.66 6 15 7.34 15 9C15 9.72532 14.7442 10.3896 14.3176 10.9076Z" fill="black"/>
<path d="M9.04849 8.45849L12.5415 11.9515C12.3659 11.9834 12.1849 12 12 12C10.34 12 9 10.66 9 9C9 8.81505 9.01663 8.63408 9.04849 8.45849Z" fill="black"/>
<path d="M6 11C6 12.1 5.1 13 4 13C2.9 13 2 12.1 2 11C2 9.9 2.9 9 4 9C5.1 9 6 9.9 6 11Z" fill="black"/>
<path d="M4 14C4.39 14 4.76 14.04 5.13 14.1C4.73 14.78 4.5 15.56 4.5 16.39V18H0V16.43C0 15.62 0.48 14.9 1.22 14.58C2.07 14.21 3.01 14 4 14Z" fill="black"/>
<path d="M22 11C22 12.1 21.1 13 20 13C18.9 13 18 12.1 18 11C18 9.9 18.9 9 20 9C21.1 9 22 9.9 22 11Z" fill="black"/>
</svg>
