<svg width="24" height="24" viewBox="0 0 24 24" fill="none" xmlns="http://www.w3.org/2000/svg">
<path d="M22 20V21L14 23.5L7 21.6V23H1V12H9L15.2 14.3C16.2 14.7 17 15.8 17 17H19C20.7 17 22 18.3 22 20ZM5 21V14H3V21H5ZM19.9 19.6C19.7 19.2 19.4 19 19 19H13.6C13.1 19 12.5 18.9 12 18.8L9.7 18L10.3 16.1L12.7 16.9C13 16.9 15 17 15 17C15 16.6 14.8 16.3 14.4 16.2L8.6 14H7V19.5L14 21.4L19.9 19.6Z" fill="black"/>
<path d="M17.5 1L12 3.1V7.363C12 10.898 14.3444 14.195 17.5 15C20.6556 14.195 23 10.898 23 7.363V3.1L17.5 1ZM21.625 7.363C21.625 10.163 19.8719 12.753 17.5 13.544C15.1281 12.753 13.375 10.17 13.375 7.363V4.073L17.5 2.498L21.625 4.073V7.363Z" fill="black"/>
<path fill-rule="evenodd" clip-rule="evenodd" d="M18.1875 5.2H16.8125V7.3H14.75V8.7H16.8125V10.8H18.1875V8.7H20.25V7.3H18.1875V5.2Z" fill="black"/>
</svg>
