<svg width="24" height="24" viewBox="0 0 24 24" fill="none" xmlns="http://www.w3.org/2000/svg">
<path d="M12.22 19.85C12.04 20.03 11.72 20.06 11.51 19.85C11.4164 19.7556 11.3638 19.628 11.3638 19.495C11.3638 19.362 11.4164 19.2344 11.51 19.14L14.9 15.75L13.49 14.34L10.1 17.73C9.91004 17.93 9.59004 17.92 9.39004 17.73C9.29637 17.6356 9.2438 17.508 9.2438 17.375C9.2438 17.242 9.29637 17.1144 9.39004 17.02L12.78 13.63L11.37 12.22L7.98004 15.61C7.80004 15.79 7.48004 15.82 7.27004 15.61C7.17849 15.5145 7.12737 15.3873 7.12737 15.255C7.12737 15.1227 7.17849 14.9955 7.27004 14.9L10.66 11.51L9.24004 10.1L5.85004 13.49C5.67004 13.67 5.35004 13.7 5.14004 13.49C5.04849 13.3945 4.99737 13.2673 4.99737 13.135C4.99737 13.0027 5.04849 12.8755 5.14004 12.78L9.52004 8.40002L11.39 10.26C12.34 11.21 13.98 11.2 14.93 10.26C15.91 9.28002 15.91 7.70002 14.93 6.72002L13.07 4.86002L13.35 4.58002C14.13 3.80002 15.4 3.80002 16.18 4.58002L20.42 8.82002C21.2 9.60002 21.2 10.87 20.42 11.65L12.22 19.85ZM21.83 13.07C22.5792 12.3187 22.9999 11.301 22.9999 10.24C22.9999 9.17903 22.5792 8.16133 21.83 7.41002L17.59 3.17002C16.8387 2.42087 15.821 2.00018 14.76 2.00018C13.6991 2.00018 12.6814 2.42087 11.93 3.17002L11.65 3.45002L11.37 3.17002C10.6187 2.42087 9.60103 2.00018 8.54004 2.00018C7.47905 2.00018 6.46135 2.42087 5.71004 3.17002L2.17004 6.71002C1.49354 7.38421 1.08117 8.2786 1.00778 9.23086C0.934389 10.1831 1.20484 11.1301 1.77004 11.9L3.22004 10.45C3.02673 10.0726 2.9584 9.64347 3.0249 9.22466C3.09141 8.80584 3.28932 8.41901 3.59004 8.12002L7.13004 4.58002C7.91004 3.80002 9.18004 3.80002 9.96004 4.58002L13.52 8.14002C13.7 8.32002 13.73 8.64002 13.52 8.85002C13.31 9.06002 12.99 9.03002 12.81 8.85002L9.52004 5.57002L3.72004 11.36C2.74004 12.33 2.74004 13.92 3.72004 14.9C4.11004 15.29 4.61004 15.53 5.14004 15.6C5.21007 16.1377 5.45595 16.6372 5.83939 17.0207C6.22283 17.4041 6.72231 17.65 7.26004 17.72C7.33007 18.2577 7.57595 18.7572 7.95939 19.1407C8.34283 19.5241 8.84231 19.77 9.38004 19.84C9.45004 20.38 9.69004 20.87 10.08 21.26C10.55 21.73 11.18 21.99 11.85 21.99C12.52 21.99 13.15 21.73 13.62 21.26L21.83 13.07Z" fill="black"/>
</svg>
