<svg width="24" height="24" viewBox="0 0 24 24" fill="none" xmlns="http://www.w3.org/2000/svg">
<path d="M12.0001 8.69999C10.1776 8.69999 8.70009 10.1775 8.70009 12C8.70009 13.8226 10.1776 15.3 12.0001 15.3C13.8227 15.3 15.3001 13.8226 15.3001 12C15.3001 10.1775 13.8227 8.69999 12.0001 8.69999Z" fill="black"/>
<path fill-rule="evenodd" clip-rule="evenodd" d="M1.47957 3.40244C1 4.34366 1 5.57577 1 8.04V15.96C1 18.4242 1 19.6563 1.47957 20.5976C1.90142 21.4255 2.57453 22.0985 3.40244 22.5204C4.34366 23 5.57577 23 8.04 23H15.96C18.4242 23 19.6563 23 20.5976 22.5204C21.4255 22.0985 22.0985 21.4255 22.5204 20.5976C23 19.6563 23 18.4242 23 15.96V8.04C23 5.57577 23 4.34366 22.5204 3.40244C22.0985 2.57453 21.4255 1.90141 20.5976 1.47957C19.6563 1 18.4242 1 15.96 1H8.04C5.57577 1 4.34366 1 3.40244 1.47957C2.57453 1.90141 1.90142 2.57453 1.47957 3.40244ZM18.6459 6.59166C19.2787 6.59166 19.7916 6.07866 19.7916 5.44584C19.7916 4.81301 19.2787 4.3 18.6459 4.3C18.013 4.3 17.5 4.81301 17.5 5.44584C17.5 6.07866 18.013 6.59166 18.6459 6.59166ZM6.5 12C6.5 8.96244 8.96244 6.5 12 6.5C15.0375 6.5 17.5 8.96244 17.5 12C17.5 15.0375 15.0375 17.5 12 17.5C8.96244 17.5 6.5 15.0375 6.5 12Z" fill="black"/>
</svg>
