<svg width="24" height="24" viewBox="0 0 24 24" fill="none" xmlns="http://www.w3.org/2000/svg">
<path fill-rule="evenodd" clip-rule="evenodd" d="M1.4796 3.4024C1 4.344 1 5.576 1 8.04V15.96C1 18.424 1 19.656 1.4796 20.5976C1.90144 21.4255 2.57452 22.0986 3.4024 22.5204C4.344 23 5.576 23 8.04 23H15.96C18.424 23 19.656 23 20.5976 22.5204C21.4255 22.0986 22.0986 21.4255 22.5204 20.5976C23 19.656 23 18.424 23 15.96V8.04C23 5.576 23 4.344 22.5204 3.4024C22.0986 2.57452 21.4255 1.90144 20.5976 1.4796C19.656 1 18.424 1 15.96 1H8.04C5.576 1 4.344 1 3.4024 1.4796C2.57452 1.90144 1.90144 2.57452 1.4796 3.4024ZM5.5826 8.3337V18.4163H8.3326V8.3337H5.5826ZM5.3549 5.554C5.3549 6.4472 6.0743 7.171 6.9598 7.171C7.8464 7.171 8.5636 6.4472 8.5636 5.554C8.5636 4.6608 7.8453 3.937 6.9598 3.937C6.0743 3.937 5.3549 4.6608 5.3549 5.554ZM16.5848 18.4163H19.3348V12.2211C19.3348 7.4053 14.1978 7.5802 12.9174 9.9507V8.3337H10.1674V18.4163H12.9174V13.2793C12.9174 10.4259 16.5848 10.1927 16.5848 13.2793V18.4163Z" fill="black"/>
</svg>
