<svg width="24" height="24" viewBox="0 0 24 24" fill="none" xmlns="http://www.w3.org/2000/svg">
<path d="M21 11.075V4.96497C21 3.86497 20.11 2.96497 19 2.96497H14.82C14.4 1.80497 13.3 0.964966 12 0.964966C10.7 0.964966 9.6 1.80497 9.18 2.96497H5C3.9 2.96497 3 3.86497 3 4.96497V18.965C3 20.075 3.9 20.965 5 20.965H11.11C12.37 22.205 14.09 22.965 16 22.965C19.87 22.965 23 19.835 23 15.965C23 14.055 22.24 12.335 21 11.075ZM12 2.96497C12.55 2.96497 13 3.41497 13 3.96497C13 4.51497 12.55 4.96497 12 4.96497C11.45 4.96497 11 4.51497 11 3.96497C11 3.41497 11.45 2.96497 12 2.96497ZM5 18.965V4.96497H7V6.96497H17V4.96497H19V9.64497C18.09 9.21497 17.08 8.96497 16 8.96497H7V10.965H11.1C10.5 11.535 10.04 12.215 9.68 12.965H7V14.965H9.08C9.03 15.295 9 15.625 9 15.965C9 17.045 9.25 18.055 9.68 18.965H5ZM16 20.965C13.24 20.965 11 18.725 11 15.965C11 13.205 13.24 10.965 16 10.965C18.76 10.965 21 13.205 21 15.965C21 18.725 18.76 20.965 16 20.965ZM16.5 16.215L19.36 17.905L18.61 19.125L15 16.965V11.965H16.5V16.215Z" fill="black"/>
</svg>
