<svg width="24" height="24" viewBox="0 0 24 24" fill="none" xmlns="http://www.w3.org/2000/svg">
<path d="M11.9999 2C13.6599 2 14.9999 3.34 14.9999 5C14.9999 6.66 13.6599 8 11.9999 8C10.3399 8 8.99994 6.66 8.99994 5C8.99994 3.34 10.3399 2 11.9999 2ZM19.9999 18L17.9999 12.56C17.6499 11.57 17.3399 10.71 15.9999 10C14.6299 9.3 13.6299 9 11.9999 9C10.3899 9 9.38994 9.3 7.99994 10C6.67994 10.71 6.36994 11.57 5.99994 12.56L3.99994 18C3.76994 19.13 6.37994 20.44 8.12994 21.19C9.33994 21.72 10.6399 22 11.9999 22C13.3799 22 14.6699 21.72 15.8899 21.19C17.6399 20.44 20.2499 19.13 19.9999 18ZM15.4199 17.5L11.9999 21L8.57994 17.5C8.21994 17.12 7.99994 16.61 7.99994 16.05C7.99994 14.92 8.89994 14 9.99994 14C10.5499 14 11.0599 14.23 11.4199 14.61L11.9999 15.2L12.5799 14.6C12.9399 14.23 13.4499 14 13.9999 14C15.1099 14 15.9999 14.92 15.9999 16.05C15.9999 16.61 15.7799 17.13 15.4199 17.5Z" fill="black"/>
</svg>
