<svg width="24" height="24" viewBox="0 0 24 24" fill="none" xmlns="http://www.w3.org/2000/svg">
<path d="M18 24H11.45C10.37 24 9.31001 23.55 8.56001 22.77L1.26001 15.16L3.33001 13.33C3.95001 12.78 4.86001 12.67 5.59001 13.06L8.00001 14.34V4.79C8.00001 3.41 9.12001 2.29 10.5 2.29C10.67 2.29 10.84 2.31 11.01 2.34C11.1 1.04 12.18 0.0100021 13.5 0.0100021C14.36 0.0100021 15.11 0.440002 15.56 1.1C15.85 0.980002 16.17 0.920002 16.5 0.920002C17.88 0.920002 19 2.04 19 3.42V3.7C19.16 3.67 19.33 3.65 19.5 3.65C20.88 3.65 22 4.77 22 6.15V20C22 22.21 20.21 24 18 24ZM4.14001 15.28L10 21.38C10.38 21.77 10.9 22 11.44 22H18C19.1 22 20 21.1 20 20V6.15C20 5.87 19.78 5.65 19.5 5.65C19.22 5.65 19 5.87 19 6.15V12H17V3.42C17 3.14 16.78 2.92 16.5 2.92C16.22 2.92 16 3.14 16 3.42V12H14V2.51C14 2.23 13.78 2.01 13.5 2.01C13.22 2.01 13 2.23 13 2.51V12H11V4.79C11 4.51 10.78 4.29 10.5 4.29C10.22 4.29 10 4.52 10 4.79V17.66L4.65001 14.83L4.14001 15.28Z" fill="black"/>
</svg>
