<svg width="24" height="24" viewBox="0 0 24 24" fill="none" xmlns="http://www.w3.org/2000/svg">
<path fill-rule="evenodd" clip-rule="evenodd" d="M5.12727 11.9313C5.12727 7.37697 8.82022 3.68402 13.3745 3.68402C17.9289 3.68402 21.6218 7.37697 21.6218 11.9313H19.7891C19.7891 8.38497 16.9209 5.51675 13.3745 5.51675C9.82822 5.51675 6.96 8.38497 6.96 11.9313H9.70909L6.00698 15.6242L5.94283 15.496L2.37817 11.9313H5.12727Z" fill="black"/>
<path fill-rule="evenodd" clip-rule="evenodd" d="M16.5293 19.618L15.6984 18.1723C15.1501 18.4049 14.5685 18.5628 13.9536 18.6376V20.3159C14.8593 20.2245 15.7317 19.9836 16.5293 19.618ZM9.71616 19.618L10.547 18.1723C11.0954 18.4049 11.677 18.5628 12.2919 18.6376V20.3159C11.3862 20.2245 10.5138 19.9836 9.71616 19.618ZM19.2463 14.6244C19.4789 14.0761 19.6368 13.4945 19.7116 12.8796H21.3899C21.2985 13.7853 21.0576 14.6577 20.692 15.4553L19.2463 14.6244ZM17.975 18.7788L17.1359 17.3331C17.6178 16.9675 18.0415 16.5438 18.4154 16.0535L19.8611 16.8927C19.3377 17.6156 18.6979 18.2554 17.975 18.7788ZM6.39266 16.8927L7.83838 16.0619C8.20397 16.5438 8.62771 16.9675 9.11793 17.3331L8.27875 18.7788C7.55589 18.2554 6.91611 17.6156 6.39266 16.8927ZM12.2919 7.89437H13.9536V11.7081L17.0278 14.7823L15.8563 15.9538L12.2919 12.3894V7.89437Z" fill="black"/>
</svg>
