<svg width="24" height="24" viewBox="0 0 24 24" fill="none" xmlns="http://www.w3.org/2000/svg">
<path d="M11.2536 12C13.7261 12 15.7288 9.99737 15.7288 7.52483C15.7288 5.0523 13.7261 3.04965 11.2536 3.04965C8.78105 3.04965 6.7784 5.0523 6.7784 7.52483C6.7784 9.99737 8.78105 12 11.2536 12ZM11.2536 5.28724C12.4843 5.28724 13.4912 6.29416 13.4912 7.52483C13.4912 8.75551 12.4843 9.76242 11.2536 9.76242C10.0229 9.76242 9.01599 8.75551 9.01599 7.52483C9.01599 6.29416 10.0229 5.28724 11.2536 5.28724Z" fill="black"/>
<path d="M4.54081 18.7128C4.78695 17.9072 8.24402 16.4752 11.2536 16.4752C11.2536 15.692 11.399 14.9424 11.6452 14.2488C8.59085 14.1369 2.30322 15.6585 2.30322 18.7128V20.9504H12.9765C12.3948 20.3015 11.936 19.5519 11.6452 18.7128H4.54081Z" fill="black"/>
<path d="M20.5077 16.13L21.6968 15.0687L20.7378 13.4065L19.2162 13.9052C19.0372 13.7645 18.8327 13.6494 18.6153 13.5599L18.2956 12H16.3777L16.0581 13.5599C15.8407 13.6494 15.6361 13.7645 15.4443 13.9052L13.9355 13.4065L12.9766 15.0687L14.1657 16.13C14.1401 16.3473 14.1401 16.5775 14.1657 16.7948L12.9766 17.8817L13.9355 19.5439L15.4699 19.058C15.6361 19.1859 15.8279 19.2882 16.0197 19.3777L16.3777 20.9504H18.2956L18.6409 19.3905C18.8454 19.3009 19.0245 19.1987 19.2035 19.0708L20.725 19.5567L21.684 17.8945L20.4949 16.8076C20.5332 16.5647 20.5204 16.3473 20.5077 16.13ZM17.3367 18.0735C16.4544 18.0735 15.7384 17.3574 15.7384 16.4752C15.7384 15.5929 16.4544 14.8769 17.3367 14.8769C18.2189 14.8769 18.935 15.5929 18.935 16.4752C18.935 17.3574 18.2189 18.0735 17.3367 18.0735Z" fill="black"/>
</svg>
