<svg width="24" height="24" viewBox="0 0 24 24" fill="none" xmlns="http://www.w3.org/2000/svg">
<path fill-rule="evenodd" clip-rule="evenodd" d="M12.125 11.4778L12.1305 11.4731L13.9473 9.95131L15.7696 8.42486C15.972 8.21533 16.2303 8.06077 16.511 7.97091C16.6966 7.91146 16.892 7.88033 17.0875 7.88033H18.2327L20.2776 9.89776C20.7952 10.4042 21.0877 11.0913 21.0911 11.8089C21.0945 12.5264 20.8086 13.2161 20.2958 13.7273L20.2799 13.7087L20.2716 13.7207L20.2958 13.7273L18.5173 15.4819C18.3467 15.6502 18.1149 15.7447 17.8732 15.7447H17.1056C16.6058 15.7447 16.1331 15.5484 15.7878 15.2091L13.052 12.5222C12.9533 12.4253 12.8423 12.3471 12.7238 12.2878C12.5367 12.1941 12.3308 12.1473 12.125 12.1473L12.1159 12.1473L12.1063 12.1474C11.9061 12.1502 11.7065 12.1972 11.5246 12.2886C11.4067 12.3478 11.2962 12.4257 11.1979 12.5222L8.45307 15.2181C8.09861 15.5573 7.62599 15.7537 7.13519 15.7537H6.16768C5.92594 15.7537 5.69416 15.6591 5.5236 15.4908L3.7087 13.7005C3.19809 13.1984 2.91128 12.5178 2.91128 11.8081C2.91128 11.0984 3.19809 10.4177 3.7087 9.91562L5.79004 7.86248H7.1261C7.43246 7.86248 7.72858 7.93624 7.99145 8.07144C8.12572 8.1405 8.25132 8.22559 8.36517 8.32507C8.39211 8.34861 8.4184 8.37295 8.44398 8.39808L11.1888 11.1029C11.2682 11.178 11.3559 11.2429 11.4498 11.2965C11.4739 11.3103 11.4984 11.3233 11.5233 11.3356C11.7058 11.4255 11.9082 11.4749 12.1159 11.4778L12.1527 11.4879L12.1998 11.4752C12.1749 11.4767 12.1499 11.4776 12.125 11.4778ZM12.1219 10.5851C12.2202 10.5833 12.3264 10.5391 12.3976 10.4691L15.1152 7.79999C15.4482 7.4591 15.8054 7.25371 16.1869 7.13476C16.2053 7.12899 16.2239 7.12343 16.2424 7.11807C16.5122 7.04028 16.7938 7.004 17.0875 6.9922C17.1654 6.98907 17.2442 6.98766 17.3238 6.98766L13.9427 3.67586C13.4315 3.17436 12.7385 2.89267 12.0159 2.89267C11.2933 2.89267 10.6003 3.17436 10.0891 3.67586L6.7171 6.97874C6.86236 6.97874 6.99846 6.98301 7.1261 6.99098C7.42043 7.00935 7.66973 7.04741 7.88226 7.09818C8.08078 7.1456 8.24722 7.20412 8.38831 7.26806C8.67333 7.39722 8.85488 7.54849 8.98846 7.67504C9.01811 7.70313 9.0454 7.73001 9.07093 7.75515L11.8341 10.4691C11.8559 10.4905 11.8809 10.5094 11.908 10.5255C11.9713 10.5632 12.0458 10.5851 12.1159 10.5851L12.1219 10.5851ZM5.43912 6.96981H5.41241L3.06562 9.2848C2.38516 9.95425 2.0024 10.8621 2.0024 11.8081C2.0024 12.7541 2.38465 13.6615 3.0652 14.3309L4.61308 15.8578C5.12476 16.3626 5.8201 16.6463 6.54531 16.6463H7.13519C7.8736 16.6463 8.57095 16.3516 9.08735 15.8574L11.8406 13.1534C11.9157 13.0796 12.0168 13.04 12.125 13.04C12.2331 13.04 12.3342 13.0796 12.4093 13.1534L15.1451 15.8404C15.6593 16.3454 16.3624 16.6374 17.1056 16.6374H17.8732C18.3567 16.6374 18.8203 16.4482 19.1614 16.1117L20.9399 14.3571L20.9433 14.3538C21.6246 13.6746 22.0045 12.7582 22 11.8047C21.9954 10.8519 21.6074 9.93961 20.9206 9.26681L20.9191 9.26537L19.5152 7.88033H19.5222L14.585 3.04426C13.9034 2.37587 12.9791 2 12.0159 2C11.0527 2 10.1289 2.37541 9.44725 3.0438L5.43912 6.96981Z" fill="black"/>
<path d="M12.3031 11.4648L12.4615 11.4046L13.9473 9.95131L12.1305 11.4731L12.3031 11.4648Z" fill="black"/>
<path fill-rule="evenodd" clip-rule="evenodd" d="M12.1226 12.5222L12.1281 12.5269L13.9449 14.0487L15.7672 15.5751C15.9696 15.7847 16.2279 15.9392 16.5086 16.0291C16.6942 16.0885 16.8897 16.1197 17.0851 16.1197H18.2303L20.2752 14.1022C20.7928 13.5958 21.0853 12.9087 21.0887 12.1911C21.0921 11.4736 20.8062 10.7839 20.2934 10.2727L20.2775 10.2913L20.2692 10.2793L20.2934 10.2727L18.5149 8.51811C18.3443 8.34985 18.1125 8.25525 17.8708 8.25525H17.1032C16.6034 8.25525 16.1307 8.45164 15.7854 8.79086L13.0496 11.4778C12.9509 11.5747 12.8399 11.6529 12.7214 11.7122C12.5343 11.8059 12.3284 11.8527 12.1226 11.8527L12.1135 11.8527L12.1039 11.8526C11.9037 11.8498 11.7041 11.8028 11.5222 11.7115C11.4043 11.6522 11.2938 11.5743 11.1955 11.4778L8.45067 8.78193C8.09621 8.44271 7.62359 8.24633 7.13279 8.24633H6.16528C5.92354 8.24633 5.69176 8.34091 5.5212 8.50916L3.7063 10.2995C3.19569 10.8016 2.90888 11.4823 2.90888 12.1919C2.90888 12.9016 3.19569 13.5823 3.7063 14.0844L5.78764 16.1375H7.1237C7.43007 16.1375 7.72619 16.0638 7.98905 15.9286C8.12332 15.8595 8.24892 15.7744 8.36277 15.6749C8.38971 15.6514 8.416 15.627 8.44158 15.6019L11.1864 12.8971C11.2658 12.822 11.3535 12.7571 11.4474 12.7035C11.4715 12.6897 11.496 12.6767 11.5209 12.6644C11.7034 12.5745 11.9058 12.5251 12.1135 12.5222L12.1503 12.5121L12.1974 12.5248C12.1725 12.5233 12.1475 12.5224 12.1226 12.5222ZM12.1195 13.4149C12.2178 13.4167 12.324 13.461 12.3952 13.5309L15.1128 16.2C15.4458 16.5409 15.803 16.7463 16.1845 16.8652C16.2029 16.871 16.2215 16.8766 16.24 16.8819C16.5098 16.9597 16.7914 16.996 17.0851 17.0078C17.163 17.0109 17.2418 17.0123 17.3214 17.0123L13.9403 20.3241C13.4291 20.8256 12.7361 21.1073 12.0135 21.1073C11.2909 21.1073 10.5979 20.8256 10.0867 20.3241L6.71471 17.0213C6.85996 17.0213 6.99606 17.017 7.1237 17.009C7.41803 16.9906 7.66733 16.9526 7.87986 16.9018C8.07838 16.8544 8.24482 16.7959 8.38591 16.7319C8.67093 16.6028 8.85248 16.4515 8.98606 16.325C9.01572 16.2969 9.043 16.27 9.06853 16.2449L11.8317 13.5309C11.8535 13.5095 11.8785 13.4906 11.9056 13.4745C11.9689 13.4368 12.0434 13.4149 12.1135 13.4149L12.1195 13.4149ZM5.43673 17.0302H5.41001L3.06322 14.7152C2.38276 14.0458 2 13.1379 2 12.1919C2 11.2459 2.38225 10.3385 3.0628 9.66907L4.61068 8.14216C5.12236 7.63741 5.8177 7.35366 6.54291 7.35366H7.13279C7.8712 7.35366 8.56855 7.64839 9.08495 8.14257L11.8382 10.8466C11.9133 10.9204 12.0144 10.96 12.1226 10.96C12.2307 10.96 12.3318 10.9204 12.4069 10.8466L15.1427 8.15964C15.6569 7.6546 16.36 7.36259 17.1032 7.36259H17.8708C18.3543 7.36259 18.8179 7.55177 19.159 7.88829L20.9375 9.64287L20.9409 9.64619C21.6222 10.3254 22.0021 11.2418 21.9976 12.1953C21.993 13.1481 21.605 14.0604 20.9182 14.7332L20.9167 14.7346L19.5128 16.1197H19.5198L14.5826 20.9557C13.901 21.6241 12.9767 22 12.0135 22C11.0503 22 10.1265 21.6246 9.44485 20.9562L5.43673 17.0302Z" fill="black"/>
<path d="M12.3007 12.5352L12.4591 12.5954L13.9449 14.0487L12.1281 12.5269L12.3007 12.5352Z" fill="black"/>
<path fill-rule="evenodd" clip-rule="evenodd" d="M12.1136 11.5252L12.1186 11.521L13.7702 10.1376L15.4269 8.74987C15.6109 8.55939 15.8458 8.41889 16.1009 8.33719C16.2697 8.28315 16.4473 8.25485 16.625 8.25485H17.6661L19.5251 10.0889C19.9957 10.5493 20.2615 11.1739 20.2646 11.8262C20.2677 12.4786 20.0078 13.1056 19.5417 13.5703L19.5272 13.5534L19.5196 13.5642L19.5417 13.5703L17.9248 15.1654C17.7697 15.3183 17.559 15.4043 17.3393 15.4043H16.6415C16.187 15.4043 15.7574 15.2258 15.4434 14.9174L12.9564 12.4747C12.8667 12.3866 12.7657 12.3156 12.658 12.2616C12.4879 12.1765 12.3008 12.1339 12.1136 12.1339L12.1053 12.1339L12.0966 12.134C11.9146 12.1365 11.7331 12.1793 11.5678 12.2623C11.4606 12.3162 11.3602 12.387 11.2708 12.4747L8.77552 14.9255C8.45328 15.2339 8.02362 15.4124 7.57745 15.4124H6.69789C6.47813 15.4124 6.26742 15.3264 6.11236 15.1735L4.46246 13.5459C3.99826 13.0895 3.73753 12.4707 3.73753 11.8255C3.73753 11.1804 3.99826 10.5616 4.46246 10.1051L6.35459 8.23862H7.56918C7.84769 8.23862 8.1169 8.30568 8.35586 8.42858C8.47793 8.49136 8.59211 8.56872 8.69561 8.65915C8.7201 8.68055 8.744 8.70268 8.76726 8.72553L11.2626 11.1844C11.3347 11.2528 11.4145 11.3117 11.4998 11.3604C11.5217 11.373 11.544 11.3848 11.5667 11.396C11.7326 11.4778 11.9165 11.5227 12.1053 11.5253L12.1389 11.5345L12.1816 11.5229C12.159 11.5243 12.1363 11.5251 12.1136 11.5252ZM12.1108 10.7137C12.2002 10.7121 12.2967 10.6719 12.3615 10.6082L14.832 8.18181C15.1347 7.87191 15.4595 7.68519 15.8062 7.57705C15.823 7.57181 15.8399 7.56676 15.8568 7.56188C16.102 7.49116 16.358 7.45818 16.625 7.44745C16.6958 7.44461 16.7674 7.44333 16.8398 7.44333L13.7661 4.4326C13.3013 3.97669 12.6713 3.72061 12.0144 3.72061C11.3576 3.72061 10.7276 3.97669 10.2628 4.4326L7.19737 7.43521C7.32941 7.43521 7.45315 7.4391 7.56918 7.44634C7.83676 7.46305 8.06339 7.49764 8.2566 7.5438C8.43707 7.58691 8.58838 7.64011 8.71664 7.69823C8.97576 7.81565 9.1408 7.95317 9.26224 8.06822C9.28919 8.09376 9.314 8.11819 9.33721 8.14105L11.8492 10.6082C11.869 10.6277 11.8918 10.6449 11.9164 10.6596C11.9739 10.6938 12.0417 10.7137 12.1053 10.7137L12.1108 10.7137ZM6.03557 7.4271H6.01128L3.87784 9.53164C3.25923 10.1402 2.91127 10.9655 2.91127 11.8255C2.91127 12.6856 3.25877 13.5104 3.87745 14.119L5.28462 15.5071C5.74978 15.966 6.38191 16.2239 7.04119 16.2239H7.57745C8.24873 16.2239 8.88268 15.956 9.35214 15.5068L11.8551 13.0486C11.9234 12.9815 12.0153 12.9454 12.1136 12.9454C12.2119 12.9454 12.3038 12.9815 12.3721 13.0486L14.8592 15.4912C15.3266 15.9504 15.9659 16.2158 16.6415 16.2158H17.3393C17.7788 16.2158 18.2002 16.0438 18.5103 15.7379L20.1272 14.1428L20.1302 14.1398C20.7496 13.5224 21.095 12.6892 21.0909 11.8224C21.0868 10.9563 20.734 10.1269 20.1096 9.51529L20.1083 9.51397L18.832 8.25485H18.8384L14.35 3.85842C13.7304 3.25079 12.8915 2.89267 12.0159 2.89267C11.1403 2.89267 10.299 3.25038 9.67932 3.858L6.03557 7.4271Z" fill="black"/>
<path d="M12.2755 11.5135L12.4195 11.4587L13.7702 10.1376L12.1186 11.521L12.2755 11.5135Z" fill="black"/>
<path fill-rule="evenodd" clip-rule="evenodd" d="M12.1136 12.6078L12.1187 12.612L13.7703 13.9955L15.4269 15.3832C15.6109 15.5736 15.8458 15.7142 16.1009 15.7958C16.2697 15.8499 16.4474 15.8782 16.625 15.8782H17.6661L19.5252 14.0442C19.9957 13.5838 20.2616 12.9591 20.2647 12.3068C20.2678 11.6545 20.0078 11.0274 19.5417 10.5628L19.5273 10.5797L19.5197 10.5688L19.5417 10.5628L17.9248 8.96769C17.7698 8.81472 17.5591 8.72872 17.3393 8.72872H16.6415C16.1871 8.72872 15.7574 8.90726 15.4435 9.21563L12.9564 11.6583C12.8667 11.7464 12.7658 11.8175 12.658 11.8714C12.4879 11.9566 12.3008 11.9991 12.1136 11.9991L12.1054 11.9991L12.0966 11.999C11.9147 11.9965 11.7332 11.9537 11.5679 11.8707C11.4606 11.8169 11.3602 11.7461 11.2709 11.6583L8.77556 9.20752C8.45332 8.89914 8.02366 8.72061 7.57748 8.72061H6.69792C6.47816 8.72061 6.26746 8.80659 6.1124 8.95955L4.46249 10.5871C3.9983 11.0436 3.73757 11.6624 3.73757 12.3075C3.73757 12.9527 3.9983 13.5715 4.46249 14.0279L6.35462 15.8944H7.56922C7.84773 15.8944 8.11693 15.8274 8.3559 15.7045C8.47797 15.6417 8.59215 15.5643 8.69565 15.4739C8.72014 15.4525 8.74403 15.4304 8.76729 15.4075L11.2626 12.9486C11.3348 12.8803 11.4145 12.8213 11.4999 12.7726C11.5218 12.7601 11.5441 12.7482 11.5667 12.7371C11.7326 12.6553 11.9166 12.6104 12.1054 12.6078L12.1389 12.5986L12.1817 12.6101C12.159 12.6087 12.1363 12.608 12.1136 12.6078ZM12.1109 13.4193C12.2002 13.4209 12.2967 13.4612 12.3615 13.5248L14.832 15.9512C15.1348 16.2611 15.4595 16.4478 15.8063 16.556C15.8231 16.5612 15.8399 16.5663 15.8568 16.5712C16.102 16.6419 16.3581 16.6749 16.625 16.6856C16.6958 16.6884 16.7675 16.6897 16.8398 16.6897L13.7662 19.7004C13.3014 20.1563 12.6714 20.4124 12.0145 20.4124C11.3576 20.4124 10.7276 20.1563 10.2628 19.7004L7.1974 16.6978C7.32945 16.6978 7.45318 16.6939 7.56922 16.6867C7.83679 16.67 8.06343 16.6354 8.25663 16.5892C8.43711 16.5461 8.58842 16.4929 8.71668 16.4348C8.97579 16.3174 9.14084 16.1799 9.26228 16.0648C9.28923 16.0393 9.31404 16.0149 9.33725 15.992L11.8492 13.5248C11.869 13.5053 11.8918 13.4881 11.9164 13.4734C11.974 13.4392 12.0417 13.4193 12.1054 13.4193L12.1109 13.4193ZM6.0356 16.7059H6.01132L3.87788 14.6014C3.25927 13.9928 2.91131 13.1675 2.91131 12.3075C2.91131 11.4475 3.25881 10.6226 3.87749 10.014L5.28465 8.62591C5.74982 8.16705 6.38194 7.90909 7.04123 7.90909H7.57748C8.24877 7.90909 8.88272 8.17703 9.35217 8.62629L11.8551 11.0845C11.9234 11.1516 12.0153 11.1876 12.1136 11.1876C12.2119 11.1876 12.3039 11.1516 12.3722 11.0845L14.8592 8.64181C15.3267 8.18268 15.9659 7.91721 16.6415 7.91721H17.3393C17.7788 7.91721 18.2003 8.08919 18.5104 8.39512L20.1272 9.99019L20.1303 9.99321C20.7497 10.6107 21.095 11.4438 21.0909 12.3106C21.0868 13.1767 20.734 14.0061 20.1097 14.6178L20.1083 14.6191L18.832 15.8782H18.8384L14.35 20.2746C13.7304 20.8822 12.8779 21.2239 12.0022 21.2239C11.1266 21.2239 10.299 20.8827 9.67936 20.275L6.0356 16.7059Z" fill="black"/>
<path d="M12.2733 12.4865L12.4173 12.5413L13.7703 13.9955L12.1187 12.612L12.2733 12.4865Z" fill="black"/>
<path fill-rule="evenodd" clip-rule="evenodd" d="M12.1125 11.53L12.1174 11.5258L13.7525 10.1562L15.3926 8.78237C15.5748 8.5938 15.8073 8.4547 16.0599 8.37382C16.227 8.32032 16.4028 8.2923 16.5787 8.2923H17.6094L19.4499 10.108C19.9157 10.5638 20.1789 11.1822 20.182 11.828C20.185 12.4738 19.9277 13.0945 19.4662 13.5546L19.452 13.5378L19.4444 13.5486L19.4662 13.5546L17.8656 15.1337C17.712 15.2851 17.5034 15.3703 17.2859 15.3703H16.5951C16.1452 15.3703 15.7198 15.1935 15.409 14.8882L12.9468 12.47C12.858 12.3827 12.7581 12.3124 12.6514 12.259C12.483 12.1747 12.2977 12.1326 12.1125 12.1326L12.1043 12.1326L12.0956 12.1327C11.9155 12.1352 11.7358 12.1775 11.5722 12.2597C11.466 12.313 11.3666 12.3831 11.2781 12.47L8.80776 14.8963C8.48875 15.2016 8.06339 15.3783 7.62167 15.3783H6.75091C6.53334 15.3783 6.32474 15.2932 6.17124 15.1418L4.53783 13.5305C4.07828 13.0786 3.82015 12.466 3.82015 11.8273C3.82015 11.1886 4.07828 10.576 4.53783 10.1241L6.41104 8.27623H7.61349C7.88922 8.27623 8.15573 8.34262 8.39231 8.4643C8.51315 8.52645 8.62619 8.60303 8.72865 8.69256C8.7529 8.71375 8.77656 8.73566 8.79958 8.75827L11.2699 11.1926C11.3414 11.2602 11.4203 11.3186 11.5048 11.3668C11.5265 11.3792 11.5486 11.391 11.571 11.402C11.7352 11.483 11.9174 11.5274 12.1043 11.53L12.1375 11.5391L12.1798 11.5277C12.1574 11.5291 12.1349 11.5298 12.1125 11.53ZM12.1097 10.7266C12.1982 10.725 12.2937 10.6851 12.3579 10.6222L14.8037 8.21999C15.1034 7.91319 15.4249 7.72834 15.7682 7.62128C15.7848 7.61609 15.8015 7.61109 15.8182 7.60627C16.0609 7.53625 16.3145 7.5036 16.5787 7.49298C16.6489 7.49016 16.7197 7.4889 16.7914 7.4889L13.7485 4.50828C13.2883 4.05692 12.6646 3.8034 12.0143 3.8034C11.364 3.8034 10.7403 4.05692 10.2802 4.50828L7.24539 7.48086C7.37612 7.48086 7.49862 7.48471 7.61349 7.49188C7.87839 7.50842 8.10276 7.54267 8.29403 7.58836C8.4727 7.63104 8.6225 7.68371 8.74947 7.74125C9.006 7.8575 9.16939 7.99364 9.28962 8.10754C9.3163 8.13282 9.34086 8.15701 9.36384 8.17963L11.8507 10.6222C11.8703 10.6414 11.8928 10.6585 11.9172 10.673C11.9742 10.7069 12.0413 10.7266 12.1043 10.7266L12.1097 10.7266ZM6.09521 7.47283H6.07117L3.95906 9.55632C3.34664 10.1588 3.00216 10.9759 3.00216 11.8273C3.00216 12.6787 3.34618 13.4953 3.95868 14.0978L5.35177 15.4721C5.81229 15.9263 6.43809 16.1817 7.09078 16.1817H7.62167C8.28624 16.1817 8.91385 15.9165 9.37861 15.4717L11.8565 13.0381C11.9241 12.9717 12.0151 12.936 12.1125 12.936C12.2098 12.936 12.3008 12.9717 12.3684 13.0381L14.8306 15.4563C15.2934 15.9109 15.9262 16.1737 16.5951 16.1737H17.2859C17.721 16.1737 18.1382 16.0034 18.4452 15.7005L20.0459 14.1214L20.0489 14.1184C20.6621 13.5071 21.004 12.6823 21 11.8242C20.9959 10.9667 20.6467 10.1456 20.0285 9.54013L20.0272 9.53883L18.7637 8.2923H18.77L14.3265 3.93983C13.713 3.33828 12.8812 3 12.0143 3C11.1474 3 10.316 3.33787 9.70253 3.93942L6.09521 7.47283Z" fill="black"/>
<path d="M12.2728 11.5183L12.4153 11.4641L13.7525 10.1562L12.1174 11.5258L12.2728 11.5183Z" fill="black"/>
<path fill-rule="evenodd" clip-rule="evenodd" d="M12.1103 12.47L12.1153 12.4742L13.7504 13.8438L15.3905 15.2176C15.5726 15.4062 15.8051 15.5453 16.0577 15.6262C16.2248 15.6797 16.4007 15.7077 16.5766 15.7077H17.6072L19.4477 13.892C19.9135 13.4362 20.1768 12.8178 20.1798 12.172C20.1829 11.5262 19.9256 10.9055 19.4641 10.4454L19.4498 10.4622L19.4423 10.4514L19.4641 10.4454L17.8634 8.8663C17.7099 8.71486 17.5013 8.62973 17.2837 8.62973H16.5929C16.143 8.62973 15.7177 8.80648 15.4068 9.11177L12.9447 11.53C12.8558 11.6173 12.7559 11.6876 12.6493 11.741C12.4809 11.8253 12.2956 11.8674 12.1103 11.8674L12.1021 11.8674L12.0935 11.8673C11.9133 11.8648 11.7337 11.8225 11.57 11.7403C11.4638 11.687 11.3644 11.6169 11.2759 11.53L8.8056 9.10374C8.48659 8.79844 8.06123 8.62169 7.61951 8.62169H6.74875C6.53119 8.62169 6.32259 8.70682 6.16908 8.85824L4.53567 10.4695C4.07612 10.9214 3.81799 11.534 3.81799 12.1727C3.81799 12.8114 4.07612 13.424 4.53567 13.8759L6.40888 15.7238H7.61133C7.88706 15.7238 8.15357 15.6574 8.39015 15.5357C8.51099 15.4735 8.62403 15.397 8.7265 15.3074C8.75074 15.2863 8.7744 15.2643 8.79742 15.2417L11.2678 12.8074C11.3392 12.7398 11.4182 12.6814 11.5027 12.6332C11.5244 12.6208 11.5464 12.609 11.5688 12.598C11.7331 12.517 11.9152 12.4726 12.1021 12.47L12.1353 12.4609L12.1777 12.4723C12.1552 12.4709 12.1328 12.4702 12.1103 12.47ZM12.1076 13.2734C12.196 13.275 12.2916 13.3149 12.3557 13.3778L14.8015 15.78C15.1012 16.0868 15.4227 16.2717 15.766 16.3787C15.7826 16.3839 15.7993 16.3889 15.816 16.3937C16.0588 16.4638 16.3123 16.4964 16.5766 16.507C16.6467 16.5098 16.7176 16.5111 16.7892 16.5111L13.7463 19.4917C13.2862 19.9431 12.6625 20.1966 12.0121 20.1966C11.3618 20.1966 10.7381 19.9431 10.278 19.4917L7.24323 16.5191C7.37396 16.5191 7.49646 16.5153 7.61133 16.5081C7.87623 16.4916 8.1006 16.4573 8.29187 16.4116C8.47054 16.369 8.62034 16.3163 8.74731 16.2587C9.00384 16.1425 9.16723 16.0064 9.28746 15.8925C9.31414 15.8672 9.3387 15.843 9.36168 15.8204L11.8485 13.3778C11.8681 13.3586 11.8907 13.3415 11.915 13.327C11.972 13.2931 12.0391 13.2734 12.1021 13.2734L12.1076 13.2734ZM6.09305 16.5272H6.06901L3.9569 14.4437C3.34448 13.8412 3 13.0241 3 12.1727C3 11.3213 3.34402 10.5047 3.95652 9.90216L5.34961 8.52794C5.81013 8.07367 6.43593 7.81829 7.08862 7.81829H7.61951C8.28408 7.81829 8.91169 8.08355 9.37646 8.52832L11.8544 10.9619C11.922 11.0283 12.013 11.064 12.1103 11.064C12.2076 11.064 12.2986 11.0283 12.3662 10.9619L14.8284 8.54368C15.2912 8.08914 15.924 7.82633 16.5929 7.82633H17.2837C17.7189 7.82633 18.1361 7.99659 18.4431 8.29947L20.0438 9.87858L20.0468 9.88157C20.66 10.4929 21.0019 11.3177 20.9978 12.1758C20.9937 13.0333 20.6445 13.8544 20.0264 14.4599L20.025 14.4612L18.7615 15.7077H18.7678L14.3243 20.0602C13.7109 20.6617 12.879 21 12.0121 21C11.1453 21 10.3138 20.6621 9.70037 20.0606L6.09305 16.5272Z" fill="black"/>
<path d="M12.2706 12.4817L12.4132 12.5359L13.7504 13.8438L12.1153 12.4742L12.2706 12.4817Z" fill="black"/>
<path fill-rule="evenodd" clip-rule="evenodd" d="M12.1022 11.5727L12.1068 11.5689L13.5932 10.3238L15.0842 9.07489C15.2498 8.90345 15.4612 8.777 15.6908 8.70347C15.8427 8.65483 16.0026 8.62936 16.1625 8.62936H17.0994L18.7726 10.28C19.1961 10.6944 19.4354 11.2565 19.4382 11.8436C19.4409 12.4307 19.207 12.995 18.7875 13.4133L18.7745 13.398L18.7677 13.4078L18.7875 13.4133L17.3323 14.8488C17.1928 14.9865 17.0031 15.0639 16.8053 15.0639H16.1773C15.7683 15.0639 15.3817 14.9032 15.0991 14.6257L12.8607 12.4273C12.78 12.348 12.6892 12.284 12.5922 12.2355C12.4391 12.1588 12.2707 12.1205 12.1022 12.1205L12.0948 12.1205L12.087 12.1206C11.9232 12.1229 11.7598 12.1614 11.6111 12.2361C11.5145 12.2846 11.4241 12.3483 11.3437 12.4273L9.09797 14.633C8.80795 14.9105 8.42126 15.0712 8.0197 15.0712H7.2281C7.03031 15.0712 6.84068 14.9938 6.70113 14.8561L5.21621 13.3913C4.79844 12.9805 4.56378 12.4236 4.56378 11.843C4.56378 11.2623 4.79844 10.7054 5.21621 10.2946L6.91913 8.61476H8.01226C8.26293 8.61476 8.50521 8.67511 8.72028 8.78572C8.83014 8.84223 8.9329 8.91185 9.02605 8.99324C9.04809 9.0125 9.0696 9.03241 9.09053 9.05297L11.3363 11.266C11.4013 11.3275 11.473 11.3805 11.5498 11.4244C11.5696 11.4357 11.5896 11.4463 11.61 11.4564C11.7593 11.53 11.9249 11.5704 12.0948 11.5727L12.125 11.581L12.1635 11.5706C12.1431 11.5719 12.1227 11.5726 12.1022 11.5727ZM12.0997 10.8423C12.1802 10.8409 12.267 10.8047 12.3253 10.7474L14.5488 8.56363C14.8213 8.28472 15.1135 8.11667 15.4256 8.01935C15.4407 8.01463 15.4559 8.01008 15.4711 8.0057C15.6918 7.94204 15.9222 7.91236 16.1625 7.90271C16.2262 7.90015 16.2907 7.899 16.3558 7.899L13.5895 5.18934C13.1712 4.77902 12.6042 4.54855 12.013 4.54855C11.4218 4.54855 10.8548 4.77902 10.4365 5.18934L7.67763 7.89169C7.79647 7.89169 7.90783 7.89519 8.01226 7.90171C8.25308 7.91674 8.45705 7.94788 8.63094 7.98942C8.79337 8.02822 8.92954 8.0761 9.04498 8.12841C9.27818 8.23409 9.42672 8.35785 9.53602 8.4614C9.56028 8.48438 9.5826 8.50637 9.60349 8.52694L11.8643 10.7474C11.8821 10.7649 11.9026 10.7805 11.9247 10.7936C11.9766 10.8244 12.0375 10.8424 12.0948 10.8424L12.0997 10.8423ZM6.63201 7.88439H6.61015L4.69006 9.77847C4.13331 10.3262 3.82014 11.069 3.82014 11.843C3.82014 12.617 4.13289 13.3594 4.68971 13.9071L5.95616 15.1564C6.37481 15.5694 6.94372 15.8016 7.53707 15.8016H8.0197C8.62386 15.8016 9.19441 15.5604 9.61692 15.1561L11.8696 12.9437C11.931 12.8833 12.0138 12.8509 12.1022 12.8509C12.1907 12.8509 12.2734 12.8833 12.3349 12.9437L14.5732 15.1421C14.994 15.5553 15.5693 15.7942 16.1773 15.7942H16.8053C17.2009 15.7942 17.5802 15.6395 17.8593 15.3641L19.3145 13.9286L19.3172 13.9258C19.8747 13.3701 20.1855 12.6203 20.1818 11.8402C20.1781 11.0607 19.8606 10.3142 19.2987 9.76376L19.2975 9.76257L18.1488 8.62936H18.1545L14.115 4.67257C13.5573 4.12571 12.8024 3.8034 12.0143 3.8034C11.2262 3.8034 10.4691 4.12534 9.91139 4.6722L6.63201 7.88439Z" fill="black"/>
<path d="M12.248 11.5621L12.3776 11.5128L13.5932 10.3238L12.1068 11.5689L12.248 11.5621Z" fill="black"/>
<path fill-rule="evenodd" clip-rule="evenodd" d="M12.1023 12.547L12.1068 12.5508L13.5933 13.7959L15.0842 15.0448C15.2498 15.2163 15.4612 15.3427 15.6908 15.4163C15.8427 15.4649 16.0026 15.4904 16.1625 15.4904H17.0995L18.7726 13.8397C19.1961 13.4254 19.4354 12.8632 19.4382 12.2761C19.441 11.689 19.2071 11.1247 18.7875 10.7065L18.7745 10.7217L18.7677 10.7119L18.7875 10.7065L17.3324 9.27092C17.1928 9.13325 17.0032 9.05585 16.8054 9.05585H16.1774C15.7684 9.05585 15.3817 9.21653 15.0991 9.49407L12.8608 11.6925C12.78 11.7718 12.6892 11.8357 12.5922 11.8843C12.4391 11.9609 12.2707 11.9992 12.1023 11.9992L12.0948 11.9992L12.087 11.9991C11.9232 11.9969 11.7599 11.9584 11.6111 11.8836C11.5146 11.8352 11.4242 11.7714 11.3438 11.6925L9.098 9.48677C8.80798 9.20923 8.4213 9.04855 8.01973 9.04855H7.22813C7.03035 9.04855 6.84071 9.12593 6.70116 9.26359L5.21624 10.7284C4.79847 11.1392 4.56381 11.6961 4.56381 12.2768C4.56381 12.8574 4.79847 13.4143 5.21624 13.8251L6.91916 15.505H8.0123C8.26296 15.505 8.50524 15.4446 8.72031 15.334C8.83017 15.2775 8.93293 15.2079 9.02608 15.1265C9.04813 15.1072 9.06963 15.0873 9.09056 15.0668L11.3363 12.8538C11.4013 12.7922 11.4731 12.7392 11.5499 12.6953C11.5696 12.6841 11.5897 12.6734 11.61 12.6634C11.7593 12.5897 11.9249 12.5493 12.0948 12.547L12.125 12.5387L12.1635 12.5491C12.1431 12.5479 12.1227 12.5472 12.1023 12.547ZM12.0998 13.2774C12.1802 13.2788 12.2671 13.3151 12.3254 13.3723L14.5488 15.5561C14.8213 15.835 15.1136 16.0031 15.4256 16.1004C15.4408 16.1051 15.4559 16.1097 15.4711 16.114C15.6918 16.1777 15.9223 16.2074 16.1625 16.217C16.2263 16.2196 16.2907 16.2207 16.3558 16.2207L13.5895 18.9304C13.1712 19.3407 12.6042 19.5712 12.013 19.5712C11.4218 19.5712 10.8548 19.3407 10.4365 18.9304L7.67766 16.228C7.7965 16.228 7.90787 16.2245 8.0123 16.218C8.25311 16.203 8.45709 16.1719 8.63097 16.1303C8.7934 16.0915 8.92958 16.0436 9.04501 15.9913C9.27821 15.8856 9.42675 15.7619 9.53605 15.6583C9.56031 15.6354 9.58263 15.6134 9.60352 15.5928L11.8643 13.3723C11.8821 13.3548 11.9026 13.3393 11.9248 13.3261C11.9766 13.2953 12.0375 13.2774 12.0948 13.2774L12.0998 13.2774ZM6.63204 16.2353H6.61019L4.69009 14.3413C4.13334 13.7935 3.82018 13.0507 3.82018 12.2768C3.82018 11.5027 4.13293 10.7603 4.68974 10.2126L5.95619 8.96332C6.37484 8.55034 6.94375 8.31818 7.5371 8.31818H8.01973C8.62389 8.31818 9.19444 8.55933 9.61695 8.96366L11.8696 11.176C11.9311 11.2364 12.0138 11.2689 12.1023 11.2689C12.1907 11.2689 12.2735 11.2364 12.3349 11.176L14.5733 8.97762C14.994 8.56441 15.5693 8.32549 16.1774 8.32549H16.8054C17.201 8.32549 17.5802 8.48027 17.8593 8.75561L19.3145 10.1912L19.3173 10.1939C19.8747 10.7496 20.1855 11.4994 20.1818 12.2795C20.1781 13.0591 19.8606 13.8055 19.2987 14.356L19.2975 14.3572L18.1488 15.4904H18.1546L14.115 19.4472C13.5573 19.994 12.7901 20.3016 12.002 20.3016C11.2139 20.3016 10.4691 19.9944 9.91142 19.4475L6.63204 16.2353Z" fill="black"/>
<path d="M12.246 12.4379L12.3756 12.4872L13.5933 13.7959L12.1068 12.5508L12.246 12.4379Z" fill="black"/>
</svg>
