<svg width="24" height="24" viewBox="0 0 24 24" fill="none" xmlns="http://www.w3.org/2000/svg">
<mask id="path-1-inside-1_4136_13664" fill="white">
<path d="M15.45 16.52L12.44 13.51C12.33 13.4 12.2 13.38 12.13 13.38C12.06 13.38 11.93 13.4 11.82 13.51L8.79998 16.53C8.45998 16.87 7.92998 17.42 6.15998 17.42L9.86998 21.12C10.4325 21.6818 11.195 21.9974 11.99 21.9974C12.785 21.9974 13.5475 21.6818 14.11 21.12L17.83 17.41C16.92 17.41 16.16 17.23 15.45 16.52ZM8.79998 7.47005L11.82 10.49C11.9 10.57 12.02 10.62 12.13 10.62C12.24 10.62 12.36 10.57 12.44 10.49L15.43 7.50005C16.14 6.76005 16.95 6.59005 17.86 6.59005L14.14 2.88005C13.5775 2.31824 12.815 2.00269 12.02 2.00269C11.225 2.00269 10.4625 2.31824 9.89998 2.88005L6.18998 6.58005C7.94998 6.58005 8.48998 7.16005 8.79998 7.47005Z"/>
<path d="M21.11 9.85005L18.86 7.59005H17.6C17.06 7.59005 16.52 7.81005 16.15 8.20005L13.15 11.2C12.87 11.48 12.5 11.62 12.13 11.62C11.749 11.6147 11.3843 11.4645 11.11 11.2L8.08998 8.17005C7.70998 7.79005 7.18998 7.57005 6.63998 7.57005H5.16998L2.87998 9.87005C2.31818 10.4325 2.00262 11.195 2.00262 11.99C2.00262 12.785 2.31818 13.5475 2.87998 14.11L5.16998 16.41H6.64998C7.18998 16.41 7.70999 16.19 8.09999 15.81L11.12 12.79C11.4 12.51 11.77 12.37 12.14 12.37C12.51 12.37 12.88 12.51 13.16 12.79L16.17 15.8C16.55 16.18 17.07 16.4 17.62 16.4H18.88L21.13 14.14C21.6941 13.5674 22.0087 12.7948 22.005 11.9909C22.0012 11.1871 21.6795 10.4174 21.11 9.85005Z"/>
</mask>
<path d="M15.45 16.52L12.44 13.51C12.33 13.4 12.2 13.38 12.13 13.38C12.06 13.38 11.93 13.4 11.82 13.51L8.79998 16.53C8.45998 16.87 7.92998 17.42 6.15998 17.42L9.86998 21.12C10.4325 21.6818 11.195 21.9974 11.99 21.9974C12.785 21.9974 13.5475 21.6818 14.11 21.12L17.83 17.41C16.92 17.41 16.16 17.23 15.45 16.52ZM8.79998 7.47005L11.82 10.49C11.9 10.57 12.02 10.62 12.13 10.62C12.24 10.62 12.36 10.57 12.44 10.49L15.43 7.50005C16.14 6.76005 16.95 6.59005 17.86 6.59005L14.14 2.88005C13.5775 2.31824 12.815 2.00269 12.02 2.00269C11.225 2.00269 10.4625 2.31824 9.89998 2.88005L6.18998 6.58005C7.94998 6.58005 8.48998 7.16005 8.79998 7.47005Z" fill="black"/>
<path d="M21.11 9.85005L18.86 7.59005H17.6C17.06 7.59005 16.52 7.81005 16.15 8.20005L13.15 11.2C12.87 11.48 12.5 11.62 12.13 11.62C11.749 11.6147 11.3843 11.4645 11.11 11.2L8.08998 8.17005C7.70998 7.79005 7.18998 7.57005 6.63998 7.57005H5.16998L2.87998 9.87005C2.31818 10.4325 2.00262 11.195 2.00262 11.99C2.00262 12.785 2.31818 13.5475 2.87998 14.11L5.16998 16.41H6.64998C7.18998 16.41 7.70999 16.19 8.09999 15.81L11.12 12.79C11.4 12.51 11.77 12.37 12.14 12.37C12.51 12.37 12.88 12.51 13.16 12.79L16.17 15.8C16.55 16.18 17.07 16.4 17.62 16.4H18.88L21.13 14.14C21.6941 13.5674 22.0087 12.7948 22.005 11.9909C22.0012 11.1871 21.6795 10.4174 21.11 9.85005Z" fill="black"/>
<path d="M12.44 13.51L15.2684 10.6816L15.2684 10.6816L12.44 13.51ZM11.82 13.51L8.99156 10.6816L8.99156 10.6816L11.82 13.51ZM8.79998 16.53L5.97156 13.7016H5.97156L8.79998 16.53ZM6.15998 17.42V13.42H-3.51533L3.33538 20.2523L6.15998 17.42ZM9.86998 21.12L12.6967 18.2899L12.6946 18.2878L9.86998 21.12ZM14.11 21.12L11.2854 18.2878L11.2833 18.2899L14.11 21.12ZM17.83 17.41L20.6546 20.2423L27.5052 13.41H17.83V17.41ZM8.79998 7.47005L11.6284 4.64162V4.64162L8.79998 7.47005ZM11.82 10.49L8.99156 13.3185L11.82 10.49ZM12.44 10.49L9.61156 7.66162L9.61156 7.66162L12.44 10.49ZM15.43 7.50005L18.2584 10.3285L18.2877 10.2992L18.3163 10.2694L15.43 7.50005ZM17.86 6.59005V10.59H27.5352L20.6846 3.75781L17.86 6.59005ZM14.14 2.88005L11.3133 5.71023L11.3154 5.71228L14.14 2.88005ZM9.89998 2.88005L12.7246 5.71229L12.7267 5.71023L9.89998 2.88005ZM6.18998 6.58005L3.36538 3.7478L-3.48533 10.58H6.18998V6.58005ZM21.11 9.85005L18.2753 12.6722L18.2811 12.678L18.2869 12.6838L21.11 9.85005ZM18.86 7.59005L21.6947 4.7679L20.522 3.59005H18.86V7.59005ZM16.15 8.20005L18.9784 11.0285L19.0156 10.9913L19.0518 10.9531L16.15 8.20005ZM13.15 11.2L10.3216 8.37162L10.3216 8.37162L13.15 11.2ZM12.13 11.62L12.0737 15.6196L12.1018 15.62H12.13V11.62ZM11.11 11.2L8.27689 14.0238L8.305 14.052L8.33368 14.0797L11.11 11.2ZM8.08998 8.17005L10.9231 5.34629L10.9184 5.34162L8.08998 8.17005ZM5.16998 7.57005V3.57005H3.50802L2.3354 4.74779L5.16998 7.57005ZM2.87998 9.87005L5.71017 12.6967L5.71457 12.6923L2.87998 9.87005ZM2.87998 14.11L5.71457 11.2878L5.71017 11.2834L2.87998 14.11ZM5.16998 16.41L2.3354 19.2323L3.50802 20.41H5.16998V16.41ZM8.09999 15.81L10.8914 18.675L10.91 18.6568L10.9284 18.6385L8.09999 15.81ZM11.12 12.79L13.9484 15.6185L13.9484 15.6185L11.12 12.79ZM13.16 12.79L10.3316 15.6185L10.3316 15.6185L13.16 12.79ZM16.17 15.8L18.9984 12.9716L16.17 15.8ZM18.88 16.4V20.4H20.542L21.7147 19.2222L18.88 16.4ZM21.13 14.14L23.9647 16.9622L23.9721 16.9548L23.9794 16.9473L21.13 14.14ZM22.005 11.9909L26.0049 11.9723L22.005 11.9909ZM18.2784 13.6916L15.2684 10.6816L9.61156 16.3385L12.6216 19.3485L18.2784 13.6916ZM15.2684 10.6816C14.1669 9.58009 12.8622 9.38005 12.13 9.38005V17.38C11.5378 17.38 10.4931 17.22 9.61156 16.3385L15.2684 10.6816ZM12.13 9.38005C11.3978 9.38005 10.0931 9.58008 8.99156 10.6816L14.6484 16.3385C13.7669 17.22 12.7222 17.38 12.13 17.38V9.38005ZM8.99156 10.6816L5.97156 13.7016L11.6284 19.3585L14.6484 16.3385L8.99156 10.6816ZM5.97156 13.7016C5.86558 13.8076 5.92401 13.7448 6.00564 13.6799C6.05305 13.6423 6.10981 13.6014 6.17448 13.5613C6.23909 13.5212 6.30241 13.4877 6.36189 13.4607C6.61614 13.3452 6.63812 13.42 6.15998 13.42V21.42C7.45185 21.42 8.62383 21.2199 9.67058 20.7444C10.7675 20.2461 11.4135 19.5734 11.6284 19.3585L5.97156 13.7016ZM3.33538 20.2523L7.04538 23.9523L12.6946 18.2878L8.98459 14.5878L3.33538 20.2523ZM7.04332 23.9502C8.35582 25.2611 10.135 25.9974 11.99 25.9974V17.9974C12.255 17.9974 12.5091 18.1026 12.6967 18.2899L7.04332 23.9502ZM11.99 25.9974C13.845 25.9974 15.6241 25.2611 16.9367 23.9502L11.2833 18.2899C11.4708 18.1026 11.725 17.9974 11.99 17.9974V25.9974ZM16.9346 23.9523L20.6546 20.2423L15.0054 14.5778L11.2854 18.2878L16.9346 23.9523ZM17.83 13.41C17.6242 13.41 17.6843 13.3869 17.8552 13.4451C17.9448 13.4756 18.0384 13.5193 18.1252 13.574C18.2105 13.6278 18.2611 13.6743 18.2784 13.6916L12.6216 19.3485C14.3235 21.0505 16.2587 21.41 17.83 21.41V13.41ZM5.97156 10.2985L8.99156 13.3185L14.6484 7.66162L11.6284 4.64162L5.97156 10.2985ZM8.99156 13.3185C9.80636 14.1333 10.9376 14.62 12.13 14.62V6.62005C12.6633 6.62005 13.1294 6.73666 13.5083 6.89528C13.8888 7.05457 14.2871 7.30032 14.6484 7.66162L8.99156 13.3185ZM12.13 14.62C13.3224 14.62 14.4536 14.1333 15.2684 13.3185L9.61156 7.66162C9.97285 7.30033 10.3711 7.05458 10.7517 6.89528C11.1306 6.73666 11.5966 6.62005 12.13 6.62005V14.62ZM15.2684 13.3185L18.2584 10.3285L12.6016 4.67162L9.61156 7.66162L15.2684 13.3185ZM18.3163 10.2694C18.2806 10.3066 18.2146 10.3661 18.1172 10.4276C18.0194 10.4894 17.9209 10.5336 17.8349 10.5623C17.6774 10.6148 17.6342 10.59 17.86 10.59V2.59005C16.3761 2.59005 14.3029 2.8972 12.5437 4.73073L18.3163 10.2694ZM20.6846 3.75781L16.9646 0.0478145L11.3154 5.71228L15.0354 9.42228L20.6846 3.75781ZM16.9667 0.0498594C15.6541 -1.26101 13.875 -1.99731 12.02 -1.99731V6.00269C11.755 6.00269 11.5008 5.8975 11.3133 5.71023L16.9667 0.0498594ZM12.02 -1.99731C10.165 -1.99731 8.38582 -1.26101 7.07332 0.0498594L12.7267 5.71023C12.5392 5.8975 12.285 6.00269 12.02 6.00269V-1.99731ZM7.07538 0.0478044L3.36538 3.7478L9.01459 9.41229L12.7246 5.71229L7.07538 0.0478044ZM6.18998 10.58C6.41229 10.58 6.51554 10.5985 6.52938 10.6012C6.53815 10.6029 6.46721 10.5895 6.34719 10.5335C6.22164 10.4749 6.10192 10.3976 6.00085 10.3162C5.92298 10.2536 5.85806 10.185 5.97156 10.2985L11.6284 4.64162C11.4473 4.46049 10.8116 3.78869 9.73028 3.28406C8.68884 2.79806 7.50848 2.58005 6.18998 2.58005V10.58ZM23.9447 7.0279L21.6947 4.7679L16.0253 10.4122L18.2753 12.6722L23.9447 7.0279ZM18.86 3.59005H17.6V11.59H18.86V3.59005ZM17.6 3.59005C16.0255 3.59005 14.4157 4.21637 13.2481 5.447L19.0518 10.9531C18.6243 11.4037 18.0944 11.59 17.6 11.59V3.59005ZM13.3216 5.37162L10.3216 8.37162L15.9784 14.0285L18.9784 11.0285L13.3216 5.37162ZM10.3216 8.37162C10.8309 7.86229 11.4959 7.62005 12.13 7.62005V15.62C13.5041 15.62 14.9091 15.0978 15.9784 14.0285L10.3216 8.37162ZM12.1863 7.62044C12.8213 7.62938 13.4291 7.87965 13.8863 8.32044L8.33368 14.0797C9.33949 15.0494 10.6767 15.6 12.0737 15.6196L12.1863 7.62044ZM13.9431 8.3763L10.9231 5.3463L5.25689 10.9938L8.27689 14.0238L13.9431 8.3763ZM10.9184 5.34162C9.79535 4.21856 8.26083 3.57005 6.63998 3.57005V11.57C6.11914 11.57 5.62462 11.3615 5.26156 10.9985L10.9184 5.34162ZM6.63998 3.57005H5.16998V11.57H6.63998V3.57005ZM2.3354 4.74779L0.0454024 7.04779L5.71457 12.6923L8.00457 10.3923L2.3354 4.74779ZM0.0497984 7.04338C-1.26107 8.35588 -1.99738 10.135 -1.99738 11.99H6.00262C6.00262 12.255 5.89744 12.5092 5.71017 12.6967L0.0497984 7.04338ZM-1.99738 11.99C-1.99738 13.8451 -1.26107 15.6242 0.0497984 16.9367L5.71017 11.2834C5.89744 11.4709 6.00262 11.725 6.00262 11.99H-1.99738ZM0.0454022 16.9323L2.3354 19.2323L8.00457 13.5878L5.71457 11.2878L0.0454022 16.9323ZM5.16998 20.41H6.64998V12.41H5.16998V20.41ZM6.64998 20.41C8.27974 20.41 9.78876 19.7494 10.8914 18.675L5.30853 12.9451C5.63121 12.6307 6.10023 12.41 6.64998 12.41V20.41ZM10.9284 18.6385L13.9484 15.6185L8.29156 9.96162L5.27156 12.9816L10.9284 18.6385ZM13.9484 15.6185C13.4391 16.1278 12.7741 16.37 12.14 16.37V8.37005C10.7659 8.37005 9.36089 8.89228 8.29155 9.96162L13.9484 15.6185ZM12.14 16.37C11.5059 16.37 10.8409 16.1278 10.3316 15.6185L15.9884 9.96162C14.9191 8.89228 13.5141 8.37005 12.14 8.37005V16.37ZM10.3316 15.6185L13.3416 18.6285L18.9984 12.9716L15.9884 9.96162L10.3316 15.6185ZM13.3416 18.6285C14.4646 19.7515 15.9991 20.4 17.62 20.4V12.4C18.1408 12.4 18.6353 12.6086 18.9984 12.9716L13.3416 18.6285ZM17.62 20.4H18.88V12.4H17.62V20.4ZM21.7147 19.2222L23.9647 16.9622L18.2953 11.3179L16.0453 13.5779L21.7147 19.2222ZM23.9794 16.9473C25.2854 15.6218 26.0136 13.8331 26.0049 11.9723L18.005 12.0096C18.0038 11.7564 18.1029 11.5131 18.2806 11.3328L23.9794 16.9473ZM26.0049 11.9723C25.9963 10.1114 25.2514 8.32967 23.9331 7.01631L18.2869 12.6838C18.1075 12.5051 18.0062 12.2627 18.005 12.0096L26.0049 11.9723Z" fill="black" mask="url(#path-1-inside-1_4136_13664)"/>
</svg>
