<svg width="24" height="24" viewBox="0 0 24 24" fill="none" xmlns="http://www.w3.org/2000/svg">
<path d="M21.82 15.42L19.32 19.75C18.83 20.61 17.92 21.06 17 21H15V23L12.5 18.5L15 14V16H17.82L15.6 12.15L19.93 9.65L21.73 12.77C22.25 13.54 22.32 14.57 21.82 15.42ZM9.21003 3.06H14.21C15.19 3.06 16.04 3.63 16.45 4.45L17.45 6.19L19.18 5.19L16.54 9.6L11.39 9.69L13.12 8.69L11.71 6.24L9.50003 10.09L5.16003 7.59L6.96003 4.47C7.37003 3.64 8.22003 3.06 9.21003 3.06ZM5.05003 19.76L2.55003 15.43C2.06003 14.58 2.13003 13.56 2.64003 12.79L3.64003 11.06L1.91003 10.06L7.05003 10.14L9.70003 14.56L7.97003 13.56L6.56003 16H11V21H7.40003C6.47003 21.07 5.55003 20.61 5.05003 19.76Z" fill="black"/>
</svg>
