<svg width="24" height="24" viewBox="0 0 24 24" fill="none" xmlns="http://www.w3.org/2000/svg">
<path d="M13.1871 2C7.40191 2 2.71091 6.47778 2.71091 12H0.329956L3.74689 16.3222L3.82837 16.4778L7.55218 12H5.03895C5.03895 7.7 8.68234 4.22222 13.1871 4.22222C17.6919 4.22222 21.3352 7.7 21.3352 12C21.3352 16.3 17.6919 19.7778 13.1871 19.7778C10.9405 19.7778 8.9035 18.9 7.43683 17.4889L5.78392 19.0667C7.68128 20.8778 10.2887 22 13.1871 22C18.9723 22 23.6633 17.5222 23.6633 12C23.6633 6.47778 18.9723 2 13.1871 2Z" fill="black"/>
<path fill-rule="evenodd" clip-rule="evenodd" d="M9.99996 11L8.49996 12.5L12 16L18 10L16.5 8.5L12 13L9.99996 11Z" fill="black"/>
</svg>
