<svg width="24" height="24" viewBox="0 0 24 24" fill="none" xmlns="http://www.w3.org/2000/svg">
<path d="M18 3.97857H13.82C13.25 2.41857 11.53 1.61857 10 2.17857C9.14 2.47857 8.5 3.13857 8.18 3.97857H4C3.46957 3.97857 2.96086 4.18928 2.58579 4.56436C2.21071 4.93943 2 5.44814 2 5.97857V19.9786C2 20.509 2.21071 21.0177 2.58579 21.3928C2.96086 21.7679 3.46957 21.9786 4 21.9786H12.5V19.9786H4V5.97857H6V7.97857H16V5.97857H18V14.9221L20 15.9786V5.97857C20 5.44814 19.7893 4.93943 19.4142 4.56436C19.0391 4.18928 18.5304 3.97857 18 3.97857ZM11 5.97857C10.7348 5.97857 10.4804 5.87321 10.2929 5.68568C10.1054 5.49814 10 5.24379 10 4.97857C10 4.71335 10.1054 4.459 10.2929 4.27146C10.4804 4.08393 10.7348 3.97857 11 3.97857C11.2652 3.97857 11.5196 4.08393 11.7071 4.27146C11.8946 4.459 12 4.71335 12 4.97857C12 5.24379 11.8946 5.49814 11.7071 5.68568C11.5196 5.87321 11.2652 5.97857 11 5.97857ZM16 11.9786H6V9.97857H16V11.9786ZM12 15.9786H6V13.9786H12V15.9786Z" fill="black"/>
<path fill-rule="evenodd" clip-rule="evenodd" d="M14 19.7786V22.9786L22 18.9786L14 14.9786V18.1786L17.2 18.9786L14 19.7786Z" fill="black"/>
</svg>
