<svg width="24" height="24" viewBox="0 0 24 24" fill="none" xmlns="http://www.w3.org/2000/svg">
<path d="M7.33999 6.40999L0.859985 12.9L7.34999 19.38L13.84 12.9L7.33999 6.40999ZM3.68999 12.9L7.34999 9.23999L11 12.9L7.33999 16.56L3.68999 12.9ZM19.36 6.63999C17.61 4.87999 15.3 3.99999 13 3.99999V0.759995L8.75999 4.99999L13 9.23999V5.99999C14.79 5.99999 16.58 6.67999 17.95 8.04999C20.68 10.78 20.68 15.22 17.95 17.95C16.58 19.32 14.79 20 13 20C12.03 20 11.06 19.79 10.16 19.39L8.66999 20.88C10.02 21.62 11.51 22 13 22C15.3 22 17.61 21.12 19.36 19.36C22.88 15.85 22.88 10.15 19.36 6.63999Z" fill="black"/>
</svg>
