<svg width="24" height="24" viewBox="0 0 24 24" fill="none" xmlns="http://www.w3.org/2000/svg">
<path d="M17.6629 3.00513C18.2082 2.9194 18.7198 3.29169 18.806 3.8369L19.1805 6.20667C19.2304 6.52285 19.4287 6.796 19.7139 6.94142L21.8822 8.04717C22.373 8.29748 22.5689 8.89764 22.3202 9.3893L21.2289 11.5474C21.085 11.8318 21.0854 12.1678 21.2299 12.452L22.3256 14.6065C22.5764 15.0996 22.3792 15.7026 21.8855 15.9522L19.6966 17.059C19.4099 17.204 19.2103 17.478 19.1601 17.7954L18.7859 20.1634C18.6998 20.7084 18.1884 21.0807 17.6432 20.9952L15.2413 20.6186C14.9262 20.5691 14.6065 20.673 14.3806 20.8981L12.6796 22.5929C12.2879 22.9832 11.6538 22.9815 11.2642 22.589L9.55381 20.8664C9.32558 20.6365 9.00016 20.5314 8.6806 20.5844L6.32272 20.9753C5.77546 21.0661 5.25893 20.694 5.17162 20.1462L4.79006 17.7523C4.73976 17.4366 4.5416 17.1641 4.25687 17.0188L2.1098 15.9238C1.61821 15.673 1.42264 15.0715 1.67279 14.5796L2.76911 12.4239C2.91417 12.1387 2.91397 11.8013 2.76857 11.5162L1.68238 9.38682C1.43222 8.89638 1.62554 8.29597 2.11487 8.04364L4.29034 6.92182C4.57305 6.77603 4.76955 6.50444 4.81958 6.19032L5.19178 3.85339C5.27901 3.30568 5.79531 2.93358 6.34249 3.02407L8.70971 3.41555C9.02977 3.46848 9.35561 3.36287 9.58376 3.13225L11.2929 1.40466C11.6828 1.01055 12.3189 1.00885 12.7109 1.40085L14.4102 3.10016C14.6363 3.32622 14.9568 3.43057 15.2726 3.38092L17.6629 3.00513ZM9.5 6.99994C9.10218 6.99994 8.72064 7.15798 8.43934 7.43928C8.15804 7.72059 8 8.10212 8 8.49994C8 8.89777 8.15804 9.2793 8.43934 9.5606C8.72064 9.84191 9.10218 9.99994 9.5 9.99994C9.89783 9.99994 10.2794 9.84191 10.5607 9.5606C10.842 9.2793 11 8.89777 11 8.49994C11 8.10212 10.842 7.72059 10.5607 7.43928C10.2794 7.15798 9.89783 6.99994 9.5 6.99994ZM14.5 13.9999C14.1022 13.9999 13.7206 14.158 13.4393 14.4393C13.158 14.7206 13 15.1021 13 15.4999C13 15.8978 13.158 16.2793 13.4393 16.5606C13.7206 16.8419 14.1022 16.9999 14.5 16.9999C14.8978 16.9999 15.2794 16.8419 15.5607 16.5606C15.842 16.2793 16 15.8978 16 15.4999C16 15.1021 15.842 14.7206 15.5607 14.4393C15.2794 14.158 14.8978 13.9999 14.5 13.9999ZM8.41 16.9999L17 8.40994L15.59 6.99994L7 15.5899L8.41 16.9999Z" fill="black"/>
</svg>
