<svg width="24" height="24" viewBox="0 0 24 24" fill="none" xmlns="http://www.w3.org/2000/svg">
<path d="M9.49997 7.00001C10.33 7.00001 11 7.67001 11 8.50001C11 9.33001 10.33 10 9.49997 10C8.66997 10 7.99997 9.33001 7.99997 8.50001C7.99997 7.67001 8.66997 7.00001 9.49997 7.00001ZM14.5 14C15.33 14 16 14.67 16 15.5C16 16.33 15.33 17 14.5 17C13.67 17 13 16.33 13 15.5C13 14.67 13.67 14 14.5 14ZM8.40997 17L6.99997 15.59L15.59 7.00001L17 8.41001L8.40997 17ZM18.65 2.85001L19.26 6.71001L22.77 8.50001L21 12L22.78 15.5L19.24 17.29L18.63 21.15L14.74 20.54L11.97 23.31L9.18997 20.5L5.32997 21.14L4.70997 17.25L1.21997 15.47L2.99997 11.97L1.22997 8.50001L4.73997 6.69001L5.34997 2.87001L9.21997 3.50001L12 0.695007L14.76 3.46001L18.65 2.85001ZM20.1 9.37001L17.5 8.00001L17 5.11001L14.1 5.53001L12 3.50001L9.89997 5.53001L6.99997 5.11001L6.49997 8.00001L3.89997 9.37001L5.19997 12L3.89997 14.63L6.49997 16L6.99997 18.89L9.89997 18.47L12 20.5L14.1 18.47L17 18.89L17.5 16L20.1 14.63L18.8 12L20.1 9.37001Z" fill="black"/>
</svg>
