<svg width="24" height="24" viewBox="0 0 24 24" fill="none" xmlns="http://www.w3.org/2000/svg">
<path d="M12.0001 7.11112C13.3501 7.11112 14.4446 6.0167 14.4446 4.66667C14.4446 3.31664 13.3501 2.22223 12.0001 2.22223C10.6501 2.22223 9.55566 3.31664 9.55566 4.66667C9.55566 6.0167 10.6501 7.11112 12.0001 7.11112Z" fill="black"/>
<path d="M23 16.8889V14.4444C20.2622 14.4444 17.9156 13.2711 16.1556 11.1689L14.5178 9.21331C14.0533 8.65109 13.3689 8.33331 12.6478 8.33331H11.3644C10.6433 8.33331 9.95889 8.65109 9.49444 9.21331L7.85667 11.1689C6.08444 13.2711 3.73778 14.4444 1 14.4444V16.8889C4.38556 16.8889 7.34333 15.4589 9.55556 12.9166V15.6666L4.81333 17.5611C3.99444 17.8911 3.44444 18.6978 3.44444 19.59C3.44444 20.8 4.42222 21.7778 5.63222 21.7778H8.33333V21.1666C8.33333 19.48 9.70222 18.1111 11.3889 18.1111H15.0556C15.3978 18.1111 15.6667 18.38 15.6667 18.7222C15.6667 19.0644 15.3978 19.3333 15.0556 19.3333H11.3889C10.3744 19.3333 9.55556 20.1522 9.55556 21.1666V21.7778H18.3678C19.5778 21.7778 20.5556 20.8 20.5556 19.59C20.5556 18.6978 20.0056 17.8911 19.1867 17.5611L14.4444 15.6666V12.9166C16.6567 15.4589 19.6144 16.8889 23 16.8889Z" fill="black"/>
</svg>
