<svg width="24" height="24" viewBox="0 0 24 24" fill="none" xmlns="http://www.w3.org/2000/svg">
<path d="M15.7301 3H8.27012L3.00012 8.27V15.73L8.27012 21H15.7301L21.0001 15.73V8.27L15.7301 3ZM19.0001 14.9L14.9001 19H9.10012L5.00012 14.9V9.1L9.10012 5H14.9001L19.0001 9.1V14.9Z" fill="black"/>
<path fill-rule="evenodd" clip-rule="evenodd" d="M12 15C13.6568 15 15 13.6568 15 12C15 10.3431 13.6568 8.99998 12 8.99998C10.3431 8.99998 8.99998 10.3431 8.99998 12C8.99998 13.6568 10.3431 15 12 15ZM12 17C14.7614 17 17 14.7614 17 12C17 9.23856 14.7614 6.99998 12 6.99998C9.23856 6.99998 6.99998 9.23856 6.99998 12C6.99998 14.7614 9.23856 17 12 17Z" fill="black"/>
</svg>
