<svg width="24" height="24" viewBox="0 0 24 24" fill="none" xmlns="http://www.w3.org/2000/svg">
<path fill-rule="evenodd" clip-rule="evenodd" d="M20.71 13.65C20.9 12.78 21 11.9 21 11V5L12 1L3 5V11C3 16.55 6.84 21.74 12 23L13.22 22.62C12.83 22.11 12.5 21.53 12.31 20.91L12 21C8.25 20 5 15.54 5 11.22V6.3L12 3.18L19 6.3V11.22C19 11.83 18.93 12.45 18.81 13.05C19.5 13.15 20.13 13.35 20.71 13.65Z" fill="black"/>
<path fill-rule="evenodd" clip-rule="evenodd" d="M17 21L14.25 18L15.41 16.84L17 18.43L20.59 14.84L21.75 16.25L17 21Z" fill="black"/>
</svg>
