<svg width="24" height="24" viewBox="0 0 24 24" fill="none" xmlns="http://www.w3.org/2000/svg">
<path d="M18 6H16C16 3.79 14.21 2 12 2C9.79 2 8 3.79 8 6H6C4.9 6 4 6.9 4 8V20C4 21.1 4.9 22 6 22H11.5V21L18 12C20 12 19.5 12 20 12V8C20 6.9 19.1 6 18 6ZM12 4C13.1 4 14 4.9 14 6H10C10 4.9 10.9 4 12 4ZM18 12L11.5 21V20H6V8H8C8 8.55 8.45 9 9 9C9.55 9 10 8.55 10 8H14C14 8.55 14.45 9 15 9C15.55 9 16 8.55 16 8H18V12Z" fill="black"/>
<path d="M15.4935 10C11.9055 10 9 12.912 9 16.5C9 20.088 11.9055 23 15.4935 23C19.088 23 22 20.088 22 16.5C22 12.912 19.088 10 15.4935 10ZM15.5 21.7C12.627 21.7 10.3 19.373 10.3 16.5C10.3 13.627 12.627 11.3 15.5 11.3C18.373 11.3 20.7 13.627 20.7 16.5C20.7 19.373 18.373 21.7 15.5 21.7ZM15.825 13.25H14.85V17.15L18.2625 19.1975L18.75 18.398L15.825 16.6625V13.25Z" fill="black"/>
<path fill-rule="evenodd" clip-rule="evenodd" d="M16.025 13.05V16.5486L19.0261 18.3293L18.3299 19.4712L14.65 17.2632V13.05H16.025ZM15.825 16.6625V13.25H14.85V17.15L18.2625 19.1975L18.75 18.398L15.825 16.6625ZM8.8 16.5C8.8 12.8018 11.7948 9.8 15.4935 9.8C19.1983 9.8 22.2 12.8014 22.2 16.5C22.2 20.1986 19.1983 23.2 15.4935 23.2C11.7948 23.2 8.8 20.1982 8.8 16.5ZM10.5 16.5C10.5 19.2625 12.7375 21.5 15.5 21.5C18.2625 21.5 20.5 19.2625 20.5 16.5C20.5 13.7375 18.2625 11.5 15.5 11.5C12.7375 11.5 10.5 13.7375 10.5 16.5ZM9 16.5C9 12.912 11.9055 10 15.4935 10C19.088 10 22 12.912 22 16.5C22 20.088 19.088 23 15.4935 23C11.9055 23 9 20.088 9 16.5ZM10.3 16.5C10.3 19.373 12.627 21.7 15.5 21.7C18.373 21.7 20.7 19.373 20.7 16.5C20.7 13.627 18.373 11.3 15.5 11.3C12.627 11.3 10.3 13.627 10.3 16.5Z" fill="black"/>
</svg>
