<svg width="24" height="24" viewBox="0 0 24 24" fill="none" xmlns="http://www.w3.org/2000/svg">
<path d="M3 5V9H5V5H9V3H5C3.9 3 3 3.9 3 5ZM5 15H3V19C3 20.1 3.9 21 5 21H9V19H5V15ZM19 19H15V21H19C20.1 21 21 20.1 21 19V15H19V19ZM19 3H15V5H19V9H21V5C21 3.9 20.1 3 19 3Z" fill="black"/>
<path d="M12 8C12.7333 8 13.3333 8.6 13.3333 9.33333C13.3333 10.0667 12.7333 10.6667 12 10.6667C11.2667 10.6667 10.6667 10.0667 10.6667 9.33333C10.6667 8.6 11.2667 8 12 8ZM12 14.6667C13.8 14.6667 15.8667 15.5267 16 16H8C8.15333 15.52 10.2067 14.6667 12 14.6667ZM12 6.66667C10.5267 6.66667 9.33333 7.86 9.33333 9.33333C9.33333 10.8067 10.5267 12 12 12C13.4733 12 14.6667 10.8067 14.6667 9.33333C14.6667 7.86 13.4733 6.66667 12 6.66667ZM12 13.3333C10.22 13.3333 6.66667 14.2267 6.66667 16V17.3333H17.3333V16C17.3333 14.2267 13.78 13.3333 12 13.3333Z" fill="black"/>
</svg>
