<svg width="24" height="24" viewBox="0 0 24 24" fill="none" xmlns="http://www.w3.org/2000/svg">
<path d="M17 1.01L7 1C5.9 1 5 1.9 5 3V21C5 22.1 5.9 23 7 23H17C18.1 23 19 22.1 19 21V3C19 1.9 18.1 1.01 17 1.01ZM17 19H7V5H17V19Z" fill="black"/>
<path d="M8.25 8.84579V10.5125H9.08333V8.84579H10.75V8.01246H9.08333C8.625 8.01246 8.25 8.38746 8.25 8.84579ZM9.08333 13.0125H8.25V14.6791C8.25 15.1375 8.625 15.5125 9.08333 15.5125H10.75V14.6791H9.08333V13.0125ZM14.9167 14.6791H13.25V15.5125H14.9167C15.375 15.5125 15.75 15.1375 15.75 14.6791V13.0125H14.9167V14.6791ZM14.9167 8.01246H13.25V8.84579H14.9167V10.5125H15.75V8.84579C15.75 8.38746 15.375 8.01246 14.9167 8.01246Z" fill="black"/>
</svg>
