<svg width="24" height="24" viewBox="0 0 24 24" fill="none" xmlns="http://www.w3.org/2000/svg">
<path d="M20.5 13H22V16H20.5V13ZM18 13H19.5V16H18V13ZM17 13H14.66L17 15.34V13ZM14.5 8.65001H16.03C17.08 8.65001 18 9.39001 18 10.7V12H19.5V10.36C19.5 8.55001 17.9 7.20001 16.03 7.20001H14.5C13.48 7.20001 12.65 6.22001 12.65 5.20001C12.65 4.18001 13.48 3.45001 14.5 3.45001V1.95001C12.65 1.95001 11.15 3.45001 11.15 5.30001C11.15 7.15001 12.65 8.65001 14.5 8.65001ZM18.85 4.73001C19.47 4.12001 19.85 3.28001 19.85 2.35001H18.35C18.35 3.37001 17.52 4.20001 16.5 4.20001V5.70001C18.74 5.70001 20.5 7.53001 20.5 9.77001V12H22V9.76001C22 7.54001 20.72 5.62001 18.85 4.73001ZM3.41 4.59001L2 6.00001L9 13H2V16H12L19 23L20.41 21.59L3.41 4.59001Z" fill="black"/>
</svg>
