<svg width="24" height="24" viewBox="0 0 24 24" fill="none" xmlns="http://www.w3.org/2000/svg">
<g clip-path="url(#clip0_4136_16934)">
<path d="M2.3999 21.1999C2.3999 21.8331 2.3999 22.8358 2.3999 23.5999C3.38864 23.5999 4.1011 23.5999 4.7999 23.5999L19.1999 23.5999C19.8364 23.5999 20.6603 23.5999 21.5999 23.6C21.5999 22.8243 21.5999 21.8364 21.5999 21.1999L21.5999 1.99997C21.5999 1.36345 21.5999 0.54281 21.5999 -0.400023C20.4856 -0.400023 19.8364 -0.400023 19.1999 -0.400023L4.7999 -0.400023C4.16338 -0.400023 2.9999 -0.400023 2.3999 -0.400023C2.3999 0.285667 2.3999 1.36345 2.3999 1.99997L2.3999 21.1999ZM4.7999 21.1999L4.7999 12.7999L7.35589 12.7999C7.90789 14.9119 9.81589 16.3999 11.9999 16.3999C13.0629 16.3971 14.095 16.0423 14.9352 15.3911C15.7753 14.7398 16.3761 13.8287 16.6439 12.7999L19.1999 12.7999L19.1999 21.1999L16.7999 21.1999L16.7999 17.5999L7.19989 17.5999L7.19989 21.1999L4.7999 21.1999ZM4.7999 10.3999L4.7999 1.99997L7.19989 1.99997L7.19989 5.59996L16.7999 5.59996L16.7999 1.99997L19.1999 1.99997L19.1999 10.3999L16.6439 10.3999C16.0919 8.28795 14.1839 6.79996 11.9999 6.79996C10.9369 6.8028 9.90474 7.15755 9.06461 7.80882C8.22447 8.46008 7.62363 9.37121 7.35589 10.3999L4.7999 10.3999ZM9.59989 21.1999L9.59989 19.9999L14.3999 19.9999L14.3999 21.1999L9.59989 21.1999ZM9.59989 3.19997L9.59989 1.99997L14.3999 1.99997L14.3999 3.19997L9.59989 3.19997ZM9.92389 10.3999C10.3559 9.65595 11.1479 9.19995 11.9999 9.19995C12.8519 9.19995 13.6439 9.65595 14.0759 10.3999L9.92389 10.3999ZM9.92389 12.7999L14.0759 12.7999C13.6439 13.5439 12.8519 13.9999 11.9999 13.9999C11.1479 13.9999 10.3559 13.5439 9.92389 12.7999Z" fill="black"/>
</g>
<defs>
<clipPath id="clip0_4136_16934">
<rect width="24" height="24" fill="white"/>
</clipPath>
</defs>
</svg>
