<svg width="24" height="24" viewBox="0 0 24 24" fill="none" xmlns="http://www.w3.org/2000/svg">
<path d="M14.27 6.00002C13.72 6.95002 14.05 8.18002 15 8.73002C15.95 9.28001 17.18 8.95002 17.73 8.00002C18.28 7.05002 17.95 5.82002 17 5.27002C16.05 4.72002 14.82 5.05002 14.27 6.00002Z" fill="black"/>
<path d="M15.84 10.41C15.84 10.41 14.21 9.47003 13.24 8.91003C10.86 7.53003 10.04 4.47003 11.42 2.09003L9.69001 1.09003C8.10001 3.83003 8.60001 7.21003 10.66 9.40003L5.51001 18.32L7.24001 19.32L8.74001 16.72L10.47 17.72L7.47001 22.92L9.20001 23.92L15.49 13.03C16.63 14.58 16.82 16.72 15.8 18.49L17.53 19.49C19.13 16.74 18.81 12.91 15.84 10.41Z" fill="black"/>
<path d="M12.7499 3.80002C13.4699 4.21002 14.3799 3.97002 14.7999 3.25002C15.2099 2.53002 14.9699 1.62002 14.2499 1.20002C13.5299 0.790021 12.6199 1.03002 12.1999 1.75002C11.7899 2.47002 12.0299 3.39002 12.7499 3.80002Z" fill="black"/>
</svg>
