<svg width="24" height="24" viewBox="0 0 24 24" fill="none" xmlns="http://www.w3.org/2000/svg">
<path d="M11.4833 17.5819C11.8011 17.3901 12.199 17.3901 12.5168 17.5819L16.151 19.7754C16.9084 20.2325 17.8426 19.5535 17.6416 18.692L16.6772 14.5578C16.5928 14.1963 16.7157 13.8178 16.9963 13.5748L20.2087 10.7919C20.8773 10.2127 20.5198 9.11442 19.6384 9.03964L15.4109 8.68098C15.0413 8.64962 14.7195 8.41629 14.5747 8.07479L12.9208 4.17237C12.5762 3.35934 11.4239 3.35934 11.0793 4.17237L9.42537 8.07479C9.28063 8.41629 8.95876 8.64962 8.58918 8.68098L4.36168 9.03964C3.48025 9.11442 3.12284 10.2127 3.79144 10.7919L7.00384 13.5748C7.28441 13.8178 7.40725 14.1963 7.32292 14.5578L6.35846 18.692C6.1575 19.5535 7.09173 20.2325 7.84905 19.7754L11.4833 17.5819Z" fill="black"/>
</svg>
