<svg width="24" height="24" viewBox="0 0 24 24" fill="none" xmlns="http://www.w3.org/2000/svg">
<path d="M20.8301 12.91V12.9245L20.8309 12.939C20.9109 14.3176 20.2796 15.6433 19.1488 16.4536L18.7974 16.7054L18.9959 17.0896L19.7648 18.5776C19.765 18.5779 19.7652 18.5783 19.7654 18.5786C19.9309 18.9033 19.9489 19.2779 19.81 19.6042L19.8099 19.6042L19.8065 19.6126C19.671 19.9477 19.3928 20.2109 19.0552 20.3246L18.2692 20.5733L18.2614 20.5758L18.2536 20.5785C18.1413 20.6182 18.008 20.64 17.8801 20.64C17.5241 20.64 17.1864 20.4807 16.9496 20.1865L16.9497 20.1864L16.9414 20.1766L14.8214 17.6766L14.7033 17.5373L14.5232 17.507C13.7188 17.3714 12.9577 17.0276 12.3131 16.5101L12.1081 16.3456L11.8564 16.4211C11.3977 16.5587 10.9461 16.63 10.5001 16.63C9.72129 16.63 8.94199 16.3908 8.28753 15.9309L8.08847 15.791L7.85556 15.8613C7.37791 16.0055 6.88992 16.0692 6.38915 16.0601L6.38144 16.06L6.37373 16.0601C5.65823 16.0691 4.94737 15.9248 4.27735 15.6505C3.02404 15.0864 2.19357 13.8582 2.1498 12.4841L2.14918 12.4644L2.147 12.4448C2.07716 11.8163 2.18189 11.179 2.45262 10.6026L2.54351 10.4091L2.46641 10.2097C2.21814 9.56762 2.19281 8.87147 2.4009 8.22888C2.72916 7.39492 3.34799 6.69674 4.1192 6.25352L4.28202 6.15994L4.34298 5.98232C4.85258 4.49745 6.281 3.5146 7.83661 3.61889L8.05347 3.63343L8.21203 3.48478C9.63778 2.14814 11.8213 2.00595 13.4066 3.15487L13.5981 3.29359L13.8267 3.2337C14.2076 3.13395 14.605 3.08001 15.0001 3.08001V3.08013L15.0111 3.07989C16.2157 3.05332 17.3564 3.5842 18.1086 4.53102L18.2125 4.66191L18.3743 4.70394C20.1994 5.1781 21.5087 6.80806 21.5804 8.70887L21.5806 8.71251C21.6258 9.71715 21.3545 10.7034 20.802 11.5458L20.6904 11.7158L20.7292 11.9154C20.7941 12.2488 20.8301 12.5766 20.8301 12.91ZM15.7201 13.07H15.3672L15.249 13.4025C14.9598 14.2157 14.454 14.9293 13.7852 15.4716L13.0964 16.0301L13.9307 16.3305C14.1262 16.4008 14.3472 16.455 14.5345 16.501C14.6098 16.5194 14.6795 16.5365 14.7401 16.5528L14.8073 16.5709L14.8769 16.57C17.5413 16.5336 18.8715 15.695 19.4845 14.6997C19.7817 14.2174 19.8836 13.7377 19.9121 13.3786C19.9264 13.1986 19.9224 13.0466 19.9146 12.9359C19.9107 12.8804 19.9058 12.8355 19.9018 12.8033L19.8987 12.7789C19.8171 11.0912 18.3997 9.76559 16.7018 9.82994C16.5722 9.82781 16.4483 9.77539 16.3565 9.68356C16.2627 9.5898 16.2101 9.46262 16.2101 9.33001C16.2101 9.1974 16.2627 9.07023 16.3565 8.97646C16.449 8.88391 16.5741 8.83139 16.7049 8.83004C17.8157 8.85876 18.8801 9.27493 19.7097 10.0053L20.3808 10.5962L20.5328 9.71496C20.5868 9.40157 20.6201 9.07286 20.6201 8.74001V8.72792L20.6195 8.71585C20.5864 8.03244 20.412 7.31611 19.8688 6.74436C19.372 6.22147 18.6274 5.88325 17.5861 5.7448C17.2459 5.06592 16.7911 4.60239 16.2682 4.327C15.6828 4.01863 15.0576 3.97009 14.5003 4.06162C13.9468 4.15253 13.439 4.38436 13.0612 4.66859C12.872 4.8109 12.7032 4.97553 12.5776 5.15579C12.4604 5.324 12.3585 5.53852 12.3506 5.7797C12.3389 5.91594 12.3629 6.04608 12.3847 6.13673C12.4107 6.2452 12.4476 6.35223 12.4838 6.44376C12.5203 6.53614 12.5599 6.62243 12.5953 6.69127C12.6127 6.72516 12.6318 6.75996 12.6513 6.79146C12.6608 6.80681 12.6738 6.82698 12.6895 6.8481L12.6904 6.84923C12.6994 6.8614 12.7381 6.91354 12.8001 6.96001L12.9334 7.06001H13.1001C13.2327 7.06001 13.3598 7.11269 13.4536 7.20646C13.5474 7.30023 13.6001 7.4274 13.6001 7.56001C13.6001 7.83108 13.3785 8.05539 13.1084 8.05994C12.6972 8.04206 12.3079 7.88598 11.9939 7.61904L11.7108 7.37846L11.3988 7.57999C10.988 7.84527 10.5152 8.00965 10.0225 8.06225C9.72329 8.08664 9.51317 7.88684 9.49932 7.63278L9.49812 7.61095L9.49503 7.5893C9.45721 7.32452 9.64824 7.08315 9.92533 7.05796L9.93371 7.05719L9.94207 7.05615C10.0372 7.04426 10.3441 7.00088 10.6398 6.84783C10.9459 6.68948 11.3201 6.36346 11.3201 5.79001C11.3201 5.25788 11.5216 4.74176 11.8791 4.32603L12.3958 3.72528L11.6312 3.51751C10.5273 3.21754 9.41812 3.61544 8.39104 4.75534C7.58838 4.64664 6.8782 4.64326 6.29358 4.96788C5.67156 5.31327 5.3068 5.95991 5.03189 6.85043C4.63698 7.0522 4.27882 7.26197 3.99106 7.54443C3.63743 7.89155 3.41824 8.31754 3.29173 8.89258L3.12655 9.6434L3.87986 9.48995C4.86639 9.28899 5.88098 9.37063 6.82437 9.71814C7.073 9.81377 7.2156 10.0931 7.11941 10.3712C7.02721 10.6189 6.74727 10.754 6.48352 10.6646C5.63731 10.2989 4.68956 10.2789 3.82518 10.6016L3.74392 10.6319L3.67762 10.6879C3.38587 10.934 3.27562 11.2801 3.22753 11.5551C3.17998 11.8271 3.18002 12.1136 3.18006 12.3239L3.18006 12.34C3.18006 13.2476 3.63464 14.0985 4.41205 14.5921L4.43202 14.6048L4.45309 14.6155C5.05379 14.9215 5.7244 15.0814 6.39853 15.0699L7.24742 15.0556L6.82315 14.3201C6.6873 14.0847 6.56934 13.8403 6.46921 13.5868C6.37784 13.3145 6.52362 13.011 6.80601 12.9117C7.08016 12.8152 7.38816 12.9611 7.4884 13.246C7.95483 14.5748 9.1425 15.4772 10.5262 15.6271L10.5658 15.6314L10.6056 15.6294C12.1591 15.55 13.5419 14.6309 14.2208 13.2164L14.2516 13.1523L14.2633 13.0822C14.3101 12.8012 14.3963 12.6145 14.4941 12.4853C14.591 12.3574 14.7171 12.2622 14.8807 12.1899C15.2251 12.0379 15.6967 12.0013 16.2963 12C16.6454 12.054 16.8501 12.3035 16.8501 12.57C16.8501 12.7026 16.7974 12.8298 16.7036 12.9236C16.6098 13.0173 16.4827 13.07 16.3501 13.07H15.7201ZM18.4882 19.4444L19.0249 19.2654L18.7814 18.7548L18.1614 17.4548L17.9895 17.0945L17.6001 17.1822L16.8901 17.3422L16.1101 17.518L16.6096 18.1424L17.6096 19.3924L17.8274 19.6646L18.1582 19.5544L18.4882 19.4444ZM13.1804 10.3412L13.1801 10.3506V10.36C13.1801 10.585 12.9798 10.7967 12.6873 10.7808L12.6737 10.78H12.6601C12.3942 10.78 12.128 10.8642 11.91 11.0459L11.8622 11.0857L11.8257 11.1359C11.5914 11.4581 11.5001 11.8371 11.5001 12.19C11.5001 12.4704 11.2874 12.69 11.0001 12.69C10.8674 12.69 10.7403 12.6373 10.6465 12.5436C10.5527 12.4498 10.5001 12.3226 10.5001 12.19V12.1808L10.4997 12.1715C10.4749 11.5006 10.7216 10.8409 11.1846 10.3628C11.6114 9.99026 12.1624 9.7993 12.7314 9.82865C12.9977 9.85801 13.1901 10.0834 13.1804 10.3412Z" fill="black" stroke="black"/>
</svg>
