<svg width="24" height="24" viewBox="0 0 24 24" fill="none" xmlns="http://www.w3.org/2000/svg">
<path fill-rule="evenodd" clip-rule="evenodd" d="M10.0266 2.1992C12.2723 1.74639 14.4948 2.08442 16.4039 3.02156C16.5479 3.09221 16.6073 3.26615 16.5366 3.41007C16.466 3.55399 16.292 3.6134 16.1481 3.54275C14.3498 2.66002 12.2573 2.34169 10.1413 2.76834L10.1413 2.76834C7.7378 3.2529 5.73469 4.61172 4.39507 6.4474C4.30056 6.57691 4.11895 6.60528 3.98945 6.51077C3.85994 6.41626 3.83157 6.23466 3.92608 6.10515C5.3479 4.15682 7.47527 2.71355 10.0266 2.1992ZM10.2663 3.38826C11.2532 3.18924 12.2352 3.16402 13.1806 3.29174C13.3395 3.3132 13.4509 3.4594 13.4295 3.61828C13.408 3.77716 13.2618 3.88857 13.1029 3.8671C12.2206 3.74792 11.3037 3.77133 10.3811 3.95739L10.3811 3.95739C6.00947 4.83879 3.15522 9.04196 3.91667 13.4089L3.9602 13.6247C4.14052 14.5186 3.86019 15.3979 3.28523 16.0182C3.17624 16.1358 2.99257 16.1428 2.87498 16.0338C2.7574 15.9248 2.75043 15.7411 2.85942 15.6235C3.28927 15.1598 3.50896 14.5148 3.41054 13.8508L3.38823 13.7402C2.42883 8.98212 5.50818 4.34758 10.2663 3.38826ZM14.3143 3.81832C14.3632 3.66565 14.5267 3.58156 14.6793 3.63051C17.5377 4.54692 19.8444 6.90485 20.5645 10.0186L20.5704 10.0182L20.6204 10.2659C21.0529 12.4108 21.1189 14.5448 20.8626 16.6035C20.8428 16.7626 20.6978 16.8755 20.5387 16.8557C20.3796 16.8359 20.2666 16.6909 20.2864 16.5318C20.5253 14.6135 20.4758 12.6275 20.0996 10.6285L20.0988 10.6285L20.0489 10.3808C19.4396 7.35925 17.2435 5.06228 14.5021 4.18338C14.3494 4.13444 14.2653 3.97099 14.3143 3.81832ZM17.345 3.88832C17.4371 3.75708 17.6182 3.72535 17.7494 3.81744C19.7601 5.22842 21.258 7.37903 21.7956 9.9712C21.8027 9.98838 21.8083 10.0065 21.8121 10.0254C21.9597 10.7573 22.0232 11.4869 22.0095 12.2042C22.0064 12.3645 21.874 12.4919 21.7137 12.4889C21.5534 12.4858 21.4259 12.3533 21.429 12.1931C21.4416 11.5353 21.3852 10.866 21.2537 10.1939C21.2468 10.1771 21.2415 10.1595 21.2378 10.1412C20.7407 7.67596 19.3239 5.63157 17.4159 4.2927C17.2847 4.2006 17.2529 4.01956 17.345 3.88832ZM19.3809 10.2844C18.4572 6.3094 14.533 3.76526 10.506 4.57716L10.506 4.57716C7.3537 5.21283 5.0568 7.71965 4.5376 10.7072C4.51015 10.8651 4.61595 11.0154 4.7739 11.0429C4.93186 11.0703 5.08217 10.9645 5.10962 10.8066C5.58919 8.04706 7.71089 5.73308 10.6207 5.1463C14.4077 4.3828 18.0962 6.83351 18.8598 10.6206L18.904 10.84C18.9487 11.0766 18.9885 11.3129 19.0236 11.5489C19.0471 11.7075 19.1947 11.817 19.3533 11.7935C19.5119 11.7699 19.6214 11.6223 19.5979 11.4637C19.5505 11.1448 19.4947 10.8255 19.4304 10.506L19.3858 10.2846L19.3809 10.2844ZM15.6694 7.53192C14.3734 6.47051 12.63 5.97852 10.8604 6.33529L10.8604 6.33529C10.4122 6.42562 9.98702 6.56546 9.58916 6.74781C9.44342 6.81461 9.27111 6.75061 9.20431 6.60486C9.13751 6.45912 9.20151 6.28681 9.34726 6.22001C9.78545 6.01917 10.2533 5.86538 10.7457 5.76614C12.6932 5.37351 14.6123 5.9157 16.0373 7.08275C16.1613 7.18433 16.1795 7.36724 16.0779 7.49127C15.9764 7.61531 15.7935 7.63351 15.6694 7.53192ZM10.9855 6.95513C13.7734 6.39299 16.4888 8.19724 17.0511 10.9852L17.0887 11.1717L17.0869 11.1729C17.4474 13.0744 17.4561 14.9634 17.1582 16.7719C17.1322 16.9301 16.9828 17.0372 16.8246 17.0111C16.6664 16.9851 16.5593 16.8357 16.5854 16.6775C16.8818 14.878 16.8632 12.9952 16.4812 11.1005L16.464 11.015C15.9277 8.58977 13.5454 7.03125 11.1003 7.52427C8.70289 8.00772 7.1253 10.2857 7.48443 12.6777L7.53027 12.905C7.66218 13.5592 7.68871 14.2108 7.62122 14.8417C7.60417 15.0011 7.46111 15.1166 7.30169 15.0995C7.14228 15.0824 7.02687 14.9394 7.04392 14.78C7.09636 14.2898 7.08634 13.7853 7.00704 13.2767L6.95547 13.0209C6.39326 10.2329 8.19758 7.51734 10.9855 6.95513L11.0429 7.2397L10.9855 6.95513ZM8.40377 7.10242C8.50484 7.22688 8.48588 7.4097 8.36142 7.51077C6.80253 8.77669 5.95661 10.8148 6.29369 12.9152L6.34005 13.145C6.73431 15.0995 5.96502 17.0169 4.51213 18.184C4.38714 18.2845 4.20442 18.2645 4.10401 18.1395C4.0036 18.0146 4.02353 17.8318 4.14851 17.7314C5.38809 16.7356 6.06561 15.1267 5.80764 13.4656L5.76634 13.2608C5.28217 10.8599 6.21853 8.50302 7.99542 7.06007C8.11988 6.959 8.30271 6.97796 8.40377 7.10242ZM3.4887 7.32393C3.6314 7.39701 3.68784 7.57193 3.61477 7.71464C2.68522 9.52981 2.33602 11.6574 2.75774 13.8117C2.76455 13.8284 2.7699 13.846 2.7736 13.8643C2.80096 13.9997 2.83097 14.1338 2.86371 14.2665C2.90211 14.4222 2.80705 14.5795 2.65139 14.6179C2.49573 14.6563 2.33842 14.5613 2.30002 14.4056C2.26972 14.2828 2.24165 14.159 2.21577 14.0343C2.20864 14.0171 2.20307 13.999 2.19925 13.9801C1.73425 11.6741 2.10303 9.39291 3.09799 7.45C3.17107 7.3073 3.34599 7.25085 3.4887 7.32393ZM11.2252 8.14404C11.5911 8.07024 11.9559 8.04982 12.311 8.0775C12.4708 8.08996 12.5903 8.22963 12.5779 8.38948C12.5654 8.54932 12.4257 8.6688 12.2659 8.65634C11.9637 8.63278 11.6527 8.6501 11.34 8.71317L11.34 8.71317C9.59463 9.06513 8.44081 10.712 8.67743 12.452L8.72041 12.6652C9.28028 15.442 8.24502 18.1697 6.24698 19.9001C6.12579 20.005 5.94245 19.9919 5.83749 19.8707C5.73253 19.7495 5.7457 19.5662 5.86689 19.4612C7.64671 17.9198 8.59813 15.5237 8.20145 13.0568L8.2001 13.0571L8.14445 12.7811C7.71469 10.6497 9.094 8.57381 11.2252 8.14404ZM16.7431 8.19471C16.8727 8.10029 17.0542 8.12881 17.1487 8.25839C17.6527 8.9502 18.0241 9.75479 18.2182 10.6416L18.2196 10.6427L18.2404 10.7458C18.9117 14.0747 18.5772 17.3735 17.4472 20.3274C17.39 20.4772 17.2221 20.5521 17.0724 20.4949C16.9226 20.4376 16.8477 20.2698 16.905 20.12C17.9858 17.2943 18.3135 14.1426 17.6906 10.9577L17.6709 10.8603C17.5006 10.016 17.1548 9.25276 16.6794 8.60028C16.585 8.4707 16.6135 8.28912 16.7431 8.19471ZM13.5235 8.67573C13.6016 8.5357 13.7784 8.48547 13.9184 8.56354C14.8881 9.10416 15.6251 10.0504 15.862 11.2248L15.9091 11.4584L15.9056 11.4599C16.5817 15.1086 15.859 18.7026 14.1121 21.6806C14.031 21.8189 13.8531 21.8653 13.7148 21.7842C13.5765 21.703 13.5302 21.5252 13.6113 21.3869C15.3262 18.4634 16.0137 14.9239 15.2911 11.3403L15.2688 11.2298C15.0444 10.2796 14.433 9.51514 13.6357 9.07065C13.4957 8.99257 13.4455 8.81576 13.5235 8.67573ZM11.4649 9.33302C12.9394 9.03562 14.3757 9.99005 14.6729 11.4646L14.7217 11.7063L14.7169 11.7081C14.8663 12.5235 14.9398 13.336 14.942 14.1384C14.9425 14.2987 14.8129 14.429 14.6526 14.4295C14.4922 14.4299 14.3619 14.3003 14.3615 14.14C14.3591 13.296 14.2744 12.4397 14.1011 11.5803L14.0791 11.4709C13.7987 10.3728 12.7033 9.67554 11.5797 9.90215L11.5797 9.90216C10.7135 10.0768 10.0747 10.7512 9.90479 11.5658C9.87205 11.7227 9.71827 11.8234 9.56133 11.7907C9.40438 11.7579 9.30369 11.6041 9.33644 11.4472C9.55215 10.4133 10.363 9.5552 11.4649 9.33302ZM11.7047 10.522C12.5226 10.3571 13.3192 10.8864 13.4841 11.7043L13.5351 11.9573L13.5288 11.9594C14.1821 15.578 13.1933 19.1278 11.0843 21.8266C10.9856 21.9529 10.8032 21.9753 10.6769 21.8766C10.5505 21.7779 10.5282 21.5954 10.6269 21.4691C12.6853 18.8351 13.6236 15.3531 12.9112 11.8203L12.8941 11.7353C12.7579 11.2799 12.2945 10.9953 11.8195 11.0911C11.3586 11.1841 11.0465 11.6029 11.0749 12.0595L11.1003 12.1853C11.3801 13.5736 11.3581 14.9534 11.0789 16.2562C11.0453 16.413 10.891 16.5129 10.7343 16.4793C10.5775 16.4457 10.4776 16.2914 10.5112 16.1346C10.7555 14.9945 10.7908 13.7913 10.5826 12.5762L10.578 12.577L10.5225 12.3015C10.3576 11.4836 10.8868 10.687 11.7047 10.522L11.7047 10.522ZM11.9482 11.7182C12.1054 11.6865 12.2585 11.7882 12.2902 11.9454C13.0107 15.5182 11.9469 19.0365 9.71416 21.5777C9.60834 21.6982 9.42492 21.71 9.30447 21.6042C9.18403 21.4984 9.17218 21.315 9.278 21.1945C11.3963 18.7835 12.4042 15.4477 11.7211 12.0601C11.6894 11.903 11.7911 11.7499 11.9482 11.7182ZM4.711 12.0015C4.87119 11.995 5.00637 12.1195 5.01293 12.2797C5.02482 12.57 5.05488 12.8627 5.10413 13.1563L5.1502 13.3848C5.44425 14.843 4.89152 16.2747 3.83254 17.1721C3.71022 17.2757 3.52704 17.2606 3.42339 17.1383C3.31974 17.016 3.33487 16.8328 3.45718 16.7292C4.32288 15.9956 4.79069 14.8454 4.60922 13.6585L4.57736 13.5005C4.49651 13.0997 4.44905 12.6996 4.43282 12.3035C4.42626 12.1433 4.55081 12.0081 4.711 12.0015ZM9.67888 12.7419C9.83775 12.7203 9.984 12.8317 10.0055 12.9905C10.3993 15.8959 9.31352 18.7013 7.29177 20.5928C7.17469 20.7023 6.99099 20.6962 6.88145 20.5791C6.77192 20.462 6.77803 20.2783 6.89511 20.1688C8.78467 18.401 9.79775 15.7806 9.4302 13.0685C9.40867 12.9096 9.52001 12.7634 9.67888 12.7419ZM19.4538 12.746C19.6138 12.7359 19.7517 12.8574 19.7618 13.0174C19.8896 15.0426 19.6804 17.0307 19.177 18.9185C19.1357 19.0734 18.9767 19.1655 18.8218 19.1242C18.6668 19.0829 18.5747 18.9239 18.616 18.7689C19.1035 16.9406 19.3062 15.0153 19.1824 13.054C19.1723 12.894 19.2938 12.7561 19.4538 12.746ZM14.5993 15.3905C14.7586 15.4086 14.873 15.5525 14.8548 15.7118C14.5998 17.9486 13.7942 20.0596 12.5529 21.8736C12.4624 22.0059 12.2817 22.0398 12.1494 21.9492C12.0171 21.8587 11.9832 21.678 12.0738 21.5457C13.2628 19.8081 14.0339 17.7868 14.278 15.646C14.2961 15.4867 14.44 15.3723 14.5993 15.3905ZM7.0613 16.0863C7.21075 16.1443 7.28485 16.3125 7.22681 16.462C6.82935 17.4854 6.17188 18.3946 5.31891 19.0933C5.19488 19.1949 5.01198 19.1767 4.91038 19.0527C4.80879 18.9287 4.82697 18.7458 4.951 18.6442C5.7263 18.0091 6.32422 17.1823 6.6856 16.2518C6.74364 16.1023 6.91185 16.0282 7.0613 16.0863ZM10.4523 17.4179C10.6017 17.4762 10.6755 17.6445 10.6172 17.7939C10.1273 19.0493 9.38842 20.1951 8.44851 21.1588C8.33656 21.2735 8.15277 21.2758 8.038 21.1639C7.92322 21.0519 7.92093 20.8681 8.03287 20.7534C8.91849 19.8454 9.6148 18.7656 10.0764 17.5828C10.1346 17.4335 10.303 17.3596 10.4523 17.4179ZM16.6206 17.9559C16.7755 17.9973 16.8674 18.1565 16.8259 18.3114C16.5587 19.3093 16.1966 20.2748 15.7482 21.1953C15.678 21.3395 15.5042 21.3994 15.3601 21.3292C15.216 21.259 15.156 21.0852 15.2262 20.9411C15.6586 20.0536 16.0076 19.1229 16.2651 18.1612C16.3065 18.0063 16.4657 17.9144 16.6206 17.9559Z" fill="black"/>
</svg>
