<svg width="24" height="24" viewBox="0 0 24 24" fill="none" xmlns="http://www.w3.org/2000/svg">
<path d="M10.6146 15.7068L9.05957 14.1628L10.6146 12.6078L12.1586 14.1628L13.7027 12.6078L12.1586 11.0637L13.7027 9.51966L15.2577 11.0637L16.8017 9.51966L13.7027 6.42061L5.96052 14.1628L9.05957 17.2618L10.6146 15.7068ZM1.77734 19.89L5.19397 16.4843L2.87242 14.1628L13.7027 3.32155L16.0352 5.65406L17.5683 4.09905L16.0352 2.54405L17.5683 1L22.2223 5.65406L20.6783 7.18716L19.1233 5.65406L17.5683 7.18716L19.9008 9.51966L9.05957 20.3499L6.73802 18.0284L1.77734 23V19.89Z" fill="black"/>
</svg>
