<svg width="24" height="20" viewBox="0 0 24 20" fill="none" xmlns="http://www.w3.org/2000/svg">
<path d="M13.1871 0C7.40191 0 2.71091 4.47778 2.71091 10H0.329956L3.74689 14.3222L3.82837 14.4778L7.55218 10H5.03895C5.03895 5.7 8.68234 2.22222 13.1871 2.22222C17.6919 2.22222 21.3352 5.7 21.3352 10C21.3352 14.3 17.6919 17.7778 13.1871 17.7778C10.9405 17.7778 8.9035 16.9 7.43683 15.4889L5.78392 17.0667C7.68128 18.8778 10.2887 20 13.1871 20C18.9723 20 23.6633 15.5222 23.6633 10C23.6633 4.47778 18.9723 0 13.1871 0Z" fill="black"/>
<path d="M12.1818 15H14.0337V14H14.9596C15.4688 14 15.8855 13.55 15.8855 13V10C15.8855 9.45 15.4688 9 14.9596 9H12.1818V8H15.8855V6H14.0337V5H12.1818V6H11.2559C10.7466 6 10.33 6.45 10.33 7V10C10.33 10.55 10.7466 11 11.2559 11H14.0337V12H10.33V14H12.1818V15Z" fill="black"/>
</svg>
