<svg width="24" height="24" viewBox="0 0 24 24" fill="none" xmlns="http://www.w3.org/2000/svg">
<path d="M11.9999 0.5L10.9519 1.67375C10.9519 1.67375 9.16336 3.69988 7.3608 6.32685C5.55825 8.95383 3.61597 12.0978 3.61597 15.116C3.61597 17.3396 4.49927 19.4721 6.07157 21.0444C7.64387 22.6167 9.77636 23.5 11.9999 23.5C14.2235 23.5 16.356 22.6167 17.9283 21.0444C19.5006 19.4721 20.3839 17.3396 20.3839 15.116C20.3839 12.0978 18.4416 8.95383 16.6391 6.32685C14.8365 3.69988 13.0479 1.67375 13.0479 1.67375L11.9999 0.5ZM11.9999 4.87363C12.6148 5.60024 13.1737 6.20109 14.3474 7.90583C16.0382 10.3651 17.5892 13.4951 17.5892 15.116C17.5892 18.2181 15.102 20.7053 11.9999 20.7053C8.89786 20.7053 6.41062 18.2181 6.41062 15.116C6.41062 13.4951 7.96165 10.3651 9.65242 7.90583C10.8262 6.20109 11.3851 5.60024 11.9999 4.87363Z" fill="black"/>
</svg>
