<svg width="24" height="24" viewBox="0 0 24 24" fill="none" xmlns="http://www.w3.org/2000/svg">
<g clip-path="url(#clip0_4136_15279)">
<path d="M12.01 6C14.62 6 16.9 7.86 17.41 10.43L17.71 11.93L19.23 12.04C20.79 12.15 22.01 13.45 22.01 15C22.01 16.65 20.66 18 19.01 18H6.00999C3.79999 18 2.00999 16.21 2.00999 14C2.00999 11.95 3.53999 10.24 5.56999 10.03L6.63999 9.92L7.13999 8.97C8.07999 7.14 9.95 6 12.01 6ZM12.01 4C9.11999 4 6.59999 5.64 5.34999 8.04C2.34999 8.36 0.00999451 10.91 0.00999451 14C0.00999451 17.31 2.69999 20 6.00999 20H19.01C21.77 20 24.01 17.76 24.01 15C24.01 12.36 21.96 10.22 19.37 10.04C18.68 6.59 15.65 4 12.01 4Z" fill="black"/>
</g>
<defs>
<clipPath id="clip0_4136_15279">
<rect width="24" height="24" fill="white"/>
</clipPath>
</defs>
</svg>
