<svg width="24" height="24" viewBox="0 0 24 24" fill="none" xmlns="http://www.w3.org/2000/svg">
<path fill-rule="evenodd" clip-rule="evenodd" d="M1.47957 3.40244C1 4.34366 1 5.57577 1 8.04V15.96C1 18.4242 1 19.6563 1.47957 20.5976C1.90142 21.4255 2.57453 22.0985 3.40244 22.5204C4.34366 23 5.57577 23 8.04 23H15.96C18.4242 23 19.6563 23 20.5976 22.5204C21.4255 22.0985 22.0985 21.4255 22.5204 20.5976C23 19.6563 23 18.4242 23 15.96V8.04C23 5.57577 23 4.34366 22.5204 3.40244C22.0985 2.57453 21.4255 1.90141 20.5976 1.47957C19.6563 1 18.4242 1 15.96 1H8.04C5.57577 1 4.34366 1 3.40244 1.47957C2.57453 1.90141 1.90142 2.57453 1.47957 3.40244ZM16.1187 11.55L9.52335 7.67499C9.15516 7.45866 8.7 7.73625 8.7 8.17712V15.8229C8.7 16.2608 9.14968 16.5387 9.51776 16.3283L16.1131 12.5575C16.4931 12.3402 16.4963 11.7718 16.1187 11.55Z" fill="black"/>
</svg>
