<svg width="73" height="72" viewBox="0 0 73 72" fill="none" xmlns="http://www.w3.org/2000/svg">
<path d="M71.7204 51.995L49.4459 64.8529C49.0941 65.0567 48.6963 65.1676 48.2899 65.1752C47.8835 65.1828 47.4818 65.0868 47.1227 64.8964L2.27958 39.015C1.78679 38.7293 1.01242 38.0895 1.01864 37.2985C1.01864 36.872 1 36.4372 1 36.2198C1 35.5013 1.57146 34.5903 2.27751 34.1824L24.4693 21.3701C24.8658 21.1689 25.3042 21.0641 25.7488 21.0641C26.1935 21.0641 26.6319 21.1689 27.0284 21.3701L71.7204 47.1604C72.4265 47.5745 73 48.4814 73 49.1978C73 49.2537 72.9896 49.9494 72.9896 50.026C72.9896 51.0115 72.3685 51.6203 71.7204 51.995Z" fill="#CCCBCD"/>
<path d="M49.4458 64.8529L71.7204 51.995C72.2981 51.6617 72.9896 51.1254 72.9896 50.0198C72.9896 49.8334 73 49.3323 73 49.1916C73 48.4752 72.4264 47.5621 71.7204 47.1542L48.2346 33.6027V65.1738C48.6599 65.178 49.0784 65.0672 49.4458 64.8529Z" fill="#CCCBCD"/>
<path d="M48.9157 61.8051C48.5659 61.9807 48.1798 62.0721 47.7884 62.0721C47.3969 62.0721 47.0108 61.9807 46.661 61.8051L2.27331 36.1867C1.31881 35.6359 1.31881 34.7373 2.27331 34.1845L24.4671 21.3701C24.8637 21.1689 25.3021 21.0641 25.7467 21.0641C26.1914 21.0641 26.6297 21.1689 27.0263 21.3701L71.7183 47.1604C72.4223 47.5745 72.4223 48.2308 71.7183 48.6367L48.9157 61.8051Z" fill="#CCCBCD"/>
<path d="M46.7604 59.2232C46.3841 59.4152 45.9676 59.5152 45.545 59.5152C45.1225 59.5152 44.706 59.4152 44.3296 59.2232L6.13491 37.1723C5.46406 36.7851 5.46406 36.1556 6.13491 35.7684L27.0243 23.7139C27.4017 23.524 27.8183 23.4251 28.2407 23.4251C28.6632 23.4251 29.0798 23.524 29.4572 23.7139L67.6395 45.7669C68.3083 46.1521 68.3083 46.7836 67.6395 47.1708L46.7604 59.2232Z" fill="#E2E1E2"/>
<path d="M28.1569 23.4303C27.7585 23.4307 27.3663 23.5281 27.014 23.7139L6.13491 35.7726C5.46406 36.1598 5.46406 36.7892 6.13491 37.1764L10.2759 39.5658L28.1589 28.1469L28.1569 23.4303Z" fill="#E2E1E2"/>
<path d="M29.4613 24.627C29.0839 24.4371 28.6673 24.3382 28.2448 24.3382C27.8224 24.3382 27.4058 24.4371 27.0284 24.627L6.14937 36.6815C6.02991 36.7476 5.92274 36.8337 5.83258 36.9362C5.92112 37.0294 6.023 37.1089 6.13488 37.1722L44.3296 59.2232C44.706 59.4152 45.1225 59.5152 45.545 59.5152C45.9675 59.5152 46.384 59.4152 46.7604 59.2232L67.6395 47.1707C67.758 47.1042 67.865 47.0189 67.9562 46.9181C67.8688 46.8232 67.7668 46.7428 67.6539 46.68L29.4613 24.627Z" fill="#FAFAFA"/>
<path d="M27.0243 24.627L6.14937 36.6815C6.03027 36.7481 5.92319 36.8342 5.83258 36.9362C5.92112 37.0294 6.023 37.1089 6.13488 37.1722L8.14741 38.3359L30.6767 25.331L29.4592 24.627C29.0819 24.4357 28.6648 24.3359 28.2417 24.3359C27.8187 24.3359 27.4016 24.4357 27.0243 24.627ZM67.656 46.68L62.105 43.477L39.5757 56.4777L44.3379 59.2211C44.7149 59.4121 45.1317 59.5117 45.5543 59.5117C45.977 59.5117 46.3937 59.4121 46.7708 59.2211L67.6498 47.1666C67.7674 47.0995 67.8736 47.0143 67.9645 46.914C67.8745 46.8204 67.7704 46.7414 67.656 46.68Z" fill="#E2E1E2"/>
<path d="M26.2271 26.7306C26.2447 26.7374 26.2598 26.7493 26.2704 26.7649C26.2811 26.7804 26.2868 26.7988 26.2868 26.8176C26.2868 26.8364 26.2811 26.8548 26.2704 26.8704C26.2598 26.8859 26.2447 26.8978 26.2271 26.9046C26.1805 26.928 26.1291 26.9403 26.077 26.9403C26.0248 26.9403 25.9734 26.928 25.9269 26.9046C25.9083 26.8988 25.8921 26.8872 25.8806 26.8716C25.8691 26.8559 25.8629 26.837 25.8629 26.8176C25.8629 26.7982 25.8691 26.7793 25.8806 26.7636C25.8921 26.748 25.9083 26.7364 25.9269 26.7306C25.9734 26.7072 26.0248 26.6949 26.077 26.6949C26.1291 26.6949 26.1805 26.7072 26.2271 26.7306Z" fill="#FAFAFA"/>
<path d="M25.6826 26.5898C25.5315 26.6768 25.4756 26.7969 25.5439 26.9108C25.5544 26.9238 25.5682 26.9337 25.5839 26.9395C25.5995 26.9454 25.6165 26.9469 25.6329 26.9439C25.6826 26.9439 25.7157 26.9129 25.7013 26.8839C25.6598 26.8073 25.7013 26.7182 25.7986 26.6582C25.9188 26.5954 26.0569 26.5757 26.1899 26.6023C26.2396 26.6023 26.2893 26.6023 26.2955 26.5609C26.2955 26.5381 26.2748 26.5174 26.2375 26.5091C26.0487 26.4742 25.8536 26.5026 25.6826 26.5898Z" fill="#FAFAFA"/>
<path d="M25.4444 26.4553C25.2188 26.5857 25.1401 26.7659 25.2022 26.9336C25.2125 26.9482 25.2266 26.9597 25.2431 26.9666C25.2596 26.9736 25.2777 26.9758 25.2954 26.9729C25.3451 26.9729 25.3761 26.9439 25.3658 26.9149C25.3119 26.7803 25.3782 26.6313 25.5604 26.5257C25.7689 26.4186 26.0056 26.3795 26.2374 26.4139C26.2851 26.4139 26.3306 26.4014 26.3368 26.3725C26.3368 26.3476 26.3141 26.3248 26.2706 26.3186C25.9877 26.2783 25.6993 26.326 25.4444 26.4553Z" fill="#FAFAFA"/>
<path d="M9.10814 36.7499C9.11118 36.7514 9.11373 36.7538 9.11551 36.7567C9.11729 36.7596 9.11823 36.763 9.11823 36.7664C9.11823 36.7698 9.11729 36.7732 9.11551 36.7761C9.11373 36.779 9.11118 36.7814 9.10814 36.783L9.06466 36.8078C9.05514 36.8102 9.04519 36.8102 9.03567 36.8078C9.02685 36.8102 9.01757 36.8102 9.00875 36.8078L8.43108 36.4745L8.39174 36.6463C8.39174 36.6463 8.39174 36.6587 8.37725 36.6629H8.34619H8.29028C8.28152 36.6656 8.27213 36.6656 8.26337 36.6629C8.26337 36.6629 8.26337 36.6505 8.26337 36.6443L8.31513 36.4165C8.31593 36.4138 8.31726 36.4114 8.31904 36.4092C8.32082 36.4071 8.32301 36.4053 8.32548 36.4041L8.33998 36.3917L8.38346 36.3689C8.39283 36.3656 8.40307 36.3656 8.41244 36.3689C8.4211 36.3655 8.4307 36.3655 8.43936 36.3689L9.10814 36.7499Z" fill="#FAFAFA"/>
<path d="M8.89073 36.3399C8.89946 36.3369 8.90893 36.3369 8.91765 36.3399C8.92717 36.3375 8.93712 36.3375 8.94664 36.3399L9.01703 36.3792C9.01817 36.3818 9.01876 36.3847 9.01876 36.3875C9.01876 36.3904 9.01817 36.3932 9.01703 36.3958C9.01849 36.3983 9.01925 36.4012 9.01925 36.4041C9.01925 36.407 9.01849 36.4098 9.01703 36.4124L8.94664 36.4538C8.93779 36.4559 8.92857 36.4559 8.91972 36.4538C8.91037 36.4573 8.90008 36.4573 8.89073 36.4538L8.82034 36.4144C8.81594 36.4144 8.81173 36.4127 8.80862 36.4096C8.80552 36.4065 8.80377 36.4023 8.80377 36.3979C8.80377 36.3935 8.80552 36.3893 8.80862 36.3862C8.81173 36.3831 8.81594 36.3813 8.82034 36.3813L8.89073 36.3399ZM9.25721 36.5469C9.26587 36.5436 9.27547 36.5436 9.28413 36.5469C9.29365 36.5446 9.3036 36.5446 9.31312 36.5469L9.38145 36.5863C9.38492 36.5875 9.38796 36.5897 9.39017 36.5927C9.39238 36.5956 9.39367 36.5992 9.39387 36.6029C9.39501 36.6055 9.3956 36.6083 9.3956 36.6111C9.3956 36.614 9.39501 36.6168 9.39387 36.6194L9.32347 36.6608C9.31393 36.663 9.30403 36.663 9.29448 36.6608C9.28583 36.6642 9.27623 36.6642 9.26757 36.6608L9.19717 36.6215C9.19369 36.6203 9.19066 36.618 9.18845 36.6151C9.18623 36.6121 9.18495 36.6086 9.18475 36.6049C9.18475 36.6049 9.18475 36.6049 9.19717 36.5884L9.25721 36.5469Z" fill="#FAFAFA"/>
<path d="M9.89704 36.3254C9.88831 36.3284 9.87884 36.3284 9.87012 36.3254C9.8606 36.3278 9.85065 36.3278 9.84113 36.3254L9.6962 36.2405L9.36906 36.431C9.35951 36.4331 9.34961 36.4331 9.34007 36.431C9.33055 36.4334 9.3206 36.4334 9.31108 36.431L9.27381 36.4082L9.25932 36.3958C9.25814 36.3903 9.25814 36.3847 9.25932 36.3792L9.15579 35.9382C9.15372 35.9315 9.15372 35.9242 9.15579 35.9175C9.15579 35.9175 9.15579 35.9175 9.17029 35.9009L9.2117 35.8761C9.22121 35.8737 9.23117 35.8737 9.24068 35.8761C9.25023 35.8739 9.26013 35.8739 9.26967 35.8761L9.70655 36.1287L9.79558 36.0769C9.8051 36.0746 9.81505 36.0746 9.82457 36.0769C9.83338 36.0746 9.84267 36.0746 9.85149 36.0769L9.89083 36.0997C9.8921 36.1023 9.89277 36.1051 9.89277 36.108C9.89277 36.1109 9.8921 36.1137 9.89083 36.1163C9.89083 36.1163 9.89083 36.1266 9.89083 36.1308L9.79972 36.1825L9.94466 36.2674C9.94814 36.2684 9.95113 36.2706 9.95304 36.2737C9.95496 36.2768 9.95566 36.2804 9.95501 36.284C9.95501 36.284 9.95501 36.284 9.94466 36.3005L9.89704 36.3254ZM9.60302 36.1887L9.30694 36.019L9.37527 36.3192L9.60302 36.1887Z" fill="#FAFAFA"/>
<path d="M10.0854 36.0148L10.133 36.0252H10.191C10.2149 36.0227 10.2385 36.0179 10.2614 36.0107C10.2924 35.9992 10.3222 35.9846 10.3504 35.9672C10.3704 35.9571 10.3885 35.9438 10.4042 35.9278C10.4168 35.916 10.4261 35.901 10.4312 35.8844C10.4351 35.8701 10.4351 35.8551 10.4312 35.8409C10.4201 35.8231 10.4044 35.8087 10.3856 35.7995C10.3642 35.7858 10.3403 35.7766 10.3152 35.7726C10.2911 35.7695 10.2668 35.7695 10.2427 35.7726C10.2186 35.7759 10.1949 35.7821 10.1723 35.7912C10.1477 35.7997 10.1241 35.8108 10.1019 35.8243L10.015 35.874C10.0061 35.8761 9.99691 35.8761 9.98806 35.874C9.97855 35.8764 9.96859 35.8764 9.95908 35.874L9.92181 35.8512C9.91629 35.8487 9.91187 35.8443 9.90938 35.8388C9.90938 35.8388 9.90938 35.8285 9.90938 35.8243L9.89489 35.5986L9.59259 35.7726C9.58308 35.7749 9.57312 35.7749 9.56361 35.7726C9.55476 35.7747 9.54554 35.7747 9.53669 35.7726L9.49942 35.7498C9.49942 35.7498 9.487 35.7498 9.487 35.7332C9.487 35.7167 9.487 35.7229 9.49942 35.7187L9.91352 35.4806C9.92234 35.4782 9.93163 35.4782 9.94044 35.4806H9.96943L10.0067 35.5013C10.0125 35.5045 10.0169 35.5096 10.0191 35.5158C10.0212 35.5211 10.0212 35.5271 10.0191 35.5324L10.0336 35.756C10.0688 35.7361 10.1064 35.7208 10.1454 35.7104C10.1836 35.6982 10.2234 35.6919 10.2634 35.6918C10.3012 35.6866 10.3395 35.6866 10.3773 35.6918C10.4146 35.6996 10.4503 35.7136 10.4829 35.7332C10.5131 35.7492 10.5393 35.7719 10.5595 35.7995C10.5732 35.8217 10.5784 35.8482 10.574 35.874C10.5689 35.9013 10.5559 35.9265 10.5367 35.9465C10.5113 35.9734 10.482 35.9965 10.4498 36.0148C10.4071 36.0408 10.3612 36.061 10.3131 36.0749C10.272 36.0869 10.2296 36.0945 10.1868 36.0976C10.1504 36.1029 10.1135 36.1029 10.0771 36.0976C10.0481 36.0914 10.0202 36.081 9.99427 36.0666C9.99318 36.0647 9.99261 36.0625 9.99261 36.0604C9.99261 36.0582 9.99318 36.056 9.99427 36.0541C9.99427 36.0541 9.99427 36.0438 9.99427 36.0417L10.0419 36.0127C10.05 36.0106 10.0586 36.0106 10.0667 36.0127L10.0854 36.0148Z" fill="#FAFAFA"/>
<path d="M24.5728 27.8197L24.4423 27.8963C24.4351 27.8994 24.4274 27.901 24.4196 27.901C24.4117 27.901 24.404 27.8994 24.3968 27.8963L24.1897 27.7721C24.1864 27.7721 24.1833 27.7708 24.1809 27.7685C24.1786 27.7662 24.1773 27.763 24.1773 27.7597C24.1773 27.7564 24.1786 27.7532 24.1809 27.7509C24.1833 27.7486 24.1864 27.7473 24.1897 27.7473L24.3202 27.6707C24.3274 27.6676 24.3351 27.666 24.3429 27.666C24.3508 27.666 24.3585 27.6676 24.3657 27.6707L24.5728 27.7949C24.5873 27.8011 24.5873 27.8135 24.5728 27.8197Z" fill="#FAFAFA"/>
<path d="M24.8461 27.6645L24.7136 27.739C24.7071 27.743 24.6995 27.7452 24.6919 27.7452C24.6842 27.7452 24.6767 27.743 24.6701 27.739L24.3347 27.5464C24.3223 27.5464 24.3223 27.5278 24.3347 27.5195L24.4651 27.445C24.4721 27.441 24.4799 27.4389 24.4879 27.4389C24.4959 27.4389 24.5038 27.441 24.5107 27.445L24.8461 27.6375C24.8585 27.6437 24.8585 27.6562 24.8461 27.6645Z" fill="#FAFAFA"/>
<path d="M25.1173 27.5071L24.9869 27.5816C24.9799 27.5856 24.9721 27.5877 24.9641 27.5877C24.9561 27.5877 24.9482 27.5856 24.9413 27.5816L24.4754 27.3145C24.463 27.3145 24.463 27.2959 24.4754 27.2876L24.6059 27.2131C24.6128 27.2091 24.6207 27.207 24.6287 27.207C24.6367 27.207 24.6445 27.2091 24.6514 27.2131L25.1173 27.4802C25.1297 27.4905 25.1297 27.4905 25.1173 27.5071Z" fill="#FAFAFA"/>
<path d="M25.3885 27.3497L25.2581 27.4263C25.2509 27.4294 25.2432 27.431 25.2353 27.431C25.2275 27.431 25.2198 27.4294 25.2126 27.4263L24.6142 27.0764C24.6018 27.0764 24.6018 27.0578 24.6142 27.0495L24.7446 26.975C24.7515 26.971 24.7594 26.9689 24.7674 26.9689C24.7754 26.9689 24.7832 26.971 24.7902 26.975L25.3885 27.3207C25.3924 27.3207 25.3961 27.3223 25.3988 27.325C25.4015 27.3277 25.403 27.3314 25.403 27.3352C25.403 27.3391 25.4015 27.3428 25.3988 27.3455C25.3961 27.3482 25.3924 27.3497 25.3885 27.3497Z" fill="#FAFAFA"/>
<path d="M27.4094 25.42L26.4942 25.948C26.4779 25.954 26.4638 25.9648 26.4538 25.9791C26.4439 25.9933 26.4385 26.0103 26.4385 26.0277C26.4385 26.0451 26.4439 26.0621 26.4538 26.0763C26.4638 26.0906 26.4779 26.1014 26.4942 26.1074L26.8835 26.3331C26.927 26.3545 26.9748 26.3656 27.0233 26.3656C27.0717 26.3656 27.1195 26.3545 27.163 26.3331L28.0761 25.8051C28.1527 25.7596 28.1527 25.6871 28.0761 25.6436L27.6889 25.42C27.6458 25.3975 27.5978 25.3858 27.5492 25.3858C27.5005 25.3858 27.4526 25.3975 27.4094 25.42ZM28.0306 25.6664C28.0865 25.6975 28.0865 25.7492 28.0306 25.7823L27.1154 26.3103C27.0834 26.327 27.0479 26.3357 27.0119 26.3357C26.9758 26.3357 26.9403 26.327 26.9083 26.3103L26.5191 26.0846C26.5071 26.0806 26.4968 26.073 26.4894 26.0628C26.4821 26.0526 26.4781 26.0403 26.4781 26.0277C26.4781 26.0151 26.4821 26.0028 26.4894 25.9926C26.4968 25.9824 26.5071 25.9748 26.5191 25.9708L27.4343 25.4428C27.4657 25.4246 27.5014 25.415 27.5378 25.415C27.5741 25.415 27.6098 25.4246 27.6413 25.4428L28.0306 25.6664ZM26.9953 25.772L26.5936 26.0039C26.5893 26.0062 26.5857 26.0096 26.5831 26.0138C26.5806 26.018 26.5793 26.0228 26.5793 26.0277C26.5793 26.0326 26.5806 26.0374 26.5831 26.0416C26.5857 26.0458 26.5893 26.0492 26.5936 26.0515L26.9829 26.2751C26.9954 26.2813 27.0092 26.2846 27.0233 26.2846C27.0373 26.2846 27.0511 26.2813 27.0636 26.2751L27.4653 26.0432C27.4697 26.0413 27.4735 26.0381 27.4762 26.0341C27.4788 26.03 27.4802 26.0253 27.4802 26.0205C27.4802 26.0156 27.4788 26.0109 27.4762 26.0068C27.4735 26.0028 27.4697 25.9996 27.4653 25.9977L27.0761 25.772C27.0636 25.7656 27.0499 25.7621 27.0359 25.7618C27.0219 25.7614 27.0081 25.7642 26.9953 25.7699V25.772ZM27.8815 25.4138L27.8235 25.4469L28.0678 25.5877L28.1237 25.5546C28.1548 25.5339 28.1362 25.4945 28.0844 25.4635L28.0347 25.4345C28.0119 25.4208 27.9863 25.4124 27.9597 25.4098C27.9332 25.4073 27.9065 25.4108 27.8815 25.42V25.4138Z" fill="#FAFAFA"/>
<path d="M13.773 30.1304L17.473 27.9936C17.6945 27.8673 17.7049 27.6665 17.4978 27.5464C17.3766 27.488 17.2434 27.459 17.1089 27.4615C16.9744 27.464 16.8424 27.498 16.7235 27.5609L13.0235 29.6977C12.8019 29.8261 12.7916 30.0248 12.9986 30.1449C13.1196 30.2039 13.2529 30.2334 13.3875 30.2309C13.5222 30.2283 13.6543 30.1939 13.773 30.1304Z" fill="#E2E1E2"/>
<path d="M20.1212 26.4677C20.1668 26.4527 20.2064 26.4237 20.2346 26.3849C20.2627 26.346 20.2778 26.2993 20.2778 26.2513C20.2778 26.2034 20.2627 26.1566 20.2346 26.1178C20.2064 26.0789 20.1668 26.0499 20.1212 26.035C20.0051 25.976 19.8767 25.9453 19.7464 25.9453C19.6162 25.9453 19.4878 25.976 19.3717 26.035C19.3261 26.0499 19.2864 26.0789 19.2583 26.1178C19.2302 26.1566 19.215 26.2034 19.215 26.2513C19.215 26.2993 19.2302 26.346 19.2583 26.3849C19.2864 26.4237 19.3261 26.4527 19.3717 26.4677C19.4878 26.5266 19.6162 26.5573 19.7464 26.5573C19.8767 26.5573 20.0051 26.5266 20.1212 26.4677Z" fill="#E2E1E2"/>
<path d="M21.6223 25.6001C21.6679 25.5852 21.7075 25.5562 21.7357 25.5173C21.7638 25.4785 21.7789 25.4317 21.7789 25.3838C21.7789 25.3358 21.7638 25.2891 21.7357 25.2502C21.7075 25.2114 21.6679 25.1824 21.6223 25.1674C21.5059 25.1081 21.3771 25.0772 21.2465 25.0772C21.1159 25.0772 20.9871 25.1081 20.8707 25.1674C20.8251 25.1824 20.7854 25.2114 20.7573 25.2502C20.7292 25.2891 20.7141 25.3358 20.7141 25.3838C20.7141 25.4317 20.7292 25.4785 20.7573 25.5173C20.7854 25.5562 20.8251 25.5852 20.8707 25.6001C20.9871 25.6594 21.1159 25.6903 21.2465 25.6903C21.3771 25.6903 21.5059 25.6594 21.6223 25.6001Z" fill="#E2E1E2"/>
<path d="M9.63199 32.5281C9.67756 32.5131 9.71723 32.4841 9.74536 32.4453C9.77349 32.4064 9.78863 32.3597 9.78863 32.3117C9.78863 32.2637 9.77349 32.217 9.74536 32.1782C9.71723 32.1393 9.67756 32.1103 9.63199 32.0953C9.51526 32.0372 9.38661 32.0069 9.25619 32.0069C9.12577 32.0069 8.99713 32.0372 8.8804 32.0953C8.83483 32.1103 8.79515 32.1393 8.76703 32.1782C8.7389 32.217 8.72375 32.2637 8.72375 32.3117C8.72375 32.3597 8.7389 32.4064 8.76703 32.4453C8.79515 32.4841 8.83483 32.5131 8.8804 32.5281C8.9968 32.5873 9.12557 32.6182 9.25619 32.6182C9.38682 32.6182 9.51559 32.5873 9.63199 32.5281Z" fill="#E2E1E2"/>
<path d="M11.1206 31.6626C11.1662 31.6476 11.2059 31.6186 11.234 31.5798C11.2621 31.5409 11.2773 31.4942 11.2773 31.4462C11.2773 31.3983 11.2621 31.3515 11.234 31.3127C11.2059 31.2738 11.1662 31.2448 11.1206 31.2299C11.0045 31.1709 10.8761 31.1402 10.7459 31.1402C10.6156 31.1402 10.4873 31.1709 10.3711 31.2299C10.3255 31.2448 10.2859 31.2738 10.2577 31.3127C10.2296 31.3515 10.2145 31.3983 10.2145 31.4462C10.2145 31.4942 10.2296 31.5409 10.2577 31.5798C10.2859 31.6186 10.3255 31.6476 10.3711 31.6626C10.4873 31.7215 10.6156 31.7522 10.7459 31.7522C10.8761 31.7522 11.0045 31.7215 11.1206 31.6626Z" fill="#E2E1E2"/>
<path d="M44.6402 38.7976L51.5453 39.0854L43.3813 34.3605L40.1927 36.1991L42.8264 38.1454L44.6402 38.7976ZM26.5501 35.6276L32.5546 32.1575L26.3431 28.9026L20.3282 32.3769L26.5501 35.6276ZM36.1014 43.7296L44.0853 39.1206L42.2591 38.4642L39.6295 36.518L32.213 40.8039C32.3282 40.9127 32.4158 41.0474 32.4684 41.1969C32.5209 41.3464 32.537 41.5062 32.5153 41.6632L34.2504 43.0939L36.1014 43.7296ZM33.1178 31.8386L36.0579 30.1408L30.13 26.7162L26.898 28.5796L33.1178 31.8386ZM39.2051 35.4247L42.2073 33.6917L37.0041 30.6853L34.1365 32.3417L37.2422 33.9671L39.2051 35.4247ZM24.3326 36.9155L26.0035 35.9506L19.792 32.6958L15.3342 35.2694L24.3326 36.9155ZM56.3324 45.9181L59.8667 43.8786L54.6553 40.8702L50.5142 43.2554L54.1645 44.5598L56.3324 45.9181ZM43.5097 46.2721L53.7608 40.3546L52.9057 39.8598L45.0025 39.4457L37.0414 44.0422L43.5097 46.2721ZM53.5455 47.5269L55.7733 46.239L53.6241 44.8828L49.9676 43.5846L47.7294 44.8704L51.3797 46.1728L53.5455 47.5269ZM36.7122 52.6866L38.7827 50.0301L35.443 51.9598L36.7122 52.6866ZM34.5547 51.4443L37.5839 49.703L33.7017 45.9761L29.3929 48.4607L34.5547 51.4443ZM19.6781 42.8558L22.5437 41.1994L23.7632 37.2344L14.7627 35.5779L10.9281 37.7913L19.6781 42.8558ZM43.0355 50.995L43.5884 50.6803L45.7355 52.0427L49.6922 49.7651C49.4731 49.5363 49.3381 49.24 49.3092 48.9245L47.9364 48.1667L44.2282 46.8954L40.5344 49.0239L37.4576 53.1173L40.6607 54.9662L45.1827 52.3574L43.0355 50.995ZM49.4541 48.3882C49.5607 48.2297 49.7024 48.0979 49.8682 48.0031C50.5722 47.589 51.7317 47.6076 52.7669 47.9741L52.974 47.8499L50.8352 46.4958L47.1848 45.1934L44.781 46.5786L48.4893 47.8519L49.4541 48.3882ZM38.1326 49.3779L42.9672 46.5951L36.4782 44.3652L34.2483 45.6531L38.1326 49.3779ZM31.4655 41.8599C31.9293 41.5928 31.7989 41.0855 31.1777 40.7294C30.5566 40.3733 29.6766 40.2987 29.2149 40.5637C28.7531 40.8288 28.8877 41.336 29.5089 41.6942C30.13 42.0524 31.0038 42.127 31.4655 41.8599ZM23.0075 44.7772L28.3535 41.688L27.7614 41.1704L26.6226 40.2759L24.4879 39.9778L23.844 41.6984L20.7589 43.4811L23.0075 44.7772ZM28.6455 48.0342L35.5672 44.0381L33.7452 43.3838L32.2606 42.0711C32.2017 42.1236 32.1371 42.1695 32.068 42.2077C31.4904 42.5411 30.5214 42.5514 29.6373 42.2906L24.169 45.4501L28.6455 48.0342ZM32.6416 39.2117L38.6461 35.7436L36.6749 34.2942L33.5692 32.6689L27.5647 36.1391L30.6704 37.7623L32.6416 39.2117ZM28.1941 40.6963C28.2732 40.4905 28.426 40.3215 28.6227 40.2221C29.1983 39.8888 30.1632 39.8722 31.0473 40.1331L32.0825 39.5368L30.1135 38.0874L27.0077 36.4621L25.4755 37.3462L24.6473 39.5264L27.0367 39.8577L28.1941 40.6963Z" fill="#F0F0F0"/>
<path d="M24.7798 41.8889L21.8666 43.5722L22.846 44.1374L27.3017 41.57L26.8876 41.2056L25.989 40.5016L25.3327 40.4105L24.7798 41.8889ZM22.7259 37.3669L15.301 36.0107L12.0338 37.8949L19.5207 42.2181L21.6016 41.0172L22.7259 37.3669ZM29.5751 39.6237C29.8996 39.6297 30.2233 39.6574 30.5441 39.7065L31.0162 39.4332L29.3018 38.1537L27.2313 37.0666L26.4342 37.5284L25.7488 39.3525L28.4757 39.7293C28.8373 39.6543 29.2059 39.6189 29.5751 39.6237ZM24.8709 35.8678L19.9845 33.3087L16.7048 35.2011L23.786 36.4973L24.8709 35.8678ZM45.9902 46.6096L48.1 47.3364L49.1622 47.6946C49.7796 47.444 50.4454 47.3351 51.1105 47.3757C51.1768 47.3757 51.243 47.3757 51.3176 47.3757L50.1415 46.6324L47.541 45.711L45.9902 46.6096ZM30.1507 42.7254L25.2767 45.5392L28.4902 47.4026L34.3663 44.0091L32.9542 43.5018L32.0908 42.7357C31.7729 42.7902 31.4506 42.8152 31.128 42.8102C30.8 42.8043 30.4728 42.776 30.1487 42.7254H30.1507ZM44.6029 47.4109L41.4516 49.2309L38.4908 53.1649L40.5012 54.3264L44.0894 52.2559L41.932 50.8977L43.4703 50.0094L45.6195 51.3718L48.6611 49.614C48.5257 49.4427 48.427 49.2453 48.3712 49.0342C48.3712 48.9969 48.3547 48.9576 48.3485 48.9183L47.2718 48.3323L44.6029 47.4109ZM35.296 45.7794L38.2278 48.5953L41.7477 46.5641L36.853 44.8828L35.296 45.7794ZM31.4407 32.0767L26.548 29.5155L21.4504 32.4598L26.3472 35.0168L31.4407 32.0767ZM35.7204 43.2264L42.8782 39.0854L41.5178 38.5947L39.6647 37.2219L33.2358 40.9489C33.3425 41.0866 33.4206 41.2443 33.4656 41.4127C33.4914 41.5119 33.4991 41.615 33.4884 41.717L35.0206 42.98L35.7204 43.2264ZM54.9306 44.4542L56.2123 45.2679L58.7528 43.802L54.8188 41.5245L51.7296 43.3072L54.9306 44.4542ZM32.9149 31.2174L34.9523 30.0414L30.2915 27.3497L28.0264 28.6562L32.9149 31.2174ZM39.1699 34.7063L41.1037 33.5985L37.1698 31.321L35.267 32.4204L38.0477 33.8698L39.1699 34.7063ZM43.5801 38.0191L44.8741 38.4808L49.9283 38.6879L43.5304 34.9941L41.2528 36.3047L43.5801 38.0191ZM43.137 45.7524L52.6614 40.2594L52.4667 40.1455L45.6589 39.7977L38.2464 44.0753L43.137 45.7524Z" fill="#E0E0E0"/>
<path d="M34.3974 50.8066L36.53 49.5746L33.5961 46.7587L30.4903 48.5518L34.3974 50.8066ZM30.9438 41.57C31.1922 41.4271 31.1198 41.1559 30.7905 40.9634C30.4613 40.7708 29.9872 40.7315 29.7367 40.8743C29.4861 41.0172 29.5586 41.2884 29.894 41.481C30.2294 41.6735 30.6974 41.7025 30.9438 41.57ZM32.6002 38.5139L37.5694 35.6442L35.8488 34.3708L33.7783 33.2859L28.6931 36.2239L31.4759 37.6733L32.6002 38.5139ZM53.4254 46.8767L54.6677 46.1541L52.9098 45.0402L50.3155 44.1147L48.9282 44.918L52.2017 46.1065L53.4254 46.8767Z" fill="#E2E1E2"/>
<path opacity="0.6" d="M34.3974 50.8066L36.53 49.5746L33.5961 46.7587L30.4903 48.5518L34.3974 50.8066ZM30.9438 41.57C31.1922 41.4271 31.1198 41.1559 30.7905 40.9634C30.4613 40.7708 29.9872 40.7315 29.7367 40.8743C29.4861 41.0172 29.5586 41.2884 29.894 41.481C30.2294 41.6735 30.6974 41.7025 30.9438 41.57ZM32.6002 38.5139L37.5694 35.6442L35.8488 34.3708L33.7783 33.2859L28.6931 36.2239L31.4759 37.6733L32.6002 38.5139ZM53.4254 46.8767L54.6677 46.1541L52.9098 45.0402L50.3155 44.1147L48.9282 44.918L52.2017 46.1065L53.4254 46.8767Z" fill="white"/>
<path d="M48.0917 44.2058C48.1246 44.2172 48.1531 44.2386 48.1733 44.267C48.1935 44.2954 48.2043 44.3293 48.2043 44.3642C48.2043 44.399 48.1935 44.4329 48.1733 44.4613C48.1531 44.4897 48.1246 44.5111 48.0917 44.5226C48.0069 44.5665 47.9128 44.5894 47.8174 44.5894C47.7219 44.5894 47.6278 44.5665 47.543 44.5226C47.5091 44.5122 47.4794 44.4912 47.4583 44.4627C47.4372 44.4342 47.4258 44.3996 47.4258 44.3642C47.4258 44.3287 47.4372 44.2942 47.4583 44.2656C47.4794 44.2371 47.5091 44.2161 47.543 44.2058C47.6281 44.1628 47.7221 44.1404 47.8174 44.1404C47.9127 44.1404 48.0066 44.1628 48.0917 44.2058Z" fill="#E2E1E2"/>
<path d="M50.95 35.5096C50.95 33.4148 49.5385 32.5161 47.7968 33.497C46.8613 34.1182 46.0888 34.9462 45.5421 35.9139C44.9953 36.8815 44.6897 37.9615 44.65 39.0663V39.5409C44.65 41.1547 46.5148 43.028 47.3759 43.8001C47.4239 43.8406 47.4806 43.8699 47.5418 43.8859C47.603 43.902 47.6671 43.9043 47.7294 43.8928C47.7916 43.8812 47.8504 43.8561 47.9013 43.8192C47.9522 43.7823 47.9939 43.7347 48.0234 43.6799C48.768 42.1927 50.9306 37.7246 50.9306 35.9905L50.95 35.5096ZM47.7968 38.9397C46.8709 39.465 46.1263 39.041 46.1263 37.9967C46.1564 37.4298 46.3235 36.8778 46.6138 36.3861C46.9042 35.8944 47.3096 35.4769 47.7968 35.1678C48.7227 34.6425 49.4673 35.0665 49.4673 36.1108C49.4372 36.6777 49.2701 37.2297 48.9797 37.7214C48.6894 38.2131 48.284 38.6306 47.7968 38.9397Z" fill="#CCCBCD"/>
<path d="M55.5142 19.5491C55.3778 19.6118 55.2271 19.6371 55.0776 19.6224C54.9281 19.6078 54.7852 19.5537 54.6635 19.4658C54.3127 19.2389 54.0205 18.9323 53.8109 18.571C53.6012 18.2097 53.4801 17.8038 53.4573 17.3867C53.4417 17.2361 53.4672 17.0841 53.5311 16.9468C53.595 16.8096 53.6949 16.6922 53.8201 16.6071L68.7756 7.14098C69.082 6.93504 69.5111 6.9473 70.0014 7.22679C70.4919 7.54444 70.9004 7.97331 71.194 8.47855C71.4875 8.98379 71.6577 9.55115 71.6907 10.1345C71.6907 10.6984 71.4847 11.0833 71.1537 11.2476L55.5142 19.5491Z" fill="#CCCBCD"/>
<path d="M53.4573 17.3867C53.4573 16.6193 53.9918 16.3055 54.6586 16.688C55.0089 16.9159 55.3007 17.2231 55.5102 17.5847C55.7198 17.9463 55.8413 18.3522 55.8649 18.7695C55.8649 19.5369 55.3279 19.8482 54.6635 19.4658C54.3127 19.2389 54.0205 18.9323 53.8109 18.571C53.6013 18.2097 53.4801 17.8038 53.4573 17.3867Z" fill="#CCCBCD"/>
<path d="M51.6872 20.6475C51.4739 20.5108 51.2961 20.3256 51.1683 20.107C51.0404 19.8884 50.9662 19.6426 50.9516 19.3898C50.9396 19.2995 50.9529 19.2076 50.9902 19.1244C51.0274 19.0413 51.0871 18.9702 51.1625 18.919L54.1364 17.1881C54.2189 17.1499 54.31 17.1343 54.4005 17.1429C54.491 17.1515 54.5775 17.1841 54.6513 17.2372C54.8641 17.3743 55.0416 17.5596 55.1694 17.7781C55.2972 17.9966 55.3717 18.2422 55.3868 18.4949C55.3966 18.5856 55.382 18.6773 55.3445 18.7605C55.307 18.8437 55.248 18.9153 55.1735 18.9681L52.1996 20.6965C52.1175 20.7348 52.0268 20.7504 51.9367 20.7418C51.8466 20.7332 51.7604 20.7006 51.6872 20.6475Z" fill="#CCCBCD"/>
<path opacity="0.2" d="M51.6872 20.6475C51.4739 20.5108 51.2961 20.3256 51.1683 20.107C51.0404 19.8884 50.9662 19.6426 50.9516 19.3898C50.9396 19.2995 50.9529 19.2076 50.9902 19.1244C51.0274 19.0413 51.0871 18.9702 51.1625 18.919L54.1364 17.1881C54.2189 17.1499 54.31 17.1343 54.4005 17.1429C54.491 17.1515 54.5775 17.1841 54.6513 17.2372C54.8641 17.3743 55.0416 17.5596 55.1694 17.7781C55.2972 17.9966 55.3717 18.2422 55.3868 18.4949C55.3966 18.5856 55.382 18.6773 55.3445 18.7605C55.307 18.8437 55.248 18.9153 55.1735 18.9681L52.1996 20.6965C52.1175 20.7348 52.0268 20.7504 51.9367 20.7418C51.8466 20.7332 51.7604 20.7006 51.6872 20.6475Z" fill="black"/>
<path opacity="0.2" d="M53.0846 18.2522C52.9767 18.1688 52.864 18.0871 52.7463 18.007L51.1796 18.9166C51.8148 19.2991 52.4003 19.7586 52.9228 20.2847L54.3595 19.4511L54.2418 19.3138C53.8864 18.9282 53.4994 18.5731 53.0846 18.2522Z" fill="#E2E1E2"/>
<path opacity="0.15" d="M55.2225 17.1783L70.6217 7.71716C70.44 7.52631 70.2329 7.36132 70.0063 7.22681C69.516 6.94732 69.082 6.93506 68.7805 7.14345L53.825 16.6071C53.9614 16.5439 54.1122 16.5183 54.2617 16.533C54.4113 16.5476 54.5542 16.602 54.6758 16.6904C54.8835 16.822 55.0683 16.9868 55.2225 17.1783Z" fill="black"/>
<path d="M55.046 23.3272C55.046 23.2659 55.046 23.2169 55.046 23.1826C55.046 23.1483 55.046 23.0673 55.046 23.0085C55.046 22.8663 55.0239 22.7266 55.0043 22.5868C55.0043 22.5353 54.9871 22.4863 54.9773 22.4323C54.9418 22.2376 54.8943 22.0451 54.8351 21.8562L54.7836 21.6993C54.7322 21.5595 54.6782 21.4173 54.6169 21.28C54.5949 21.231 54.5728 21.1844 54.5483 21.1354L54.4821 21.003C54.4502 20.9417 54.4183 20.8804 54.3816 20.8191C54.3448 20.7578 54.3129 20.6965 54.2737 20.6352L54.1585 20.4563C53.9529 20.1413 53.7199 19.8451 53.4622 19.5712C53.1264 19.2052 52.7588 18.8696 52.3638 18.5684C51.9249 18.2301 51.4629 17.9229 50.981 17.6491C45.5873 14.5648 36.8641 14.5648 31.5242 17.6491C31.3894 17.7275 31.2594 17.806 31.1319 17.8942C30.6546 18.19 30.2013 18.5228 29.7761 18.8896C29.656 18.9975 29.531 19.1054 29.4255 19.2157C29.1454 19.4882 28.8864 19.7816 28.6508 20.0934C28.6091 20.1474 28.5699 20.2037 28.5307 20.2601C28.4914 20.3165 28.4277 20.4097 28.3811 20.4857C28.3345 20.5617 28.2512 20.6941 28.1923 20.7995C28.1335 20.9049 28.0673 21.0447 28.0109 21.1526C27.9864 21.204 27.9619 21.2531 27.9423 21.3046C27.9226 21.356 27.881 21.4468 27.854 21.5203C27.827 21.5939 27.8123 21.6282 27.7952 21.6821C27.6672 22.0541 27.5849 22.4402 27.55 22.832C27.55 22.8737 27.55 22.9153 27.55 22.957C27.55 23.0477 27.55 23.1384 27.55 23.2243C27.55 23.5601 27.55 25.0728 27.55 25.3523C27.55 27.3922 28.8935 29.4394 31.6002 30.9913C36.9719 34.0927 45.6853 34.0927 51.057 30.9913C53.7711 29.4271 55.1073 27.3726 55.0705 25.3254C55.046 25.0925 55.0607 23.8225 55.046 23.3272ZM32.2867 18.9901C34.6403 17.6319 37.8129 16.8841 41.2183 16.8841C44.6237 16.8841 47.8232 17.6319 50.2063 18.9926C52.327 20.2013 53.494 21.7164 53.499 23.2586C53.5039 24.8007 52.3515 26.3012 50.2578 27.5099C47.8919 28.8779 44.712 29.6281 41.3017 29.6281C37.8913 29.6281 34.7164 28.8779 32.348 27.5099C30.2371 26.284 29.0725 24.7664 29.0725 23.2169C29.0725 21.6674 30.2273 20.1866 32.2965 18.9901H32.2867Z" fill="#CCCBCD"/>
<path opacity="0.25" d="M55.046 23.3272C55.046 23.2659 55.046 23.2169 55.046 23.1826C55.046 23.1483 55.046 23.0673 55.046 23.0085C55.046 22.8663 55.0239 22.7266 55.0043 22.5868C55.0043 22.5353 54.9871 22.4863 54.9773 22.4323C54.9418 22.2376 54.8943 22.0451 54.8351 21.8562L54.7836 21.6993C54.7322 21.5595 54.6782 21.4173 54.6169 21.28C54.5949 21.231 54.5728 21.1844 54.5483 21.1354L54.4821 21.003C54.4502 20.9417 54.4183 20.8804 54.3816 20.8191C54.3448 20.7578 54.3129 20.6965 54.2737 20.6352L54.1585 20.4563C53.9529 20.1413 53.7199 19.8451 53.4622 19.5712C53.1264 19.2052 52.7588 18.8696 52.3638 18.5684C51.9249 18.2301 51.4629 17.9229 50.981 17.6491C45.5873 14.5648 36.8641 14.5648 31.5242 17.6491C31.3894 17.7275 31.2594 17.806 31.1319 17.8942C30.6546 18.19 30.2013 18.5228 29.7761 18.8896C29.656 18.9975 29.531 19.1054 29.4255 19.2157C29.1454 19.4882 28.8864 19.7816 28.6508 20.0934C28.6091 20.1474 28.5699 20.2037 28.5307 20.2601C28.4914 20.3165 28.4277 20.4097 28.3811 20.4857C28.3345 20.5617 28.2512 20.6941 28.1923 20.7995C28.1335 20.9049 28.0673 21.0447 28.0109 21.1526C27.9864 21.204 27.9619 21.2531 27.9423 21.3046C27.9226 21.356 27.881 21.4468 27.854 21.5203C27.827 21.5939 27.8123 21.6282 27.7952 21.6821C27.6672 22.0541 27.5849 22.4402 27.55 22.832C27.55 22.8737 27.55 22.9153 27.55 22.957C27.55 23.0477 27.55 23.1384 27.55 23.2243C27.55 23.5601 27.55 25.0728 27.55 25.3523C27.55 27.3922 28.8935 29.4394 31.6002 30.9913C36.9719 34.0927 45.6853 34.0927 51.057 30.9913C53.7711 29.4271 55.1073 27.3726 55.0705 25.3254C55.046 25.0925 55.0607 23.8225 55.046 23.3272ZM32.2867 18.9901C34.6403 17.6319 37.8129 16.8841 41.2183 16.8841C44.6237 16.8841 47.8232 17.6319 50.2063 18.9926C52.327 20.2013 53.494 21.7164 53.499 23.2586C53.5039 24.8007 52.3515 26.3012 50.2578 27.5099C47.8919 28.8779 44.712 29.6281 41.3017 29.6281C37.8913 29.6281 34.7164 28.8779 32.348 27.5099C30.2371 26.284 29.0725 24.7664 29.0725 23.2169C29.0725 21.6674 30.2273 20.1866 32.2965 18.9901H32.2867Z" fill="white"/>
<path d="M55.046 23.3272H53.499C53.499 24.8595 52.3516 26.3011 50.2578 27.5098C47.963 28.8362 44.9008 29.5815 41.6057 29.6257V33.3155C45.0259 33.2738 48.4239 32.5015 51.0326 30.9937C53.7466 29.4295 55.0828 27.375 55.046 25.3278C55.046 25.0924 55.0607 23.8225 55.046 23.3272Z" fill="#CCCBCD"/>
<path d="M55.046 23.1777C55.046 23.1213 55.046 23.0624 55.046 23.0036C55.046 22.8614 55.0239 22.7217 55.0043 22.5819C55.0043 22.5304 54.9871 22.4814 54.9773 22.4274C54.9418 22.2327 54.8943 22.0402 54.8351 21.8513L54.7837 21.6944C54.7322 21.5546 54.6782 21.4124 54.6169 21.2751C54.5949 21.2261 54.5728 21.1795 54.5483 21.1305L54.4821 20.9981C54.4502 20.9368 54.4184 20.8755 54.3816 20.8142C54.3448 20.7529 54.3129 20.6916 54.2737 20.6303L54.1585 20.4514C53.9529 20.1364 53.7199 19.8402 53.4622 19.5663C53.1251 19.2015 52.7577 18.8661 52.3638 18.5635C51.9249 18.2252 51.4629 17.918 50.981 17.6441C45.5873 14.5599 36.8641 14.5599 31.5242 17.6441C31.3894 17.7226 31.2594 17.8011 31.1319 17.8893C30.6546 18.1851 30.2013 18.5179 29.7761 18.8847C29.656 18.9926 29.531 19.1005 29.4255 19.2108C29.1454 19.4833 28.8864 19.7767 28.6508 20.0885C28.6091 20.1424 28.5699 20.1988 28.5307 20.2552C28.4914 20.3116 28.4277 20.4048 28.3811 20.4808C28.3345 20.5568 28.2512 20.6892 28.1923 20.7946C28.1335 20.9 28.0673 21.0398 28.0109 21.1476C27.9864 21.1991 27.9619 21.2482 27.9423 21.2997C27.9226 21.3511 27.881 21.4419 27.854 21.5154C27.827 21.589 27.8123 21.6233 27.7952 21.6772C27.6672 22.0492 27.5849 22.4353 27.55 22.8271C27.55 22.8688 27.55 22.9104 27.55 22.9521C27.55 23.0428 27.55 23.1335 27.55 23.2194C27.55 25.2567 28.9009 27.2966 31.6002 28.8583C36.9719 31.9597 45.6853 31.9597 51.057 28.8583C53.7074 27.3284 55.046 25.3352 55.0705 23.3346C55.0582 23.2659 55.046 23.2169 55.046 23.1777ZM50.2578 27.5049C47.8919 28.873 44.712 29.6232 41.3017 29.6232C37.8913 29.6232 34.7164 28.873 32.348 27.5049C30.2371 26.2791 29.0725 24.7615 29.0725 23.212C29.0725 21.6625 30.2175 20.1817 32.2867 18.9852C34.6403 17.627 37.8129 16.8792 41.2183 16.8792C44.6237 16.8792 47.8232 17.627 50.2063 18.9877C52.327 20.1964 53.4941 21.7115 53.499 23.2537C53.5039 24.7958 52.3614 26.3012 50.2676 27.5099L50.2578 27.5049Z" fill="#CCCBCD"/>
<path opacity="0.45" d="M55.046 23.1777C55.046 23.1213 55.046 23.0624 55.046 23.0036C55.046 22.8614 55.0239 22.7217 55.0043 22.5819C55.0043 22.5304 54.9871 22.4814 54.9773 22.4274C54.9418 22.2327 54.8943 22.0402 54.8351 21.8513L54.7837 21.6944C54.7322 21.5546 54.6782 21.4124 54.6169 21.2751C54.5949 21.2261 54.5728 21.1795 54.5483 21.1305L54.4821 20.9981C54.4502 20.9368 54.4184 20.8755 54.3816 20.8142C54.3448 20.7529 54.3129 20.6916 54.2737 20.6303L54.1585 20.4514C53.9529 20.1364 53.7199 19.8402 53.4622 19.5663C53.1251 19.2015 52.7577 18.8661 52.3638 18.5635C51.9249 18.2252 51.4629 17.918 50.981 17.6441C45.5873 14.5599 36.8641 14.5599 31.5242 17.6441C31.3894 17.7226 31.2594 17.8011 31.1319 17.8893C30.6546 18.1851 30.2013 18.5179 29.7761 18.8847C29.656 18.9926 29.531 19.1005 29.4255 19.2108C29.1454 19.4833 28.8864 19.7767 28.6508 20.0885C28.6091 20.1424 28.5699 20.1988 28.5307 20.2552C28.4914 20.3116 28.4277 20.4048 28.3811 20.4808C28.3345 20.5568 28.2512 20.6892 28.1923 20.7946C28.1335 20.9 28.0673 21.0398 28.0109 21.1476C27.9864 21.1991 27.9619 21.2482 27.9423 21.2997C27.9226 21.3511 27.881 21.4419 27.854 21.5154C27.827 21.589 27.8123 21.6233 27.7952 21.6772C27.6672 22.0492 27.5849 22.4353 27.55 22.8271C27.55 22.8688 27.55 22.9104 27.55 22.9521C27.55 23.0428 27.55 23.1335 27.55 23.2194C27.55 25.2567 28.9009 27.2966 31.6002 28.8583C36.9719 31.9597 45.6853 31.9597 51.057 28.8583C53.7074 27.3284 55.046 25.3352 55.0705 23.3346C55.0582 23.2659 55.046 23.2169 55.046 23.1777ZM50.2578 27.5049C47.8919 28.873 44.712 29.6232 41.3017 29.6232C37.8913 29.6232 34.7164 28.873 32.348 27.5049C30.2371 26.2791 29.0725 24.7615 29.0725 23.212C29.0725 21.6625 30.2175 20.1817 32.2867 18.9852C34.6403 17.627 37.8129 16.8792 41.2183 16.8792C44.6237 16.8792 47.8232 17.627 50.2063 18.9877C52.327 20.1964 53.4941 21.7115 53.499 23.2537C53.5039 24.7958 52.3614 26.3012 50.2676 27.5099L50.2578 27.5049Z" fill="white"/>
<path d="M53.5088 23.2586C53.5089 23.5215 53.476 23.7835 53.4107 24.0382C53.0895 22.7658 51.9838 21.5473 50.2234 20.5421C47.8404 19.1814 44.6483 18.4336 41.2355 18.4336C37.8227 18.4336 34.6575 19.1814 32.3039 20.5396C30.5877 21.5203 29.504 22.7339 29.1877 23.9892C29.1223 23.737 29.0893 23.4774 29.0897 23.2169C29.0897 21.687 30.2346 20.1866 32.3039 18.9901C34.6575 17.6319 37.83 16.8841 41.2355 16.8841C44.6409 16.8841 47.8404 17.6319 50.2234 18.9926C52.3491 20.2013 53.5039 21.7066 53.5088 23.2586Z" fill="#CCCBCD"/>
<path opacity="0.25" d="M53.5088 23.2586C53.5089 23.5215 53.476 23.7835 53.4107 24.0382C53.0895 22.7658 51.9838 21.5473 50.2234 20.5421C47.8404 19.1814 44.6483 18.4336 41.2355 18.4336C37.8227 18.4336 34.6575 19.1814 32.3039 20.5396C30.5877 21.5203 29.504 22.7339 29.1877 23.9892C29.1223 23.737 29.0893 23.4774 29.0897 23.2169C29.0897 21.687 30.2346 20.1866 32.3039 18.9901C34.6575 17.6319 37.83 16.8841 41.2355 16.8841C44.6409 16.8841 47.8404 17.6319 50.2234 18.9926C52.3491 20.2013 53.5039 21.7066 53.5088 23.2586Z" fill="white"/>
</svg>
