<svg width="46" height="72" viewBox="0 0 46 72" fill="none" xmlns="http://www.w3.org/2000/svg">
<path d="M26.6443 1.63021L3.27843 15.0833C3.04705 15.234 2.85475 15.4372 2.71731 15.6763C2.57987 15.9155 2.50119 16.1837 2.48773 16.4591V71.3526C2.48773 71.8551 2.84282 72.059 3.27843 71.8057L26.6443 58.3485C26.8742 58.1981 27.0654 57.9961 27.2028 57.7585C27.3401 57.521 27.4197 57.2547 27.435 56.9809V2.07919C27.435 1.57666 27.0799 1.3707 26.6443 1.63021ZM26.2975 52.9133C26.2975 53.3438 25.994 53.6177 25.6203 53.8319L4.22397 66.1604C3.85236 66.3664 3.54682 66.2016 3.54682 65.7691V20.1189C3.5469 19.8829 3.60934 19.651 3.72786 19.4467C3.84638 19.2424 4.01679 19.0729 4.2219 18.9552L25.6183 6.62465C25.6869 6.58486 25.7649 6.56381 25.8443 6.56362C25.9237 6.56343 26.0017 6.5841 26.0706 6.62356C26.1394 6.66302 26.1967 6.71987 26.2365 6.78839C26.2763 6.85691 26.2974 6.93469 26.2975 7.0139V52.9133Z" fill="#8A898E"/>
<path d="M26.2975 52.9133C26.2975 53.3438 25.994 53.6177 25.6203 53.8319L4.22397 66.1604C3.85236 66.3664 3.54681 66.2016 3.54681 65.7691V20.1189C3.5469 19.8829 3.60934 19.651 3.72786 19.4467C3.84638 19.2424 4.01679 19.0729 4.2219 18.9553L25.6183 6.62465C25.6869 6.58487 25.7649 6.56382 25.8443 6.56363C25.9237 6.56344 26.0017 6.58411 26.0706 6.62357C26.1394 6.66303 26.1967 6.71988 26.2365 6.7884C26.2763 6.85692 26.2974 6.9347 26.2975 7.01391V52.9133Z" fill="#8A898E"/>
<path d="M4.22397 66.1604L25.6203 53.836C25.7705 53.755 25.9094 53.6546 26.0332 53.5374L3.54681 40.904V65.7691C3.54681 66.2016 3.85236 66.3746 4.22397 66.1604Z" fill="#CCCBCD"/>
<path d="M24.5654 52.1122V7.23224L4.2219 18.9553C4.01679 19.0729 3.84638 19.2424 3.72786 19.4467C3.60934 19.651 3.5469 19.8829 3.54681 20.1189V64.7476L23.8882 53.0307C24.2619 52.8165 24.5654 52.5426 24.5654 52.1122Z" fill="#CCCBCD"/>
<path d="M3.17932 71.8613C2.94337 71.9606 2.68864 72.0075 2.43272 71.999C2.1768 71.9905 1.92578 71.9266 1.69701 71.8119L0.792765 71.2908C0.562016 71.1417 0.369899 70.9403 0.232117 70.703C0.0943339 70.4656 0.0147946 70.1992 0 69.9253V15.0174C0.00520242 14.8139 0.0515484 14.6135 0.136257 14.4283C0.16516 14.3645 0.196127 14.3027 0.231223 14.2389L2.70861 15.6806C2.65654 15.7734 2.61101 15.8697 2.57236 15.9689C2.51222 16.1248 2.4794 16.29 2.47533 16.457V71.3526C2.48771 71.816 2.78913 72.0261 3.17932 71.8613Z" fill="#8A898E"/>
<path d="M15.6592 60.8015C16.165 60.8015 16.2186 61.3678 16.2186 61.6109C16.1884 62.0978 16.0453 62.5711 15.8007 62.9935C15.556 63.416 15.2164 63.776 14.8086 64.0453C14.645 64.149 14.4572 64.2086 14.2636 64.2183C13.7578 64.2183 13.7041 63.6519 13.7041 63.4089C13.7346 62.9219 13.8775 62.4486 14.1218 62.026C14.366 61.6033 14.705 61.2427 15.1121 60.9724C15.2771 60.8703 15.4653 60.8115 15.6592 60.8015Z" fill="#CCCBCD"/>
<path d="M14.9448 9.23206C15.1513 9.10849 15.3309 9.20735 15.3309 9.4545C15.3234 9.58811 15.2846 9.7181 15.2175 9.834C15.1504 9.94991 15.057 10.0485 14.9448 10.1218C14.7384 10.2433 14.5567 10.1444 14.5567 9.89936C14.5638 9.76541 14.6026 9.63505 14.6701 9.51904C14.7376 9.40302 14.8318 9.30466 14.9448 9.23206Z" fill="#8A898E"/>
<path d="M12.4509 12.4841C12.6409 12.3749 12.7936 12.4635 12.7936 12.6901C12.7873 12.8086 12.753 12.9239 12.6934 13.0267C12.6339 13.1294 12.5508 13.2166 12.4509 13.2812C12.261 13.3903 12.1082 13.3017 12.1082 13.0752C12.1148 12.9568 12.1493 12.8415 12.2088 12.7388C12.2684 12.6362 12.3513 12.5489 12.4509 12.4841Z" fill="#8A898E"/>
<path d="M13.5967 11.8086L17.4346 9.59868C17.6411 9.47716 17.8145 9.56366 17.8145 9.79021C17.8044 9.91744 17.7649 10.0406 17.6989 10.15C17.633 10.2593 17.5425 10.3519 17.4346 10.4204L13.5967 12.6304C13.3903 12.7519 13.2169 12.6654 13.2169 12.4388C13.2269 12.3116 13.2665 12.1884 13.3324 12.0791C13.3983 11.9697 13.4888 11.8771 13.5967 11.8086Z" fill="#8A898E"/>
<path d="M27.4267 1.95358C27.3689 1.54166 27.0407 1.39544 26.6464 1.62405L3.27632 15.0833C3.04247 15.2281 2.85038 15.4311 2.7189 15.6723L0.241516 14.2306C0.37505 13.9913 0.567626 13.79 0.800994 13.6457L24.1566 0.188532C24.4016 0.0645893 24.6725 0 24.9473 0C25.222 0 25.4929 0.0645893 25.738 0.188532L26.6464 0.707542C26.858 0.847637 27.0372 1.03132 27.1718 1.24624C27.3064 1.46117 27.3933 1.70235 27.4267 1.95358Z" fill="#CCCBCD"/>
<path d="M21.2973 3.61974C21.176 3.68435 21.0411 3.71935 20.9037 3.72186C20.7662 3.72436 20.6302 3.69431 20.5066 3.63416C20.4652 3.61655 20.4294 3.58811 20.4028 3.55186C20.3763 3.51561 20.3601 3.47289 20.3559 3.4282C20.3559 3.37053 20.3559 3.15634 20.3559 3.09661C20.3625 3.04521 20.3824 2.9964 20.4135 2.9549C20.4446 2.9134 20.4859 2.88063 20.5334 2.85976L23.0377 1.41807C23.1594 1.35391 23.2946 1.31918 23.4323 1.31667C23.57 1.31417 23.7064 1.34396 23.8304 1.40365C23.8711 1.42208 23.9061 1.45078 23.9322 1.4869C23.9583 1.52303 23.9744 1.56533 23.9791 1.60961C23.9791 1.66933 23.9791 1.89176 23.9791 1.94943C23.9726 2.00113 23.9528 2.05028 23.9217 2.09214C23.8906 2.13399 23.8492 2.16713 23.8015 2.18834L21.2973 3.61974Z" fill="#CCCBCD"/>
<path opacity="0.25" d="M21.2973 3.61974C21.176 3.68435 21.0411 3.71935 20.9037 3.72186C20.7662 3.72436 20.6302 3.69431 20.5066 3.63416C20.4652 3.61655 20.4294 3.58811 20.4028 3.55186C20.3763 3.51561 20.3601 3.47289 20.3559 3.4282C20.3559 3.37053 20.3559 3.15634 20.3559 3.09661C20.3625 3.04521 20.3824 2.9964 20.4135 2.9549C20.4446 2.9134 20.4859 2.88063 20.5334 2.85976L23.0377 1.41807C23.1594 1.35391 23.2946 1.31918 23.4323 1.31667C23.57 1.31417 23.7064 1.34396 23.8304 1.40365C23.8711 1.42208 23.9061 1.45078 23.9322 1.4869C23.9583 1.52303 23.9744 1.56533 23.9791 1.60961C23.9791 1.66933 23.9791 1.89176 23.9791 1.94943C23.9726 2.00113 23.9528 2.05028 23.9217 2.09214C23.8906 2.13399 23.8492 2.16713 23.8015 2.18834L21.2973 3.61974Z" fill="#CCCBCD"/>
<path d="M21.2973 3.29228L23.8015 1.85059C24.0286 1.71877 24.0389 1.51488 23.8284 1.39336C23.7043 1.33368 23.5679 1.30389 23.4303 1.30639C23.2926 1.30889 23.1574 1.34362 23.0356 1.40778L20.5314 2.84947C20.3063 2.97923 20.2939 3.18312 20.5066 3.30464C20.6301 3.36462 20.7661 3.39476 20.9034 3.39261C21.0408 3.39047 21.1757 3.3561 21.2973 3.29228Z" fill="#CCCBCD"/>
<path opacity="0.3" d="M21.2973 3.29228L23.8015 1.85059C24.0286 1.71877 24.0389 1.51488 23.8284 1.39336C23.7043 1.33368 23.5679 1.30389 23.4303 1.30639C23.2926 1.30889 23.1574 1.34362 23.0356 1.40778L20.5314 2.84947C20.3063 2.97923 20.2939 3.18312 20.5066 3.30464C20.6301 3.36462 20.7661 3.39476 20.9034 3.39261C21.0408 3.39047 21.1757 3.3561 21.2973 3.29228Z" fill="#CCCBCD"/>
<path d="M1.56488 23.2906C1.55999 23.1536 1.52265 23.0196 1.45591 22.8997C1.38917 22.7798 1.29493 22.6773 1.18089 22.6007C1.14353 22.5732 1.09927 22.5565 1.053 22.5525C1.00673 22.5485 0.960248 22.5573 0.9187 22.578C0.871217 22.6069 0.681284 22.7119 0.631736 22.7428C0.590275 22.7741 0.557647 22.8156 0.537026 22.8633C0.516406 22.9109 0.508494 22.9631 0.51406 23.0147V29.1357C0.519049 29.2725 0.556214 29.4062 0.622559 29.5261C0.688904 29.6459 0.782569 29.7485 0.89599 29.8256C0.933307 29.8507 0.976456 29.8657 1.02129 29.8693C1.06612 29.8729 1.11113 29.865 1.15199 29.8462C1.20566 29.8195 1.39766 29.7082 1.44927 29.6773C1.49074 29.646 1.52336 29.6045 1.54398 29.5569C1.5646 29.5092 1.57252 29.4571 1.56695 29.4055L1.56488 23.2906Z" fill="#CCCBCD"/>
<path opacity="0.3" d="M1.56488 23.2906C1.55999 23.1536 1.52265 23.0196 1.45591 22.8997C1.38917 22.7798 1.29493 22.6773 1.18089 22.6007C1.14353 22.5732 1.09927 22.5565 1.053 22.5525C1.00673 22.5485 0.960248 22.5573 0.9187 22.578C0.871217 22.6069 0.681284 22.7119 0.631736 22.7428C0.590275 22.7741 0.557647 22.8156 0.537026 22.8633C0.516406 22.9109 0.508494 22.9631 0.51406 23.0147V29.1357C0.519049 29.2725 0.556214 29.4062 0.622559 29.5261C0.688904 29.6459 0.782569 29.7485 0.89599 29.8256C0.933307 29.8507 0.976456 29.8657 1.02129 29.8693C1.06612 29.8729 1.11113 29.865 1.15199 29.8462C1.20566 29.8195 1.39766 29.7082 1.44927 29.6773C1.49074 29.646 1.52336 29.6045 1.54398 29.5569C1.5646 29.5092 1.57252 29.4571 1.56695 29.4055L1.56488 23.2906Z" fill="#CCCBCD"/>
<path d="M1.27996 23.4616V29.5826C1.27996 29.8421 1.10861 29.9533 0.895969 29.8318C0.782547 29.7547 0.688883 29.6521 0.622538 29.5323C0.556193 29.4124 0.519027 29.2787 0.514038 29.1419V23.0147C0.514038 22.7531 0.685391 22.6419 0.895969 22.7634C1.01088 22.8411 1.10562 22.9449 1.17239 23.0663C1.23916 23.1877 1.27603 23.3232 1.27996 23.4616Z" fill="#CCCBCD"/>
<path opacity="0.4" d="M1.27996 23.4616V29.5826C1.27996 29.8421 1.10861 29.9533 0.895969 29.8318C0.782547 29.7547 0.688883 29.6521 0.622538 29.5323C0.556193 29.4124 0.519027 29.2787 0.514038 29.1419V23.0147C0.514038 22.7531 0.685391 22.6419 0.895969 22.7634C1.01088 22.8411 1.10562 22.9449 1.17239 23.0663C1.23916 23.1877 1.27603 23.3232 1.27996 23.4616Z" fill="#CCCBCD"/>
<path d="M1.56488 31.4939C1.55999 31.3568 1.52265 31.2228 1.45591 31.1029C1.38917 30.983 1.29493 30.8806 1.18089 30.8039C1.14353 30.7764 1.09927 30.7597 1.053 30.7557C1.00673 30.7517 0.960248 30.7606 0.9187 30.7813C0.871217 30.8101 0.681284 30.9152 0.631736 30.946C0.590275 30.9774 0.557647 31.0189 0.537026 31.0665C0.516406 31.1142 0.508494 31.1663 0.51406 31.2179V34.1013C0.519368 34.2378 0.556685 34.3711 0.623016 34.4906C0.689348 34.61 0.782843 34.7123 0.89599 34.7892C0.932084 34.8158 0.974657 34.8323 1.0193 34.8371C1.06395 34.8418 1.10904 34.8345 1.14992 34.816C1.2036 34.7892 1.3956 34.678 1.44721 34.6471C1.4885 34.6161 1.52104 34.5749 1.54167 34.5276C1.56229 34.4804 1.57029 34.4286 1.56488 34.3773V31.4939Z" fill="#CCCBCD"/>
<path opacity="0.3" d="M1.56488 31.4939C1.55999 31.3568 1.52265 31.2228 1.45591 31.1029C1.38917 30.983 1.29493 30.8806 1.18089 30.8039C1.14353 30.7764 1.09927 30.7597 1.053 30.7557C1.00673 30.7517 0.960248 30.7606 0.9187 30.7813C0.871217 30.8101 0.681284 30.9152 0.631736 30.946C0.590275 30.9774 0.557647 31.0189 0.537026 31.0665C0.516406 31.1142 0.508494 31.1663 0.51406 31.2179V34.1013C0.519368 34.2378 0.556685 34.3711 0.623016 34.4906C0.689348 34.61 0.782843 34.7123 0.89599 34.7892C0.932084 34.8158 0.974657 34.8323 1.0193 34.8371C1.06395 34.8418 1.10904 34.8345 1.14992 34.816C1.2036 34.7892 1.3956 34.678 1.44721 34.6471C1.4885 34.6161 1.52104 34.5749 1.54167 34.5276C1.56229 34.4804 1.57029 34.4286 1.56488 34.3773V31.4939Z" fill="#CCCBCD"/>
<path d="M1.27996 31.6483V34.5317C1.27996 34.7912 1.10861 34.9045 0.895969 34.7809C0.782547 34.7039 0.688883 34.6012 0.622538 34.4814C0.556193 34.3615 0.519027 34.2278 0.514038 34.091V31.2076C0.514038 30.9481 0.685391 30.8348 0.895969 30.9563C1.00981 31.0336 1.10387 31.1365 1.17057 31.2567C1.23727 31.3769 1.27474 31.5111 1.27996 31.6483Z" fill="#CCCBCD"/>
<path opacity="0.4" d="M1.27996 31.6483V34.5317C1.27996 34.7912 1.10861 34.9045 0.895969 34.7809C0.782547 34.7039 0.688883 34.6012 0.622538 34.4814C0.556193 34.3615 0.519027 34.2278 0.514038 34.091V31.2076C0.514038 30.9481 0.685391 30.8348 0.895969 30.9563C1.00981 31.0336 1.10387 31.1365 1.17057 31.2567C1.23727 31.3769 1.27474 31.5111 1.27996 31.6483Z" fill="#CCCBCD"/>
<path d="M32.0287 15.51C29.7495 14.2193 26.6156 14.4099 23.1567 16.4161C16.1918 20.4286 10.5475 30.1755 10.5475 38.197C10.5475 42.2095 11.9586 45.0182 14.2344 46.3323C15.183 46.8806 17.5861 48.2583 18.5414 48.8033C20.8205 50.114 23.9678 49.9234 27.4469 47.9205C34.4084 43.9081 40.0526 34.1578 40.0526 26.1363C40.0526 22.1238 38.6483 19.3285 36.3658 18.0077C35.4306 17.456 32.9939 16.0584 32.0287 15.51Z" fill="#CCCBCD"/>
<path opacity="0.15" d="M32.0287 15.51C29.7495 14.2193 26.6156 14.4099 23.1567 16.4161C16.1918 20.4286 10.5475 30.1755 10.5475 38.197C10.5475 42.2095 11.9586 45.0182 14.2344 46.3323C15.183 46.8806 17.5861 48.2583 18.5414 48.8033C20.8205 50.114 23.9678 49.9234 27.4469 47.9205C34.4084 43.9081 40.0526 34.1578 40.0526 26.1363C40.0526 22.1238 38.6483 19.3285 36.3658 18.0077C35.4306 17.456 32.9939 16.0584 32.0287 15.51Z" fill="#333333"/>
<path d="M36.3628 38.5319C41.2867 30.0237 41.2874 20.8279 36.3643 17.9923C31.4411 15.1567 23.4585 19.7552 18.5346 28.2633C13.6107 36.7714 13.6101 45.9673 18.5332 48.8029C23.4563 51.6385 31.4389 47.04 36.3628 38.5319Z" fill="#CCCBCD"/>
<path d="M26.3107 25.2502L20.3514 42.4101C19.7313 44.199 20.5659 44.8878 22.2082 43.9415L32.6689 37.9228C33.4562 37.4669 34.0307 36.7187 34.2669 35.8416C34.503 34.9644 34.3816 34.0297 33.9291 33.2417L29.163 24.9794C28.2145 23.3409 26.9308 23.4613 26.3107 25.2502Z" fill="#FAFAFA"/>
<path d="M28.0837 35.5087L27.1754 36.0303C27.1457 36.0553 27.109 36.0709 27.0703 36.0749C27.0316 36.0789 26.9925 36.0713 26.9582 36.0529C26.9239 36.0345 26.8959 36.0063 26.8778 35.9719C26.8598 35.9374 26.8526 35.8984 26.857 35.8598L26.4816 29.0687C26.4816 28.9662 26.5073 28.8654 26.5565 28.7754C26.6057 28.6854 26.6768 28.6092 26.7632 28.5538L28.4826 27.5507C28.6502 27.457 28.7742 27.5507 28.7641 27.7245L28.3955 34.9804C28.3864 35.0861 28.3538 35.1885 28.2998 35.2799C28.2459 35.3713 28.172 35.4495 28.0837 35.5087Z" fill="#CCCBCD"/>
<path d="M27.6313 39.1533C27.0515 39.4877 26.7029 39.053 26.7029 38.4545C26.706 38.1073 26.7919 37.7659 26.9533 37.4584C27.1147 37.1508 27.3471 36.886 27.6313 36.6857C28.2111 36.3513 28.5564 36.7826 28.5564 37.3845C28.5539 37.7314 28.4687 38.0727 28.3078 38.3803C28.147 38.6878 27.9151 38.9528 27.6313 39.1533Z" fill="#CCCBCD"/>
</svg>
