<svg width="88" height="116" viewBox="0 0 88 116" fill="none" xmlns="http://www.w3.org/2000/svg">
<g clip-path="url(#clip0_9323_4570)">
<path d="M54.3144 84.8607V3.95351C54.3144 1.73756 53.2039 1.13648 52.2405 0.574182C51.2771 0.0118839 49.6558 -0.326049 48.2704 0.471694L12.7671 20.9222C11.379 21.7199 10.2684 23.6644 10.2684 25.2599V106.17C10.2684 107.765 11.2735 108.707 12.2507 109.269C13.228 109.832 14.9271 110.449 16.3124 109.652L51.8046 89.1984C52.5896 88.7842 53.2415 88.1574 53.6855 87.3901C54.1295 86.6228 54.3474 85.746 54.3144 84.8607Z" fill="#CCCBCD"/>
<path opacity="0.3" d="M54.3144 84.8607V3.95351C54.3144 1.73756 53.2039 1.13648 52.2405 0.574182C51.2771 0.0118839 49.6558 -0.326049 48.2704 0.471694L12.7671 20.9222C11.379 21.7199 10.2684 23.6644 10.2684 25.2599V106.17C10.2684 107.765 11.2735 108.707 12.2507 109.269C13.228 109.832 14.9271 110.449 16.3124 109.652L51.8046 89.1984C52.5896 88.7842 53.2415 88.1574 53.6855 87.3901C54.1295 86.6228 54.3474 85.746 54.3144 84.8607Z" fill="#333333"/>
<path d="M52.0545 85.6723L15.56 106.702V25.4233L10.9902 22.7919C10.5394 23.5391 10.2862 24.3883 10.2545 25.2599V106.17C10.2545 107.765 11.2595 108.707 12.2368 109.269C13.214 109.832 14.9131 110.449 16.2985 109.652L51.8046 89.1984C52.79 88.6704 53.5591 87.8148 53.9784 86.7802L53.8368 86.6971L52.0545 85.6723Z" fill="#CCCBCD"/>
<path opacity="0.5" d="M52.0545 85.6723L15.56 106.702V25.4233L10.9902 22.7919C10.5394 23.5391 10.2862 24.3883 10.2545 25.2599V106.17C10.2545 107.765 11.2595 108.707 12.2368 109.269C13.214 109.832 14.9131 110.449 16.2985 109.652L51.8046 89.1984C52.79 88.6704 53.5591 87.8148 53.9784 86.7802L53.8368 86.6971L52.0545 85.6723Z" fill="#333333"/>
<path d="M51.738 3.21116L16.132 23.7226C15.6182 24.0558 15.1906 24.5056 14.8842 25.0351C14.5779 25.5646 14.4013 26.1589 14.369 26.7695V106.976C14.369 108.69 15.5906 109.394 17.0787 108.533L51.738 88.5696C52.3173 88.19 52.7995 87.6804 53.1462 87.0816C53.4928 86.4828 53.6941 85.8114 53.7341 85.121V4.36069C53.7341 3.09483 52.8346 2.57962 51.738 3.21116Z" fill="#CCCBCD"/>
<path opacity="0.2" d="M51.738 3.21116L16.132 23.7226C15.6182 24.0558 15.1906 24.5056 14.8842 25.0351C14.5779 25.5646 14.4013 26.1589 14.369 26.7695V106.976C14.369 108.69 15.5906 109.394 17.0787 108.533L51.738 88.5696C52.3173 88.19 52.7995 87.6804 53.1462 87.0816C53.4928 86.4828 53.6941 85.8114 53.7341 85.121V4.36069C53.7341 3.09483 52.8346 2.57962 51.738 3.21116Z" fill="#333333"/>
<path d="M13.55 35.553C13.5374 35.2208 13.4469 34.8962 13.2859 34.6051C13.1249 34.3141 12.8977 34.0648 12.6227 33.8772C12.5308 33.812 12.423 33.7727 12.3106 33.7634C12.1983 33.7541 12.0855 33.7753 11.9841 33.8245C11.8675 33.8965 11.4122 34.1514 11.2901 34.2234C11.1907 34.2994 11.1128 34.3999 11.0642 34.515C11.0155 34.6301 10.9977 34.7558 11.0124 34.8799V41.8712C11.0261 42.2013 11.117 42.5235 11.2781 42.8122C11.4391 43.1008 11.6657 43.3477 11.9397 43.5332C12.0278 43.5956 12.1306 43.6343 12.2381 43.6455C12.3456 43.6566 12.4542 43.6399 12.5533 43.5969C12.681 43.5304 13.1502 43.2617 13.2696 43.1897C13.3689 43.1131 13.4467 43.0121 13.4954 42.8966C13.544 42.781 13.5619 42.6549 13.5472 42.5305L13.55 35.553Z" fill="#CCCBCD"/>
<path opacity="0.3" d="M13.55 35.553C13.5374 35.2208 13.4469 34.8962 13.2859 34.6051C13.1249 34.3141 12.8977 34.0648 12.6227 33.8772C12.5308 33.812 12.423 33.7727 12.3106 33.7634C12.1983 33.7541 12.0855 33.7753 11.9841 33.8245C11.8675 33.8965 11.4122 34.1514 11.2901 34.2234C11.1907 34.2994 11.1128 34.3999 11.0642 34.515C11.0155 34.6301 10.9977 34.7558 11.0124 34.8799V41.8712C11.0261 42.2013 11.117 42.5235 11.2781 42.8122C11.4391 43.1008 11.6657 43.3477 11.9397 43.5332C12.0278 43.5956 12.1306 43.6343 12.2381 43.6455C12.3456 43.6566 12.4542 43.6399 12.5533 43.5969C12.681 43.5304 13.1502 43.2617 13.2696 43.1897C13.3689 43.1131 13.4467 43.0121 13.4954 42.8966C13.544 42.781 13.5619 42.6549 13.5472 42.5305L13.55 35.553Z" fill="#333333"/>
<path d="M12.8587 35.9491V42.9404C12.8587 43.5692 12.445 43.8406 11.9314 43.5443C11.6574 43.3588 11.4308 43.1119 11.2697 42.8232C11.1087 42.5346 11.0177 42.2123 11.0041 41.8823V34.8799C11.0041 34.2511 11.4178 33.9797 11.9314 34.276C12.2072 34.4623 12.4349 34.7109 12.5961 35.0016C12.7572 35.2924 12.8472 35.617 12.8587 35.9491Z" fill="#CCCBCD"/>
<path opacity="0.4" d="M12.8587 35.9491V42.9404C12.8587 43.5692 12.445 43.8406 11.9314 43.5443C11.6574 43.3588 11.4308 43.1119 11.2697 42.8232C11.1087 42.5346 11.0177 42.2123 11.0041 41.8823V34.8799C11.0041 34.2511 11.4178 33.9797 11.9314 34.276C12.2072 34.4623 12.4349 34.7109 12.5961 35.0016C12.7572 35.2924 12.8472 35.617 12.8587 35.9491Z" fill="#333333"/>
<path d="M13.55 47.785C13.5361 47.455 13.4451 47.1328 13.284 46.8442C13.123 46.5557 12.8965 46.3087 12.6227 46.1231C12.5313 46.0567 12.4234 46.0167 12.3108 46.0075C12.1982 45.9982 12.0852 46.02 11.9842 46.0704L11.2901 46.4665C11.1907 46.5432 11.1129 46.6441 11.0642 46.7597C11.0156 46.8752 10.9977 47.0013 11.0125 47.1258V54.1033C11.0256 54.4334 11.1164 54.7558 11.2775 55.0445C11.4386 55.3332 11.6654 55.5801 11.9397 55.7652C12.0274 55.8286 12.1301 55.8681 12.2377 55.8798C12.3453 55.8914 12.4541 55.8748 12.5533 55.8317C12.681 55.7652 13.1502 55.4938 13.2696 55.4217C13.3689 55.3457 13.4468 55.2453 13.4955 55.1302C13.5441 55.0151 13.562 54.8893 13.5472 54.7653L13.55 47.785Z" fill="#CCCBCD"/>
<path opacity="0.3" d="M13.55 47.785C13.5361 47.455 13.4451 47.1328 13.284 46.8442C13.123 46.5557 12.8965 46.3087 12.6227 46.1231C12.5313 46.0567 12.4234 46.0167 12.3108 46.0075C12.1982 45.9982 12.0852 46.02 11.9842 46.0704L11.2901 46.4665C11.1907 46.5432 11.1129 46.6441 11.0642 46.7597C11.0156 46.8752 10.9977 47.0013 11.0125 47.1258V54.1033C11.0256 54.4334 11.1164 54.7558 11.2775 55.0445C11.4386 55.3332 11.6654 55.5801 11.9397 55.7652C12.0274 55.8286 12.1301 55.8681 12.2377 55.8798C12.3453 55.8914 12.4541 55.8748 12.5533 55.8317C12.681 55.7652 13.1502 55.4938 13.2696 55.4217C13.3689 55.3457 13.4468 55.2453 13.4955 55.1302C13.5441 55.0151 13.562 54.8893 13.5472 54.7653L13.55 47.785Z" fill="#333333"/>
<path d="M12.8587 48.1839V55.1725C12.8587 55.8012 12.445 56.0727 11.9314 55.7763C11.6571 55.5912 11.4302 55.3443 11.2692 55.0556C11.1081 54.7669 11.0173 54.4445 11.0041 54.1143V47.1147C11.0041 46.4832 11.4178 46.2145 11.9314 46.5081C12.2072 46.6949 12.435 46.944 12.5961 47.2352C12.7572 47.5264 12.8472 47.8515 12.8587 48.1839Z" fill="#CCCBCD"/>
<path opacity="0.4" d="M12.8587 48.1839V55.1725C12.8587 55.8012 12.445 56.0727 11.9314 55.7763C11.6571 55.5912 11.4302 55.3443 11.2692 55.0556C11.1081 54.7669 11.0173 54.4445 11.0041 54.1143V47.1147C11.0041 46.4832 11.4178 46.2145 11.9314 46.5081C12.2072 46.6949 12.435 46.944 12.5961 47.2352C12.7572 47.5264 12.8472 47.8515 12.8587 48.1839Z" fill="#333333"/>
<path d="M51.9962 8.42696V83.1045C51.9602 83.7613 51.7699 84.4004 51.4404 84.9702C51.111 85.5399 50.6518 86.0243 50.1 86.3841L18.0032 104.86C16.9482 105.466 16.1153 104.987 16.1153 103.768V28.5367C16.1742 27.4512 16.6506 26.4303 17.4451 25.6865L17.6256 25.523C17.748 25.4266 17.877 25.3386 18.0115 25.2599L27.04 20.0579L27.6286 19.72C27.9534 19.5316 28.2172 19.684 28.2172 20.0579C28.2172 20.4319 28.4948 20.5759 28.8446 20.3737L39.3668 14.3131C39.5462 14.1993 39.6962 14.0449 39.8047 13.8625C39.9132 13.6802 39.9772 13.4749 39.9915 13.2633C40.0026 13.0706 40.0555 12.8826 40.1466 12.7124C40.2376 12.5421 40.3647 12.3936 40.519 12.2772L40.58 12.2412L49.4114 7.15556L49.6002 7.04476C50.919 6.2858 51.9962 6.90626 51.9962 8.42696Z" fill="#FAFAFA"/>
<path d="M51.9962 11.7509V8.14997C51.9962 6.62927 50.919 6.00603 49.5975 6.765L49.4087 6.8758L40.5773 11.9725L40.5162 12.0085C40.362 12.1244 40.2349 12.2724 40.1438 12.4422C40.0528 12.612 39.9998 12.7995 39.9887 12.9918C39.9721 13.202 39.9065 13.4054 39.7971 13.5858C39.6876 13.7661 39.5374 13.9184 39.3585 14.0305L28.8363 20.0912C28.4893 20.2934 28.2088 20.1493 28.2088 19.7754C28.2088 19.4015 27.9312 19.2491 27.6203 19.4375L27.0317 19.7754L18.0032 24.9773C17.868 25.0551 17.739 25.1431 17.6173 25.2405L17.4368 25.4011C16.6438 26.1487 16.1705 27.1726 16.1153 28.2597V32.4146L51.9962 11.7509Z" fill="#747379"/>
<path d="M21.3902 27.5479C21.386 27.5324 21.386 27.5162 21.3902 27.5008V27.2792L21.0404 27.4814C21.021 27.4814 21.0127 27.4814 21.0127 27.4481V27.3706C21.011 27.3558 21.011 27.341 21.0127 27.3263C21.0127 27.3263 21.0127 27.2986 21.0127 27.2819L21.3902 26.2681L21.4097 26.2294C21.4139 26.2194 21.4219 26.2114 21.4319 26.2072L21.4819 26.1795C21.4957 26.1795 21.5069 26.1795 21.5124 26.1795C21.5184 26.1956 21.5184 26.2133 21.5124 26.2294V27.0105L21.5901 26.9662C21.5901 26.9662 21.6151 26.9662 21.6207 26.9662C21.6249 26.9825 21.6249 26.9997 21.6207 27.016V27.0687C21.6242 27.087 21.6242 27.1058 21.6207 27.1241C21.6145 27.1382 21.6038 27.1499 21.5901 27.1573L21.5124 27.2016V27.4287C21.5159 27.447 21.5159 27.4658 21.5124 27.4841C21.5044 27.4987 21.4929 27.511 21.4791 27.5202L21.4208 27.5534C21.4041 27.5534 21.3902 27.5534 21.3902 27.5479ZM21.4041 27.0742V26.5202L21.1515 27.2238L21.4041 27.0742Z" fill="#FAFAFA"/>
<path d="M21.804 27.1739C21.7223 27.0362 21.6863 26.8762 21.7012 26.7169C21.6974 26.5209 21.7323 26.326 21.804 26.1435C21.8601 25.9984 21.9626 25.8758 22.0955 25.7945C22.1376 25.7675 22.1849 25.7496 22.2343 25.7419C22.2709 25.733 22.3094 25.7379 22.3426 25.7557C22.3445 25.7591 22.3455 25.7629 22.3455 25.7668C22.3455 25.7707 22.3445 25.7745 22.3426 25.7779C22.3447 25.786 22.3447 25.7946 22.3426 25.8028L22.312 25.9191C22.312 25.9191 22.312 25.9413 22.312 25.9441C22.312 25.9468 22.312 25.9441 22.2981 25.9441C22.2685 25.9341 22.2368 25.9313 22.2059 25.9362C22.175 25.941 22.1456 25.9532 22.1205 25.9718C22.0278 26.0265 21.9571 26.1117 21.9206 26.2127C21.8685 26.3478 21.844 26.4919 21.8484 26.6365C21.8366 26.7554 21.8608 26.875 21.9178 26.98C21.965 27.0382 22.0288 27.041 22.1093 26.9966C22.1398 26.9779 22.1686 26.9566 22.1954 26.9329C22.2215 26.9109 22.2448 26.8857 22.2648 26.8581V26.4953L22.1205 26.5784C22.1038 26.5784 22.0927 26.5784 22.0871 26.5784C22.0829 26.562 22.0829 26.5449 22.0871 26.5285V26.4787C22.0836 26.4594 22.0836 26.4397 22.0871 26.4205C22.0936 26.4056 22.1055 26.3937 22.1205 26.3873L22.3509 26.2543C22.3675 26.2543 22.3786 26.2543 22.387 26.2543C22.3953 26.2543 22.387 26.282 22.387 26.3125V26.8304C22.387 26.8498 22.387 26.8637 22.387 26.8748C22.3832 26.8875 22.3776 26.8996 22.3703 26.9108C22.3045 27.0264 22.2086 27.1221 22.0927 27.1878C21.9705 27.257 21.8734 27.2542 21.804 27.1739Z" fill="#FAFAFA"/>
<path d="M24.7551 25.3901C24.7565 25.4723 24.739 25.5538 24.7039 25.6283C24.6687 25.7027 24.6169 25.7681 24.5524 25.8194C24.4414 25.8831 24.3498 25.7973 24.3498 25.6255C24.3481 25.5432 24.3656 25.4617 24.4007 25.3872C24.4359 25.3127 24.4878 25.2473 24.5524 25.1962C24.6635 25.1297 24.7551 25.2128 24.7551 25.3901Z" fill="#FAFAFA"/>
<path d="M24.5525 24.6837C24.315 24.856 24.1475 25.1077 24.0805 25.3928C24.0611 25.4565 24.0805 25.5147 24.0999 25.5341C24.136 25.559 24.1943 25.5092 24.2165 25.4288C24.2644 25.2283 24.3826 25.0515 24.5497 24.9303C24.5779 24.9103 24.6105 24.8974 24.6447 24.8927C24.6789 24.8879 24.7137 24.8913 24.7464 24.9027C24.779 24.9141 24.8084 24.9331 24.8321 24.9581C24.8559 24.9831 24.8733 25.0135 24.8828 25.0466C24.9051 25.0992 24.9634 25.0854 25.0022 25.0161C25.0172 24.9914 25.0266 24.9638 25.03 24.9351C25.0333 24.9065 25.0305 24.8774 25.0217 24.8499C25.0084 24.8032 24.984 24.7602 24.9507 24.7248C24.9173 24.6893 24.876 24.6623 24.8301 24.646C24.7841 24.6298 24.735 24.6247 24.6867 24.6312C24.6384 24.6378 24.5924 24.6558 24.5525 24.6837Z" fill="#FAFAFA"/>
<path d="M24.5524 24.1851C24.2 24.4347 23.9441 24.7975 23.8278 25.2128C23.8028 25.2793 23.8112 25.3458 23.8445 25.3679C23.8806 25.3928 23.9361 25.3457 23.9611 25.2682C24.0586 24.9326 24.267 24.6397 24.5524 24.4372C24.5999 24.4024 24.6547 24.3788 24.7126 24.368C24.7705 24.3573 24.8301 24.3597 24.887 24.3752C24.9438 24.3906 24.9964 24.4187 25.0409 24.4572C25.0854 24.4958 25.1205 24.5439 25.1438 24.5979C25.1715 24.645 25.2243 24.6311 25.2604 24.5619C25.2778 24.5355 25.2885 24.5053 25.2914 24.4739C25.2943 24.4425 25.2894 24.4109 25.277 24.3818C25.2484 24.3157 25.2053 24.2569 25.1508 24.2098C25.0963 24.1626 25.0318 24.1283 24.9622 24.1094C24.8926 24.0905 24.8196 24.0875 24.7487 24.1006C24.6777 24.1137 24.6107 24.1426 24.5524 24.1851Z" fill="#FAFAFA"/>
<path d="M32.3455 20.2989C32.3426 20.2934 32.3411 20.2872 32.3411 20.2809C32.3411 20.2746 32.3426 20.2685 32.3455 20.2629C32.3415 20.2475 32.3415 20.2313 32.3455 20.2158L32.6231 19.6951L32.6453 19.6591C32.6453 19.6591 32.662 19.6369 32.6703 19.6341L32.7758 19.5732C32.7793 19.5703 32.7838 19.5687 32.7883 19.5687C32.7929 19.5687 32.7973 19.5703 32.8008 19.5732C32.8051 19.5839 32.8051 19.5958 32.8008 19.6064V20.9415C32.8046 20.9561 32.8046 20.9713 32.8008 20.9859C32.7953 20.9988 32.7868 21.0102 32.7758 21.0191L32.6676 21.08C32.6635 21.0828 32.6586 21.0842 32.6537 21.0842C32.6487 21.0842 32.6439 21.0828 32.6398 21.08C32.6366 21.0692 32.6366 21.0576 32.6398 21.0468V20.0247L32.451 20.3654C32.4483 20.3712 32.4445 20.3764 32.4397 20.3807C32.4349 20.385 32.4293 20.3883 32.4232 20.3903C32.4232 20.3903 32.4066 20.3903 32.3983 20.3903L32.3455 20.2989Z" fill="#FAFAFA"/>
<path d="M33.0257 19.9056C33.0228 19.9 33.0213 19.8939 33.0213 19.8876C33.0213 19.8813 33.0228 19.8751 33.0257 19.8696C33.0261 19.8538 33.0309 19.8384 33.0396 19.8253L33.3173 19.3045L33.3395 19.2657C33.3463 19.2561 33.3548 19.2477 33.3645 19.2408L33.47 19.1799C33.4715 19.1781 33.4734 19.1767 33.4756 19.1757C33.4777 19.1747 33.4801 19.1742 33.4824 19.1742C33.4848 19.1742 33.4871 19.1747 33.4893 19.1757C33.4915 19.1767 33.4934 19.1781 33.4949 19.1799C33.4949 19.1799 33.4949 19.1965 33.4949 19.2131V20.5454C33.4953 20.5603 33.4922 20.575 33.4859 20.5884C33.4797 20.6019 33.4704 20.6137 33.4588 20.623L33.3506 20.6867C33.3466 20.6899 33.3417 20.6916 33.3367 20.6916C33.3316 20.6916 33.3267 20.6899 33.3228 20.6867C33.3188 20.676 33.3188 20.6642 33.3228 20.6535V19.6341L33.134 19.9721C33.134 19.9721 33.1174 19.997 33.1063 19.9998C33.1025 20.002 33.0981 20.0031 33.0938 20.0031C33.0894 20.0031 33.0851 20.002 33.0813 19.9998L33.0257 19.9056Z" fill="#FAFAFA"/>
<path d="M33.9169 19.335C33.9169 19.335 33.9363 19.335 33.9419 19.335C33.9443 19.3397 33.9456 19.3449 33.9456 19.3502C33.9456 19.3555 33.9443 19.3607 33.9419 19.3655V19.5704C33.9456 19.585 33.9456 19.6002 33.9419 19.6147C33.9402 19.6213 33.937 19.6275 33.9327 19.6327C33.9284 19.638 33.923 19.6422 33.9169 19.6452L33.792 19.7172C33.7885 19.7202 33.784 19.7218 33.7795 19.7218C33.7749 19.7218 33.7705 19.7202 33.767 19.7172C33.7627 19.7066 33.7627 19.6947 33.767 19.684V19.4818C33.7631 19.4663 33.7631 19.4502 33.767 19.4347C33.7722 19.4223 33.7809 19.4118 33.792 19.4042L33.9169 19.335ZM33.9169 20.0579C33.9169 20.0579 33.9363 20.0579 33.9419 20.0579C33.9462 20.0686 33.9462 20.0805 33.9419 20.0912V20.2962C33.9456 20.3107 33.9456 20.3259 33.9419 20.3405C33.9376 20.3533 33.9287 20.3642 33.9169 20.3709L33.792 20.443C33.7885 20.4459 33.784 20.4475 33.7795 20.4475C33.7749 20.4475 33.7705 20.4459 33.767 20.443C33.7627 20.4323 33.7627 20.4204 33.767 20.4097V20.2075C33.7631 20.1921 33.7631 20.1759 33.767 20.1604C33.7722 20.1481 33.7809 20.1375 33.792 20.13L33.9169 20.0579Z" fill="#FAFAFA"/>
<path d="M34.636 19.9499C34.632 19.9531 34.6271 19.9548 34.6221 19.9548C34.617 19.9548 34.6121 19.9531 34.6082 19.9499C34.6041 19.9392 34.6041 19.9274 34.6082 19.9167V19.6729L34.189 19.9139C34.1874 19.9157 34.1855 19.9171 34.1833 19.9181C34.1812 19.919 34.1788 19.9195 34.1765 19.9195C34.1741 19.9195 34.1718 19.919 34.1696 19.9181C34.1675 19.9171 34.1656 19.9157 34.164 19.9139C34.1599 19.9032 34.1599 19.8914 34.164 19.8807V19.7339C34.1601 19.7156 34.1601 19.6967 34.164 19.6785C34.164 19.6618 34.164 19.6424 34.1834 19.6203L34.5943 18.5954C34.6137 18.5511 34.6304 18.5206 34.6498 18.5123L34.7526 18.4514C34.7561 18.4484 34.7605 18.4468 34.7651 18.4468C34.7696 18.4468 34.774 18.4484 34.7775 18.4514C34.7775 18.4514 34.7775 18.468 34.7775 18.4846V19.3156L34.8942 19.2491C34.8957 19.2473 34.8976 19.2459 34.8998 19.245C34.9019 19.244 34.9043 19.2435 34.9066 19.2435C34.909 19.2435 34.9113 19.244 34.9135 19.245C34.9157 19.2459 34.9176 19.2473 34.9191 19.2491C34.9232 19.2598 34.9232 19.2716 34.9191 19.2824V19.4292C34.9217 19.4438 34.9217 19.4588 34.9191 19.4735C34.913 19.4852 34.9045 19.4956 34.8942 19.5039L34.7775 19.5704V19.8225C34.7813 19.837 34.7813 19.8523 34.7775 19.8668C34.7723 19.8792 34.7637 19.8897 34.7526 19.8973L34.636 19.9499ZM34.5999 19.3959V18.9527L34.3694 19.5289L34.5999 19.3959Z" fill="#FAFAFA"/>
<path d="M35.1746 18.2575C35.172 18.2419 35.172 18.226 35.1746 18.2104C35.1807 18.1986 35.1892 18.1883 35.1995 18.1799L35.7048 17.9029C35.7088 17.8998 35.7137 17.8981 35.7187 17.8981C35.7238 17.8981 35.7287 17.8998 35.7326 17.9029C35.7366 17.9136 35.7366 17.9255 35.7326 17.9362V18.083C35.7348 18.0977 35.7348 18.1126 35.7326 18.1273C35.7264 18.1398 35.7168 18.1504 35.7048 18.1578L35.3273 18.3766V18.6536C35.3477 18.6278 35.3721 18.6054 35.3994 18.5871L35.4577 18.5483C35.5005 18.5233 35.5476 18.5064 35.5966 18.4985C35.6366 18.4944 35.6768 18.5041 35.7104 18.5262C35.7451 18.5538 35.7703 18.5916 35.7826 18.6342C35.8036 18.6947 35.813 18.7586 35.8103 18.8225C35.8128 18.9755 35.7775 19.1268 35.7076 19.263C35.6774 19.3191 35.6391 19.3704 35.5938 19.4153C35.5538 19.4576 35.508 19.494 35.4577 19.5233C35.4102 19.5546 35.356 19.5745 35.2995 19.5815C35.2607 19.5858 35.2216 19.577 35.1884 19.5566C35.1566 19.5332 35.1333 19.5001 35.1218 19.4624C35.1069 19.4177 35.0985 19.371 35.0968 19.3239C35.0965 19.3091 35.0996 19.2944 35.1058 19.2809C35.1121 19.2675 35.1214 19.2557 35.1329 19.2463L35.244 19.1854C35.2473 19.1835 35.2512 19.1824 35.2551 19.1824C35.259 19.1824 35.2628 19.1835 35.2662 19.1854C35.2708 19.1886 35.2747 19.1927 35.2775 19.1974C35.2804 19.2022 35.2822 19.2076 35.2828 19.2131C35.2844 19.2364 35.2931 19.2586 35.3078 19.2768C35.3174 19.2895 35.3312 19.2983 35.3467 19.3017C35.3641 19.3057 35.3821 19.3057 35.3994 19.3017L35.4577 19.274C35.5106 19.2414 35.553 19.1943 35.5799 19.1383C35.6128 19.0761 35.629 19.0064 35.6271 18.9361C35.6306 18.9126 35.6281 18.8886 35.6199 18.8664C35.6116 18.8441 35.5979 18.8243 35.5799 18.8087C35.5621 18.7961 35.5407 18.7893 35.5188 18.7893C35.4969 18.7893 35.4756 18.7961 35.4577 18.8087C35.4346 18.8217 35.4131 18.8375 35.3939 18.8558C35.3794 18.8691 35.3664 18.884 35.355 18.9001C35.3464 18.9126 35.3372 18.9246 35.3273 18.9361C35.3199 18.948 35.3093 18.9576 35.2967 18.9638L35.1746 19.0331C35.1746 19.0331 35.1551 19.0331 35.1496 19.0331C35.1453 19.0224 35.1453 19.0105 35.1496 18.9998L35.1746 18.2575Z" fill="#FAFAFA"/>
<path d="M17.5201 29.9411V29.5117L17.8949 29.2957V29.725L17.5201 29.9411Z" fill="#FAFAFA"/>
<path d="M18.0809 29.6198V28.7583L18.4557 28.5423V29.4037L18.0809 29.6198Z" fill="#FAFAFA"/>
<path d="M18.6417 29.2957V28.0049L19.0165 27.7888V29.0796L18.6417 29.2957Z" fill="#FAFAFA"/>
<path d="M19.2025 28.9716V27.2515L19.5773 27.0354V28.7583L19.2025 28.9716Z" fill="#FAFAFA"/>
<path d="M50.3998 9.6125C50.3609 9.55433 50.311 9.53771 50.261 9.56818L48.8728 10.3687C48.8171 10.4231 48.7738 10.4889 48.746 10.5615C48.7182 10.6342 48.7065 10.7121 48.7118 10.7897V11.5736C48.7081 11.6608 48.7292 11.7473 48.7729 11.8229C48.787 11.8446 48.806 11.8626 48.8284 11.8755C48.8413 11.8823 48.8555 11.8859 48.8701 11.8859C48.8846 11.8859 48.8989 11.8823 48.9117 11.8755L50.2999 11.075C50.3551 11.0197 50.398 10.9533 50.4258 10.8803C50.4536 10.8073 50.4655 10.7292 50.4609 10.6512V9.86179C50.4647 9.77459 50.4435 9.68813 50.3998 9.6125ZM48.8034 11.7232C48.7863 11.6869 48.7787 11.6469 48.7812 11.6069V10.8257C48.7773 10.7666 48.7861 10.7072 48.8072 10.6518C48.8283 10.5963 48.8611 10.5461 48.9034 10.5044L50.2915 9.7039C50.2983 9.70001 50.3059 9.69797 50.3137 9.69797C50.3215 9.69797 50.3292 9.70001 50.336 9.7039C50.3422 9.70873 50.3478 9.71431 50.3526 9.72052C50.3695 9.75591 50.3771 9.79497 50.3748 9.83409V10.618C50.3788 10.6772 50.3699 10.7365 50.3489 10.7919C50.3278 10.8474 50.295 10.8976 50.2527 10.9393L48.8645 11.7398C48.8595 11.7432 48.8539 11.7454 48.848 11.7464C48.842 11.7474 48.8359 11.7471 48.8301 11.7455C48.8243 11.744 48.8189 11.7411 48.8143 11.7373C48.8097 11.7334 48.806 11.7286 48.8034 11.7232Z" fill="#FAFAFA"/>
<path d="M49.1699 10.4878V11.413L48.9506 11.5376C48.9461 11.5399 48.9411 11.5411 48.936 11.541C48.931 11.5409 48.926 11.5395 48.9216 11.5371C48.9172 11.5346 48.9135 11.5311 48.9108 11.5268C48.9081 11.5226 48.9065 11.5177 48.9061 11.5127V10.8257C48.9044 10.7815 48.9116 10.7373 48.9274 10.6959C48.9431 10.6545 48.967 10.6167 48.9978 10.5847L49.1699 10.4878Z" fill="#FAFAFA"/>
<path d="M49.2698 10.4296L49.5336 10.2773V11.2052L49.2698 11.3548V10.4296Z" fill="#FAFAFA"/>
<path d="M49.6335 10.2219L49.8973 10.0695V11.0002L49.6335 11.147V10.2219Z" fill="#FAFAFA"/>
<path d="M50.2637 9.92273V10.5903C50.2629 10.651 50.2464 10.7104 50.2158 10.7628C50.1851 10.8152 50.1414 10.8589 50.0888 10.8894L50 10.9393V10.0141L50.2082 9.89503C50.2135 9.89165 50.2195 9.88969 50.2258 9.88936C50.2321 9.88902 50.2383 9.89031 50.2439 9.89311C50.2495 9.8959 50.2543 9.9001 50.2577 9.9053C50.2612 9.91049 50.2633 9.9165 50.2637 9.92273Z" fill="#FAFAFA"/>
<path d="M50.5136 9.83686C50.5525 9.8147 50.5831 9.9255 50.5831 10.0862V10.233C50.594 10.3503 50.5689 10.4682 50.5109 10.5709L50.4415 10.618V9.87841L50.5136 9.83686Z" fill="#FAFAFA"/>
<path d="M46.5851 12.2024L47.9428 11.0002L47.5235 12.7619L47.3264 12.0307L46.5851 12.2024Z" fill="#FAFAFA"/>
<path d="M35.2717 14.1109L30.4493 16.8808C30.3 16.9734 30.1748 17.1 30.084 17.2502C29.9933 17.4005 29.9396 17.5701 29.9274 17.745C29.9274 18.0553 30.1606 18.1744 30.4493 18.022L35.2717 15.241C35.4211 15.1485 35.5463 15.0219 35.637 14.8716C35.7278 14.7214 35.7815 14.5518 35.7937 14.3768C35.7798 14.0638 35.5494 13.9447 35.2717 14.1109ZM37.7454 12.4489C37.5754 12.5607 37.4339 12.7106 37.3322 12.8866C37.2305 13.0626 37.1714 13.2599 37.1596 13.4627C37.1596 13.8367 37.4234 13.989 37.7454 13.8006C37.9141 13.6899 38.0544 13.5412 38.1552 13.3666C38.2559 13.192 38.3143 12.9963 38.3257 12.7952C38.3257 12.4212 38.048 12.2716 37.7315 12.4711L37.7454 12.4489Z" fill="#CCCBCD"/>
<path opacity="0.6" d="M35.2717 14.1109L30.4493 16.8808C30.3 16.9734 30.1748 17.1 30.084 17.2502C29.9933 17.4005 29.9396 17.5701 29.9274 17.745C29.9274 18.0553 30.1606 18.1744 30.4493 18.022L35.2717 15.241C35.4211 15.1485 35.5463 15.0219 35.637 14.8716C35.7278 14.7214 35.7815 14.5518 35.7937 14.3768C35.7798 14.0638 35.5494 13.9447 35.2717 14.1109ZM37.7454 12.4489C37.5754 12.5607 37.4339 12.7106 37.3322 12.8866C37.2305 13.0626 37.1714 13.2599 37.1596 13.4627C37.1596 13.8367 37.4234 13.989 37.7454 13.8006C37.9141 13.6899 38.0544 13.5412 38.1552 13.3666C38.2559 13.192 38.3143 12.9963 38.3257 12.7952C38.3257 12.4212 38.048 12.2716 37.7315 12.4711L37.7454 12.4489Z" fill="#333333"/>
<path d="M19.8105 34.24L48.2037 17.8974C48.8506 17.5234 49.3726 17.8254 49.3726 18.5705V42.392C49.3508 42.7966 49.2337 43.1904 49.0306 43.5413C48.8275 43.8922 48.5442 44.1902 48.2037 44.4112L19.8105 60.7677C19.1637 61.1389 18.6417 60.837 18.6417 60.0946V36.2732C18.6617 35.8662 18.7781 35.4698 18.9812 35.1165C19.1844 34.7631 19.4686 34.4627 19.8105 34.24Z" fill="#CCCBCD"/>
<path opacity="0.4" d="M19.8105 34.24L48.2037 17.8974C48.8506 17.5234 49.3726 17.8254 49.3726 18.5705V42.392C49.3508 42.7966 49.2337 43.1904 49.0306 43.5413C48.8275 43.8922 48.5442 44.1902 48.2037 44.4112L19.8105 60.7677C19.1637 61.1389 18.6417 60.837 18.6417 60.0946V36.2732C18.6617 35.8662 18.7781 35.4698 18.9812 35.1165C19.1844 34.7631 19.4686 34.4627 19.8105 34.24Z" fill="white"/>
<path d="M48.2037 72.4126L19.8105 88.7691C19.47 88.9899 19.1866 89.2879 18.9834 89.6389C18.7803 89.9898 18.6632 90.3837 18.6417 90.7883V101.868L27.4176 96.8157L28.3504 96.2784L31.5404 94.4419L36.9986 91.3008L39.6527 89.7662L40.5134 89.2704L49.3698 84.171V73.0912C49.3726 72.3433 48.8506 72.0414 48.2037 72.4126Z" fill="#CCCBCD"/>
<path opacity="0.4" d="M48.2037 72.4126L19.8105 88.7691C19.47 88.9899 19.1866 89.2879 18.9834 89.6389C18.7803 89.9898 18.6632 90.3837 18.6417 90.7883V101.868L27.4176 96.8157L28.3504 96.2784L31.5404 94.4419L36.9986 91.3008L39.6527 89.7662L40.5134 89.2704L49.3698 84.171V73.0912C49.3726 72.3433 48.8506 72.0414 48.2037 72.4126Z" fill="white"/>
<path d="M19.258 62.9698L42.2125 49.7489C42.5345 49.5633 42.7955 49.6963 42.7955 50.0425C42.7815 50.2388 42.7211 50.4289 42.6192 50.5974C42.5174 50.7659 42.3771 50.908 42.2097 51.012L19.2247 64.2523C18.9027 64.4379 18.65 64.3022 18.6694 63.9476C18.6865 63.7507 18.7484 63.5603 18.8504 63.3908C18.9524 63.2214 19.0918 63.0774 19.258 62.9698Z" fill="#CCCBCD"/>
<path d="M19.258 65.496L30.4632 59.0365C30.788 58.8509 31.049 58.9839 31.049 59.3329C31.0343 59.5286 30.9736 59.7181 30.8718 59.8861C30.7701 60.0541 30.6301 60.1957 30.4632 60.2996L19.2247 66.7785C18.9027 66.9641 18.65 66.8284 18.6694 66.4738C18.6865 66.2769 18.7484 66.0865 18.8504 65.917C18.9524 65.7476 19.0918 65.6036 19.258 65.496Z" fill="#CCCBCD"/>
<path d="M48.0816 48.5052C48.0064 48.506 47.9331 48.4817 47.8734 48.436L46.9322 47.7213C46.8958 47.694 46.865 47.6599 46.8418 47.6207C46.8186 47.5816 46.8033 47.5383 46.7969 47.4933C46.7904 47.4483 46.7929 47.4024 46.8043 47.3584C46.8156 47.3143 46.8355 47.273 46.8628 47.2366C46.8901 47.2002 46.9244 47.1696 46.9636 47.1464C47.0028 47.1232 47.0462 47.108 47.0914 47.1016C47.1365 47.0951 47.1824 47.0976 47.2266 47.1089C47.2707 47.1202 47.3122 47.14 47.3487 47.1673L47.9705 47.6354L48.7285 46.1895C48.7712 46.1087 48.8443 46.0482 48.9318 46.0211C49.0193 45.9941 49.1139 46.0029 49.1949 46.0455C49.2759 46.0881 49.3366 46.1611 49.3637 46.2483C49.3907 46.3356 49.382 46.43 49.3393 46.5109L48.3925 48.3141C48.3696 48.3587 48.337 48.3978 48.2972 48.4284C48.2574 48.4591 48.2112 48.4806 48.1621 48.4914C48.1359 48.4991 48.1089 48.5038 48.0816 48.5052Z" fill="#CCCBCD"/>
<path d="M21.0821 74.1438L18.7278 75.501C18.5778 75.5869 18.4501 75.501 18.4501 75.2961V75.2407C18.4523 75.1386 18.4785 75.0385 18.5268 74.9485C18.575 74.8585 18.6439 74.7811 18.7278 74.7227L21.0821 73.3654C21.2348 73.2768 21.3597 73.3654 21.3597 73.5704V73.6258C21.3578 73.7279 21.3316 73.8281 21.2834 73.9181C21.2351 74.0082 21.1661 74.0855 21.0821 74.1438Z" fill="#CCCBCD"/>
<path d="M28.2588 70.011L25.9045 71.3683C25.7518 71.4542 25.6269 71.3683 25.6269 71.1633V71.1079C25.629 71.0055 25.6553 70.905 25.7035 70.8145C25.7517 70.7241 25.8206 70.6462 25.9045 70.5872L28.2588 69.2327C28.4087 69.144 28.5365 69.2327 28.5365 69.4376V69.4903C28.5345 69.5928 28.5084 69.6933 28.4601 69.7838C28.4119 69.8743 28.3429 69.9522 28.2588 70.011Z" fill="#CCCBCD"/>
<path d="M34.9025 66.183L32.5482 67.5402C32.3983 67.6261 32.2706 67.5402 32.2706 67.3353V67.2799C32.2727 67.1778 32.299 67.0777 32.3472 66.9877C32.3954 66.8977 32.4643 66.8203 32.5482 66.7619L34.9025 65.4046C35.0552 65.316 35.1801 65.4046 35.1801 65.6096V65.6539C35.18 65.7579 35.1547 65.8603 35.1063 65.9524C35.058 66.0445 34.9881 66.1236 34.9025 66.183Z" fill="#CCCBCD"/>
<path d="M41.9126 62.1472L39.5583 63.5017C39.4056 63.5903 39.2807 63.5017 39.2807 63.2967V63.2441C39.2822 63.1415 39.3081 63.0407 39.3564 62.9502C39.4047 62.8596 39.4739 62.7819 39.5583 62.7233L41.9126 61.366C42.0626 61.2802 42.1903 61.366 42.1903 61.571V61.6264C42.1877 61.7288 42.1613 61.8291 42.1131 61.9195C42.0649 62.0099 41.9963 62.0878 41.9126 62.1472Z" fill="#CCCBCD"/>
<path d="M49.1005 58.0061L46.7462 59.3634C46.5963 59.4492 46.4686 59.3634 46.4686 59.1556V59.103C46.4705 59.0005 46.4966 58.8999 46.5449 58.8095C46.5931 58.719 46.6621 58.6411 46.7462 58.5823L49.1005 57.225C49.2532 57.1391 49.3781 57.225 49.3781 57.43V57.4854C49.376 57.5878 49.3498 57.6883 49.3015 57.7787C49.2533 57.8692 49.1844 57.9471 49.1005 58.0061Z" fill="#CCCBCD"/>
<path d="M20.2797 79.3319C20.1034 79.2473 19.9079 79.2108 19.7129 79.2258C19.5179 79.2409 19.3303 79.3071 19.1692 79.4177C18.2586 79.944 17.5034 81.3567 17.5034 82.5699C17.5034 83.1655 17.6867 83.628 18.0059 83.8663L18.0476 83.894L18.0837 83.9189H18.1087L18.1503 83.9383L18.2253 83.9715L18.2752 83.9881L18.3419 84.0048H18.4029H18.4612H18.5279C18.7664 83.9963 18.9988 83.9267 19.2025 83.8025L19.3691 83.6945L19.3969 83.6724L19.5329 83.5671C19.5329 83.5671 19.5329 83.5671 19.5468 83.5533C19.8807 83.2714 20.161 82.9317 20.3741 82.5505C20.6833 81.9825 20.8527 81.3492 20.8683 80.703C20.8683 80.0576 20.6545 79.5479 20.2797 79.3319ZM19.4468 79.98C19.4991 79.9788 19.5508 79.9912 19.5967 80.016C19.6707 80.0748 19.7284 80.1515 19.7644 80.2387C19.8003 80.326 19.8133 80.4209 19.8022 80.5146C19.8005 80.7555 19.7423 80.9927 19.6324 81.2072C19.5225 81.4217 19.3639 81.6076 19.1692 81.75C19.1135 81.79 19.0481 81.8143 18.9798 81.8207C18.9114 81.827 18.8427 81.815 18.7805 81.786C18.7066 81.7273 18.6489 81.6506 18.6129 81.5633C18.577 81.4761 18.5639 81.3811 18.5751 81.2874C18.5783 81.047 18.6377 80.8107 18.7485 80.5972C18.8594 80.3837 19.0186 80.1989 19.2136 80.0576C19.2835 80.0124 19.3638 79.9858 19.4468 79.98ZM20.2436 82.5672L20.1631 82.7029L20.1159 82.7804L20.041 82.894L19.9799 82.9826L19.9105 83.0741L19.8355 83.1655L19.7717 83.243C19.7439 83.2735 19.7161 83.304 19.6856 83.3317C19.6667 83.3542 19.6463 83.3755 19.6245 83.3954C19.5967 83.4258 19.5634 83.4535 19.5329 83.4812L19.4746 83.5339L19.3719 83.6142L19.3163 83.6557C19.265 83.6934 19.2112 83.7277 19.1553 83.7582L19.0137 83.833C18.986 83.8469 18.9554 83.8552 18.9277 83.8663L18.8749 83.8856L18.7777 83.9161C18.7648 83.9145 18.7518 83.9145 18.7389 83.9161L18.6445 83.93L18.6139 83.9355H18.4835H18.414H18.3557L18.2974 83.9189L18.2336 83.8967L18.1892 83.8746C18.167 83.8642 18.1456 83.8522 18.1253 83.8386L18.1031 83.8219V83.7859C18.1241 83.4875 18.2106 83.1974 18.3565 82.9361C18.5023 82.6747 18.7039 82.4485 18.9471 82.2735L19.4774 81.9688C19.5509 81.9171 19.6364 81.8851 19.7259 81.8759C19.8153 81.8667 19.9057 81.8806 19.9882 81.9162C20.0768 81.9785 20.1485 82.0616 20.197 82.1583C20.2454 82.255 20.2691 82.3622 20.2658 82.4702V82.5173C20.2591 82.5335 20.2535 82.5501 20.2492 82.5672H20.2436ZM19.6439 79.9329C19.5672 79.8936 19.4811 79.876 19.395 79.8818C19.3089 79.8877 19.226 79.9169 19.1553 79.9662C18.9449 80.1175 18.7729 80.3158 18.6529 80.5452C18.5329 80.7745 18.4682 81.0287 18.464 81.2874C18.4516 81.3982 18.4687 81.5104 18.5135 81.6125C18.5584 81.7146 18.6294 81.8031 18.7194 81.8691C18.778 81.9044 18.8453 81.9227 18.9138 81.9218C19.0175 81.9177 19.1185 81.8883 19.2081 81.8359C19.4184 81.6846 19.5905 81.4863 19.7105 81.2569C19.8305 81.0275 19.8952 80.7734 19.8994 80.5146C19.9124 80.4043 19.8962 80.2926 19.8523 80.1905C19.8085 80.0884 19.7385 79.9996 19.6495 79.9329H19.6439ZM19.1692 81.75C19.1135 81.79 19.0481 81.8143 18.9798 81.8207C18.9114 81.827 18.8427 81.815 18.7805 81.786C18.7066 81.7273 18.6489 81.6506 18.6129 81.5633C18.577 81.4761 18.5639 81.3811 18.5751 81.2874C18.5783 81.047 18.6377 80.8107 18.7485 80.5972C18.8594 80.3837 19.0186 80.1989 19.2136 80.0576C19.2857 80.0135 19.3679 79.9887 19.4524 79.9856C19.5046 79.9843 19.5563 79.9967 19.6023 80.0216C19.6763 80.0804 19.734 80.157 19.7699 80.2443C19.8059 80.3315 19.8189 80.4265 19.8077 80.5202C19.8045 80.7606 19.7451 80.997 19.6343 81.2105C19.5234 81.424 19.3642 81.6087 19.1692 81.75Z" fill="#CCCBCD"/>
<path d="M22.5646 78.4953L33.7697 72.0248C34.0918 71.8392 34.3555 71.9721 34.3555 72.3184C34.3402 72.5143 34.2793 72.704 34.1776 72.8723C34.0759 73.0406 33.9362 73.1829 33.7697 73.2879L22.5313 79.7806C22.2092 79.9662 21.9538 79.8305 21.976 79.4759C21.9927 79.2785 22.0544 79.0875 22.1564 78.9176C22.2584 78.7476 22.398 78.6032 22.5646 78.4953Z" fill="#CCCBCD"/>
<path d="M22.2398 81.3401C22.2162 81.34 22.1931 81.3339 22.1727 81.3222C22.1522 81.3105 22.1352 81.2938 22.1232 81.2736C22.1139 81.2585 22.1078 81.2416 22.1053 81.224C22.1028 81.2065 22.1039 81.1886 22.1086 81.1714C22.1133 81.1543 22.1214 81.1383 22.1325 81.1245C22.1436 81.1106 22.1574 81.0991 22.1731 81.0908L31.7653 75.5509C31.7804 75.5417 31.7973 75.5356 31.8149 75.5331C31.8326 75.5306 31.8505 75.5317 31.8677 75.5364C31.8848 75.5411 31.9008 75.5492 31.9147 75.5602C31.9286 75.5713 31.9401 75.5851 31.9485 75.6008C31.9657 75.6317 31.9701 75.6682 31.9608 75.7023C31.9514 75.7365 31.9291 75.7656 31.8985 75.7836L22.3064 81.3235C22.2859 81.3345 22.263 81.3402 22.2398 81.3401Z" fill="#CCCBCD"/>
<path d="M47.2431 66.4461C47.1425 66.3892 47.0609 66.3039 47.0085 66.2009C46.9562 66.0979 46.9354 65.9819 46.9489 65.8672V65.3132C46.9489 64.6817 46.563 64.3908 46.0882 64.665C45.8259 64.8519 45.6113 65.0976 45.4618 65.3825C45.3123 65.6674 45.232 65.9833 45.2276 66.3048V66.8007C45.2206 67.1424 45.125 67.4764 44.9499 67.7701C44.9049 67.8467 44.8801 67.9335 44.8777 68.0222C44.8777 68.1829 44.9749 68.2549 45.0943 68.1856L47.1071 67.0278C47.1732 66.9802 47.2272 66.9179 47.2648 66.8457C47.3024 66.7736 47.3226 66.6936 47.3237 66.6123C47.3242 66.5803 47.3172 66.5485 47.3032 66.5197C47.2892 66.4908 47.2687 66.4656 47.2431 66.4461ZM46.0993 68.3269C46.225 68.2371 46.3278 68.1191 46.3997 67.9825C46.4715 67.8459 46.5103 67.6945 46.513 67.5402L45.6801 68.0167C45.6718 68.3186 45.855 68.4599 46.0993 68.3269Z" fill="#CCCBCD"/>
<path opacity="0.6" d="M47.2431 66.4461C47.1425 66.3892 47.0609 66.3039 47.0085 66.2009C46.9562 66.0979 46.9354 65.9819 46.9489 65.8672V65.3132C46.9489 64.6817 46.563 64.3908 46.0882 64.665C45.8259 64.8519 45.6113 65.0976 45.4618 65.3825C45.3123 65.6674 45.232 65.9833 45.2276 66.3048V66.8007C45.2206 67.1424 45.125 67.4764 44.9499 67.7701C44.9049 67.8467 44.8801 67.9335 44.8777 68.0222C44.8777 68.1829 44.9749 68.2549 45.0943 68.1856L47.1071 67.0278C47.1732 66.9802 47.2272 66.9179 47.2648 66.8457C47.3024 66.7736 47.3226 66.6936 47.3237 66.6123C47.3242 66.5803 47.3172 66.5485 47.3032 66.5197C47.2892 66.4908 47.2687 66.4656 47.2431 66.4461ZM46.0993 68.3269C46.225 68.2371 46.3278 68.1191 46.3997 67.9825C46.4715 67.8459 46.5103 67.6945 46.513 67.5402L45.6801 68.0167C45.6718 68.3186 45.855 68.4599 46.0993 68.3269Z" fill="white"/>
<path d="M17.5784 78.6089C17.5545 78.6088 17.5311 78.6024 17.5106 78.5902C17.4901 78.578 17.4732 78.5606 17.4618 78.5397C17.4525 78.5245 17.4464 78.5077 17.4439 78.4901C17.4414 78.4725 17.4425 78.4546 17.4472 78.4375C17.4519 78.4204 17.46 78.4044 17.4711 78.3905C17.4822 78.3767 17.4961 78.3652 17.5118 78.3568L50.4026 59.4105C50.4177 59.4012 50.4347 59.3951 50.4523 59.3926C50.4699 59.3901 50.4878 59.3913 50.505 59.3959C50.5221 59.4006 50.5382 59.4087 50.5521 59.4198C50.566 59.4309 50.5774 59.4447 50.5858 59.4603C50.5948 59.4754 50.6007 59.4921 50.6032 59.5095C50.6057 59.5268 50.6048 59.5445 50.6004 59.5615C50.596 59.5785 50.5883 59.5945 50.5777 59.6085C50.5671 59.6225 50.5538 59.6343 50.5386 59.6431L17.645 78.5895C17.6253 78.6026 17.6021 78.6093 17.5784 78.6089Z" fill="#CCCBCD"/>
<path d="M17.5784 86.7276C17.5487 86.7281 17.5196 86.7186 17.4959 86.7008C17.4722 86.6829 17.4552 86.6576 17.4475 86.6289C17.4398 86.6003 17.442 86.5699 17.4536 86.5426C17.4653 86.5153 17.4858 86.4927 17.5118 86.4783L50.4026 67.5292C50.4336 67.512 50.4701 67.5076 50.5044 67.5169C50.5386 67.5262 50.5678 67.5485 50.5858 67.579C50.5948 67.5941 50.6007 67.6108 50.6032 67.6282C50.6057 67.6455 50.6048 67.6632 50.6004 67.6802C50.596 67.6972 50.5883 67.7132 50.5777 67.7272C50.5671 67.7412 50.5538 67.753 50.5386 67.7618L17.645 86.7055C17.6251 86.7184 17.6021 86.726 17.5784 86.7276Z" fill="#CCCBCD"/>
<path d="M45.1485 77.6061L41.9691 75.7747L34.1828 89.2302L37.3621 91.0616L45.1485 77.6061Z" fill="#747379"/>
<path d="M45.1547 77.602L43.5673 76.6876L35.7809 90.1431L37.3683 91.0575L45.1547 77.602Z" fill="#8A898E"/>
<path d="M25.6463 115.505C24.1975 118.017 17.3381 114.028 18.7816 111.552L36.6703 83.7157C36.7184 83.6403 36.7939 83.5864 36.881 83.5651C36.9681 83.5439 37.06 83.557 37.1376 83.6017L40.7309 85.674C40.8083 85.7177 40.8656 85.7896 40.8908 85.8747C40.916 85.9598 40.9071 86.0513 40.8659 86.1299L25.6463 115.505Z" fill="#CCCBCD"/>
<path opacity="0.1" d="M25.6462 115.505L40.8606 86.13C40.9018 86.0513 40.9107 85.9598 40.8855 85.8748C40.8603 85.7897 40.803 85.7177 40.7256 85.674L39.0899 84.7312L21.6479 115.665C23.2368 116.448 24.9919 116.639 25.6462 115.505Z" fill="#333333"/>
<path d="M78.2478 49.9735C78.2478 49.7611 78.2478 49.5539 78.2167 49.3467C78.1855 49.1394 78.2167 48.9374 78.1699 48.7353C78.1232 48.5333 78.1699 48.4659 78.1284 48.3312C78.092 47.979 78.0401 47.6318 77.983 47.2951C77.957 47.1449 77.9311 46.9894 77.8999 46.8392C77.8687 46.6889 77.8428 46.5542 77.8116 46.4144C77.7234 46.031 77.6299 45.658 77.5208 45.3005C77.4637 45.1295 77.4118 44.9586 77.3547 44.7824C77.3437 44.7574 77.335 44.7314 77.3287 44.7047C77.2664 44.5389 77.2093 44.3783 77.147 44.2229C77.0847 44.0675 77.0016 43.8603 76.9185 43.7048C76.8354 43.5494 76.8043 43.451 76.7367 43.3266C76.6991 43.2334 76.6539 43.1433 76.6017 43.0572C76.5498 42.9484 76.4927 42.8397 76.4304 42.736C76.3681 42.6324 76.4044 42.6842 76.3888 42.6635C76.3733 42.6428 76.2798 42.477 76.2227 42.3837C76.1656 42.2905 76.1448 42.2646 76.1084 42.2076C75.8423 41.7894 75.5437 41.3927 75.2153 41.0212L75.0491 40.8347L74.9089 40.6896C74.8518 40.6275 74.7895 40.5705 74.7272 40.5083C74.5641 40.3373 74.3907 40.1764 74.2079 40.0265C74.1197 39.9488 74.0262 39.8763 73.9327 39.8089L73.6471 39.6017C73.4987 39.4931 73.3444 39.3928 73.185 39.3012L73.0604 39.2235H73.0344L65.6764 34.9856L65.6349 34.9597C64.2232 34.1743 62.6296 33.7723 61.0134 33.7941C58.6041 33.7941 55.8831 34.5815 53.0012 36.2394C43.104 41.9382 35.0762 55.8122 35.0762 67.2202C35.0762 72.919 37.0702 76.9082 40.2948 78.7836H40.326L47.6891 83.0163H47.7203L47.8086 83.0629C47.9467 83.1443 48.0888 83.2187 48.2344 83.2857C48.4109 83.3738 48.5927 83.4515 48.7536 83.524C48.9146 83.5966 49.0808 83.6535 49.2469 83.7054L49.5118 83.7831C49.6045 83.8185 49.7 83.8462 49.7974 83.866C49.893 83.895 49.9901 83.9192 50.0881 83.9385C50.1579 83.959 50.2291 83.9746 50.301 83.9851C50.4257 84.011 50.5607 84.0369 50.6905 84.0525C50.7197 84.0574 50.7495 84.0574 50.7788 84.0525C50.9345 84.0801 51.0903 84.1008 51.2461 84.1146C53.9151 84.3944 57.0203 83.6432 60.3436 81.7315C70.246 76.0327 78.2738 62.1535 78.2738 50.7506C78.2478 50.5123 78.2478 50.2429 78.2478 49.9735ZM66.2372 41.9071C66.6261 43.3247 66.8166 44.7892 66.8032 46.2589C66.8032 56.3199 59.4245 69.0542 50.7061 74.1003C49.4316 74.8561 48.0555 75.4266 46.6195 75.7944C46.2328 74.3745 46.0424 72.9086 46.0535 71.4374C46.0535 61.3764 53.4322 48.6421 62.1506 43.596C63.4203 42.843 64.7911 42.2743 66.2217 41.9071H66.2372Z" fill="#CCCBCD"/>
<path opacity="0.1" d="M47.3878 82.8712L40.2375 78.7577C37.0129 76.8771 35.0189 72.8776 35.0189 67.1995C35.0189 62.112 36.6183 56.5375 39.2613 51.419L46.6245 55.6464C43.9762 60.765 42.3821 66.3395 42.3821 71.427C42.3821 77.0015 44.2826 80.944 47.3878 82.8712Z" fill="#333333"/>
<path opacity="0.4" d="M78.2477 49.9735C78.2477 49.7611 78.2477 49.5539 78.2165 49.3467C78.1854 49.1394 78.2165 48.9374 78.1698 48.7353C78.1231 48.5333 78.1698 48.4659 78.1283 48.3312C78.0919 47.979 78.04 47.6318 77.9829 47.2951C77.9569 47.1449 77.931 46.9894 77.8998 46.8392C77.8686 46.6889 77.8427 46.5542 77.8115 46.4144C77.7232 46.031 77.6298 45.658 77.5207 45.3005C77.4636 45.1295 77.4117 44.9586 77.3546 44.7824C77.3436 44.7574 77.3349 44.7314 77.3286 44.7047C77.2663 44.5389 77.2092 44.3783 77.1469 44.2229C77.0846 44.0675 77.0015 43.8603 76.9184 43.7048C76.8353 43.5494 76.8041 43.451 76.7366 43.3266C76.699 43.2334 76.6538 43.1433 76.6016 43.0572C76.5497 42.9485 76.4926 42.8397 76.4303 42.736C76.368 42.6324 76.4043 42.6842 76.3887 42.6635C76.3732 42.6428 76.2797 42.477 76.2226 42.3837C76.1655 42.2905 76.1447 42.2646 76.1083 42.2076C75.8422 41.7894 75.5436 41.3927 75.2152 41.0212L75.049 40.8347L74.9088 40.6897C74.8517 40.6275 74.7894 40.5705 74.7271 40.5083C74.564 40.3373 74.3906 40.1764 74.2078 40.0265C74.1196 39.9488 74.0261 39.8763 73.9326 39.8089L73.647 39.6017C73.4986 39.4931 73.3443 39.3928 73.1849 39.3012C69.9291 37.3273 65.3959 37.5605 60.3539 40.4565C50.4515 46.1553 42.4237 60.0294 42.4237 71.4374C42.4237 77.2139 44.5008 81.2497 47.7981 83.0837C47.9362 83.165 48.0783 83.2394 48.2239 83.3064C48.4004 83.3945 48.5822 83.4722 48.7431 83.5448C48.9041 83.6173 49.0703 83.6743 49.2364 83.7261L49.5013 83.8038C49.594 83.8392 49.6895 83.867 49.7869 83.8867C49.8825 83.9157 49.9796 83.9399 50.0777 83.9592C50.1474 83.9797 50.2186 83.9953 50.2906 84.0058C50.4152 84.0317 50.5502 84.0576 50.68 84.0732C50.7092 84.0781 50.7391 84.0781 50.7683 84.0732C50.9241 84.1008 51.0798 84.1215 51.2356 84.1354C53.9046 84.4151 57.0098 83.6639 60.3331 81.7522C70.2355 76.0534 78.2633 62.1742 78.2633 50.7714C78.2477 50.5123 78.2477 50.2429 78.2477 49.9735ZM58.5157 78.6282C56.2932 79.9079 54.1539 80.5814 52.3261 80.5814C48.8937 80.5814 47.3152 78.2449 46.6142 75.7944C46.2275 74.3745 46.0371 72.9086 46.0482 71.4374C46.0482 61.3764 53.4269 48.6421 62.1453 43.596C63.4199 42.8416 64.796 42.2729 66.2319 41.9071C66.9117 41.7391 67.6087 41.6504 68.309 41.6429C73.9845 41.6429 74.5921 48.0359 74.5921 50.7869C74.6129 60.8272 67.2341 73.5977 58.5157 78.6282Z" fill="white"/>
<path opacity="0.1" d="M74.6128 50.7869C74.6128 60.8479 67.2393 73.5822 58.5157 78.6282C56.2932 79.9079 54.1538 80.5814 52.326 80.5814C48.8937 80.5814 47.3151 78.2449 46.6141 75.7944C48.0502 75.4266 49.4263 74.8561 50.7007 74.1003C59.4348 69.0698 66.7979 56.3199 66.7979 46.2589C66.8113 44.7892 66.6208 43.3247 66.2319 41.9071C66.9117 41.7391 67.6087 41.6504 68.309 41.6429C74.0001 41.6584 74.6128 48.0359 74.6128 50.7869Z" fill="#333333"/>
<path opacity="0.7" d="M71.4973 49.0307C71.4973 59.0917 64.1237 71.8259 55.4001 76.872C53.1777 78.1516 51.0383 78.8251 49.2105 78.8251C48.8469 78.826 48.4839 78.7966 48.1252 78.737C47.4235 77.8721 46.9122 76.8695 46.6246 75.7944C46.2379 74.3745 46.0475 72.9087 46.0586 71.4374C46.0586 61.3764 53.4373 48.6421 62.1557 43.5961C63.4303 42.8416 64.8064 42.2729 66.2423 41.9071C66.9221 41.7391 67.6191 41.6504 68.3194 41.6429C68.6847 41.642 69.0494 41.6715 69.4098 41.731C71.2065 43.8396 71.4973 47.2226 71.4973 49.0307Z" fill="white"/>
</g>
<defs>
<clipPath id="clip0_9323_4570">
<rect width="87.1758" height="116" fill="white" transform="translate(0.412109)"/>
</clipPath>
</defs>
</svg>
