<svg width="73" height="72" viewBox="0 0 73 72" fill="none" xmlns="http://www.w3.org/2000/svg">
<path d="M56.9961 55.8832C56.9547 55.0082 56.7072 54.1554 56.2739 53.3942C55.8405 52.6329 55.2336 51.9848 54.5025 51.5024C53.7761 51.0756 53.1209 51.0568 52.6566 51.3601L50.9529 52.3186L54.5287 58.4854L56.2173 57.5269C56.6891 57.2685 56.9887 56.7031 56.9961 55.8832Z" fill="#37474F"/>
<path d="M52.7315 52.5059C53.4616 52.9893 54.0677 53.6378 54.5009 54.3988C54.9341 55.1598 55.1822 56.012 55.2251 56.8866C55.2251 58.4966 54.0794 59.1332 52.694 58.3281C51.9639 57.8447 51.3578 57.1962 50.9246 56.4352C50.4914 55.6742 50.2433 54.822 50.2004 53.9474C50.2116 52.3374 51.3461 51.6934 52.7315 52.5059Z" fill="#455A64"/>
<path d="M51.8628 54.9209C51.8628 54.2919 52.2372 54.0036 52.7202 54.2806C52.9794 54.4679 53.1908 54.7137 53.3372 54.998C53.4836 55.2823 53.5608 55.5971 53.5627 55.9169C53.5627 56.5459 53.1883 56.8305 52.7053 56.5571C52.4471 56.3688 52.2366 56.1228 52.0903 55.8388C51.944 55.5547 51.8661 55.2404 51.8628 54.9209Z" fill="#CCCBCD"/>
<path opacity="0.15" d="M55.2251 56.8866C55.2167 56.3084 55.0998 55.7369 54.8806 55.2017L50.5561 52.6893C50.312 53.0624 50.189 53.5018 50.2041 53.9474C50.2041 53.9661 50.2041 53.9848 50.2041 54.0073L55.2214 56.9203C55.2214 56.9203 55.2251 56.8978 55.2251 56.8866Z" fill="black"/>
<path d="M39.0688 69.5833C38.1539 69.6528 37.2363 69.4879 36.4029 69.1041L12.8142 55.5087C11.3877 54.7899 9.78514 52.9252 9.68405 51.1579L8.96141 34.3426L10.2756 34.2677L11.002 51.0868C11.0694 52.285 12.3237 53.7901 13.4021 54.3293L37.0095 67.9284C37.6439 68.1931 38.3302 68.3101 39.0165 68.2705C39.7028 68.2309 40.3711 68.0358 40.9709 67.7L56.6966 58.6314C57.0711 58.3843 57.292 58.0885 57.277 57.8377C57.262 57.5868 57.0261 57.3397 56.6255 57.1375L31.3557 42.4676C29.9329 41.7524 28.3378 39.8841 28.2367 38.1168L27.8848 28.7899L29.199 28.7188L29.551 38.0419C29.6183 39.2475 30.8727 40.749 31.9473 41.2881L57.2171 55.9618C58.0596 56.3849 58.5463 57.0252 58.5912 57.7628C58.6362 58.5004 58.2168 59.2155 57.4193 59.7322L41.6935 68.8008C40.8994 69.2806 39.996 69.5499 39.0688 69.5833Z" fill="#455A64"/>
<path d="M34.8303 69.2051C34.7888 68.3302 34.5414 67.4774 34.108 66.7162C33.6747 65.9549 33.0678 65.3067 32.3367 64.8244C31.6103 64.3975 30.955 64.3751 30.4945 64.6821L28.7871 65.6406L32.3629 71.8074L34.0515 70.8488C34.5158 70.5905 34.8303 70.0251 34.8303 69.2051Z" fill="#37474F"/>
<path d="M30.5582 65.8279C31.2898 66.3106 31.897 66.9594 32.3304 67.7213C32.7637 68.4832 33.0109 69.3368 33.0518 70.2124C33.0518 71.8186 31.9098 72.4589 30.5207 71.6501C29.7907 71.1669 29.1848 70.5185 28.7522 69.7573C28.3196 68.9962 28.0725 68.1439 28.0308 67.2694C28.042 65.6631 29.1728 65.0079 30.5582 65.8279Z" fill="#455A64"/>
<path d="M29.6895 68.2429C29.6895 67.6138 30.0639 67.3255 30.5469 67.6026C30.8066 67.7894 31.0183 68.0351 31.1647 68.3195C31.3111 68.6039 31.3881 68.919 31.3894 69.2388C31.3894 69.8641 31.0149 70.1524 30.5357 69.8754C30.2765 69.6887 30.0649 69.4436 29.9179 69.16C29.7709 68.8765 29.6927 68.5623 29.6895 68.2429Z" fill="#CCCBCD"/>
<path d="M17.3897 59.1519C17.35 58.2773 17.1045 57.4244 16.6732 56.6626C16.2418 55.9007 15.6368 55.2514 14.9072 54.7674C14.1771 54.3406 13.5256 54.3181 13.0613 54.6214L11.354 55.5762L14.9185 61.7504L16.6109 60.7919C17.0826 60.5373 17.3822 59.9719 17.3897 59.1519Z" fill="#37474F"/>
<path d="M13.1325 55.7709C13.8603 56.2534 14.4646 56.9003 14.8964 57.6593C15.3283 58.4183 15.5757 59.2682 15.6186 60.1404C15.6186 61.7467 14.4692 62.3869 13.0838 61.5744C12.3542 61.0904 11.7492 60.4411 11.3178 59.6793C10.8865 58.9174 10.641 58.0645 10.6014 57.1899C10.6126 55.5949 11.7471 54.9546 13.1325 55.7709Z" fill="#455A64"/>
<path d="M12.2601 58.1784C12.2601 57.5531 12.6345 57.2648 13.1175 57.5419C13.3763 57.7296 13.5873 57.9754 13.7337 58.2596C13.88 58.5438 13.9575 58.8584 13.96 59.1781C13.96 59.8071 13.5855 60.0917 13.0988 59.8184C12.8411 59.6291 12.6311 59.3823 12.4855 59.0976C12.3399 58.8129 12.2627 58.4982 12.2601 58.1784Z" fill="#CCCBCD"/>
<path d="M6.14199 13.9665C5.91856 13.11 5.95958 12.206 6.25964 11.3733C6.55971 10.5406 7.10477 9.81824 7.82315 9.30117L23.5152 0.431083C24.9418 -0.504976 26.5106 0.146519 27.0049 1.77526L28.0944 5.30608L27.0161 5.9351L25.8441 2.36685C25.7964 2.17605 25.7021 2.00009 25.5695 1.8548C25.437 1.7095 25.2704 1.59941 25.0848 1.53444C24.8991 1.46947 24.7003 1.45165 24.506 1.48257C24.3118 1.5135 24.1283 1.5922 23.972 1.71161L8.69181 10.3421C8.23409 10.6776 7.88575 11.141 7.69056 11.674C7.49537 12.2069 7.46203 12.7856 7.59475 13.3375L8.51583 16.726L7.23156 17.4748L6.14199 13.9665Z" fill="#455A64"/>
<path d="M30.4046 30.9803L9.32459 43.1528L40.1321 60.9379L61.2122 48.7654L30.4046 30.9803Z" fill="#F7F7F7"/>
<path opacity="0.5" d="M30.4046 30.9803L9.32459 43.1528L40.1321 60.9379L61.2122 48.7654L30.4046 30.9803Z" fill="black"/>
<path d="M7.23154 17.4973L28.0944 5.30978L30.4046 30.9803L9.32457 43.1528L7.23154 17.4973Z" fill="#F7F7F7"/>
<path opacity="0.35" d="M7.23154 17.4973L28.0944 5.30978L30.4046 30.9803L9.32457 43.1528L7.23154 17.4973Z" fill="black"/>
<path d="M28.0906 5.30978L30.4008 30.9802L61.2084 48.7654L66.0759 27.2323L28.0906 5.30978ZM38.8628 29.9918C38.4179 30.1297 37.9366 30.0867 37.5231 29.8723C37.1096 29.6578 36.7973 29.2891 36.6537 28.846L31.5616 15.6326C31.4495 15.4243 31.3833 15.1945 31.3671 14.9586C31.351 14.7226 31.3854 14.4859 31.4681 14.2643C31.5507 14.0427 31.6797 13.8413 31.8464 13.6735C32.0131 13.5058 32.2137 13.3755 32.4348 13.2914C32.6558 13.2073 32.8923 13.1714 33.1283 13.186C33.3644 13.2006 33.5946 13.2654 33.8036 13.3761C34.0127 13.4868 34.1957 13.6408 34.3404 13.8278C34.4852 14.0148 34.5883 14.2306 34.6431 14.4607L39.7352 27.6741C39.9227 28.0972 39.9368 28.577 39.7744 29.0104C39.6119 29.4438 39.286 29.7961 38.8666 29.9918H38.8628ZM48.4817 34.5148C48.0373 34.6549 47.5556 34.6134 47.1416 34.3995C46.7277 34.1855 46.4153 33.8164 46.2726 33.3728L41.1955 20.1594C41.0837 19.9517 41.0174 19.7225 41.001 19.4872C40.9846 19.2519 41.0185 19.0158 41.1004 18.7946C41.1823 18.5733 41.3103 18.3721 41.476 18.2041C41.6416 18.0362 41.8412 17.9055 42.0613 17.8206C42.2813 17.7357 42.517 17.6986 42.7525 17.7118C42.988 17.7251 43.2181 17.7882 43.4273 17.8972C43.6365 18.0062 43.8201 18.1584 43.966 18.3438C44.1119 18.5292 44.2166 18.7435 44.2732 18.9725L49.3654 32.1859C49.5567 32.6115 49.5715 33.0956 49.4066 33.5321C49.2416 33.9686 48.9104 34.322 48.4855 34.5148H48.4817ZM58.1007 39.0416C57.6587 39.1825 57.1791 39.1437 56.7656 38.9334C56.3521 38.7232 56.0381 38.3585 55.8916 37.9183L50.8032 24.7049C50.6943 24.4978 50.6304 24.27 50.6157 24.0365C50.6011 23.803 50.6361 23.569 50.7183 23.3499C50.8005 23.1309 50.9281 22.9317 51.0928 22.7655C51.2575 22.5992 51.4555 22.4697 51.6737 22.3854C51.892 22.3011 52.1257 22.264 52.3593 22.2764C52.593 22.2889 52.8213 22.3506 53.0295 22.4576C53.2376 22.5645 53.4207 22.7143 53.5668 22.8971C53.7129 23.0798 53.8187 23.2914 53.8772 23.518L58.9693 36.7314C59.1558 37.1531 59.1697 37.6311 59.008 38.0629C58.8463 38.4947 58.522 38.846 58.1044 39.0416H58.1007Z" fill="#F7F7F7"/>
<path opacity="0.23" d="M28.0906 5.30978L30.4008 30.9802L61.2084 48.7654L66.0759 27.2323L28.0906 5.30978ZM38.8628 29.9918C38.4179 30.1297 37.9366 30.0867 37.5231 29.8723C37.1096 29.6578 36.7973 29.2891 36.6537 28.846L31.5616 15.6326C31.4495 15.4243 31.3833 15.1945 31.3671 14.9586C31.351 14.7226 31.3854 14.4859 31.4681 14.2643C31.5507 14.0427 31.6797 13.8413 31.8464 13.6735C32.0131 13.5058 32.2137 13.3755 32.4348 13.2914C32.6558 13.2073 32.8923 13.1714 33.1283 13.186C33.3644 13.2006 33.5946 13.2654 33.8036 13.3761C34.0127 13.4868 34.1957 13.6408 34.3404 13.8278C34.4852 14.0148 34.5883 14.2306 34.6431 14.4607L39.7352 27.6741C39.9227 28.0972 39.9368 28.577 39.7744 29.0104C39.6119 29.4438 39.286 29.7961 38.8666 29.9918H38.8628ZM48.4817 34.5148C48.0373 34.6549 47.5556 34.6134 47.1416 34.3995C46.7277 34.1855 46.4153 33.8164 46.2726 33.3728L41.1955 20.1594C41.0837 19.9517 41.0174 19.7225 41.001 19.4872C40.9846 19.2519 41.0185 19.0158 41.1004 18.7946C41.1823 18.5733 41.3103 18.3721 41.476 18.2041C41.6416 18.0362 41.8412 17.9055 42.0613 17.8206C42.2813 17.7357 42.517 17.6986 42.7525 17.7118C42.988 17.7251 43.2181 17.7882 43.4273 17.8972C43.6365 18.0062 43.8201 18.1584 43.966 18.3438C44.1119 18.5292 44.2166 18.7435 44.2732 18.9725L49.3654 32.1859C49.5567 32.6115 49.5715 33.0956 49.4066 33.5321C49.2416 33.9686 48.9104 34.322 48.4855 34.5148H48.4817ZM58.1007 39.0416C57.6587 39.1825 57.1791 39.1437 56.7656 38.9334C56.3521 38.7232 56.0381 38.3585 55.8916 37.9183L50.8032 24.7049C50.6943 24.4978 50.6304 24.27 50.6157 24.0365C50.6011 23.803 50.6361 23.569 50.7183 23.3499C50.8005 23.1309 50.9281 22.9317 51.0928 22.7655C51.2575 22.5992 51.4555 22.4697 51.6737 22.3854C51.892 22.3011 52.1257 22.264 52.3593 22.2764C52.593 22.2889 52.8213 22.3506 53.0295 22.4576C53.2376 22.5645 53.4207 22.7143 53.5668 22.8971C53.7129 23.0798 53.8187 23.2914 53.8772 23.518L58.9693 36.7314C59.1558 37.1531 59.1697 37.6311 59.008 38.0629C58.8463 38.4947 58.522 38.846 58.1044 39.0416H58.1007Z" fill="black"/>
<path d="M7.23154 17.4973L9.32457 43.1528L40.1321 60.9379L44.9996 39.4086L7.23154 17.4973ZM19.3928 42.7522C18.9479 42.8901 18.4666 42.8471 18.0531 42.6327C17.6396 42.4182 17.3273 42.0495 17.1837 41.6064L12.0953 28.393C11.9857 28.1858 11.9212 27.9576 11.9062 27.7236C11.8912 27.4897 11.9259 27.2551 12.0082 27.0356C12.0904 26.816 12.2183 26.6164 12.3833 26.4498C12.5483 26.2833 12.7468 26.1536 12.9656 26.0694C13.1845 25.9852 13.4187 25.9483 13.6528 25.9612C13.8869 25.9741 14.1156 26.0365 14.3238 26.1443C14.5321 26.252 14.7151 26.4027 14.8608 26.5864C15.0066 26.7701 15.1117 26.9826 15.1693 27.2099L20.2615 40.4195C20.4536 40.8443 20.4702 41.3278 20.3075 41.7647C20.1448 42.2016 19.816 42.5566 19.3928 42.7522ZM29.0117 47.2752C28.5674 47.4153 28.0856 47.3738 27.6716 47.1599C27.2577 46.9459 26.9453 46.5768 26.8026 46.1332L21.7255 32.9198C21.6137 32.7121 21.5474 32.4829 21.531 32.2476C21.5146 32.0123 21.5485 31.7762 21.6304 31.5549C21.7123 31.3337 21.8403 31.1325 22.006 30.9645C22.1716 30.7966 22.3712 30.6659 22.5913 30.581C22.8113 30.4961 23.047 30.459 23.2825 30.4722C23.518 30.4855 23.7481 30.5486 23.9573 30.6576C24.1665 30.7665 24.3501 30.9188 24.496 31.1042C24.6419 31.2896 24.7466 31.5039 24.8032 31.7329L29.8916 44.9463C30.0829 45.3719 30.0977 45.856 29.9328 46.2925C29.7679 46.729 29.4367 47.0824 29.0117 47.2752ZM38.6307 51.802C38.1868 51.942 37.7055 51.9004 37.2922 51.6864C36.8789 51.4723 36.5672 51.1033 36.4253 50.66L31.3332 37.4466C31.2214 37.2389 31.1551 37.0097 31.1387 36.7744C31.1223 36.5391 31.1562 36.3029 31.2381 36.0817C31.32 35.8605 31.448 35.6592 31.6137 35.4913C31.7793 35.3234 31.9789 35.1926 32.199 35.1078C32.4191 35.0229 32.6547 34.9858 32.8902 34.999C33.1257 35.0122 33.3558 35.0754 33.565 35.1844C33.7742 35.2933 33.9578 35.4456 34.1037 35.631C34.2496 35.8164 34.3543 36.0307 34.4109 36.2597L39.4993 49.4731C39.6914 49.8973 39.7078 50.3803 39.5451 50.8166C39.3823 51.2529 39.0536 51.6071 38.6307 51.802Z" fill="#F7F7F7"/>
<g opacity="0.15">
<path d="M7.23154 17.4973L9.32457 43.1528L40.1321 60.9379L44.9996 39.4086L7.23154 17.4973ZM19.3928 42.7522C18.9479 42.8901 18.4666 42.8471 18.0531 42.6327C17.6396 42.4182 17.3273 42.0495 17.1837 41.6064L12.0953 28.393C11.9857 28.1858 11.9212 27.9576 11.9062 27.7236C11.8912 27.4897 11.9259 27.2551 12.0082 27.0356C12.0904 26.816 12.2183 26.6164 12.3833 26.4498C12.5483 26.2833 12.7468 26.1536 12.9656 26.0694C13.1845 25.9852 13.4187 25.9483 13.6528 25.9612C13.8869 25.9741 14.1156 26.0365 14.3238 26.1443C14.5321 26.252 14.7151 26.4027 14.8608 26.5864C15.0066 26.7701 15.1117 26.9826 15.1693 27.2099L20.2615 40.4195C20.4536 40.8443 20.4702 41.3278 20.3075 41.7647C20.1448 42.2016 19.816 42.5566 19.3928 42.7522ZM29.0117 47.2752C28.5674 47.4153 28.0856 47.3738 27.6716 47.1599C27.2577 46.9459 26.9453 46.5768 26.8026 46.1332L21.7255 32.9198C21.6137 32.7121 21.5474 32.4829 21.531 32.2476C21.5146 32.0123 21.5485 31.7762 21.6304 31.5549C21.7123 31.3337 21.8403 31.1325 22.006 30.9645C22.1716 30.7966 22.3712 30.6659 22.5913 30.581C22.8113 30.4961 23.047 30.459 23.2825 30.4722C23.518 30.4855 23.7481 30.5486 23.9573 30.6576C24.1665 30.7665 24.3501 30.9188 24.496 31.1042C24.6419 31.2896 24.7466 31.5039 24.8032 31.7329L29.8916 44.9463C30.0829 45.3719 30.0977 45.856 29.9328 46.2925C29.7679 46.729 29.4367 47.0824 29.0117 47.2752ZM38.6307 51.802C38.1868 51.942 37.7055 51.9004 37.2922 51.6864C36.8789 51.4723 36.5672 51.1033 36.4253 50.66L31.3332 37.4466C31.2214 37.2389 31.1551 37.0097 31.1387 36.7744C31.1223 36.5391 31.1562 36.3029 31.2381 36.0817C31.32 35.8605 31.448 35.6592 31.6137 35.4913C31.7793 35.3234 31.9789 35.1926 32.199 35.1078C32.4191 35.0229 32.6547 34.9858 32.8902 34.999C33.1257 35.0122 33.3558 35.0754 33.565 35.1844C33.7742 35.2933 33.9578 35.4456 34.1037 35.631C34.2496 35.8164 34.3543 36.0307 34.4109 36.2597L39.4993 49.4731C39.6914 49.8973 39.7078 50.3803 39.5451 50.8166C39.3823 51.2529 39.0536 51.6071 38.6307 51.802Z" fill="black"/>
</g>
<path d="M44.9959 39.4086L66.076 27.2361L61.2122 48.7691L40.1322 60.9379L44.9959 39.4086Z" fill="#F7F7F7"/>
<path opacity="0.4" d="M44.9959 39.4086L66.076 27.2361L61.2122 48.7691L40.1322 60.9379L44.9959 39.4086Z" fill="black"/>
</svg>
