<svg width="96" height="80" viewBox="0 0 96 80" fill="none" xmlns="http://www.w3.org/2000/svg">
<path d="M67.8504 68.1291C55.1962 63.3754 50.6431 65.3352 37.8793 66.3645C27.4523 67.196 15.135 63.7658 7.28797 54.7477C-13.3843 30.9928 18.0439 6.48653 35.8099 1.23558C48.3277 -2.45399 56.2256 2.30502 64.8212 13.0342C68.1632 17.2077 70.9223 22.2608 74.8552 25.7659C79.0795 29.5249 84.1299 29.4608 88.1109 32.5889C107.42 47.7562 84.7368 74.4682 67.8504 68.1291Z" fill="#8A898E"/>
<path opacity="0.9" d="M67.8504 68.1291C55.1962 63.3754 50.6431 65.3352 37.8793 66.3645C27.4523 67.196 15.135 63.7658 7.28797 54.7477C-13.3843 30.9928 18.0439 6.48653 35.8099 1.23558C48.3277 -2.45399 56.2256 2.30502 64.8212 13.0342C68.1632 17.2077 70.9223 22.2608 74.8552 25.7659C79.0795 29.5249 84.1299 29.4608 88.1109 32.5889C107.42 47.7562 84.7368 74.4682 67.8504 68.1291Z" fill="white"/>
<path d="M52.266 44.6373H20.9321V80H52.266V44.6373Z" fill="#8A898E"/>
<path d="M67.9332 44.6373H36.5993V80H67.9332V44.6373Z" fill="#8A898E"/>
<path opacity="0.7" d="M52.266 44.6373H20.9321V80H52.266V44.6373Z" fill="white"/>
<path opacity="0.2" d="M67.9272 44.6373H52.2297V80H67.9272V44.6373Z" fill="white"/>
<path d="M59.7509 69.3782C61.9528 69.3267 63.6657 66.2027 63.5768 62.4007C63.4878 58.5986 61.6307 55.5582 59.4288 55.6097C57.2269 55.6612 55.5139 58.7851 55.6029 62.5872C55.6918 66.3893 57.5489 69.4297 59.7509 69.3782Z" fill="white"/>
<path d="M61.9939 61.3329L60.2927 61.3736L60.2265 58.4908L58.9125 58.5214L58.9787 61.4042L57.1094 61.45L57.1604 63.6961L59.0296 63.6503L59.1009 66.5076L60.415 66.4771L60.3488 63.6197L62.0499 63.579L61.9939 61.3329Z" fill="#8A898E"/>
<path d="M40.4146 44.6373H34.0683V50.9835H40.4146V44.6373Z" fill="#F5F5F5"/>
<path d="M40.4146 57.3143H34.0683V79.9998H40.4146V57.3143Z" fill="#F5F5F5"/>
<path d="M62.3051 15.6309H36.5993V44.6474H62.3051V15.6309Z" fill="#8A898E"/>
<path d="M75.1606 15.6309H49.4548V44.6474H75.1606V15.6309Z" fill="#8A898E"/>
<path opacity="0.7" d="M58.2967 15.6309H36.5993V44.6474H58.2967V15.6309Z" fill="white"/>
<path opacity="0.2" d="M75.16 15.6309H58.2961V44.6474H75.16V15.6309Z" fill="white"/>
<path d="M69.9956 30.213C70.072 33.3301 68.6662 35.8971 66.8581 35.9378C65.05 35.9786 63.5271 33.4829 63.4558 30.3658C63.3845 27.2487 64.7902 24.6664 66.5933 24.6664C68.3963 24.6664 69.9243 27.0908 69.9956 30.213Z" fill="white"/>
<path d="M68.7116 29.3318L67.316 29.3623L67.26 26.994L66.1802 27.0194L66.2363 29.3878L64.6981 29.4235L64.7439 31.2672L66.277 31.2316L66.333 33.5796L67.4128 33.549L67.3568 31.2061L68.7523 31.1755L68.7116 29.3318Z" fill="#8A898E"/>
<path d="M47.3763 15.6309H42.1658V44.6474H47.3763V15.6309Z" fill="#F5F5F5"/>
</svg>
