<svg width="91" height="78" viewBox="0 0 91 78" fill="none" xmlns="http://www.w3.org/2000/svg">
<path d="M89.4795 11.8517C84.0628 -2.55546 59.9424 -2.91331 49.7761 5.8681C39.6097 14.6495 36.0102 20.5564 28.0259 16.1413C20.0415 11.7262 9.32675 11.6705 7.61183 23.0847C5.89691 34.4989 14.3507 49.0083 29.455 54.5132C44.5593 60.0182 43.1883 74.2232 63.9695 73.3355C75.3 72.8499 76.671 61.2846 76.0157 51.5481C75.3604 41.8117 95.7582 28.5524 89.4795 11.8517Z" fill="#8A898E"/>
<path opacity="0.9" d="M89.4795 11.8517C84.0628 -2.55546 59.9424 -2.91331 49.7761 5.8681C39.6097 14.6495 36.0102 20.5564 28.0259 16.1413C20.0415 11.7262 9.32675 11.6705 7.61183 23.0847C5.89691 34.4989 14.3507 49.0083 29.455 54.5132C44.5593 60.0182 43.1883 74.2232 63.9695 73.3355C75.3 72.8499 76.671 61.2846 76.0157 51.5481C75.3604 41.8117 95.7582 28.5524 89.4795 11.8517Z" fill="white"/>
<path d="M86.2912 9.11668H41.5128V77.2928H86.2912V9.11668Z" fill="#8A898E"/>
<path opacity="0.6" d="M86.2912 9.11668H41.5128V77.2928H86.2912V9.11668Z" fill="white"/>
<path opacity="0.2" d="M86.2911 9.11668H68.9003V77.2928H86.2911V9.11668Z" fill="black"/>
<path opacity="0.2" d="M67.434 45.5971H42.8233V70.2078H67.434V45.5971Z" fill="black"/>
<path opacity="0.2" d="M67.4341 45.5971H61.2181V70.2078H67.4341V45.5971Z" fill="black"/>
<path opacity="0.2" d="M42.8233 45.5971L50.0153 52.7867H61.2157H67.434V45.5971H42.8233Z" fill="black"/>
<path opacity="0.2" d="M67.434 18.9019H42.8233V43.5127H67.434V18.9019Z" fill="black"/>
<path d="M66.7322 18.9019H42.8233V43.5127H66.7322V18.9019Z" fill="#8A898E"/>
<path opacity="0.7" d="M66.7322 18.9019H42.8233V43.5127H66.7322V18.9019Z" fill="white"/>
<path d="M58.0601 21.8461H49.511V24.0513H58.0601V21.8461Z" fill="white"/>
<path opacity="0.1" d="M61.7851 32.7933L59.5217 29.8096H59.0709V31.8359H58.4737L59.2429 32.7933C59.2497 32.8025 59.2538 32.8134 59.2548 32.8248C59.2559 32.8362 59.2538 32.8477 59.2487 32.858C59.2437 32.8683 59.236 32.877 59.2263 32.8832C59.2167 32.8894 59.2055 32.8929 59.1941 32.8932H52.748C52.6913 32.8926 52.6355 32.8791 52.5848 32.8537C52.534 32.8283 52.4898 32.7918 52.4552 32.7468L51.7581 31.8359H49.1788L51.0378 34.1596C51.0726 34.2024 51.1165 34.2369 51.1664 34.2606C51.2162 34.2844 51.2707 34.2967 51.3259 34.2967H61.4853C61.5827 34.2967 61.676 34.258 61.7449 34.1892C61.8138 34.1203 61.8524 34.0269 61.8524 33.9296V33.0117C61.8538 32.9336 61.8302 32.857 61.7851 32.7933Z" fill="black"/>
<path d="M59.2173 29.6585H47.113C46.9141 29.6585 46.7528 29.8198 46.7528 30.0187V31.7801C46.7528 31.979 46.9141 32.1403 47.113 32.1403H59.2173C59.4163 32.1403 59.5775 31.979 59.5775 31.7801V30.0187C59.5775 29.8198 59.4163 29.6585 59.2173 29.6585Z" fill="#8A898E"/>
<path opacity="0.2" d="M56.322 29.6585H47.113C46.9141 29.6585 46.7528 29.8198 46.7528 30.0187V31.7801C46.7528 31.979 46.9141 32.1403 47.113 32.1403H56.322C56.5209 32.1403 56.6821 31.979 56.6821 31.7801V30.0187C56.6821 29.8198 56.5209 29.6585 56.322 29.6585Z" fill="white"/>
<path d="M50.2035 23.1846C50.6722 23.0302 51.0682 22.7094 51.3166 22.283C51.1462 22.4013 51.0066 22.5585 50.9092 22.7415C50.8118 22.9246 50.7594 23.1283 50.7565 23.3356C51.1702 23.4007 51.3561 22.7686 51.7604 22.6571L51.621 23.2706C51.726 23.2815 51.8321 23.2694 51.932 23.2353C52.0319 23.2012 52.1232 23.1459 52.1996 23.0731C52.3572 23.0768 52.514 23.0492 52.6608 22.9918C52.8076 22.9343 52.9415 22.8482 53.0547 22.7384C53.0163 22.6733 52.9557 22.6241 52.8841 22.5998C52.8125 22.5755 52.7345 22.5777 52.6643 22.606L53.9772 22.7291C53.9415 22.7202 53.904 22.7198 53.8681 22.7282C53.8322 22.7366 53.7987 22.7534 53.7706 22.7772C53.7424 22.801 53.7203 22.8313 53.7062 22.8653C53.692 22.8994 53.6861 22.9364 53.6891 22.9731C53.6987 23.011 53.7177 23.0458 53.7443 23.0743C53.7709 23.1029 53.8042 23.1243 53.8413 23.1366C53.8783 23.1488 53.9178 23.1516 53.9562 23.1445C53.9946 23.1375 54.0306 23.1209 54.0609 23.0963C54.0994 23.0654 54.1271 23.0231 54.1399 22.9755C54.1459 22.9342 54.1585 22.8942 54.1771 22.8569C54.2236 22.7919 54.3188 22.7989 54.3955 22.8105C55.1858 22.9339 55.9888 22.9542 56.7843 22.8709" stroke="#263238" stroke-width="0.5" stroke-linecap="round" stroke-linejoin="round"/>
<path opacity="0.1" d="M67.4341 57.3343L68.9003 59.1584V77.2928H46.9317L41.5128 71.3208L67.4341 57.3343Z" fill="black"/>
<path d="M54.4072 12.0121H42.9767V16.4713H54.4072V12.0121Z" fill="#8A898E"/>
<path d="M46.7923 12.0121H42.9767V16.4713H46.7923V12.0121Z" fill="white"/>
<path d="M46.0626 13.569C45.9394 14.2475 45.8674 14.5542 46.0882 15.0608C46.3089 15.5674 46.1904 15.6812 45.9464 15.7579C45.7024 15.8346 43.855 16.3017 43.711 15.6301C43.5669 14.9586 43.8318 14.9469 43.711 14.3985C43.5901 13.8501 43.5158 13.2018 43.7296 12.8881C43.9433 12.5744 46.0626 13.569 46.0626 13.569Z" fill="#263238"/>
<path d="M43.1905 15.9136C43.6562 15.6184 44.2012 15.4732 44.752 15.4977C45.3963 15.5222 46.0309 15.6631 46.625 15.9136V16.2413H43.1905V15.9136Z" fill="#8A898E"/>
<path d="M45.4607 15.6417C45.4271 15.7402 45.3719 15.83 45.2992 15.9044C45.2264 15.9788 45.1379 16.0359 45.0401 16.0716C44.7194 16.0019 44.2593 15.5418 44.2593 15.5418C44.5312 15.3861 44.4778 14.933 44.415 14.6588C44.4 14.5897 44.3813 14.5215 44.3593 14.4543L44.7008 14.4032L45.2051 14.8493C45.2051 14.8493 45.2051 14.8842 45.1865 14.9376C45.1421 15.1138 45.1334 15.2971 45.161 15.4768C45.1675 15.4973 45.1769 15.5169 45.1888 15.5348C45.2238 15.5711 45.2662 15.5995 45.3131 15.6179C45.36 15.6364 45.4104 15.6445 45.4607 15.6417Z" fill="#EEC1BB"/>
<path opacity="0.2" d="M45.1959 15.5163C45.1391 15.5153 45.0827 15.5059 45.0286 15.4884C44.7056 15.3885 44.515 14.9376 44.4267 14.6588C44.404 14.5918 44.3854 14.5235 44.371 14.4543L45.1982 14.9376C45.1538 15.1138 45.1451 15.2971 45.1727 15.4768C45.1791 15.4907 45.1869 15.5039 45.1959 15.5163Z" fill="black"/>
<path d="M45.1075 12.5024C45.1075 12.5024 45.9836 12.4745 46.0765 13.1855C46.1048 13.388 46.0748 13.5943 45.99 13.7803C45.9052 13.9664 45.7692 14.1244 45.5979 14.2359L45.1075 12.5024Z" fill="#263238"/>
<path d="M44.9937 12.8672C45.6397 12.8928 45.8326 13.246 45.8535 13.9129C45.8814 14.7448 45.6746 15.328 44.8752 15.1189C43.7877 14.8354 43.9225 12.8254 44.9937 12.8672Z" fill="#EEC1BB"/>
<path d="M45.4398 13.8594C45.4869 13.9579 45.5462 14.05 45.6164 14.1336C45.5964 14.1598 45.5695 14.18 45.5388 14.1919C45.508 14.2038 45.4746 14.2069 45.4421 14.201L45.4398 13.8594Z" fill="#D4827D"/>
<path d="M45.0471 13.792C45.0471 13.8455 45.0169 13.8873 44.9797 13.8873C44.9426 13.8873 44.917 13.8432 44.917 13.7897C44.917 13.7363 44.9472 13.6944 44.9844 13.6944C45.0216 13.6944 45.0471 13.7386 45.0471 13.792Z" fill="#263238"/>
<path d="M44.9634 13.6968L45.0796 13.6526C45.0796 13.6526 45.0262 13.7502 44.9634 13.6968Z" fill="#263238"/>
<path d="M45.7048 13.7897C45.7048 13.8432 45.6746 13.8873 45.6397 13.885C45.6049 13.8827 45.577 13.8408 45.577 13.7897C45.577 13.7386 45.6072 13.6944 45.642 13.6944C45.6769 13.6944 45.7071 13.7386 45.7048 13.7897Z" fill="#263238"/>
<path d="M45.6281 13.6968L45.7442 13.6526C45.7442 13.6526 45.6861 13.7479 45.6281 13.6968Z" fill="#263238"/>
<path d="M44.773 13.4621C44.767 13.4644 44.7604 13.4644 44.7544 13.4621C44.749 13.4564 44.746 13.449 44.746 13.4412C44.746 13.4334 44.749 13.4259 44.7544 13.4202C44.7947 13.3811 44.8437 13.352 44.8974 13.3354C44.9512 13.3189 45.0081 13.3153 45.0634 13.325C45.0673 13.3252 45.0711 13.3263 45.0746 13.3281C45.078 13.33 45.081 13.3325 45.0834 13.3356C45.0859 13.3386 45.0876 13.3422 45.0885 13.3459C45.0895 13.3497 45.0897 13.3537 45.089 13.3575C45.0873 13.3653 45.0829 13.3722 45.0764 13.3769C45.07 13.3816 45.0621 13.3838 45.0541 13.3831C45.0085 13.3747 44.9615 13.3773 44.9171 13.3906C44.8727 13.4039 44.832 13.4276 44.7985 13.4598C44.7947 13.462 44.7904 13.4634 44.786 13.4638C44.7816 13.4642 44.7771 13.4636 44.773 13.4621Z" fill="#263238"/>
<path d="M45.7815 13.4295H45.7652C45.7333 13.4029 45.6959 13.3837 45.6558 13.3733C45.6156 13.3628 45.5736 13.3614 45.5328 13.3691C45.5254 13.3714 45.5174 13.3707 45.5105 13.3672C45.5036 13.3638 45.4983 13.3578 45.4956 13.3505C45.4934 13.3431 45.4941 13.3352 45.4975 13.3282C45.501 13.3213 45.507 13.316 45.5142 13.3134C45.5635 13.302 45.6147 13.3021 45.6639 13.3138C45.7131 13.3255 45.7589 13.3484 45.7977 13.3807C45.8026 13.3866 45.8053 13.394 45.8053 13.4017C45.8053 13.4093 45.8026 13.4167 45.7977 13.4226C45.7932 13.4266 45.7875 13.429 45.7815 13.4295Z" fill="#263238"/>
<path d="M44.2454 13.9268C44.4209 13.6471 44.5217 13.3271 44.5382 12.9973C44.5382 12.9973 45.8372 12.5326 45.8511 13.8246C45.8511 13.8246 46.0208 12.6766 44.9216 12.6093C43.8225 12.5419 43.6296 13.9245 44.1827 14.4311C44.1734 14.4311 44.0479 14.2521 44.2454 13.9268Z" fill="#263238"/>
<path d="M45.2214 12.4629C45.2214 12.4629 45.5886 12.4629 45.7233 12.6209C45.8581 12.7789 44.8752 13.5759 44.3082 13.6224C44.3082 13.6224 44.0503 14.129 44.1734 14.4311C44.1734 14.4311 43.5785 14.2475 43.639 13.2878C43.6428 13.1054 43.6957 12.9275 43.7919 12.7725C43.8882 12.6175 44.0243 12.4913 44.186 12.407C44.3478 12.3227 44.5292 12.2834 44.7114 12.2932C44.8935 12.303 45.0697 12.3616 45.2214 12.4629Z" fill="#263238"/>
<path d="M44.3476 14.0662C44.3434 13.9917 44.3102 13.9217 44.255 13.8713C44.1999 13.8209 44.1272 13.7941 44.0525 13.7967C43.8504 13.8106 43.7411 14.2173 44.2338 14.3358C44.3035 14.3521 44.3476 14.2847 44.3476 14.0662Z" fill="#EEC1BB"/>
<path d="M44.7079 13.6805C44.7013 13.6802 44.6951 13.6777 44.69 13.6735C44.685 13.6694 44.6815 13.6636 44.68 13.6573C44.6785 13.6536 44.6779 13.6497 44.6782 13.6458C44.6786 13.6418 44.6798 13.638 44.6818 13.6347C44.6838 13.6313 44.6866 13.6284 44.6899 13.6263C44.6932 13.6242 44.697 13.6228 44.7009 13.6224C44.9321 13.5499 45.1438 13.4258 45.3201 13.2596C45.4964 13.0934 45.6327 12.8893 45.7187 12.6627C45.7223 12.6569 45.7277 12.6525 45.7341 12.6502C45.7405 12.6479 45.7475 12.6478 45.7539 12.65C45.7604 12.6521 45.7659 12.6564 45.7696 12.6621C45.7734 12.6677 45.7751 12.6745 45.7745 12.6813C45.6852 12.917 45.5433 13.1293 45.3597 13.3021C45.1761 13.4748 44.9556 13.6034 44.7148 13.6782L44.7079 13.6805Z" fill="#263238"/>
<path d="M45.3702 14.5589C45.2917 14.5512 45.217 14.5216 45.1546 14.4736C45.0921 14.4255 45.0444 14.3609 45.0169 14.287C45.0155 14.2796 45.0168 14.272 45.0207 14.2655C45.0245 14.2591 45.0307 14.2543 45.0379 14.2521C45.0456 14.25 45.0538 14.251 45.0608 14.2549C45.0677 14.2588 45.0729 14.2654 45.075 14.2731C45.075 14.2731 45.1215 14.445 45.3841 14.5054C45.3913 14.5076 45.3974 14.5124 45.4013 14.5188C45.4052 14.5253 45.4065 14.5329 45.405 14.5403C45.4039 14.5438 45.4022 14.5471 45.3999 14.5499C45.3975 14.5527 45.3947 14.5551 45.3914 14.5568C45.3882 14.5585 45.3847 14.5596 45.381 14.56C45.3774 14.5603 45.3737 14.56 45.3702 14.5589Z" fill="#263238"/>
<path d="M46.2044 15.1282C46.1981 15.128 46.1921 15.1259 46.1871 15.1222C46.1821 15.1184 46.1784 15.1132 46.1765 15.1073C46.1628 15.0687 46.1456 15.0313 46.1254 14.9957C46.0256 14.7898 46.0017 14.5553 46.058 14.3335V14.2893C46.123 13.7711 46.1951 13.1832 45.7861 12.8207C45.7835 12.8181 45.7814 12.8151 45.78 12.8117C45.7786 12.8083 45.7779 12.8046 45.7779 12.801C45.7779 12.7973 45.7786 12.7937 45.78 12.7903C45.7814 12.7869 45.7835 12.7838 45.7861 12.7812C45.7917 12.7758 45.7992 12.7728 45.807 12.7728C45.8148 12.7728 45.8223 12.7758 45.8279 12.7812C46.2625 13.1623 46.1858 13.7665 46.1207 14.2986V14.3428C46.0696 14.7517 46.1207 14.8586 46.1835 14.9702C46.2031 15.0093 46.2202 15.0497 46.2346 15.091C46.2361 15.0945 46.2368 15.0983 46.2368 15.1021C46.2368 15.1059 46.236 15.1096 46.2345 15.1131C46.2329 15.1166 46.2307 15.1197 46.2279 15.1223C46.2252 15.1249 46.2219 15.1269 46.2183 15.1282H46.2044Z" fill="#263238"/>
<path d="M50.7891 13.1623H47.6335C47.5595 13.1623 47.4886 13.1329 47.4363 13.0806C47.384 13.0283 47.3546 12.9574 47.3546 12.8835C47.3546 12.847 47.3618 12.8108 47.3759 12.7771C47.3899 12.7434 47.4105 12.7128 47.4364 12.6871C47.4624 12.6614 47.4931 12.6411 47.5269 12.6273C47.5607 12.6136 47.597 12.6066 47.6335 12.6069H50.7891C50.8624 12.6069 50.9328 12.6361 50.9846 12.6879C51.0365 12.7398 51.0656 12.8101 51.0656 12.8835C51.0659 12.92 51.059 12.9562 51.0452 12.99C51.0315 13.0238 51.0112 13.0546 50.9855 13.0805C50.9598 13.1064 50.9292 13.127 50.8955 13.141C50.8618 13.1551 50.8256 13.1623 50.7891 13.1623Z" fill="white"/>
<path d="M52.9734 14.5054H47.573C47.5151 14.5054 47.4595 14.4824 47.4186 14.4415C47.3776 14.4005 47.3546 14.3449 47.3546 14.287C47.3527 14.2572 47.3569 14.2273 47.367 14.1991C47.3771 14.171 47.3929 14.1452 47.4134 14.1234C47.4339 14.1017 47.4586 14.0843 47.4861 14.0725C47.5135 14.0606 47.5431 14.0546 47.573 14.0546H52.9734C53.0033 14.0546 53.0329 14.0606 53.0603 14.0725C53.0878 14.0843 53.1125 14.1017 53.133 14.1234C53.1535 14.1452 53.1692 14.171 53.1794 14.1991C53.1895 14.2273 53.1937 14.2572 53.1918 14.287C53.1918 14.3449 53.1688 14.4005 53.1278 14.4415C53.0869 14.4824 53.0313 14.5054 52.9734 14.5054Z" fill="white"/>
<path d="M52.0439 15.3466H47.5731C47.5151 15.3466 47.4596 15.3236 47.4186 15.2827C47.3776 15.2417 47.3546 15.1861 47.3546 15.1282C47.3543 15.0993 47.3597 15.0707 47.3706 15.0439C47.3814 15.0171 47.3975 14.9928 47.4178 14.9722C47.4381 14.9517 47.4623 14.9354 47.4889 14.9243C47.5156 14.9132 47.5442 14.9074 47.5731 14.9074H52.0439C52.0728 14.9074 52.1014 14.9132 52.1281 14.9243C52.1547 14.9354 52.1789 14.9517 52.1992 14.9722C52.2195 14.9928 52.2356 15.0171 52.2464 15.0439C52.2572 15.0707 52.2627 15.0993 52.2624 15.1282C52.2624 15.1861 52.2393 15.2417 52.1984 15.2827C52.1574 15.3236 52.1019 15.3466 52.0439 15.3466Z" fill="white"/>
<path opacity="0.15" d="M54.779 49.6055L55.2065 65.2164H43.6738L43.0046 49.6055H54.779Z" fill="black"/>
<path d="M45.5955 60.6433L67.434 57.3343V69.2248L47.1943 73.0985L45.5955 60.6433Z" fill="#8A898E"/>
<path opacity="0.5" d="M45.5955 60.6433L67.434 57.3343V69.2248L47.1943 73.0985L45.5955 60.6433Z" fill="white"/>
<path opacity="0.7" d="M45.5955 60.6433L45.9023 60.9802L67.434 57.6689V57.3343L45.5955 60.6433Z" fill="white"/>
<path opacity="0.2" d="M49.1787 60.1018L50.164 60.3249L50.975 72.3758L47.1943 73.0985L45.5955 60.6433L49.1787 60.1018Z" fill="black"/>
<path d="M49.1787 74.6647H24.5703L23.0227 50.4211H47.6334L49.1787 74.6647Z" fill="#8A898E"/>
<path opacity="0.7" d="M49.1787 74.6647H24.5703L23.0227 50.4211H47.6334L49.1787 74.6647Z" fill="white"/>
<path opacity="0.2" d="M49.1787 74.6647H48.4793L46.9316 50.4211H47.6334L49.1787 74.6647Z" fill="black"/>
<path d="M38.5825 55.4962H30.0335L29.8964 53.3212H38.4454L38.5825 55.4962Z" fill="white"/>
<path opacity="0.1" d="M42.8582 64.1056L40.4066 61.1661H39.9558L40.0836 63.1622H39.4864L40.3137 64.1056C40.3213 64.1139 40.3264 64.1241 40.3283 64.1352C40.3302 64.1463 40.3289 64.1577 40.3245 64.168C40.3201 64.1783 40.3127 64.1872 40.3034 64.1934C40.294 64.1997 40.2831 64.2031 40.2718 64.2032H33.8258C33.768 64.2025 33.7111 64.1892 33.6589 64.1643C33.6068 64.1395 33.5607 64.1036 33.5237 64.0591L32.7755 63.1622H30.1915L32.2038 65.4557C32.2405 65.4982 32.2857 65.5324 32.3366 65.5561C32.3875 65.5797 32.4428 65.5922 32.4989 65.5928H42.6606C42.7076 65.5936 42.7542 65.5846 42.7975 65.5664C42.8408 65.5482 42.8799 65.5212 42.9122 65.4871C42.9446 65.453 42.9695 65.4126 42.9853 65.3684C43.0012 65.3242 43.0078 65.2772 43.0046 65.2303L42.9465 64.3264C42.9406 64.2454 42.9097 64.1683 42.8582 64.1056Z" fill="black"/>
<path d="M40.2486 63.4643H28.1443C28.0478 63.4634 27.9551 63.4264 27.8846 63.3606C27.8141 63.2948 27.7707 63.2049 27.7632 63.1087L27.6516 61.3729C27.6484 61.3271 27.6548 61.2811 27.6703 61.2378C27.6859 61.1946 27.7103 61.1551 27.742 61.1218C27.7738 61.0886 27.8121 61.0623 27.8545 61.0447C27.897 61.0271 27.9426 61.0186 27.9886 61.0197H40.0836C40.18 61.0205 40.2726 61.0571 40.3435 61.1223C40.4144 61.1876 40.4584 61.2769 40.4671 61.3729L40.5763 63.1087C40.5798 63.154 40.5739 63.1995 40.5591 63.2423C40.5442 63.2852 40.5207 63.3246 40.4899 63.3579C40.4592 63.3913 40.4219 63.418 40.3804 63.4363C40.3389 63.4546 40.294 63.4641 40.2486 63.4643Z" fill="#8A898E"/>
<path opacity="0.2" d="M37.3533 63.4643H28.1443C28.0478 63.4634 27.9551 63.4264 27.8846 63.3606C27.8141 63.2948 27.7707 63.2049 27.7632 63.1087L27.6516 61.3729C27.6484 61.3271 27.6548 61.2811 27.6703 61.2378C27.6859 61.1946 27.7103 61.1551 27.742 61.1218C27.7738 61.0886 27.8121 61.0623 27.8545 61.0447C27.897 61.0271 27.9426 61.0186 27.9886 61.0197H37.1976C37.2938 61.02 37.3865 61.0565 37.4571 61.1219C37.5277 61.1873 37.5711 61.2769 37.5787 61.3729L37.6902 63.1087C37.6934 63.1547 37.6871 63.2008 37.6715 63.2442C37.656 63.2875 37.6316 63.3272 37.5999 63.3606C37.5682 63.394 37.5299 63.4205 37.4875 63.4384C37.445 63.4562 37.3993 63.465 37.3533 63.4643Z" fill="white"/>
<path d="M30.7538 54.411C30.9135 54.4636 31.0855 54.4657 31.2464 54.417C31.4073 54.3684 31.5493 54.2713 31.6531 54.1391C31.6531 54.3227 31.5997 54.5597 31.6113 54.7689C31.7756 54.6039 31.9093 54.4112 32.0063 54.1995C31.8344 54.5783 32.2852 54.6643 32.5501 54.5388C32.6381 54.4987 32.7133 54.4352 32.7678 54.3553C32.8223 54.2755 32.8539 54.1822 32.8592 54.0857C32.8592 54.0253 32.8336 53.9509 32.7732 53.9393C32.7128 53.9277 32.6663 53.9788 32.6361 54.0276C32.5292 54.1926 32.4037 54.648 32.664 54.7038C32.9242 54.7596 33.2263 54.3204 33.296 54.1414C33.2256 54.1769 33.1674 54.2325 33.1289 54.3012C33.0904 54.37 33.0734 54.4487 33.0799 54.5272C33.3495 54.5156 33.7189 54.5806 33.7352 54.2181C33.712 54.6968 34.1674 54.5341 34.3347 54.2181C34.2813 54.3878 34.5346 54.4737 34.7112 54.4714L37.0837 54.418" stroke="#263238" stroke-width="0.5" stroke-linecap="round" stroke-linejoin="round"/>
<path opacity="0.3" d="M59.4134 39.8317C59.2366 43.609 57.6618 47.1856 54.9951 49.8666C52.3285 52.5476 48.7603 54.1415 44.984 54.3385C41.2078 54.5356 37.4931 53.3217 34.5619 50.9327C31.6307 48.5438 29.6923 45.1504 29.1234 41.4121C28.5545 37.6737 29.3957 33.8574 31.4835 30.7046C33.5714 27.5519 36.7567 25.2879 40.4207 24.3526C44.0846 23.4174 47.9653 23.8776 51.3088 25.644C54.6523 27.4103 57.2198 30.3566 58.5122 33.9103C59.2018 35.8049 59.5081 37.8177 59.4134 39.8317Z" fill="white"/>
<path opacity="0.4" d="M52.7641 26.5134L30.8009 46.5435C30.691 46.3407 30.583 46.136 30.4768 45.9295C29.8053 44.5851 29.3386 43.1478 29.0924 41.6653L48.0622 24.3643C49.7408 24.8066 51.3311 25.5335 52.7641 26.5134Z" fill="white"/>
<path opacity="0.4" d="M58.6401 34.277L38.0045 53.1074C35.864 52.163 33.9693 50.7391 32.4668 48.9456L55.0156 28.3811C56.6588 30.0433 57.8988 32.0603 58.6401 34.277Z" fill="white"/>
<path d="M59.4077 30.3198C57.6656 27.2992 55.0668 24.8632 51.9399 23.32C48.813 21.7768 45.2986 21.1958 41.8414 21.6505C38.3842 22.1052 35.1396 23.5751 32.5181 25.8743C29.8965 28.1735 28.0159 31.1987 27.1141 34.567C26.2123 37.9354 26.33 41.4955 27.4521 44.797C28.5742 48.0984 30.6504 50.9929 33.4179 53.1141C36.1855 55.2352 39.5201 56.4878 42.9997 56.7134C46.4794 56.9389 49.9478 56.1272 52.966 54.381C57.0084 52.0422 59.9574 48.1946 61.1652 43.6832C62.373 39.1719 61.7409 34.3655 59.4077 30.3198ZM32.1171 46.0801C30.7427 43.6997 30.1049 40.9651 30.2846 38.2222C30.4642 35.4794 31.4532 32.8513 33.1264 30.6705C34.7996 28.4897 37.0819 26.854 39.6847 25.9702C42.2875 25.0864 45.0939 24.9943 47.7491 25.7055C50.4042 26.4167 52.7889 27.8993 54.6015 29.9657C56.4141 32.0322 57.5732 34.5897 57.9323 37.3149C58.2914 40.0401 57.8343 42.8106 56.6189 45.276C55.4035 47.7415 53.4843 49.7911 51.104 51.1658C49.5236 52.0786 47.7789 52.6711 45.9695 52.9095C44.1601 53.148 42.3214 53.0276 40.5585 52.5553C38.7956 52.0831 37.1431 51.2682 35.6952 50.1571C34.2473 49.0461 33.0324 47.6607 32.12 46.0801H32.1171Z" fill="#747379"/>
<path opacity="0.1" d="M59.4077 30.3198C57.6656 27.2992 55.0668 24.8632 51.9399 23.32C48.813 21.7768 45.2986 21.1958 41.8414 21.6505C38.3842 22.1052 35.1396 23.5751 32.5181 25.8743C29.8965 28.1735 28.0159 31.1987 27.1141 34.567C26.2123 37.9354 26.33 41.4955 27.4521 44.797C28.5742 48.0984 30.6504 50.9929 33.4179 53.1141C36.1855 55.2352 39.5201 56.4878 42.9997 56.7134C46.4794 56.9389 49.9478 56.1272 52.966 54.381C57.0084 52.0422 59.9574 48.1946 61.1652 43.6832C62.373 39.1719 61.7409 34.3655 59.4077 30.3198ZM32.1171 46.0801C30.7427 43.6997 30.1049 40.9651 30.2846 38.2222C30.4642 35.4794 31.4532 32.8513 33.1264 30.6705C34.7996 28.4897 37.0819 26.854 39.6847 25.9702C42.2875 25.0864 45.0939 24.9943 47.7491 25.7055C50.4042 26.4167 52.7889 27.8993 54.6015 29.9657C56.4141 32.0322 57.5732 34.5897 57.9323 37.3149C58.2914 40.0401 57.8343 42.8106 56.6189 45.276C55.4035 47.7415 53.4843 49.7911 51.104 51.1658C49.5236 52.0786 47.7789 52.6711 45.9695 52.9095C44.1601 53.148 42.3214 53.0276 40.5585 52.5553C38.7956 52.0831 37.1431 51.2682 35.6952 50.1571C34.2473 49.0461 33.0324 47.6607 32.12 46.0801H32.1171Z" fill="black"/>
<path d="M6.96721 59.208L5.398 60.2541L3.99652 59.1057L5.80167 57.761L6.96721 59.208Z" fill="#E4897B"/>
<path d="M31.5997 48.4083C29.2857 50.114 26.912 51.7344 24.527 53.3178C22.1419 54.9012 19.7255 56.4448 17.2978 57.96C14.8701 59.4752 12.4196 60.9591 9.96064 62.4004C8.73256 63.1339 7.49312 63.8445 6.26504 64.5666C5.65499 64.955 4.9899 65.2492 4.29217 65.4393C3.91989 65.5381 3.5392 65.6019 3.15506 65.6298C2.72858 65.6646 2.29936 65.6426 1.87866 65.5644C1.57801 65.5049 1.29204 65.3868 1.03711 65.2167C0.782177 65.0465 0.563296 64.8278 0.392988 64.573C0.222681 64.3182 0.104288 64.0323 0.0445897 63.7317C-0.0151088 63.4311 -0.0149421 63.1217 0.0450777 62.8212C0.0645351 62.7246 0.0911404 62.6295 0.124675 62.5369C0.261905 62.1339 0.453166 61.7514 0.693227 61.3998C0.907373 61.0837 1.15105 60.7886 1.42097 60.5185C1.93509 60.0095 2.52246 59.5802 3.16359 59.245C4.40588 58.5371 5.63964 57.8236 6.89045 57.1214C9.38071 55.7142 11.8937 54.344 14.4124 52.9909C16.9311 51.6377 19.481 50.3272 22.0452 49.048C24.6094 47.7687 27.1935 46.5236 29.8315 45.3751C30.2297 45.1991 30.6788 45.1764 31.0926 45.3113C31.5065 45.4462 31.8559 45.7293 32.0738 46.1061C32.2916 46.483 32.3626 46.9271 32.273 47.353C32.1834 47.779 31.9396 48.1569 31.5884 48.414L31.5997 48.4083Z" fill="#747379"/>
<path opacity="0.1" d="M32.5997 48.684C30.2857 50.3897 27.912 52.01 25.527 53.5935C23.1419 55.1769 20.7255 56.7205 18.2978 58.2357C15.8701 59.7509 13.4196 61.2348 10.9606 62.6761C9.73256 63.4095 8.49312 64.1202 7.26504 64.8423C6.65499 65.2306 5.9899 65.5248 5.29217 65.715C4.91989 65.8138 4.5392 65.8775 4.15506 65.9055C3.72858 65.9403 3.29936 65.9183 2.87866 65.8401C2.57801 65.7806 2.29204 65.6624 2.03711 65.4923C1.78218 65.3222 1.5633 65.1035 1.39299 64.8487C1.22268 64.5939 1.10429 64.308 1.04459 64.0074C0.984891 63.7068 0.985058 63.3974 1.04508 63.0968C1.06454 63.0002 1.09114 62.9052 1.12467 62.8125C1.2619 62.4095 1.45317 62.027 1.69323 61.6754C1.90737 61.3593 2.15105 61.0642 2.42097 60.7942C2.93509 60.2851 3.52246 59.8559 4.16359 59.5206C5.40588 58.8128 6.63964 58.0992 7.89045 57.3971C10.3807 55.9899 12.8937 54.6197 15.4124 53.2665C17.9311 51.9134 20.481 50.6029 23.0452 49.3236C25.6094 48.0444 28.1935 46.7993 30.8315 45.6508C31.2297 45.4748 31.6788 45.452 32.0926 45.587C32.5065 45.7219 32.8559 46.005 33.0738 46.3818C33.2916 46.7587 33.3626 47.2027 33.273 47.6287C33.1834 48.0547 32.9396 48.4325 32.5884 48.6897L32.5997 48.684Z" fill="black"/>
</svg>
