<svg width="111" height="116" viewBox="0 0 111 116" fill="none" xmlns="http://www.w3.org/2000/svg">
<path d="M20.8064 116L0.751233 104.416L0.743896 61.3988L20.8064 72.9827V116Z" fill="#8A898E"/>
<path d="M20.8064 72.9827L49.4651 56.4364V99.4537L20.8064 116V72.9827Z" fill="#CCCBCD"/>
<path d="M49.4651 56.4364L20.8064 72.9827L0.743896 61.3988L29.4099 44.8525L49.4651 56.4364Z" fill="#E2E1E2"/>
<path d="M33.1904 72.4541L37.0884 70.2005C37.5949 69.9068 38.006 70.039 38.006 70.5015C37.9688 70.7825 37.8665 71.051 37.7072 71.2855C37.5478 71.52 37.336 71.714 37.0884 71.8522L33.1904 74.1058C32.6839 74.3994 32.2728 74.2673 32.2728 73.8048C32.31 73.5238 32.4124 73.2553 32.5717 73.0208C32.731 72.7863 32.9429 72.5923 33.1904 72.4541Z" fill="#8A898E"/>
<path d="M23.1482 94.7996L46.0736 81.5641L46.6022 81.8651L46.0736 97.4937L46.6022 97.802L23.6767 111.038L23.1482 110.729V94.7996Z" fill="#8A898E"/>
<path d="M23.6766 95.1006L46.6021 81.8651V97.802L23.6766 111.038V95.1006Z" fill="#E2E1E2"/>
<path d="M32.6619 92.6121L36.5599 90.3658C37.0664 90.0721 37.4775 90.2043 37.4775 90.6594C37.4408 90.9416 37.3387 91.2113 37.1794 91.447C37.0201 91.6828 36.808 91.8781 36.5599 92.0174L32.6619 94.2711C32.1553 94.5647 31.7443 94.4252 31.7443 93.9701C31.7821 93.6883 31.8846 93.4191 32.0438 93.1835C32.2029 92.9478 32.4145 92.7523 32.6619 92.6121Z" fill="#8A898E"/>
<path d="M23.1482 74.9794L46.0736 61.7438L46.6022 62.0448L46.0736 77.6734L46.6022 77.9818L23.6767 91.2173L23.1482 90.909V74.9794Z" fill="#8A898E"/>
<path d="M23.6766 75.2803L46.6021 62.0448V77.9818L23.6766 91.2173V75.2803Z" fill="#E2E1E2"/>
<path d="M32.6619 72.7918L36.5599 70.5455C37.0664 70.2518 37.4775 70.384 37.4775 70.8391C37.4408 71.1213 37.3387 71.391 37.1794 71.6268C37.0201 71.8625 36.808 72.0578 36.5599 72.1972L32.6619 74.4508C32.1553 74.7444 31.7443 74.605 31.7443 74.1498C31.7821 73.868 31.8846 73.5988 32.0438 73.3632C32.2029 73.1276 32.4145 72.932 32.6619 72.7918Z" fill="#8A898E"/>
<path d="M20.8064 71.1548L0.751233 59.5709L0.743896 16.5463L20.8064 28.1301V71.1548Z" fill="#8A898E"/>
<path d="M20.8064 28.1301L49.4651 11.5838V54.6085L20.8064 71.1548V28.1301Z" fill="#CCCBCD"/>
<path d="M49.4651 11.5838L20.8064 28.1301L0.743896 16.5463L29.4099 0L49.4651 11.5838Z" fill="#E2E1E2"/>
<path d="M23.6766 29.7818L46.6021 16.5463L47.1306 16.8546V32.7842L24.2052 46.0271L23.6766 45.7188V29.7818Z" fill="#8A898E"/>
<path d="M33.1904 27.6016L37.0884 25.3479C37.5949 25.0543 38.006 25.1938 38.006 25.6489C37.9682 25.9307 37.8657 26.2 37.7065 26.4356C37.5473 26.6712 37.3358 26.8667 37.0884 27.007L33.1904 29.2533C32.6839 29.5469 32.2728 29.4148 32.2728 28.9596C32.3095 28.6775 32.4116 28.4078 32.5709 28.172C32.7302 27.9362 32.9423 27.7409 33.1904 27.6016Z" fill="#8A898E"/>
<path d="M23.1482 49.9471L46.0736 36.7116V52.6485L46.6022 52.9495L23.6767 66.185L23.1482 65.8841V49.9471Z" fill="#8A898E"/>
<path d="M23.6766 50.2554L46.6021 37.0125V52.9495L23.6766 66.185V50.2554Z" fill="#E2E1E2"/>
<path d="M32.6619 47.7669L36.5599 45.5132C37.0664 45.2196 37.4775 45.3517 37.4775 45.8142C37.4402 46.0952 37.3379 46.3637 37.1786 46.5982C37.0193 46.8327 36.8074 47.0268 36.5599 47.1649L32.6619 49.4185C32.1553 49.7122 31.7443 49.58 31.7443 49.1176C31.7815 48.8365 31.8838 48.5681 32.0431 48.3336C32.2024 48.0991 32.4143 47.905 32.6619 47.7669Z" fill="#8A898E"/>
<path d="M23.6766 29.7818L46.6021 16.5463V32.4832L23.6766 45.7188V29.7818Z" fill="#8A898E"/>
<path d="M58.0686 24.4156L45.5157 17.1776V31.2133L58.0686 38.4587V24.4156Z" fill="#8A898E"/>
<path d="M32.2728 47.9871V28.1301L37.1912 25.2819L38.006 26.4784L52.3353 18.1979V36.4032L32.2728 47.9871Z" fill="white"/>
<g opacity="0.2">
<path d="M32.2728 47.9871V28.1301L37.1912 25.2819L38.006 26.4784L52.3353 18.1979V36.4032L32.2728 47.9871Z" fill="black"/>
</g>
<path d="M32.2728 47.9871L33.7043 30.6113L53.7668 19.0275L52.3353 36.4032L32.2728 47.9871Z" fill="white"/>
<path d="M35.1357 37.6585L24.1979 31.3454V45.3811L35.1357 51.6942V37.6585Z" fill="#CCCBCD"/>
<path d="M35.1357 36.4032L58.0685 23.1677V39.0973L35.1357 52.3402V36.4032Z" fill="#E2E1E2"/>
<path d="M44.1283 33.9147L48.0263 31.661C48.5328 31.3674 48.9439 31.5069 48.9439 31.962C48.9061 32.2438 48.8036 32.5131 48.6444 32.7487C48.4852 32.9843 48.2737 33.1799 48.0263 33.3201L44.1283 35.5664C43.6218 35.86 43.2107 35.7279 43.2107 35.2727C43.2485 34.9909 43.351 34.7217 43.5102 34.4861C43.6694 34.2505 43.8809 34.0549 44.1283 33.9147Z" fill="#8A898E"/>
<path d="M35.1358 36.4032L34.3723 35.9628V51.8998L35.1358 52.3402V36.4032Z" fill="#8A898E"/>
<path d="M34.3723 35.9628L57.3051 22.7272L58.0686 23.1677L35.1358 36.4032L34.3723 35.9628Z" fill="#CCCBCD"/>
<path d="M79.9044 66.2284C79.6478 66.1122 79.3652 66.0653 79.0848 66.0926C78.8044 66.1198 78.5361 66.2203 78.3067 66.3838C77.6521 66.8091 77.1063 67.3819 76.7132 68.0564C76.3201 68.7308 76.0906 69.488 76.0432 70.2672C76.0135 70.5473 76.0584 70.8304 76.1734 71.0876C76.2883 71.3448 76.4693 71.5671 76.6979 71.7318L104.78 89.4845C105.335 89.8729 106.173 89.8507 107.088 89.3236C108.008 88.7281 108.775 87.9238 109.325 86.9762C109.876 86.0285 110.194 84.9644 110.256 83.8702C110.256 82.8161 109.868 82.0894 109.246 81.7843L79.9044 66.2284Z" fill="#CCCBCD"/>
<path opacity="0.15" d="M76.0432 70.2894C76.0432 71.7262 77.0474 72.3143 78.2956 71.5986C78.9502 71.1733 79.496 70.6005 79.8891 69.926C80.2822 69.2516 80.5116 68.4944 80.5591 67.7152C80.5591 66.2784 79.5549 65.6903 78.3067 66.406C77.6521 66.8313 77.1063 67.4041 76.7132 68.0785C76.3202 68.753 76.0907 69.5102 76.0432 70.2894Z" fill="black"/>
<path d="M69.8297 62.4948C69.4313 62.7529 69.0994 63.1015 68.8613 63.5122C68.6232 63.9229 68.4855 64.3841 68.4594 64.8581C68.4418 65.0268 68.469 65.1972 68.5381 65.352C68.6073 65.5069 68.716 65.6408 68.8533 65.7402L77.3303 70.6611C77.4841 70.7326 77.6542 70.7616 77.823 70.745C77.9918 70.7284 78.1531 70.6668 78.29 70.5668C78.6927 70.3087 79.0277 69.958 79.267 69.5439C79.5064 69.1298 79.6431 68.6645 79.6658 68.1868C79.6857 68.0171 79.6596 67.8453 79.5903 67.6891C79.521 67.533 79.4111 67.3983 79.272 67.2991L70.795 62.3783C70.6383 62.31 70.4662 62.2848 70.2965 62.3053C70.1268 62.3258 69.9657 62.3912 69.8297 62.4948Z" fill="#545356"/>
<path opacity="0.1" d="M79.3552 70.6777L108.248 88.4304C107.906 88.7855 107.517 89.0933 107.094 89.3458C106.178 89.8729 105.357 89.9006 104.78 89.5067L76.7034 71.754C76.9586 71.872 77.2407 71.9198 77.5206 71.8925C77.8004 71.8652 78.068 71.7638 78.2956 71.5986C78.699 71.3547 79.0574 71.0432 79.3552 70.6777Z" fill="black"/>
<path d="M84.204 45.4023C84.204 45.1637 84.204 44.9362 84.1707 44.7032C84.1374 44.4702 84.1429 44.2428 84.1152 44.0153C84.0875 43.7879 84.0875 43.7157 84.0708 43.566C84.032 43.1665 83.971 42.7782 83.9099 42.4065C83.8767 42.24 83.8489 42.0625 83.8156 41.8961C83.7823 41.7297 83.7491 41.5799 83.7158 41.419C83.6159 40.9918 83.516 40.5702 83.394 40.1707C83.3274 39.9821 83.2719 39.788 83.2054 39.616C83.1944 39.587 83.1851 39.5573 83.1776 39.5272C83.1055 39.3386 83.0445 39.1611 82.9724 38.9724C82.8974 38.7686 82.8122 38.5686 82.7172 38.3733C82.6566 38.2272 82.5881 38.0846 82.5119 37.9461C82.4722 37.8415 82.422 37.7411 82.3621 37.6465C82.3066 37.5245 82.2401 37.4024 82.1735 37.2859L82.1236 37.2027C82.0681 37.0973 82.0015 36.9974 81.9405 36.892C81.8795 36.7866 81.8517 36.7589 81.8129 36.6923C81.5138 36.2241 81.18 35.7791 80.8143 35.3609C80.7477 35.2943 80.6867 35.2222 80.6257 35.1556C80.5647 35.089 80.5203 35.0446 80.4703 34.9892L80.2651 34.7895C80.0761 34.5913 79.8741 34.4059 79.6604 34.2347C79.5636 34.1491 79.4617 34.0694 79.3552 33.9961C79.2498 33.9129 79.1444 33.8352 79.0335 33.7631C78.8684 33.6401 78.6961 33.5271 78.5175 33.4247L78.3789 33.3359H78.3511L72.2486 29.7909L72.2042 29.7632C70.6248 28.8824 68.842 28.431 67.0337 28.4539C64.3375 28.4539 61.2974 29.3416 58.0742 31.2001C46.9787 37.5911 38.0247 53.1358 38.0247 65.9289C38.0247 72.3032 40.2438 76.7858 43.8609 78.8884H43.8942L49.9967 82.4278H50.03L50.1298 82.4833C50.2907 82.572 50.446 82.6553 50.6069 82.7329C50.7678 82.8106 51.0064 82.916 51.2116 82.9992C51.4169 83.0824 51.5778 83.1435 51.7664 83.1989C51.8638 83.2361 51.964 83.2658 52.066 83.2877C52.1681 83.3293 52.274 83.3609 52.3822 83.382L52.7095 83.4652C52.7878 83.4872 52.8675 83.5038 52.9481 83.5152L53.3808 83.5928H53.4806L54.0021 83.6594C56.9924 83.9756 60.4652 83.1324 64.1822 80.9909C75.2777 74.5944 84.2317 59.0441 84.2317 46.2622C84.2206 45.9959 84.2151 45.7074 84.204 45.4023ZM70.7729 36.3595C71.207 37.95 71.4198 39.5928 71.4054 41.2415C71.4054 52.52 63.1503 66.8109 53.3863 72.4474C51.9609 73.2961 50.4216 73.9368 48.815 74.3503C48.3806 72.7579 48.1677 71.1133 48.1826 69.4628C48.1826 58.1842 56.432 43.8933 66.2016 38.2568C67.6267 37.4088 69.1662 36.7698 70.7729 36.3595Z" fill="#CCCBCD"/>
<path opacity="0.1" d="M49.7081 82.2891L43.8276 78.8828C40.2215 76.7747 37.9913 72.2866 37.9913 65.9233C37.9913 60.2202 39.7777 53.9735 42.7347 48.2316L48.8372 51.7766C45.8747 57.5129 44.0883 63.7652 44.0883 69.4683C44.1105 75.7039 46.2131 80.1255 49.7081 82.2891Z" fill="black"/>
<path opacity="0.4" d="M84.2039 45.4022C84.2039 45.1637 84.2039 44.9362 84.1706 44.7032C84.1373 44.4702 84.1428 44.2428 84.1151 44.0153C84.0874 43.7879 84.0874 43.7157 84.0707 43.566C84.0319 43.1665 83.9709 42.7782 83.9098 42.4065C83.8766 42.24 83.8488 42.0625 83.8155 41.8961C83.7822 41.7297 83.749 41.5799 83.7157 41.419C83.6158 40.9918 83.5159 40.5702 83.3939 40.1707C83.3273 39.9821 83.2718 39.788 83.2053 39.616C83.1943 39.587 83.185 39.5573 83.1775 39.5272C83.1054 39.3386 83.0444 39.1611 82.9723 38.9724C82.8973 38.7686 82.8121 38.5686 82.7171 38.3733C82.6565 38.2272 82.588 38.0846 82.5118 37.9461C82.4721 37.8415 82.4219 37.7411 82.362 37.6465C82.3065 37.5245 82.24 37.4024 82.1734 37.2859L82.1235 37.2027C82.068 37.0973 82.0014 36.9974 81.9404 36.892C81.8794 36.7866 81.8516 36.7589 81.8128 36.6923C81.5137 36.2241 81.1799 35.7791 80.8142 35.3609C80.7476 35.2943 80.6866 35.2222 80.6256 35.1556C80.5646 35.089 80.5202 35.0446 80.4702 34.9892L80.265 34.7894C80.076 34.5913 79.874 34.4059 79.6603 34.2347C79.5635 34.1491 79.4616 34.0694 79.3551 33.9961C79.2497 33.9129 79.1443 33.8352 79.0334 33.7631C78.8683 33.6401 78.696 33.5271 78.5174 33.4247C74.8781 31.2056 69.6411 31.2611 64.171 34.7173C53.181 41.6409 44.1714 56.9915 44.116 69.4461C44.0882 75.9259 46.4127 80.4473 50.1242 82.5055C50.285 82.5942 50.4404 82.6775 50.6013 82.7551C50.7621 82.8328 51.0007 82.9382 51.206 83.0214C51.4112 83.1046 51.5721 83.1657 51.7607 83.2211C51.8582 83.2583 51.9583 83.288 52.0603 83.3099C52.1624 83.3515 52.2683 83.383 52.3765 83.4042L52.7039 83.4874C52.7822 83.5094 52.8619 83.526 52.9424 83.5374L53.3751 83.615H53.475L53.9965 83.6816C56.9867 83.9978 60.4596 83.1546 64.1766 81.0131C75.272 74.6166 84.226 59.0663 84.226 46.2843C84.2205 45.9959 84.215 45.7074 84.2039 45.4022ZM62.135 77.5236C59.6496 78.9605 57.2585 79.715 55.2114 79.715C51.3724 79.715 49.6082 77.0964 48.8149 74.3503C48.3805 72.7579 48.1676 71.1133 48.1824 69.4628C48.1824 58.1842 56.4319 43.8933 66.2015 38.2568C67.6266 37.4088 69.1661 36.7698 70.7728 36.3595C71.5429 36.1709 72.3322 36.0722 73.1251 36.0654C79.4717 36.0654 80.1485 43.2331 80.1485 46.3176C80.1485 57.5962 71.9046 71.8871 62.135 77.5236Z" fill="white"/>
<path opacity="0.1" d="M80.1486 46.3176C80.1486 57.5906 71.9047 71.8871 62.1351 77.5236C59.6497 78.9605 57.2587 79.715 55.2171 79.715C54.3247 79.7508 53.4359 79.5831 52.618 79.2246C51.8 78.8661 51.0744 78.3261 50.496 77.6456C50.3961 77.5291 50.3018 77.4071 50.2075 77.285C50.1132 77.163 50.0244 77.0354 49.9467 76.9023C49.8842 76.8112 49.8268 76.7168 49.7748 76.6193C49.7359 76.5583 49.6971 76.4973 49.6638 76.4362C49.6305 76.3752 49.5861 76.2809 49.5418 76.2033C49.4974 76.1256 49.4696 76.059 49.4363 75.9869C49.4031 75.9148 49.3642 75.8426 49.3309 75.765L49.1645 75.3655C49.0979 75.1991 49.0369 75.0327 48.9814 74.8607C48.926 74.6887 48.8649 74.5223 48.8206 74.3503C50.4271 73.9368 51.9665 73.2961 53.3919 72.4474C63.1559 66.8109 71.4109 52.52 71.4109 41.2415C71.4253 39.5928 71.2125 37.95 70.7785 36.3595C71.5485 36.1709 72.3379 36.0722 73.1307 36.0654C73.4403 36.0665 73.7496 36.085 74.0572 36.1209L74.3456 36.1653C79.555 37.0307 80.1486 43.4439 80.1486 46.3176Z" fill="black"/>
<path opacity="0.7" d="M76.6424 44.3315C76.6424 55.6101 68.3984 69.901 58.6289 75.5375C56.1435 76.9744 53.7524 77.7566 51.7053 77.7566C51.2982 77.7583 50.8917 77.7249 50.4903 77.6568C50.3905 77.5403 50.2962 77.4182 50.2019 77.2962C50.1076 77.1741 50.0188 77.0465 49.9411 76.9134C49.8786 76.8223 49.8211 76.7279 49.7692 76.6304C49.7303 76.5694 49.6915 76.5084 49.6582 76.4474C49.6249 76.3863 49.5805 76.292 49.5361 76.2143C49.4918 76.1367 49.464 76.0701 49.4307 75.998C49.3974 75.9259 49.3586 75.8537 49.3253 75.7761L49.1589 75.3766C49.0923 75.2102 49.0313 75.0438 48.9758 74.8718C48.9204 74.6998 48.8593 74.5334 48.8149 74.3614C50.4215 73.9479 51.9608 73.3072 53.3863 72.4585C63.1503 66.822 71.4053 52.5311 71.4053 41.2526C71.4197 39.6039 71.2069 37.9611 70.7728 36.3705C71.5429 36.182 72.3323 36.0833 73.1251 36.0765C73.4347 36.0776 73.744 36.0961 74.0516 36.132L74.34 36.1764C76.3483 38.5286 76.6424 42.3177 76.6424 44.3315Z" fill="white"/>
</svg>
