<svg width="73" height="72" viewBox="0 0 73 72" fill="none" xmlns="http://www.w3.org/2000/svg">
<path d="M44.9593 30.0215L41.5135 28.0286L48.1778 22.3457L51.6214 24.3343L44.9593 30.0215Z" fill="#CCCBCD"/>
<path d="M47.0744 31.335C45.3129 30.0857 42.2529 31.0285 39.6644 31.8471C39.0408 32.0614 38.4772 32.2414 37.9694 32.3978C37.8053 32.7769 37.7186 33.1849 37.7144 33.5978C37.7144 35.6035 39.4158 35.0571 43.1144 33.84C44.3609 33.4121 45.6372 33.0762 46.9329 32.835C47.0465 33.855 47.7558 34.7828 50.5201 33.3257L47.0744 31.335Z" fill="#8A898E"/>
<path d="M38.5415 57.4564L35.0979 55.4678V51.3985L38.5415 53.3935V57.4564Z" fill="#CCCBCD"/>
<path d="M44.3764 42.0214C44.3764 43.6372 43.1593 45.0793 41.3614 46.1272C38.49 47.7943 37.3735 46.4379 37.1293 45.1093L36.5228 44.7579C37.0107 44.6054 37.4789 44.3961 37.9178 44.1343C39.2785 43.3414 40.305 42.3193 40.7207 41.1686C42.8464 40.47 44.3764 40.1979 44.3764 42.0214Z" fill="#8A898E"/>
<path d="M31.5686 51.9857C31.1879 51.7638 30.7509 51.6574 30.3107 51.6793C30.2422 51.4757 30.18 51.2636 30.1264 51.0364L26.6786 49.0457C27.0193 50.5457 27.705 51.4736 28.6072 51.9879L32.0357 53.9743C32.0357 53.9743 32.6293 52.6779 31.5686 51.9857Z" fill="#CCCBCD"/>
<path d="M43.1143 33.84C39.4157 35.0572 37.7143 35.6036 37.7143 33.5979C37.7186 33.1849 37.8053 32.7769 37.9693 32.3979C35.445 33.1779 34.2707 33.2765 34.2707 31.6093C34.2707 30.3836 35.0979 28.8729 37.3779 27.5379C39.8143 26.1236 41.175 26.4558 41.5136 28.02L48.1779 22.3372C48.15 22.2515 48.1157 22.1743 48.0836 22.0908C48.4986 22 48.8974 21.8469 49.2664 21.6365L46.5193 20.0036C46.4336 19.9479 46.3457 19.8965 46.2557 19.8472L46.215 19.8236C45.4019 19.4306 44.4924 19.2818 43.5964 19.395C42.4064 19.5299 41.2446 19.8495 40.1529 20.3422V20.2693L43.6072 18.2765L40.1614 16.2858L37.8214 17.6422L34.6607 19.4808V23.5522C29.9936 26.9486 27.0772 31.3908 27.0772 36.195C27.0772 38.3829 27.6686 39.6236 28.62 40.2558L28.665 40.2815C28.7464 40.3329 28.8322 40.38 28.9179 40.4229L31.8 42.0472C31.8811 41.6069 31.8203 41.1522 31.6264 40.7486C32.5408 40.629 33.4433 40.4319 34.3243 40.1593C37.8279 39.0986 40.9372 37.4358 40.9372 40.0329C40.9355 40.4227 40.8628 40.809 40.7229 41.1729C42.8486 40.4786 44.3786 40.2065 44.3786 42.03C44.3786 43.6458 43.1614 45.0879 41.3636 46.1358C38.4922 47.8029 37.3779 46.4465 37.1314 45.1179L36.525 44.7665L33.6857 43.125L26.6786 49.0457L30.1222 51.0343C30.2335 51.5433 30.4115 52.0354 30.6514 52.4979C31.9972 52.5193 33.54 52.0693 35.0936 51.3986V53.0443L40.5429 52.3072V48.2358C45.2572 44.7579 48.5164 40.0715 48.5164 35.175C48.5422 34.3392 48.4099 33.5061 48.1264 32.7193C46.5664 32.7536 44.7429 33.3215 43.1143 33.84Z" fill="#8A898E"/>
<path opacity="0.4" d="M43.1143 33.84C39.4157 35.0572 37.7143 35.6036 37.7143 33.5979C37.7186 33.1849 37.8053 32.7769 37.9693 32.3979C35.445 33.1779 34.2707 33.2765 34.2707 31.6093C34.2707 30.3836 35.0979 28.8729 37.3779 27.5379C39.8143 26.1236 41.175 26.4558 41.5136 28.02L48.1779 22.3372C48.15 22.2515 48.1157 22.1743 48.0836 22.0908C48.4986 22 48.8974 21.8469 49.2664 21.6365L46.5193 20.0036C46.4336 19.9479 46.3457 19.8965 46.2557 19.8472L46.215 19.8236C45.4019 19.4306 44.4924 19.2818 43.5964 19.395C42.4064 19.5299 41.2446 19.8495 40.1529 20.3422V20.2693L43.6072 18.2765L40.1614 16.2858L37.8214 17.6422L34.6607 19.4808V23.5522C29.9936 26.9486 27.0772 31.3908 27.0772 36.195C27.0772 38.3829 27.6686 39.6236 28.62 40.2558L28.665 40.2815C28.7464 40.3329 28.8322 40.38 28.9179 40.4229L31.8 42.0472C31.8811 41.6069 31.8203 41.1522 31.6264 40.7486C32.5408 40.629 33.4433 40.4319 34.3243 40.1593C37.8279 39.0986 40.9372 37.4358 40.9372 40.0329C40.9355 40.4227 40.8628 40.809 40.7229 41.1729C42.8486 40.4786 44.3786 40.2065 44.3786 42.03C44.3786 43.6458 43.1614 45.0879 41.3636 46.1358C38.4922 47.8029 37.3779 46.4465 37.1314 45.1179L36.525 44.7665L33.6857 43.125L26.6786 49.0457L30.1222 51.0343C30.2335 51.5433 30.4115 52.0354 30.6514 52.4979C31.9972 52.5193 33.54 52.0693 35.0936 51.3986V53.0443L40.5429 52.3072V48.2358C45.2572 44.7579 48.5164 40.0715 48.5164 35.175C48.5422 34.3392 48.4099 33.5061 48.1264 32.7193C46.5664 32.7536 44.7429 33.3215 43.1143 33.84Z" fill="white"/>
<path d="M48.1265 32.7192C46.5665 32.7535 44.7429 33.3214 43.1144 33.8399C39.4158 35.0571 37.7143 35.6035 37.7143 33.5978C37.7186 33.1848 37.8053 32.7768 37.9693 32.3978C38.3636 31.4614 39.2443 30.4542 40.8279 29.5349C43.2579 28.1228 44.6186 28.4635 44.9593 30.0214L51.6215 24.3342C50.9786 22.4056 49.6929 21.4114 47.7643 21.3706C46.6072 21.3406 45.2143 21.6621 43.6072 22.3414V18.2699L40.1636 20.2714L38.1151 21.4628V25.5342C33.4458 28.9371 30.5272 33.3771 30.5272 38.1771C30.4986 39.0677 30.6396 39.9556 30.9429 40.7935C31.9736 43.3649 34.8001 43.0156 37.7722 42.1414C38.8158 41.8285 39.8293 41.4599 40.7315 41.1664C42.8572 40.4721 44.3872 40.1999 44.3872 42.0235C44.3872 43.6392 43.1701 45.0814 41.3722 46.1292C38.5008 47.7964 37.3844 46.4399 37.1401 45.1114L30.1372 51.0406C30.2486 51.5496 30.4265 52.0417 30.6665 52.5042C31.5794 54.2185 33.2079 54.6835 35.1086 54.4328C36.2982 54.2461 37.4568 53.8979 38.5522 53.3978V57.4692L43.9972 54.3256V50.2242C48.7115 46.7506 51.9708 42.0642 51.9708 37.1656C51.9643 33.6406 50.2908 32.6699 48.1265 32.7192Z" fill="#CCCBCD"/>
<g opacity="0.25">
<path d="M48.1265 32.7192C46.5665 32.7535 44.7429 33.3214 43.1144 33.8399C39.4158 35.0571 37.7143 35.6035 37.7143 33.5978C37.7186 33.1848 37.8053 32.7768 37.9693 32.3978C38.3636 31.4614 39.2443 30.4542 40.8279 29.5349C43.2579 28.1228 44.6186 28.4635 44.9593 30.0214L51.6215 24.3342C50.9786 22.4056 49.6929 21.4114 47.7643 21.3706C46.6072 21.3406 45.2143 21.6621 43.6072 22.3414V18.2699L40.1636 20.2714L38.1151 21.4628V25.5342C33.4458 28.9371 30.5272 33.3771 30.5272 38.1771C30.4986 39.0677 30.6396 39.9556 30.9429 40.7935C31.9736 43.3649 34.8001 43.0156 37.7722 42.1414C38.8158 41.8285 39.8293 41.4599 40.7315 41.1664C42.8572 40.4721 44.3872 40.1999 44.3872 42.0235C44.3872 43.6392 43.1701 45.0814 41.3722 46.1292C38.5008 47.7964 37.3844 46.4399 37.1401 45.1114L30.1372 51.0406C30.2486 51.5496 30.4265 52.0417 30.6665 52.5042C31.5794 54.2185 33.2079 54.6835 35.1086 54.4328C36.2982 54.2461 37.4568 53.8979 38.5522 53.3978V57.4692L43.9972 54.3256V50.2242C48.7115 46.7506 51.9708 42.0642 51.9708 37.1656C51.9643 33.6406 50.2908 32.6699 48.1265 32.7192Z" fill="white"/>
</g>
<g opacity="0.5">
<path d="M43.9865 50.2242C44.715 49.6242 45.4479 49.0328 46.1165 48.3664C46.4636 48.0514 46.7807 47.7042 47.1129 47.3721C47.2714 47.2007 47.4257 47.0228 47.5822 46.8471C47.7386 46.6714 47.895 46.4978 48.0386 46.3135C48.6376 45.5928 49.1874 44.8325 49.6843 44.0378C50.1711 43.2413 50.5891 42.4047 50.9336 41.5371C51.2754 40.6699 51.5253 39.7693 51.6793 38.85L51.7672 38.1578C51.7929 37.9264 51.7929 37.6928 51.8079 37.4592C51.8079 37.3435 51.8229 37.2278 51.8207 37.11V36.7628C51.8207 36.5292 51.795 36.3 51.7779 36.0664C51.7342 35.6068 51.6297 35.1549 51.4672 34.7228C51.3061 34.2929 51.0514 33.9042 50.7215 33.585C50.3829 33.2676 49.9727 33.0368 49.5257 32.9121C49.0727 32.7866 48.6051 32.7217 48.135 32.7192C48.6093 32.686 49.0858 32.7228 49.5493 32.8285C50.0233 32.9364 50.4643 33.1569 50.835 33.4714C51.1956 33.7978 51.4788 34.2004 51.6643 34.65C51.8484 35.0958 51.9724 35.5642 52.0329 36.0428C52.0586 36.2807 52.0972 36.5185 52.0993 36.7585C52.1122 36.9969 52.1122 37.2358 52.0993 37.4742C52.0865 37.7121 52.0993 37.9521 52.065 38.19L51.9814 38.9014C51.8346 39.8455 51.5882 40.7713 51.2465 41.6635C50.8863 42.5453 50.4504 43.3942 49.9436 44.2007C49.8236 44.415 49.68 44.5971 49.5493 44.7964C49.4186 44.9957 49.2836 45.1885 49.1357 45.375L48.7072 45.9428L48.2422 46.4807C46.9856 47.9014 45.5558 49.1591 43.9865 50.2242Z" fill="white"/>
</g>
<g opacity="0.5">
<path d="M38.1042 25.5343L37.2471 26.25C36.9685 26.5007 36.6835 26.7429 36.4114 26.9979C35.865 27.5057 35.34 28.0265 34.8385 28.5857C33.844 29.6869 32.9811 30.9 32.2671 32.2007C31.565 33.507 31.0706 34.9146 30.8014 36.3729C30.7714 36.5572 30.75 36.7415 30.7242 36.9236C30.6947 37.1067 30.6747 37.2913 30.6642 37.4765C30.645 37.8472 30.6128 38.22 30.6235 38.5907C30.6113 39.3373 30.722 40.0809 30.9514 40.7915C30.6544 40.0941 30.4825 39.3499 30.4435 38.5929C30.4157 38.2157 30.4435 37.8386 30.4435 37.4615C30.4467 37.2724 30.4596 37.0835 30.4821 36.8957C30.5014 36.7072 30.5142 36.5186 30.5378 36.3322C30.7622 34.8319 31.2451 33.3818 31.965 32.0465C32.6944 30.7211 33.5981 29.4995 34.6521 28.4143C35.1759 27.8748 35.7266 27.362 36.3021 26.8779C36.5914 26.6379 36.8935 26.415 37.1892 26.1836C37.485 25.9522 37.7957 25.7486 38.1042 25.5343Z" fill="white"/>
</g>
<path d="M38.1021 25.5365L34.6564 23.5457V19.4807L38.1021 21.4715V25.5365Z" fill="#CCCBCD"/>
<path d="M38.4223 12.3892C43.3552 9.54176 47.7466 9.28292 50.6309 11.1538L47.099 16.7663C46.3809 17.9429 46.8165 18.8843 47.829 18.4019L57.3416 13.86C57.8391 13.601 58.2642 13.2224 58.5787 12.7581C58.8932 12.2939 59.087 11.7587 59.1428 11.2008L59.1428 0.693493C59.1428 -0.377247 57.836 -0.165478 57.0708 1.03469L54.3512 5.3294C50.5014 3.07026 44.8151 3.51741 38.4459 7.18851C28.4742 12.9423 20.1271 24.7322 18.0315 35.2748C17.8549 36.1102 18.4436 36.4514 19.2088 36.0396L22.0696 34.3923C22.6438 34.0467 23.0648 33.4956 23.2469 32.8509C25.5023 24.3423 30.9327 17.0202 38.4223 12.3892Z" fill="#CCCBCD"/>
<path d="M38.7205 59.6108C33.7876 62.4582 29.3963 62.7171 26.5119 60.8462L30.0438 55.2337C30.7619 54.0571 30.3263 53.1157 29.3139 53.5981L19.8013 58.14C19.3038 58.399 18.8786 58.7776 18.5641 59.2419C18.2497 59.7061 18.0558 60.2413 18 60.7992V71.3065C18 72.3772 19.3068 72.1655 20.072 70.9653L22.7916 66.6706C26.6414 68.9297 32.3277 68.4826 38.6969 64.8115C48.6687 59.0577 57.0157 47.2678 59.1113 36.7252C59.2879 35.8898 58.6993 35.5486 57.934 35.9604L55.0732 37.6077C54.499 37.9533 54.0781 38.5044 53.8959 39.1491C51.6405 47.6577 46.2101 54.9798 38.7205 59.6108Z" fill="#CCCBCD"/>
</svg>
