<svg width="73" height="72" viewBox="0 0 73 72" fill="none" xmlns="http://www.w3.org/2000/svg">
<path d="M53.685 0.505802L13.355 23.3885C12.4462 23.9197 11.6919 24.6768 11.166 25.5855C10.64 26.4942 10.3606 27.5233 10.355 28.5719V66.2189C10.3813 67.259 10.6836 68.2737 11.2313 69.16C11.7789 70.0464 12.5525 70.7729 13.4734 71.2659C14.3943 71.7589 15.4299 72.0008 16.4751 71.9671C17.5204 71.9334 18.538 71.6253 19.425 71.074L30.925 64.6271L31.405 65.4031C31.4267 65.4313 31.4539 65.455 31.485 65.4727H31.545C32.425 66.0498 33.975 66.8855 34.325 67.0546C34.4059 67.0804 34.4937 67.074 34.5701 67.037C34.6465 66.9999 34.7055 66.935 34.735 66.8556L36.735 61.2942L59.735 48.1913C60.6506 47.6654 61.4103 46.9081 61.9371 45.9961C62.4639 45.0841 62.7392 44.0498 62.735 42.998V5.34101C62.765 1.053 56.395 -1.03629 53.685 0.505802Z" fill="#CCCBCD"/>
<path opacity="0.2" d="M31.395 65.4429C31.4167 65.4712 31.4439 65.4948 31.475 65.5125H31.535C32.415 66.0896 33.965 66.9253 34.315 67.0944C34.2739 67.0859 34.235 67.0691 34.2006 67.0452C34.1662 67.0213 34.1371 66.9906 34.115 66.9551L32.215 63.8809L32.585 63.672L30.915 64.6669L31.395 65.4429Z" fill="white"/>
<path opacity="0.4" d="M17.095 29.0594C17.4847 28.2906 18.0334 27.6126 18.705 27.0696C18.9345 26.8846 19.1787 26.7182 19.435 26.5721L59.755 3.68944C60.0596 3.51446 60.4052 3.42251 60.757 3.42286C61.1087 3.4232 61.4542 3.51584 61.7584 3.69142C62.0627 3.867 62.3151 4.11931 62.49 4.4229C62.665 4.72649 62.7564 5.07062 62.755 5.42057C62.755 1.11266 56.375 -0.976635 53.675 0.565459L13.345 23.4481C12.4087 23.9848 11.6376 24.7657 11.115 25.7066L17.095 29.0594Z" fill="white"/>
<path opacity="0.2" d="M16.395 69.3926V31.7456C16.3798 31.5104 16.3798 31.2744 16.395 31.0392C16.4957 30.3465 16.7085 29.6745 17.025 29.0494L11.025 25.6767C10.5168 26.5689 10.2481 27.5762 10.245 28.6017V66.2487C10.2713 67.2888 10.5736 68.3035 11.1213 69.1899C11.669 70.0762 12.4425 70.8027 13.3634 71.2957C14.2844 71.7887 15.3199 72.0306 16.3652 71.9969C17.4104 71.9632 18.4281 71.6551 19.315 71.1038C19.0143 71.259 18.6789 71.3356 18.3403 71.3265C18.0017 71.3174 17.671 71.2229 17.3792 71.0519C17.0873 70.8809 16.8439 70.6389 16.6718 70.3487C16.4996 70.0584 16.4044 69.7295 16.395 69.3926Z" fill="white"/>
<path d="M49 39.4192L33 48.7501V40.7874C33 35.2528 36.331 28.821 40.4448 26.421L41.5552 25.7761C45.6634 23.3761 49 25.9219 49 31.4565V39.4192Z" fill="#F7F7F7"/>
<path d="M53 42.1413L29 55.7144L32.8125 47.0663L49.1875 37.8062L53 42.1413Z" fill="#F7F7F7"/>
<path d="M41.0022 28.6896C40.4479 29.068 40 28.7632 40 28.0064V25.1001C40.0193 24.6884 40.1201 24.2879 40.2942 23.9309C40.4683 23.5739 40.7108 23.2705 41.0022 23.0452C41.5521 22.6668 42 22.9716 42 23.7284V26.6399C41.9805 27.0503 41.8801 27.4494 41.7068 27.8054C41.5335 28.1614 41.2922 28.4642 41.0022 28.6896Z" fill="#F7F7F7"/>
<path d="M38 51.9046C38.0626 53.5537 39.1575 54.203 40.5026 53.3469C41.2074 52.8389 41.7984 52.1613 42.231 51.365C42.6636 50.5688 42.9266 49.6746 43 48.7501L38 51.9046Z" fill="#F7F7F7"/>
<path d="M27.5478 40.0507C27.4788 40.0549 27.4097 40.0413 27.3471 40.0113C27.2844 39.9812 27.2301 39.9356 27.1891 39.8787C25.764 37.9362 25.1523 35.498 25.4885 33.1004C25.8248 30.7028 27.0814 28.5422 28.9821 27.0937C29.0712 27.0262 29.183 26.9976 29.2929 27.0142C29.4029 27.0308 29.502 27.0913 29.5685 27.1823C29.6349 27.2733 29.6633 27.3875 29.6473 27.4996C29.6313 27.6117 29.5722 27.7126 29.4832 27.7801C27.7628 29.0953 26.6264 31.0546 26.3238 33.2275C26.0212 35.4005 26.577 37.6094 27.8691 39.369C27.9359 39.4596 27.9646 39.5735 27.9492 39.6856C27.9337 39.7976 27.8752 39.8987 27.7866 39.9666C27.7173 40.0188 27.634 40.0481 27.5478 40.0507Z" fill="white"/>
<path d="M29.2533 38.7449C29.1847 38.7481 29.1164 38.7341 29.0543 38.704C28.9923 38.674 28.9383 38.6289 28.8973 38.5727C27.8125 37.093 27.3469 35.2362 27.6026 33.4101C27.8584 31.5841 28.8146 29.9382 30.2612 28.834C30.3053 28.8004 30.3555 28.7759 30.4089 28.7621C30.4623 28.7483 30.5179 28.7454 30.5725 28.7534C30.627 28.7615 30.6795 28.7805 30.727 28.8093C30.7744 28.838 30.8159 28.876 30.8489 28.9211C30.882 28.9661 30.9061 29.0174 30.9198 29.0719C30.9335 29.1264 30.9365 29.183 30.9287 29.2387C30.921 29.2943 30.9025 29.3478 30.8744 29.3961C30.8463 29.4444 30.8092 29.4866 30.7651 29.5202C29.4952 30.4876 28.6555 31.9309 28.4306 33.5326C28.2057 35.1342 28.6142 36.7631 29.566 38.0608C29.6328 38.1515 29.6616 38.2653 29.6461 38.3774C29.6306 38.4895 29.5721 38.5905 29.4835 38.6585C29.4167 38.7095 29.3367 38.7395 29.2533 38.7449Z" fill="white"/>
<path d="M30.9617 37.4418C30.8933 37.4458 30.825 37.4324 30.7629 37.4029C30.7008 37.3733 30.6468 37.3285 30.6058 37.2725C30.2361 36.7689 29.9673 36.1961 29.8146 35.5871C29.6619 34.978 29.6284 34.3445 29.7161 33.7228C29.8037 33.1011 30.0107 32.5035 30.3252 31.9642C30.6397 31.4248 31.0556 30.9542 31.5491 30.5795C31.638 30.5162 31.7477 30.4907 31.8549 30.5084C31.9621 30.526 32.0585 30.5854 32.1238 30.674C32.1891 30.7626 32.2182 30.8735 32.205 30.9834C32.1917 31.0932 32.1372 31.1934 32.0528 31.2629C31.6481 31.5712 31.3072 31.9581 31.0495 32.4013C30.7917 32.8445 30.6223 33.3353 30.5508 33.8458C30.4793 34.3563 30.5072 34.8764 30.6328 35.3765C30.7584 35.8765 30.9793 36.3467 31.2829 36.7601C31.3489 36.851 31.3773 36.9647 31.3619 37.0765C31.3464 37.1884 31.2884 37.2894 31.2004 37.3578C31.1311 37.4099 31.0478 37.4392 30.9617 37.4418Z" fill="white"/>
<path d="M54.0394 25.2428C54.1071 25.2284 54.1774 25.2317 54.2439 25.2522C54.3103 25.2727 54.3708 25.3098 54.4198 25.3601C56.1179 27.0716 57.0851 29.393 57.1088 31.8137C57.1325 34.2345 56.2107 36.5562 54.5462 38.2683C54.4681 38.3482 54.3618 38.3929 54.2505 38.3926C54.1393 38.3924 54.0323 38.3472 53.9531 38.2669C53.8738 38.1867 53.8288 38.078 53.828 37.9647C53.8272 37.8515 53.8705 37.743 53.9486 37.6631C55.4547 36.1094 56.2874 34.0045 56.2639 31.8109C56.2403 29.6173 55.3624 27.5144 53.823 25.9642C53.7435 25.8844 53.6981 25.776 53.6968 25.6629C53.6954 25.5498 53.7382 25.4412 53.8158 25.361C53.8766 25.2992 53.9546 25.258 54.0394 25.2428Z" fill="white"/>
<path d="M52.5468 26.785C52.6141 26.7718 52.6837 26.7756 52.7496 26.7962C52.8154 26.8167 52.8755 26.8534 52.9244 26.9029C54.2171 28.2069 54.9536 29.9748 54.9719 31.8184C54.9903 33.6619 54.2892 35.4304 53.0225 36.7353C52.9839 36.775 52.9379 36.8065 52.8871 36.8281C52.8363 36.8496 52.7818 36.8607 52.7267 36.8607C52.6715 36.8607 52.6167 36.8497 52.5655 36.8282C52.5143 36.8068 52.4677 36.7753 52.4283 36.7356C52.3889 36.6959 52.3575 36.6487 52.3358 36.5969C52.3142 36.545 52.3027 36.4894 52.3022 36.4332C52.3016 36.377 52.3119 36.3214 52.3325 36.2695C52.3531 36.2176 52.3836 36.1704 52.4222 36.1307C53.5344 34.9871 54.1504 33.4362 54.1349 31.8191C54.1193 30.202 53.4733 28.6511 52.3391 27.5076C52.2596 27.4277 52.2142 27.3194 52.2129 27.2062C52.2115 27.0931 52.2543 26.9846 52.3319 26.9043C52.3904 26.844 52.4651 26.8026 52.5468 26.785Z" fill="white"/>
<path d="M51.0508 28.3251C51.1178 28.311 51.1873 28.3142 51.2531 28.3343C51.3189 28.3544 51.379 28.3908 51.4278 28.4402C51.8683 28.8839 52.2193 29.4108 52.4608 29.9907C52.7023 30.5707 52.8295 31.1923 52.8353 31.82C52.841 32.4477 52.7251 33.0692 52.4941 33.6489C52.2632 34.2286 51.9218 34.7551 51.4894 35.1984C51.4109 35.274 51.3062 35.3153 51.1976 35.3137C51.0889 35.312 50.9847 35.2674 50.907 35.1894C50.8292 35.1114 50.7839 35.0059 50.7807 34.8954C50.7775 34.7848 50.8166 34.6776 50.8897 34.5966C51.2441 34.2321 51.5238 33.7993 51.7129 33.3231C51.9019 32.8469 51.9966 32.3365 51.9914 31.8211C51.9863 31.3057 51.8814 30.7954 51.6829 30.3193C51.4844 29.8432 51.196 29.4107 50.8343 29.0465C50.7555 28.9663 50.7106 28.858 50.7092 28.7452C50.7079 28.6323 50.7502 28.5238 50.8271 28.4433C50.8879 28.3815 50.9659 28.3403 51.0508 28.3251Z" fill="white"/>
</svg>
