<svg width="60" height="146" viewBox="0 0 60 146" fill="none" xmlns="http://www.w3.org/2000/svg">
<path d="M51.9122 1.46119L3.17256 29.6191C2.40142 30.0635 1.75547 30.6961 1.29507 31.4579C0.834665 32.2197 0.574824 33.0858 0.539822 33.9753V139.843C0.539822 141.63 1.64181 143.714 2.99955 144.5C4.3573 145.286 6.71172 145.196 8.26504 144.304L56.8166 116.267C57.6297 115.735 58.3065 115.019 58.7925 114.178C59.2786 113.336 59.5602 112.392 59.6148 111.422V5.91905C59.6148 4.13591 58.5128 2.05181 57.1513 1.26558C55.7898 0.479337 53.458 0.569623 51.9122 1.46119Z" fill="#CCCBCD"/>
<path d="M7.61438 144.639C6.10995 145.222 4.19933 145.192 3.02588 144.515C1.66814 143.729 0.566151 141.645 0.566151 139.858V33.9603C0.594812 33.1133 0.838109 32.2874 1.27323 31.5602L5.80531 34.1333C5.02111 35.0459 4.56206 36.1931 4.50022 37.3949V142.13C4.48141 144.278 5.83916 145.298 7.61438 144.639Z" fill="#E2E1E2"/>
<path d="M6.93363 33.1101C6.21648 33.5803 5.61964 34.2122 5.19113 34.9551C4.76261 35.698 4.51437 36.5311 4.46637 37.3874V142.13C4.46637 144.541 6.17389 145.516 8.26128 144.323L56.8204 116.282C57.6335 115.75 58.3103 115.034 58.7963 114.193C59.2823 113.351 59.564 112.407 59.6186 111.437V5.91905C59.6186 4.14343 58.3586 3.41362 56.8204 4.30519L6.93363 33.1101Z" fill="#E2E1E2"/>
<path d="M9.47987 40.0207C8.70594 40.5251 8.06182 41.2049 7.5998 42.0049C7.13779 42.805 6.87089 43.7027 6.82079 44.6253V133.722C6.82079 135.419 8.01305 136.107 9.47987 135.261L55.158 108.879C55.9311 108.373 56.5746 107.692 57.0365 106.891C57.4984 106.091 57.7657 105.193 57.817 104.27V15.1733C57.817 13.4842 56.621 12.7958 55.158 13.6385L9.47987 40.0207Z" fill="#CCCBCD"/>
<path d="M54.4509 102.055V14.0485L9.47987 40.0057C8.70594 40.51 8.06182 41.1898 7.5998 41.9899C7.13779 42.7899 6.87089 43.6877 6.82079 44.6102V132.639L51.7918 106.682C52.567 106.173 53.2117 105.49 53.6737 104.686C54.1356 103.882 54.4019 102.98 54.4509 102.055Z" fill="#CCCBCD"/>
<path opacity="0.6" d="M54.4509 102.055V14.0485L9.47987 40.0057C8.70594 40.51 8.06182 41.1898 7.5998 41.9899C7.13779 42.7899 6.87089 43.6877 6.82079 44.6102V132.639L51.7918 106.682C52.567 106.173 53.2117 105.49 53.6737 104.686C54.1356 103.882 54.4019 102.98 54.4509 102.055Z" fill="#8A898E"/>
<path d="M28.5108 24.3223L36.6084 19.6462C37.0898 19.3679 37.481 19.5635 37.481 20.0902C37.4592 20.3836 37.3689 20.6678 37.2174 20.92C37.0659 21.1722 36.8573 21.3853 36.6084 21.5422L28.5108 26.2333C28.0294 26.5155 27.6383 26.3161 27.6383 25.7932C27.6571 25.4965 27.7461 25.2085 27.8977 24.9528C28.0494 24.6971 28.2595 24.4811 28.5108 24.3223Z" fill="black"/>
<path d="M42.4042 16.2869C42.8555 16.0273 43.2241 16.2379 43.2241 16.7609C43.2083 17.0455 43.1259 17.3225 42.9835 17.5695C42.8411 17.8165 42.6426 18.0266 42.4042 18.1829C41.9491 18.4424 41.5843 18.2318 41.5843 17.7089C41.5995 17.424 41.6817 17.1468 41.8242 16.8997C41.9666 16.6527 42.1654 16.4427 42.4042 16.2869Z" fill="black"/>
<path d="M45.6726 14.3946C46.1239 14.1313 46.4925 14.342 46.4925 14.8686C46.477 15.1529 46.3946 15.4294 46.2522 15.6759C46.1097 15.9223 45.9111 16.1316 45.6726 16.2869C45.2212 16.5502 44.8527 16.3395 44.8527 15.8129C44.8682 15.5286 44.9505 15.252 45.093 15.0056C45.2354 14.7592 45.434 14.5498 45.6726 14.3946Z" fill="black"/>
<path d="M19.4316 29.5551C19.8867 29.2918 20.2553 29.5062 20.2553 30.0291C20.24 30.3138 20.1573 30.5908 20.0141 30.8374C19.871 31.0839 19.6713 31.293 19.4316 31.4473C18.9803 31.7107 18.6117 31.5 18.6117 30.9771C18.6266 30.6922 18.7087 30.4149 18.8512 30.1678C18.9937 29.9206 19.1926 29.7107 19.4316 29.5551Z" fill="black"/>
<path d="M22.7301 27.6591C23.1852 27.3995 23.5538 27.6102 23.5538 28.1331C23.5382 28.4179 23.4559 28.695 23.3135 28.942C23.1711 29.189 22.9725 29.3991 22.7338 29.5551C22.2788 29.8184 21.9102 29.604 21.9102 29.0811C21.926 28.7964 22.0084 28.5194 22.1508 28.2724C22.2932 28.0255 22.4917 27.8154 22.7301 27.6591Z" fill="black"/>
<path d="M46.9889 104.263C49.2004 102.984 50.9907 99.8839 50.9907 97.3296C50.9907 94.7752 49.2004 93.7445 46.9889 95.0198C44.7774 96.2951 42.9909 99.3986 42.9909 101.949C42.9909 104.5 44.7812 105.538 46.9889 104.263Z" fill="#F7F7F7"/>
<path fill-rule="evenodd" clip-rule="evenodd" d="M44.721 102.6C44.8527 102.472 45.4732 101.848 45.5898 101.723C45.6491 101.669 45.6946 101.6 45.7227 101.525C45.7508 101.449 45.7607 101.367 45.7515 101.287C45.7515 101.08 45.7327 100.535 45.7327 100.38C45.7313 100.305 45.7463 100.23 45.7769 100.161C45.8074 100.093 45.8527 100.031 45.9095 99.9817C46.2343 99.6155 46.6151 99.3031 47.0378 99.0563C47.3549 98.8749 47.708 98.7657 48.0721 98.7365C48.2 98.7365 48.1962 98.8682 48.1925 98.9999C48.1887 99.1315 48.1925 99.282 48.1925 99.4212C48.1925 99.4626 48.1925 99.4964 48.1925 99.5303C48.2004 99.6037 48.213 99.6766 48.2301 99.7485C48.2489 99.8689 48.3091 99.8952 48.3692 99.899C48.4294 99.9027 48.9936 100.012 49.2268 100.049C49.46 100.087 49.5051 99.9178 49.5577 99.8162C49.6104 99.7146 49.6743 99.6093 49.7345 99.4964C49.8244 99.3176 49.8733 99.121 49.8774 98.9209C49.9347 98.4366 49.8159 97.9479 49.5427 97.544C49.4594 97.4452 49.3536 97.3678 49.2343 97.3183C48.9562 97.2241 48.6563 97.215 48.373 97.292C47.321 97.4791 46.3666 98.0256 45.6726 98.8381C44.4502 100.226 44.5442 100.343 44.4013 100.678C44.1928 101.185 44.1115 101.735 44.1644 102.28C44.2697 102.656 44.4239 102.826 44.4803 102.822C44.5367 102.818 44.5931 102.735 44.721 102.6Z" fill="#545356"/>
<path opacity="0.5" d="M36.2962 110.436C38.504 109.161 40.298 106.057 40.298 103.507C40.298 100.956 38.504 99.9177 36.2962 101.197C34.0885 102.476 32.2945 105.576 32.2945 108.126C32.2945 110.677 34.0885 111.711 36.2962 110.436Z" fill="#545356"/>
<path d="M36.3301 107.28C35.7998 107.588 35.3673 107.261 35.3673 106.55V104.323C35.3725 103.962 35.4623 103.608 35.6296 103.288C35.7968 102.969 36.0368 102.693 36.3301 102.483C36.8604 102.175 37.2929 102.502 37.2929 103.209V105.44C37.2868 105.801 37.1966 106.155 37.0294 106.474C36.8622 106.794 36.6228 107.069 36.3301 107.28Z" fill="#545356"/>
<path d="M35.8712 108.243C35.6578 108.243 35.4487 108.182 35.2695 108.066C35.0482 107.898 34.8734 107.677 34.7616 107.423C34.6497 107.169 34.6044 106.89 34.6301 106.614C34.6301 106.554 34.6539 106.497 34.6962 106.454C34.7385 106.412 34.7959 106.388 34.8558 106.388C34.9156 106.388 34.973 106.412 35.0153 106.454C35.0576 106.497 35.0814 106.554 35.0814 106.614C35.0597 106.814 35.0874 107.017 35.1622 107.203C35.237 107.39 35.3564 107.556 35.5102 107.686C35.619 107.752 35.7433 107.789 35.8706 107.792C35.998 107.795 36.124 107.765 36.2361 107.705C37.5562 107.107 37.6615 105.542 37.6427 104.898C37.6426 104.839 37.6656 104.781 37.707 104.737C37.7483 104.694 37.8047 104.668 37.8646 104.665C37.8941 104.665 37.9233 104.67 37.9507 104.681C37.978 104.692 38.0029 104.708 38.0239 104.729C38.0449 104.75 38.0616 104.774 38.073 104.801C38.0844 104.829 38.0903 104.858 38.0903 104.887C38.1316 106.415 37.5073 107.622 36.4203 108.119C36.248 108.198 36.0609 108.24 35.8712 108.243Z" fill="#545356"/>
<path d="M35.7584 109.319C35.7087 109.319 35.6603 109.302 35.6209 109.272C35.5814 109.242 35.553 109.199 35.5402 109.151C35.5273 109.103 35.5307 109.052 35.5497 109.007C35.5688 108.961 35.6025 108.922 35.6456 108.897L36.7739 108.239C36.7994 108.224 36.8278 108.214 36.8573 108.21C36.8868 108.205 36.9169 108.207 36.9457 108.215C36.9744 108.223 37.0014 108.236 37.0249 108.254C37.0483 108.273 37.0679 108.296 37.0823 108.322C37.1113 108.374 37.1188 108.435 37.1034 108.493C37.0879 108.55 37.0507 108.6 36.9996 108.63L35.8712 109.289C35.8376 109.31 35.7982 109.32 35.7584 109.319Z" fill="#545356"/>
<path opacity="0.5" d="M25.6035 116.613C27.8113 115.338 29.6015 112.234 29.6015 109.68C29.6015 107.126 27.8113 106.095 25.6035 107.37C23.3958 108.645 21.6018 111.749 21.6018 114.303C21.6018 116.858 23.392 117.888 25.6035 116.613Z" fill="#545356"/>
<path d="M25.1071 111.911C24.9858 111.912 24.8664 111.881 24.7611 111.82C24.6345 111.737 24.5327 111.621 24.4665 111.485C24.4003 111.348 24.3721 111.197 24.385 111.046C24.4016 110.691 24.5029 110.345 24.6802 110.038C24.8575 109.73 25.1057 109.47 25.4042 109.277C25.5225 109.175 25.6695 109.113 25.8249 109.098C25.9803 109.084 26.1364 109.118 26.2716 109.196C26.4067 109.274 26.5142 109.392 26.5792 109.534C26.6441 109.676 26.6633 109.835 26.6341 109.988C26.6174 110.343 26.5162 110.689 26.3389 110.996C26.1616 111.304 25.9133 111.564 25.6148 111.756C25.4618 111.851 25.2868 111.904 25.1071 111.911Z" fill="#545356"/>
<path d="M28.9735 109.533C28.9476 109.49 28.906 109.459 28.8575 109.446C28.809 109.434 28.7575 109.441 28.7139 109.465L28.2814 109.718V109.089C28.2804 109.04 28.2603 108.992 28.2253 108.957C28.1902 108.922 28.1429 108.902 28.0934 108.901C28.0435 108.901 27.9957 108.921 27.9604 108.956C27.9251 108.992 27.9053 109.039 27.9053 109.089V109.932L27.281 110.308C27.2457 110.329 27.2182 110.361 27.2027 110.399C27.1873 110.437 27.1847 110.479 27.1953 110.519C27.206 110.558 27.2293 110.593 27.2617 110.619C27.2942 110.644 27.334 110.658 27.375 110.658C27.4082 110.659 27.441 110.649 27.469 110.632L27.9053 110.383V110.94C27.9053 110.99 27.9251 111.038 27.9604 111.073C27.9957 111.108 28.0435 111.128 28.0934 111.128C28.1429 111.127 28.1902 111.107 28.2253 111.072C28.2603 111.037 28.2804 110.99 28.2814 110.94V110.165L28.902 109.789C28.9453 109.764 28.9772 109.724 28.9906 109.676C29.004 109.628 28.9978 109.577 28.9735 109.533Z" fill="#545356"/>
<path d="M27.0892 112.167C26.8733 112.059 26.6324 112.012 26.392 112.031C26.1516 112.049 25.9208 112.133 25.7239 112.272L25.1635 112.595C24.6542 112.922 24.2302 113.365 23.9267 113.889C23.6232 114.412 23.4489 115.001 23.4184 115.605V116.004C23.9712 116.308 24.7235 116.256 25.5584 115.774C26.4485 115.221 27.1836 114.451 27.6947 113.536V113.438C27.7144 113.192 27.6687 112.944 27.5624 112.721C27.4561 112.498 27.2929 112.307 27.0892 112.167Z" fill="#545356"/>
<path opacity="0.5" d="M14.9071 122.79C17.1186 121.511 18.9088 118.408 18.9088 115.857C18.9088 113.306 17.1186 112.272 14.9071 113.547C12.6956 114.822 10.9053 117.926 10.9053 120.477C10.9053 123.027 12.6993 124.065 14.9071 122.79Z" fill="#545356"/>
<path d="M14.9071 120.928C15.6038 120.476 16.1838 119.865 16.5995 119.146C17.0152 118.427 17.2549 117.619 17.2991 116.79C17.2991 115.285 16.2272 114.649 14.9071 115.409C14.2118 115.863 13.633 116.474 13.2174 117.193C12.8019 117.912 12.5613 118.718 12.515 119.547C12.5188 121.075 13.5869 121.692 14.9071 120.928Z" fill="#545356"/>
<path opacity="0.3" d="M14.9071 50.445C17.1186 49.1697 18.9088 46.0661 18.9088 43.5118C18.9088 40.9574 17.1186 39.9267 14.9071 41.202C12.6956 42.4772 10.9053 45.5808 10.9053 48.1351C10.9053 50.6895 12.6993 51.7202 14.9071 50.445Z" fill="#545356"/>
<path d="M14.9071 43.0603C14.2118 43.5141 13.633 44.1251 13.2174 44.8439C12.8019 45.5628 12.5613 46.3694 12.515 47.1984C12.515 48.1051 12.8911 48.7032 13.4779 48.8537L13.2146 50.1741L14.4558 48.8048C14.6193 48.7478 14.7768 48.6747 14.9259 48.5866C15.6226 48.1344 16.2026 47.5238 16.6183 46.8046C17.034 46.0854 17.2738 45.2781 17.3179 44.4485C17.2991 42.9174 16.2272 42.3004 14.9071 43.0603Z" fill="#545356"/>
<path opacity="0.3" d="M25.5998 44.2679C27.8113 42.9926 29.6015 39.8891 29.6015 37.3385C29.6015 34.7879 27.8113 33.7496 25.5998 35.0249C23.3883 36.3002 21.6018 39.4 21.6018 41.9581C21.6018 44.5162 23.392 45.5432 25.5998 44.2679Z" fill="#545356"/>
<path d="M27.4051 36.2588L26.7657 36.635V36.3002C26.7657 36.0858 26.6529 35.9804 26.5137 36.0594L24.6896 37.1128C24.6092 37.1754 24.5445 37.256 24.5008 37.3481C24.457 37.4402 24.4354 37.5412 24.4376 37.6432V37.978L23.7982 38.3542C23.6316 38.4848 23.4977 38.6524 23.4069 38.8437C23.3162 39.035 23.2712 39.2447 23.2754 39.4564V42.7255C23.2754 43.1694 23.5086 43.3914 23.7982 43.2259L27.4051 41.1418C27.5713 41.0108 27.7049 40.8431 27.7956 40.6519C27.8863 40.4607 27.9316 40.2511 27.9279 40.0395V36.7667C27.9279 36.3152 27.6947 36.0895 27.4051 36.2588ZM24.5241 40.8747C24.5096 40.8939 24.4917 40.9105 24.4715 40.9236C24.4188 40.9499 24.3737 40.9236 24.3511 40.8897C24.2672 40.674 24.2263 40.444 24.2308 40.2126C24.2308 39.2044 24.8476 38.0307 25.5998 37.5792C25.6741 37.5371 25.7522 37.5018 25.833 37.4739L25.6111 37.3272C25.5809 37.2926 25.5616 37.2499 25.5555 37.2044C25.5495 37.1589 25.5571 37.1126 25.5772 37.0714C25.6186 36.9698 25.6938 36.9171 25.7465 36.951L26.2504 37.2858C26.2676 37.3015 26.2812 37.3207 26.2903 37.3421C26.2994 37.3635 26.3038 37.3867 26.3031 37.4099C26.3028 37.4717 26.2873 37.5324 26.258 37.5868L25.7878 38.4106C25.7756 38.4337 25.759 38.4541 25.7389 38.4708C25.7319 38.4801 25.7228 38.4877 25.7124 38.493C25.702 38.4982 25.6904 38.5009 25.6788 38.5009C25.6671 38.5009 25.6556 38.4982 25.6451 38.493C25.6347 38.4877 25.6256 38.4801 25.6186 38.4708C25.5965 38.4284 25.585 38.3813 25.585 38.3335C25.585 38.2857 25.5965 38.2386 25.6186 38.1962L25.8217 37.8388C25.7394 37.8644 25.66 37.8984 25.5847 37.9404C25.2485 38.1823 24.9735 38.4994 24.7815 38.8665C24.5896 39.2335 24.486 39.6404 24.479 40.0546C24.4753 40.2423 24.5085 40.4289 24.5768 40.6038C24.5912 40.6498 24.594 40.6986 24.5848 40.7459C24.5756 40.7932 24.5547 40.8375 24.5241 40.8747ZM25.5998 41.2508C25.5246 41.2949 25.4452 41.3314 25.3628 41.3599L25.5697 41.5255C25.5942 41.5636 25.6072 41.608 25.6072 41.6534C25.6072 41.6987 25.5942 41.7431 25.5697 41.7813C25.555 41.8187 25.5318 41.8522 25.502 41.8791C25.4872 41.8913 25.4686 41.898 25.4493 41.898C25.4301 41.898 25.4115 41.8913 25.3967 41.8791L24.919 41.5029C24.9022 41.4857 24.8894 41.465 24.8816 41.4422C24.8738 41.4194 24.8711 41.3952 24.8739 41.3712C24.8745 41.3102 24.8914 41.2505 24.9228 41.1982L25.4268 40.4119C25.4832 40.3254 25.5584 40.3104 25.596 40.3781C25.6145 40.4232 25.6217 40.472 25.6171 40.5205C25.6126 40.569 25.5963 40.6157 25.5697 40.6565L25.3478 41.0026C25.4291 40.9776 25.5073 40.9435 25.581 40.901C25.9228 40.663 26.2034 40.3473 26.3995 39.9797C26.5957 39.6122 26.7018 39.2034 26.7093 38.7868C26.7134 38.6003 26.6801 38.4148 26.6115 38.2413C26.5994 38.1941 26.5993 38.1446 26.6111 38.0973C26.6229 38.05 26.6463 38.0064 26.6792 37.9705C26.7469 37.8915 26.8221 37.8877 26.8522 37.9705C26.9365 38.1847 26.9774 38.4136 26.9726 38.6439C26.9726 39.637 26.3558 40.8107 25.5998 41.2471V41.2508Z" fill="#545356"/>
<path d="M33.0639 84.752L29.0688 86.8836C28.9368 86.9898 28.7756 87.0536 28.6065 87.0665C28.4373 87.0795 28.2682 87.0409 28.1216 86.956C27.9749 86.8711 27.8576 86.7439 27.7851 86.5911C27.7126 86.4383 27.6883 86.2671 27.7156 86.1003L27.1614 56.5658C27.176 56.1218 27.3015 55.6886 27.5266 55.3052C27.7516 54.9218 28.069 54.6003 28.4502 54.3699L36.0796 50.325C36.8142 49.9398 37.3683 50.325 37.2781 51.1083L34.546 82.5818C34.4789 83.0314 34.3108 83.4601 34.0541 83.8359C33.7975 84.2117 33.459 84.5248 33.0639 84.752Z" fill="#FAFAFA"/>
<path d="M30.525 100.547C27.9474 101.908 26.504 99.9815 26.6587 97.3748C26.7279 95.8675 27.1554 94.3982 27.906 93.0877C28.6566 91.7772 29.7088 90.6631 30.976 89.8371C33.5535 88.4631 34.9969 90.4021 34.8423 93.0088C34.7772 94.517 34.3515 95.988 33.6005 97.2991C32.8496 98.6102 31.7951 99.7236 30.525 100.547Z" fill="#FAFAFA"/>
</svg>
