<svg width="33" height="72" viewBox="0 0 33 72" fill="none" xmlns="http://www.w3.org/2000/svg">
<path d="M1.63944 71.9099L0.981976 71.5317C0.872952 71.4602 0.782242 71.3641 0.717163 71.2511C0.652081 71.1381 0.614449 71.0115 0.607288 70.8813V18.1901C0.614449 18.0599 0.652081 17.9332 0.717163 17.8203C0.782242 17.7073 0.872952 17.6112 0.981976 17.5397L31.2167 0.0902561C31.3327 0.0309923 31.4611 9.15527e-05 31.5914 9.15527e-05C31.7217 9.15527e-05 31.8501 0.0309923 31.9661 0.0902561L32.6253 0.470245C32.7344 0.541255 32.8252 0.637007 32.8903 0.749715C32.9554 0.862423 32.993 0.988905 33 1.11888V53.8048C32.993 53.935 32.9554 54.0617 32.8903 54.1747C32.8252 54.2877 32.7344 54.3838 32.6253 54.4552L2.39058 71.9099C2.27427 71.9692 2.14557 72.0001 2.01501 72.0001C1.88446 72.0001 1.75576 71.9692 1.63944 71.9099Z" fill="#E2E1E2"/>
<path opacity="0.3" d="M1.63944 71.9099L0.981976 71.5317C0.872952 71.4602 0.782242 71.3641 0.717163 71.2511C0.652081 71.1381 0.614449 71.0115 0.607288 70.8813V18.1901C0.614449 18.0599 0.652081 17.9332 0.717163 17.8203C0.782242 17.7073 0.872952 17.6112 0.981976 17.5397L31.2167 0.0902561C31.3327 0.0309923 31.4611 9.15527e-05 31.5914 9.15527e-05C31.7217 9.15527e-05 31.8501 0.0309923 31.9661 0.0902561L32.6253 0.470245C32.7344 0.541255 32.8252 0.637007 32.8903 0.749715C32.9554 0.862423 32.993 0.988905 33 1.11888V53.8048C32.993 53.935 32.9554 54.0617 32.8903 54.1747C32.8252 54.2877 32.7344 54.3838 32.6253 54.4552L2.39058 71.9099C2.27427 71.9692 2.14557 72.0001 2.01501 72.0001C1.88446 72.0001 1.75576 71.9692 1.63944 71.9099Z" fill="black"/>
<path opacity="0.4" d="M32.9965 1.05341C32.9699 0.858996 32.8197 0.7883 32.6253 0.897879L2.39058 18.3526C2.27976 18.4215 2.18847 18.5176 2.12547 18.6319L0.711563 17.8189C0.775063 17.705 0.866241 17.6089 0.976669 17.5396L31.2149 0.0901817C31.3313 0.030903 31.46 0 31.5905 0C31.7211 0 31.8498 0.030903 31.9661 0.0901817L32.6253 0.468403C32.7251 0.534058 32.8098 0.620165 32.8738 0.721018C32.9377 0.821872 32.9796 0.935171 32.9965 1.05341Z" fill="#E2E1E2"/>
<path opacity="0.15" d="M2.31812 71.9399C2.31113 71.9443 2.30331 71.9473 2.29514 71.9487L2.25626 71.9629H2.24212L2.17142 71.9805C2.02174 72.0084 1.86731 71.9956 1.72427 71.9434C1.696 71.9328 1.66772 71.9187 1.64121 71.9063L0.983738 71.5263C0.874909 71.4546 0.78435 71.3585 0.719293 71.2455C0.654237 71.1326 0.616481 71.006 0.609047 70.8759V18.19C0.613014 18.0589 0.650763 17.9311 0.71863 17.8189L2.13254 18.6319C2.06413 18.744 2.02578 18.8718 2.0212 19.003V71.6942C2.01755 71.7649 2.03812 71.8347 2.07952 71.8922C2.10325 71.9207 2.13467 71.9419 2.17007 71.9532C2.20546 71.9645 2.24334 71.9654 2.27923 71.9558L2.31812 71.9399Z" fill="black"/>
<path d="M23.8414 10.1077L11.1692 17.4247L10.4622 17.0182V15.0635C10.4622 14.8161 10.5011 14.4944 11.452 13.183C12.4028 11.8716 12.4293 11.4156 12.8659 10.8253C13.3024 10.235 14.0854 9.78784 14.6439 8.39691C15.2024 7.00597 15.2536 4.86213 16.8019 3.97843C17.0051 3.84742 17.2391 3.77186 17.4805 3.75928C17.6049 3.75953 17.727 3.79309 17.834 3.85648L18.4809 4.2294L18.5392 4.26298L18.3536 4.53693C18.5675 5.00705 18.7071 5.57615 18.9528 5.89959C19.0342 6.01901 19.1408 6.11917 19.2651 6.19305C19.3894 6.26694 19.5283 6.31275 19.6721 6.32729C20.0698 6.37325 20.4674 6.21772 20.7325 6.28311C20.7945 6.29996 20.8539 6.32492 20.9093 6.35734L21.6162 6.76384L21.5685 6.82216C21.6584 6.86465 21.7504 6.9024 21.8442 6.93528C21.9291 6.96179 22.021 6.99007 22.1341 7.01481C22.3895 7.05973 22.6356 7.14694 22.8622 7.27285L23.4861 7.62633L23.5427 7.65991L23.8414 10.1077ZM12.2349 14.5633C12.2349 14.3088 12.1024 14.1798 11.938 14.2752C11.8427 14.351 11.7661 14.4475 11.714 14.5575C11.6619 14.6675 11.6357 14.788 11.6375 14.9097C11.6375 15.1642 11.7736 15.2897 11.938 15.1961C12.0329 15.1206 12.1091 15.0242 12.1606 14.9145C12.2121 14.8047 12.2375 14.6845 12.2349 14.5633ZM18.6329 7.31703C18.6329 6.49873 18.2688 6.02684 17.7757 6.12228C17.7424 6.02915 17.6877 5.94511 17.6161 5.87686C17.5445 5.80861 17.458 5.75804 17.3634 5.72919C17.2687 5.70035 17.1687 5.69402 17.0712 5.71072C16.9737 5.72741 16.8815 5.76667 16.8019 5.82536C16.178 6.17883 15.6725 7.25517 15.6725 8.21487C15.6725 9.02963 16.0383 9.50506 16.5279 9.40962C16.7241 9.81259 17.0882 9.94867 17.5035 9.70831C18.1292 9.34953 18.6329 8.28026 18.6329 7.3188V7.31703ZM22.0121 8.92712C22.0121 8.67085 21.8778 8.5436 21.7117 8.63904C21.6161 8.71322 21.5388 8.80837 21.4857 8.91716C21.4327 9.02594 21.4054 9.14545 21.4059 9.26646C21.4059 9.5192 21.5402 9.64822 21.7046 9.55278C21.8006 9.47924 21.8783 9.38451 21.9317 9.27598C21.985 9.16745 22.0125 9.04806 22.0121 8.92712Z" fill="#455A64"/>
<path opacity="0.5" d="M11.8726 15.546L10.51 14.7595C10.4795 14.8579 10.4646 14.9605 10.4658 15.0635V17.0182L11.1727 17.4247L11.8797 17.0182L11.8726 15.546Z" fill="#37474F"/>
<path opacity="0.5" d="M13.2759 13.107L13.9829 11.481L12.8641 10.8253C12.5354 11.2795 12.4399 11.6471 11.9981 12.3682L13.2759 13.107Z" fill="#37474F"/>
<path opacity="0.5" d="M16.1038 9.85499L16.1957 9.38133C15.8846 9.25054 15.6778 8.82991 15.6778 8.21662C15.6778 7.40186 16.0419 6.50932 16.535 6.03743L15.5594 5.47363C15.1423 6.42095 14.9885 7.53971 14.6492 8.38983C14.5767 8.56656 14.5007 8.7327 14.423 8.88469L16.1038 9.85499Z" fill="#37474F"/>
<path d="M23.8414 8.15301V10.1077L11.1692 17.4247V15.4665C11.1692 15.219 11.2063 14.8991 12.1572 13.586C13.108 12.2728 13.1363 11.8292 13.5711 11.2283C14.0059 10.6274 14.7888 10.1926 15.3385 8.7928C15.8881 7.39303 15.9482 5.27393 17.4965 4.37433C17.9259 4.1269 18.2388 4.10746 18.4809 4.2188L18.5392 4.25238C19.1224 4.59702 19.2656 5.7688 19.6562 6.29548C19.6619 6.30223 19.6672 6.30931 19.6721 6.31669C20.2306 7.03955 21.0083 6.57473 21.4395 6.67017C21.5059 6.68624 21.5696 6.71183 21.6286 6.74617C21.7104 6.79721 21.7868 6.85643 21.8566 6.92291C22.1362 7.17252 22.4793 7.34009 22.8481 7.40717C23.0727 7.45137 23.2911 7.52258 23.4985 7.61926L23.5551 7.65284C23.6492 7.69565 23.7275 7.76698 23.7789 7.85674C23.8303 7.9465 23.8521 8.05015 23.8414 8.15301ZM12.9384 14.9698C12.9384 14.7153 12.8058 14.5845 12.6397 14.68C12.5448 14.756 12.4686 14.8526 12.4168 14.9626C12.365 15.0726 12.3391 15.1929 12.341 15.3145C12.341 15.569 12.4753 15.698 12.6397 15.6026C12.7348 15.5272 12.8112 15.4309 12.8631 15.3211C12.9149 15.2114 12.9406 15.0912 12.9384 14.9698ZM18.6329 7.3188C18.6329 6.5005 18.2688 6.02861 17.7757 6.12405C17.6799 6.14566 17.5881 6.18203 17.5035 6.23186C16.8796 6.58534 16.3742 7.66344 16.3742 8.62314C16.3655 8.89411 16.418 9.16354 16.5279 9.41139C16.7241 9.81436 17.0882 9.95045 17.5035 9.71008C18.1292 9.34953 18.6329 8.28026 18.6329 7.3188ZM22.7138 9.32656C22.7138 9.07205 22.5795 8.94303 22.4151 9.03847C22.3191 9.11328 22.2418 9.20939 22.1894 9.3192C22.1369 9.42901 22.1107 9.54952 22.1129 9.6712C22.1129 9.9257 22.2454 10.053 22.4116 9.95751C22.5071 9.8827 22.5841 9.78684 22.6365 9.6774C22.6889 9.56796 22.7154 9.44789 22.7138 9.32656Z" fill="#37474F"/>
<path d="M18.6329 7.31881C18.6329 8.28027 18.1292 9.34954 17.5035 9.71009C17.0882 9.95045 16.7241 9.81436 16.5279 9.4114C16.6247 9.39139 16.7174 9.35493 16.8019 9.30359C17.4257 8.95011 17.9312 7.87377 17.9312 6.91408C17.9395 6.64238 17.8864 6.37232 17.7757 6.12405C18.2688 6.02861 18.6329 6.50051 18.6329 7.31881Z" fill="#263238"/>
<path d="M12.6397 15.6025C12.4753 15.6962 12.341 15.569 12.341 15.3145C12.3391 15.1929 12.365 15.0726 12.4168 14.9626C12.4686 14.8526 12.5448 14.756 12.6397 14.68C12.8058 14.5863 12.9384 14.7153 12.9384 14.9698C12.9409 15.0912 12.9153 15.2115 12.8634 15.3213C12.8116 15.4311 12.735 15.5274 12.6397 15.6025Z" fill="#263238"/>
<path d="M22.4151 9.95927C22.249 10.0547 22.1146 9.92569 22.1146 9.67295C22.1124 9.55119 22.1384 9.43056 22.1905 9.3205C22.2426 9.21043 22.3195 9.1139 22.4151 9.03846C22.5795 8.94302 22.7138 9.07381 22.7138 9.32654C22.7159 9.44786 22.6901 9.56805 22.6383 9.67777C22.5865 9.7875 22.5101 9.88382 22.4151 9.95927Z" fill="#263238"/>
<path d="M4.3524 21.5145L30.6618 6.32552C30.7315 6.28984 30.8087 6.27124 30.8871 6.27124C30.9654 6.27124 31.0427 6.28984 31.1124 6.32552L31.3652 6.47222C31.4311 6.51482 31.4859 6.57243 31.5252 6.64033C31.5645 6.70822 31.5872 6.78446 31.5914 6.86281V52.3519C31.5871 52.4302 31.5643 52.5064 31.525 52.5743C31.4857 52.6421 31.431 52.6998 31.3652 52.7425L5.05758 67.9314C4.98783 67.9671 4.91059 67.9857 4.83224 67.9857C4.75389 67.9857 4.67666 67.9671 4.6069 67.9314L4.3524 67.7847C4.28714 67.7416 4.23285 67.6838 4.19388 67.616C4.15491 67.5482 4.13233 67.4722 4.12794 67.3941V21.9051C4.13233 21.827 4.15491 21.751 4.19388 21.6832C4.23285 21.6154 4.28714 21.5576 4.3524 21.5145Z" fill="#F5F5F5"/>
<path d="M5.00281 67.9579C4.97627 67.9689 4.9483 67.9761 4.91974 67.9791H4.87732C4.83152 67.9844 4.78527 67.9844 4.73947 67.9791C4.71095 67.9758 4.68301 67.9687 4.6564 67.9579L4.60691 67.9332L4.35241 67.7883C4.28725 67.745 4.23304 67.6873 4.19408 67.6195C4.15512 67.5517 4.13248 67.4757 4.12795 67.3977V21.9068C4.13041 21.8282 4.15292 21.7516 4.19334 21.6841L4.9003 22.0906C4.86091 22.1579 4.83847 22.2337 4.8349 22.3116V67.8006C4.83137 67.9243 4.90383 67.9844 5.00281 67.9579Z" fill="#E0E0E0"/>
<path d="M31.3652 6.47222L31.1124 6.32552C31.0427 6.28984 30.9654 6.27124 30.8871 6.27124C30.8087 6.27124 30.7315 6.28984 30.6618 6.32552L4.3524 21.5145C4.28714 21.5576 4.23285 21.6154 4.19388 21.6832C4.15491 21.751 4.13233 21.827 4.12794 21.9051V29.4059L4.83489 29.8141L31.5914 14.3654V6.86281C31.5872 6.78446 31.5645 6.70822 31.5252 6.64033C31.4859 6.57243 31.4311 6.51482 31.3652 6.47222Z" fill="#E2E1E2"/>
<path opacity="0.4" d="M31.3652 6.47222L31.1124 6.32552C31.0427 6.28984 30.9654 6.27124 30.8871 6.27124C30.8087 6.27124 30.7315 6.28984 30.6618 6.32552L4.3524 21.5145C4.28714 21.5576 4.23285 21.6154 4.19388 21.6832C4.15491 21.751 4.13233 21.827 4.12794 21.9051V29.4059L4.83489 29.8141L31.5914 14.3654V6.86281C31.5872 6.78446 31.5645 6.70822 31.5252 6.64033C31.4859 6.57243 31.4311 6.51482 31.3652 6.47222Z" fill="white"/>
<path d="M31.5826 6.7939C31.5543 6.70199 31.4677 6.67195 31.3669 6.73204L5.05757 21.921C4.99046 21.9622 4.93507 22.0201 4.89674 22.0889L4.18979 21.6841C4.22566 21.6118 4.28067 21.5507 4.34885 21.5074L30.6617 6.32554C30.7312 6.28987 30.8081 6.27127 30.8862 6.27127C30.9643 6.27127 31.0412 6.28987 31.1107 6.32554L31.3669 6.47223C31.4222 6.50904 31.4698 6.5564 31.5068 6.6116C31.5438 6.66679 31.5695 6.72874 31.5826 6.7939Z" fill="#E2E1E2"/>
<path opacity="0.6" d="M31.5826 6.7939C31.5543 6.70199 31.4677 6.67195 31.3669 6.73204L5.05757 21.921C4.99046 21.9622 4.93507 22.0201 4.89674 22.0889L4.18979 21.6841C4.22566 21.6118 4.28067 21.5507 4.34885 21.5074L30.6617 6.32554C30.7312 6.28987 30.8081 6.27127 30.8862 6.27127C30.9643 6.27127 31.0412 6.28987 31.1107 6.32554L31.3669 6.47223C31.4222 6.50904 31.4698 6.5564 31.5068 6.6116C31.5438 6.66679 31.5695 6.72874 31.5826 6.7939Z" fill="white"/>
<path d="M4.12792 21.9051V29.4076L4.83488 29.8141V22.3116C4.83865 22.2332 4.86106 22.1568 4.90027 22.0889L4.19331 21.6841C4.15267 21.7508 4.13013 21.827 4.12792 21.9051Z" fill="#E2E1E2"/>
<path d="M6.83566 33.3224L18.3573 26.6699V24.2981L6.83566 30.9488V33.3224Z" fill="#E0E0E0"/>
<path d="M6.83569 44.6955L28.9952 31.9031C29.0616 31.8501 29.115 31.7825 29.1511 31.7056C29.1873 31.6287 29.2053 31.5445 29.2038 31.4595C29.2038 31.2828 29.1101 31.1926 28.9952 31.2598L6.83569 44.0522C6.76941 44.1049 6.71615 44.1722 6.67999 44.2488C6.64383 44.3254 6.62575 44.4093 6.62714 44.494C6.62714 44.6725 6.72081 44.7627 6.83569 44.6955Z" fill="#E0E0E0"/>
<path d="M6.66232 36.2253L28.8218 23.4329C28.8883 23.3799 28.9416 23.3123 28.9778 23.2354C29.0139 23.1585 29.0319 23.0743 29.0304 22.9893C29.0304 22.8126 28.9367 22.7225 28.8218 22.7896L6.66232 35.582C6.59604 35.6347 6.54278 35.702 6.50662 35.7786C6.47046 35.8552 6.45238 35.9391 6.45377 36.0238C6.45377 36.2023 6.54744 36.2925 6.66232 36.2253Z" fill="#E0E0E0"/>
<path d="M6.83569 47.4102L28.9952 34.6178C29.0616 34.5648 29.115 34.4972 29.1511 34.4203C29.1873 34.3434 29.2053 34.2592 29.2038 34.1742C29.2038 33.9975 29.1101 33.9074 28.9952 33.9745L6.83569 46.7669C6.76941 46.8196 6.71615 46.8869 6.67999 46.9635C6.64383 47.0401 6.62575 47.124 6.62714 47.2087C6.62714 47.3872 6.72081 47.4774 6.83569 47.4102Z" fill="#E0E0E0"/>
<path d="M6.66232 38.94L28.8218 26.1476C28.8883 26.0946 28.9416 26.027 28.9778 25.9501C29.0139 25.8732 29.0319 25.789 29.0304 25.704C29.0304 25.5273 28.9367 25.4371 28.8218 25.5043L6.66232 38.2967C6.59604 38.3494 6.54278 38.4167 6.50662 38.4933C6.47046 38.5699 6.45238 38.6538 6.45377 38.7385C6.45377 38.917 6.54744 39.0072 6.66232 38.94Z" fill="#E0E0E0"/>
<path d="M6.83569 50.1249L28.9952 37.3326C29.0616 37.2795 29.115 37.212 29.1511 37.135C29.1873 37.0581 29.2053 36.9739 29.2038 36.889C29.2038 36.7122 29.1101 36.6221 28.9952 36.6892L6.83569 49.4816C6.76928 49.5346 6.71594 49.6022 6.67978 49.6791C6.64362 49.7561 6.62561 49.8402 6.62714 49.9252C6.62714 50.1073 6.72081 50.1921 6.83569 50.1249Z" fill="#E0E0E0"/>
<path d="M6.66232 41.6547L28.8218 28.8624C28.8883 28.8093 28.9416 28.7417 28.9778 28.6648C29.0139 28.5879 29.0319 28.5037 29.0304 28.4187C29.0304 28.242 28.9367 28.1519 28.8218 28.219L6.66232 41.0114C6.59591 41.0644 6.54257 41.132 6.50641 41.2089C6.47025 41.2858 6.45224 41.37 6.45377 41.455C6.45377 41.637 6.54744 41.7219 6.66232 41.6547Z" fill="#E0E0E0"/>
<path d="M6.83569 52.8397L28.9952 40.0473C29.0616 39.9943 29.115 39.9267 29.1511 39.8498C29.1873 39.7728 29.2053 39.6887 29.2038 39.6037C29.2038 39.4269 29.1101 39.3368 28.9952 39.404L6.83569 52.1963C6.76928 52.2494 6.71594 52.3169 6.67978 52.3939C6.64362 52.4708 6.62561 52.555 6.62714 52.6399C6.62714 52.8167 6.72081 52.9068 6.83569 52.8397Z" fill="#E0E0E0"/>
<path d="M6.83554 58.9884L28.9951 46.1943C29.0174 46.1771 29.0353 46.1548 29.0473 46.1293C29.0593 46.1038 29.065 46.0757 29.064 46.0476C29.064 45.9892 29.0322 45.9592 28.9951 45.9804L6.83554 58.7675C6.81318 58.7846 6.79526 58.8069 6.78327 58.8324C6.77128 58.858 6.76557 58.886 6.76661 58.9142C6.76661 58.9813 6.79666 59.0114 6.83554 58.9884Z" fill="#E2E1E2"/>
<path d="M27.4274 52.8538C28.2263 52.3907 28.8784 51.014 28.8784 49.7821C28.8784 48.5502 28.2263 47.9246 27.4274 48.3858C26.6286 48.8471 25.9764 50.2257 25.9764 51.4576C25.9764 52.6894 26.6268 53.3151 27.4274 52.8538ZM27.4274 48.5997C28.1503 48.1826 28.7388 48.7499 28.7388 49.8616C28.7388 50.9733 28.1503 52.2211 27.4274 52.6382C26.7046 53.0553 26.116 52.4897 26.116 51.3763C26.116 50.2628 26.7081 49.0186 27.4274 48.5997Z" fill="#455A64"/>
<path d="M26.42 51.2013C26.42 52.0567 26.8707 52.4915 27.4274 52.1698C27.9841 51.8482 28.4348 50.8938 28.4348 50.0383C28.4348 49.1829 27.9824 48.7481 27.4274 49.0698C26.8724 49.3915 26.42 50.3441 26.42 51.2013Z" fill="#455A64"/>
<path d="M17.4329 55.4112L24.4865 51.3391V50.763L17.4329 54.835V55.4112Z" fill="#E0E0E0"/>
<path d="M17.4329 56.6766L24.4865 52.6046V52.0284L17.4329 56.1005V56.6766Z" fill="#E0E0E0"/>
<path d="M17.4329 57.9421L24.4865 53.87V53.2956L17.4329 57.3677V57.9421Z" fill="#E0E0E0"/>
<path d="M7.41701 62.9686C7.43822 63.0817 7.53719 63.0569 7.60789 62.9774C7.67684 62.8847 7.73274 62.783 7.77402 62.6752C7.85966 62.4747 7.93517 62.27 8.00025 62.0619C8.10902 61.7079 8.18475 61.3446 8.22647 60.9767C8.22647 60.8972 8.24061 60.8194 8.24945 60.7399C8.26536 60.6073 8.41736 60.4977 8.40675 60.6462C8.40675 60.7293 8.39261 60.8123 8.38378 60.8972C8.35729 61.2115 8.36202 61.5276 8.39791 61.841C8.41422 62.1528 8.50579 62.456 8.66479 62.7247C8.72842 62.806 8.81678 62.8749 8.92106 62.8342C9.02533 62.7936 9.14729 62.578 9.22328 62.3959C9.31157 62.1826 9.38711 61.9643 9.44951 61.742C9.42526 61.7033 9.40342 61.6632 9.38412 61.6218C9.2164 61.2145 9.11439 60.7832 9.08189 60.344C9.04301 59.964 8.99883 59.4143 9.27807 59.0273C9.87015 58.2072 9.85778 60.116 9.80829 60.6038C9.77152 60.9498 9.7083 61.2925 9.61918 61.6289C9.64657 61.6649 9.67936 61.6965 9.71638 61.7225C9.81182 61.7844 9.92494 61.7809 10.0416 61.6466C10.1433 61.5312 10.2053 61.3862 10.2183 61.233L10.2077 61.1234C10.2077 61.0262 10.3314 60.8901 10.3491 60.9855C10.3491 60.9944 10.3491 61.0015 10.3491 61.0103C10.3491 61.0403 10.3491 61.0704 10.3579 61.1004C10.4142 60.9412 10.4591 60.7782 10.4923 60.6126C10.5082 60.526 10.6089 60.4253 10.6354 60.4977L10.7945 60.9414C10.8573 60.6854 10.8741 60.4203 10.844 60.1584C10.8298 60.0453 10.9765 59.8986 11.003 59.9993C11.0441 60.2118 11.1263 60.4141 11.2452 60.595C11.2698 60.6277 11.3018 60.6541 11.3386 60.672C11.3754 60.6899 11.416 60.6987 11.4569 60.6979C11.4978 60.697 11.5379 60.6864 11.5739 60.667C11.61 60.6476 11.6409 60.6198 11.664 60.5861L11.6835 60.5631C11.6375 60.496 11.5934 60.4235 11.5527 60.3493C11.3864 60.1242 11.3113 59.8445 11.3424 59.5663C11.3989 59.25 11.6163 59.0096 11.763 59.128C11.991 59.3048 12.1165 59.9428 11.9079 60.4571C12.0847 60.6798 12.3162 60.8212 12.6008 60.724C12.8853 60.6268 13.2017 60.2821 13.3254 59.7767C13.3739 59.5825 13.3964 59.3829 13.3926 59.1828C13.2586 59.2456 13.1163 59.289 12.9701 59.3118C12.7744 59.3479 12.5722 59.3185 12.3949 59.2281C12.2175 59.1377 12.075 58.9913 11.9892 58.8117C11.9183 58.6875 11.8765 58.5488 11.867 58.4062C11.8575 58.2635 11.8806 58.1205 11.9345 57.9881C11.9728 57.8631 12.0412 57.7495 12.1337 57.657C12.2261 57.5646 12.3397 57.4962 12.4647 57.4578C12.8606 57.3871 13.1981 57.7265 13.3837 58.1648C13.4805 58.3967 13.5402 58.6425 13.5605 58.893C13.8816 58.7195 14.1817 58.5096 14.4548 58.2673C14.5378 58.1966 14.5484 58.3486 14.4724 58.4211C14.1985 58.6828 13.8955 58.9123 13.5693 59.105C13.5738 59.3762 13.5357 59.6464 13.4562 59.9057C13.2671 60.5296 12.8447 60.929 12.4912 61.0085C12.2013 61.0739 11.961 60.9308 11.7842 60.7028C11.6075 60.9361 11.3936 61.0015 11.2363 60.9237C11.1303 60.8589 11.0489 60.7606 11.0048 60.6444C10.9752 60.848 10.9255 61.0481 10.8564 61.2418C10.8298 61.3196 10.7415 61.3867 10.7185 61.3214L10.5683 60.8919C10.5154 61.0789 10.448 61.2615 10.3668 61.438C10.3456 61.4804 10.2979 61.5211 10.2678 61.5158C10.2033 61.6709 10.102 61.808 9.97266 61.9152C9.94343 61.942 9.90906 61.9625 9.87163 61.9755C9.83421 61.9886 9.79452 61.9939 9.75499 61.991C9.71546 61.9882 9.67691 61.9774 9.64171 61.9592C9.60651 61.941 9.57539 61.9158 9.55025 61.8852C9.53788 61.924 9.52904 61.9629 9.51667 62C9.38235 62.4065 9.18263 62.9474 8.89632 63.0605C8.57465 63.1966 8.40321 62.7529 8.31484 62.3871C8.26908 62.1865 8.23894 61.9826 8.22471 61.7773C8.17346 61.9753 8.11337 62.1732 8.04797 62.3676C7.96712 62.6338 7.84805 62.8868 7.69449 63.1188C7.5531 63.2955 7.38167 63.3326 7.34102 63.1188C7.31097 63.034 7.40287 62.8908 7.41701 62.9686ZM13.2388 58.3733C13.0939 58.004 12.8447 57.7424 12.546 57.6964C12.3993 57.6735 12.1925 57.7283 12.0776 58.0287C12.0417 58.1392 12.0335 58.2568 12.0539 58.3712C12.0742 58.4855 12.1224 58.5931 12.1943 58.6844C12.4859 59.1263 12.9189 59.1439 13.3802 58.9566C13.3581 58.7592 13.3106 58.5656 13.2388 58.3804V58.3733ZM11.733 59.4797C11.7012 59.4196 11.634 59.2783 11.5562 59.3666C11.5231 59.4282 11.5034 59.4962 11.4985 59.5659C11.4937 59.6357 11.5037 59.7057 11.528 59.7713C11.5957 59.9629 11.6884 60.1448 11.8037 60.3122C11.8721 60.0368 11.8473 59.7465 11.733 59.4868V59.4797ZM9.56439 61.2948C9.72513 60.6143 9.73056 59.9064 9.5803 59.2235C9.54318 59.0891 9.47248 58.9902 9.35407 59.1404C9.24576 59.3156 9.19336 59.5197 9.20384 59.7254C9.20003 60.111 9.24336 60.4956 9.33286 60.8707C9.37479 61.0776 9.43817 61.2796 9.52197 61.4733C9.53435 61.4186 9.55025 61.3549 9.56439 61.2948Z" fill="#455A64"/>
<path d="M25.8438 11.1134C25.8438 11.1134 25.5911 12.0925 25.5045 12.6174C25.4876 12.7033 25.4382 12.7792 25.3667 12.8295L10.183 21.5869L9.90022 21.7478C9.8968 21.75 9.89281 21.7512 9.88874 21.7512C9.88466 21.7512 9.88067 21.75 9.87725 21.7478C9.85427 21.7336 9.84367 21.6983 9.85251 21.6488C9.85251 21.6488 9.85251 21.6488 9.85251 21.6382C10.1176 20.2048 10.5082 19.0472 11.8885 17.8984L14.096 16.2441C14.096 16.2441 14.6863 15.6874 14.7871 15.1095L14.9249 14.3353L15.1812 12.8225C15.1812 12.8225 15.2183 12.3771 15.768 11.8398C16.3176 11.3025 17.2632 9.85501 17.4293 8.91299C17.6926 7.41778 18.7725 5.7529 19.8436 5.19264C20.0414 5.08298 20.2626 5.02237 20.4887 5.0159C20.6243 5.01317 20.7581 5.04738 20.8757 5.11487L21.5579 5.50547L21.588 5.52314C21.588 5.61151 21.7188 8.48175 22.1641 8.49235C22.1894 8.49036 22.2148 8.49036 22.2401 8.49235C22.2808 8.49801 22.3199 8.51184 22.355 8.533L23.0425 8.93067L23.0584 8.9395L22.1412 10.9667C22.0387 11.5429 22.3709 11.5994 22.5353 11.5323L22.841 11.4103C23.2635 11.2336 23.6169 11.0692 24.4317 10.7034C24.5392 10.6432 24.6597 10.61 24.7828 10.6066C24.9059 10.6032 25.028 10.6298 25.1387 10.6839L25.8456 11.0886L25.8438 11.1134ZM20.57 6.45279C20.5542 6.36892 20.5198 6.28966 20.4693 6.22084C20.4188 6.15202 20.3536 6.0954 20.2783 6.05512C20.121 5.98266 18.1857 9.30182 18.3978 9.46972C18.4685 9.52145 18.5511 9.55442 18.6379 9.56554C18.7248 9.57667 18.8131 9.56559 18.8945 9.53335C19.0058 9.95045 19.3363 10.0989 19.7905 9.86031C20.4498 9.50683 21.1125 8.49059 21.2751 7.57331C21.4201 6.74971 21.1125 6.29019 20.57 6.45279Z" fill="#455A64"/>
<path opacity="0.5" d="M12.0388 19.5315L10.9324 18.8934C10.289 19.7382 10.0328 20.6272 9.84189 21.6576C9.84189 21.6576 9.84189 21.6665 9.84189 21.6682C9.84189 21.7177 9.84189 21.7531 9.86663 21.7672C9.87006 21.7694 9.87405 21.7706 9.87812 21.7706C9.8822 21.7706 9.88619 21.7694 9.88961 21.7672L10.7627 21.0762L12.0388 19.5315Z" fill="#37474F"/>
<path opacity="0.5" d="M14.7093 15.371L16.2681 16.2706L16.7983 13.107L15.3968 12.2958C15.2856 12.4544 15.2102 12.6353 15.1759 12.826L14.9196 14.3389L14.7817 15.113C14.7665 15.2013 14.7422 15.2877 14.7093 15.371Z" fill="#37474F"/>
<path opacity="0.5" d="M18.1645 6.983C17.8076 7.58358 17.5571 8.24129 17.424 8.92713C17.3124 9.41233 17.1264 9.87735 16.8726 10.3057L18.2105 11.078L18.8768 9.54218C18.7976 9.57112 18.7124 9.58013 18.6289 9.56841C18.5454 9.5567 18.466 9.52463 18.3978 9.47502C18.2883 9.38842 18.7513 8.46938 19.2391 7.60689L18.1645 6.983Z" fill="#37474F"/>
<path d="M26.2715 12.1208C26.2715 12.1208 25.6565 12.7023 25.6194 12.7235C25.5823 12.7447 25.4055 12.8437 25.4055 12.8437L10.1795 21.5975L9.89668 21.7584C9.94971 21.7054 10.7804 21.0638 10.7804 21.0638C11.0787 19.9789 11.7144 19.017 12.5955 18.3173L14.7994 16.663C14.7994 16.663 15.3933 16.1045 15.494 15.5266L15.6301 14.7542L15.8864 13.2396C15.8864 13.2396 15.9235 12.7959 16.4731 12.2587C17.0228 11.7214 17.9684 10.2739 18.1363 9.33009C18.3996 7.83665 19.4795 6.17177 20.5487 5.60974C20.9535 5.39765 21.3016 5.37467 21.5597 5.51076L21.5897 5.5302C21.9909 5.76527 22.1659 6.39799 22.0068 7.29759C21.9637 7.50375 21.9623 7.71645 22.0027 7.92315C22.0431 8.12986 22.1244 8.3264 22.2419 8.50118C22.3098 8.61077 22.4014 8.70372 22.51 8.77316C22.6186 8.8426 22.7414 8.88676 22.8693 8.90238C22.9302 8.90187 22.9905 8.91453 23.0461 8.9395L23.062 8.94834C23.2829 9.07382 23.1963 9.40432 23.1963 9.40432L22.986 10.6097L22.8481 11.382C22.8481 11.3944 22.8481 11.4068 22.8481 11.4191C22.7633 11.9617 23.0849 12.013 23.244 11.9494C23.8396 11.7125 24.1418 11.5676 25.1457 11.1258C25.2529 11.065 25.3732 11.0312 25.4964 11.0272C25.6195 11.0232 25.7418 11.0492 25.8527 11.1028H25.8633C26.1001 11.2654 26.245 11.6206 26.2715 12.1208ZM20.5699 6.45278C20.5039 6.47371 20.4399 6.50094 20.3791 6.53408C19.7198 6.87695 19.0553 7.90204 18.8927 8.82108C18.8451 9.05433 18.8451 9.29479 18.8927 9.52804C19.004 9.94514 19.3345 10.0936 19.7888 9.85501C20.448 9.50153 21.1108 8.48528 21.2734 7.568C21.4201 6.7497 21.1125 6.29018 20.5699 6.45278Z" fill="#37474F"/>
<path d="M21.2751 7.57508C21.1125 8.49235 20.4498 9.51921 19.7905 9.86208C19.3363 10.1007 19.0058 9.95222 18.8945 9.53511C18.9606 9.51344 19.025 9.48685 19.0871 9.45558C19.7463 9.11094 20.4091 8.08585 20.5717 7.16681C20.6202 6.93365 20.6202 6.69301 20.5717 6.45986C21.1125 6.29019 21.4201 6.74971 21.2751 7.57508Z" fill="#263238"/>
<path d="M20.6389 6.49343H20.5788C20.5177 6.51407 20.4585 6.54009 20.4021 6.5712C19.757 6.907 19.0995 7.91971 18.9387 8.82639C18.8924 9.05323 18.8924 9.28706 18.9387 9.5139C18.9908 9.59191 19.0586 9.65827 19.1377 9.70876C19.2168 9.75926 19.3055 9.79281 19.3982 9.80729C19.681 9.80729 20.7007 8.7769 20.8598 8.33682C20.9712 8.02046 21.2327 7.03072 20.9606 6.64366C20.9251 6.59301 20.8772 6.55228 20.8215 6.52537C20.7658 6.49845 20.7042 6.48624 20.6424 6.4899M20.6424 6.44748C21.4201 6.44748 21.0613 7.90027 20.9005 8.35096C20.7396 8.80164 19.7075 9.85147 19.4035 9.85147C19.3028 9.83552 19.2065 9.79885 19.1207 9.74379C19.0349 9.68873 18.9615 9.61646 18.9051 9.53157C18.8575 9.29833 18.8575 9.05786 18.9051 8.82462C19.0677 7.90558 19.7322 6.88049 20.3915 6.53762C20.4523 6.50447 20.5162 6.47725 20.5823 6.45632C20.6053 6.4546 20.6283 6.4546 20.6513 6.45632L20.6424 6.44748Z" fill="#263238"/>
<path d="M9.89491 21.7601L25.4055 12.8437L25.6194 12.7252C25.6565 12.7023 26.2698 12.1208 26.2698 12.1208L10.7733 21.0655C10.7733 21.0655 9.83306 21.7919 9.89491 21.7601Z" fill="#263238"/>
</svg>
