<svg width="63" height="132" viewBox="0 0 63 132" fill="none" xmlns="http://www.w3.org/2000/svg">
<path d="M2.08685 131.826L0.812333 131.09C0.599977 130.952 0.423192 130.766 0.296381 130.546C0.16957 130.327 0.0963203 130.081 0.0825958 129.829V35.2955C0.0963203 35.0427 0.16957 34.7967 0.296381 34.5776C0.423192 34.3584 0.599977 34.1723 0.812333 34.0344L59.457 0.173924C59.6827 0.0595832 59.9321 0 60.1851 0C60.4381 0 60.6875 0.0595832 60.9132 0.173924L62.191 0.910388C62.4024 1.04903 62.5782 1.23538 62.7044 1.45442C62.8306 1.67346 62.9035 1.91906 62.9174 2.17146V96.7045C62.9035 96.9569 62.8306 97.2025 62.7044 97.4215C62.5782 97.6406 62.4024 97.8269 62.191 97.9656L3.54297 131.826C3.31731 131.94 3.06789 132 2.81491 132C2.56193 132 2.31251 131.94 2.08685 131.826Z" fill="#CCCBCD"/>
<path opacity="0.4" d="M62.9096 2.05376C62.8591 1.67712 62.5531 1.53924 62.1899 1.7511L3.54186 35.6116C3.32688 35.7451 3.14973 35.9315 3.02734 36.153L0.29335 34.5759C0.417631 34.3547 0.595766 34.1684 0.811229 34.0344L59.4559 0.173924C59.6816 0.0595832 59.931 0 60.184 0C60.437 0 60.6864 0.0595832 60.912 0.173924L62.1899 0.910388C62.3846 1.03849 62.5496 1.20683 62.6737 1.40406C62.7978 1.60128 62.8783 1.82283 62.9096 2.05376Z" fill="#FAFAFA"/>
<path opacity="0.15" d="M3.41591 131.887C3.40261 131.895 3.38774 131.901 3.37219 131.903L3.29821 131.93H3.26794L3.13343 131.964H3.11661C2.82632 132.019 2.52657 131.995 2.249 131.893C2.19341 131.873 2.13945 131.848 2.08758 131.819L0.813062 131.093C0.601887 130.954 0.426184 130.768 0.300042 130.549C0.1739 130.33 0.100826 130.084 0.0866852 129.832V35.2956C0.0953498 35.0416 0.168241 34.794 0.298546 34.5759L3.03254 36.1531C2.90494 36.3706 2.83546 36.6173 2.83077 36.8694V131.409C2.82336 131.546 2.86248 131.681 2.94175 131.792C2.9881 131.848 3.04947 131.89 3.1186 131.912C3.18772 131.934 3.26172 131.936 3.33183 131.917L3.41591 131.887Z" fill="#CCCBCD"/>
<path d="M44.6007 17.58L44.493 17.5161L43.2824 16.82C42.8426 16.5759 42.3653 16.4066 41.87 16.3189C41.6615 16.2719 41.4732 16.218 41.3084 16.1642C41.1256 16.1032 40.9469 16.0302 40.7737 15.9457L40.8645 15.8347L39.4858 15.041C39.3732 14.9763 39.252 14.9276 39.1259 14.8964C38.6114 14.772 37.8413 15.0713 37.0712 14.9839C36.7922 14.9551 36.5229 14.8659 36.2818 14.7225C36.0408 14.579 35.834 14.3848 35.6756 14.1533C35.2082 13.5244 34.9257 12.4214 34.5121 11.5101L34.882 10.9754L34.7677 10.9115L33.5133 10.1851C33.3014 10.0605 33.0597 9.99543 32.8139 9.99678C32.3459 10.0222 31.8926 10.1694 31.499 10.4239C28.496 12.1591 28.3951 16.2786 27.3122 18.9857C26.2294 21.6928 24.6993 22.5436 23.8653 23.6937C23.0313 24.8438 22.9742 25.7114 21.128 28.2671C19.2818 30.8229 19.2078 31.4349 19.2078 31.9158V35.7091L20.5731 36.496L45.1522 22.3014L44.6007 17.58ZM22.0696 32.1983C21.7501 32.3799 21.4878 32.1344 21.4878 31.6401C21.4842 31.4041 21.5348 31.1704 21.6357 30.9571C21.7365 30.7437 21.885 30.5563 22.0696 30.4093C22.389 30.2243 22.648 30.4765 22.648 30.9709C22.6514 31.2067 22.6004 31.4401 22.4989 31.653C22.3974 31.8659 22.2482 32.0525 22.0628 32.1983H22.0696ZM32.8609 21.5549C32.0539 22.0223 31.3477 21.7567 30.9677 20.9765C30.016 21.1614 29.3064 20.24 29.3064 18.6595C29.3064 16.7965 30.2884 14.7216 31.499 14.0221C31.6538 13.9088 31.833 13.8332 32.0221 13.8013C32.2113 13.7694 32.4053 13.782 32.5888 13.8381C32.7722 13.8943 32.9401 13.9924 33.079 14.1247C33.2178 14.2571 33.324 14.42 33.3889 14.6005C34.344 14.4122 35.0502 15.3303 35.0502 16.9175C35.0502 18.7805 34.0716 20.8554 32.8609 21.5549ZM41.0226 21.2489C40.7031 21.4338 40.4442 21.185 40.4442 20.694C40.4397 20.4587 40.4896 20.2255 40.5899 20.0127C40.6902 19.7998 40.8383 19.6129 41.0226 19.4666C41.3589 19.2816 41.6044 19.5305 41.6044 20.0248C41.6087 20.2599 41.5584 20.4929 41.4574 20.7053C41.3565 20.9177 41.2076 21.1037 41.0226 21.2489Z" fill="#CCCBCD"/>
<path opacity="0.5" d="M21.9374 32.8743L19.3077 31.3509C19.247 31.5411 19.2174 31.7398 19.2202 31.9394V35.7327L20.5856 36.5196L21.9509 35.7294L21.9374 32.8743Z" fill="#747379"/>
<path opacity="0.5" d="M24.668 28.1428L26.0333 24.9884L23.8643 23.7139C23.2253 24.595 23.0404 25.3045 22.1829 26.7068L24.668 28.1428Z" fill="#747379"/>
<path opacity="0.5" d="M30.1325 21.834L30.3107 20.916C29.7054 20.6604 29.3019 19.8466 29.3019 18.6595C29.3019 17.0756 30.0114 15.3437 30.9833 14.429L29.0766 13.3294C28.2695 15.1689 27.9702 17.3379 27.3111 18.9857C27.1807 19.3125 27.0337 19.6324 26.8705 19.9441L30.1325 21.834Z" fill="#747379"/>
<path d="M44.5994 17.58L44.4918 17.5161C44.0899 17.3279 43.6663 17.1901 43.2307 17.1059C42.5149 16.9754 41.8492 16.6495 41.3071 16.1643C41.1707 16.0377 41.022 15.9251 40.8632 15.828C40.7482 15.7609 40.6234 15.7122 40.4933 15.6834C39.6661 15.485 38.1595 16.3862 37.0767 14.9839L37.043 14.9402C36.2864 13.9313 36.0106 11.648 34.8774 10.9788L34.763 10.9149C34.2956 10.6963 33.6869 10.7366 32.8563 11.2141C29.8533 12.9494 29.7524 17.0689 28.6695 19.776C27.5867 22.4831 26.0566 23.3339 25.2226 24.4839C24.3886 25.634 24.3348 26.5017 22.4853 29.0574C20.6357 31.6132 20.5685 32.2252 20.5685 32.7061V36.533L45.1475 22.3385V18.5351C45.1654 18.3388 45.1224 18.1419 45.0243 17.971C44.9262 17.8001 44.7778 17.6636 44.5994 17.58ZM23.4134 32.9852C23.0771 33.1702 22.835 32.9213 22.835 32.427C22.8308 32.1913 22.8807 31.9577 22.981 31.7443C23.0813 31.5309 23.2292 31.3434 23.4134 31.1962C23.7497 31.0112 23.9918 31.2635 23.9918 31.7578C23.998 31.9923 23.95 32.2251 23.8514 32.438C23.7528 32.651 23.6064 32.8382 23.4235 32.9852H23.4134ZM32.8496 21.5515C32.0425 22.019 31.3363 21.7533 30.9563 20.9731C30.7427 20.4921 30.6404 19.9691 30.657 19.443C30.657 17.58 31.6389 15.5051 32.8496 14.8057C33.0132 14.7083 33.1915 14.6379 33.3775 14.5972C34.3326 14.4089 35.0388 15.3269 35.0388 16.9142C35.0489 18.7806 34.0703 20.8554 32.8597 21.5549L32.8496 21.5515ZM42.3765 22.0324C42.0402 22.2174 41.7947 21.9685 41.7947 21.4776C41.7899 21.2419 41.8399 21.0083 41.9409 20.7952C42.0419 20.5822 42.191 20.3956 42.3765 20.2501C42.7128 20.0652 42.9549 20.314 42.9549 20.8084C42.9609 21.0429 42.9127 21.2756 42.8141 21.4884C42.7156 21.7013 42.5693 21.8886 42.3866 22.0358L42.3765 22.0324Z" fill="#747379"/>
<path d="M35.0494 16.9175C35.0494 18.7805 34.0708 20.8554 32.8602 21.5549C32.0531 22.0223 31.3469 21.7566 30.9669 20.9764C31.1545 20.9373 31.3341 20.8668 31.4982 20.7679C32.7088 20.0685 33.6874 17.9936 33.6874 16.1306C33.7041 15.6045 33.6018 15.0815 33.3881 14.6005C34.3432 14.4122 35.0494 15.347 35.0494 16.9175Z" fill="#CCCBCD"/>
<path d="M23.4237 32.9819C23.0874 33.1669 22.8419 32.918 22.8419 32.4271C22.8379 32.191 22.8882 31.9572 22.9891 31.7437C23.09 31.5303 23.2387 31.343 23.4237 31.1963C23.7432 31.0113 24.0021 31.2635 24.0021 31.7579C24.0063 31.9926 23.9563 32.2252 23.856 32.4375C23.7557 32.6498 23.6078 32.8361 23.4237 32.9819Z" fill="#CCCBCD"/>
<path d="M42.3839 22.0358C42.0476 22.2207 41.8055 21.9719 41.8055 21.4809C41.801 21.2451 41.8509 21.0115 41.9512 20.798C42.0515 20.5846 42.1995 20.3971 42.3839 20.2501C42.7202 20.0652 42.9657 20.3174 42.9657 20.8117C42.97 21.0468 42.9197 21.2798 42.8188 21.4922C42.7178 21.7046 42.569 21.8907 42.3839 22.0358Z" fill="#CCCBCD"/>
<path d="M7.34566 44.4526L58.3802 14.9873C58.5159 14.9192 58.6656 14.8838 58.8174 14.8838C58.9692 14.8838 59.1189 14.9192 59.2546 14.9873L59.7489 15.2731C59.876 15.3562 59.9818 15.4679 60.0577 15.5993C60.1336 15.7308 60.1776 15.8782 60.1861 16.0298V93.8864C60.1776 94.038 60.1336 94.1854 60.0577 94.3169C59.9818 94.4483 59.876 94.56 59.7489 94.6431L8.71434 124.108C8.57866 124.176 8.42896 124.212 8.27717 124.212C8.12538 124.212 7.97569 124.176 7.84 124.108L7.34566 123.822C7.2186 123.739 7.11283 123.628 7.03689 123.496C6.96095 123.365 6.91697 123.217 6.90849 123.066V45.2092C6.91749 45.0578 6.9617 44.9105 7.03759 44.7792C7.11348 44.6478 7.21897 44.536 7.34566 44.4526Z" fill="#FAFAFA"/>
<path d="M60.1711 15.8987C60.1173 15.7205 59.9492 15.6633 59.7508 15.7776L8.71619 45.2429C8.58518 45.3257 8.47843 45.4418 8.40681 45.5792L7.04149 44.7923C7.11216 44.6542 7.21912 44.5379 7.35087 44.456L58.3855 14.9907C58.5201 14.9212 58.6694 14.8848 58.8209 14.8848C58.9725 14.8848 59.1218 14.9212 59.2564 14.9907L59.7508 15.2732C59.8591 15.3441 59.9521 15.436 60.0243 15.5434C60.0965 15.6508 60.1464 15.7717 60.1711 15.8987Z" fill="#E2E1E2"/>
<path d="M8.61082 124.155C8.55866 124.176 8.50457 124.19 8.4494 124.199H8.36533C8.27706 124.209 8.18794 124.209 8.09967 124.199C8.0445 124.19 7.99041 124.176 7.93825 124.155L7.84073 124.108L7.34975 123.826C7.2225 123.743 7.11659 123.631 7.04063 123.5C6.96467 123.368 6.9208 123.221 6.91258 123.069V45.2126C6.91635 45.0603 6.96045 44.9118 7.04037 44.7821L8.40569 45.569C8.32812 45.6997 8.28421 45.8476 8.2779 45.9995V123.856C8.2779 124.095 8.41914 124.213 8.61082 124.155Z" fill="white"/>
<path d="M48.6874 26.0174L47.3423 25.2305C47.1283 25.1267 46.8924 25.0762 46.6547 25.0833C46.417 25.0903 46.1845 25.1546 45.977 25.2708C44.3897 25.9703 43.7037 26.2797 42.8831 26.616L42.2913 26.8547C41.9718 26.9825 41.3295 26.8749 41.5279 25.7551L43.6364 20.0752H43.6062L42.261 19.3018C42.1929 19.2615 42.1175 19.2352 42.0391 19.2244C41.9898 19.2207 41.9404 19.2207 41.8911 19.2244C41.0269 19.2043 40.7814 13.6354 40.7746 13.4639L40.7141 13.4303L39.3891 12.6568C39.1597 12.5268 38.8996 12.4606 38.6359 12.4651C38.1981 12.4765 37.7694 12.5918 37.3849 12.8014C35.31 13.891 33.215 17.1193 32.7038 20.0181C32.3675 21.8475 30.5415 24.6622 29.4788 25.6979C28.4162 26.7337 28.3422 27.6013 28.3422 27.6013L27.5149 32.2891L27.2493 33.7889C27.0542 34.9088 25.9041 35.9916 25.9041 35.9916L21.6266 39.2233C18.9363 41.4495 18.1897 43.6959 17.6752 46.477V46.4971C17.6752 46.5947 17.6752 46.6619 17.7223 46.6888C17.7295 46.693 17.7376 46.6951 17.7459 46.6951C17.7541 46.6951 17.7622 46.693 17.7694 46.6888L18.3175 46.3761L47.7694 29.3903C47.9095 29.2943 48.0062 29.1469 48.0384 28.9801C48.2065 27.9712 48.711 26.0645 48.711 26.0645L48.6874 26.0174ZM40.1727 17.4119C39.8566 19.1942 38.572 21.1816 37.2941 21.8508C36.413 22.3115 35.7707 22.0257 35.5555 21.2152C35.3972 21.2776 35.2257 21.2989 35.0569 21.2771C34.8882 21.2553 34.7277 21.1913 34.5904 21.0908C34.1801 20.7545 37.933 14.3281 38.239 14.4694C38.3868 14.5456 38.5151 14.6547 38.6142 14.7881C38.7133 14.9216 38.7805 15.076 38.8107 15.2395C39.8566 14.92 40.4552 15.8112 40.1727 17.4119Z" fill="#CCCBCD"/>
<path opacity="0.5" d="M21.936 42.3406L19.7905 41.0997C18.5428 42.7374 18.0451 44.4626 17.6752 46.4635V46.4837C17.6752 46.5812 17.6752 46.6484 17.7223 46.6753C17.7295 46.6795 17.7376 46.6816 17.7459 46.6816C17.7541 46.6816 17.7622 46.6795 17.7694 46.6753L19.4508 45.3302L21.936 42.3406Z" fill="#747379"/>
<path opacity="0.5" d="M27.1099 34.2834L30.1365 36.0287L31.5018 28.1428L28.7745 26.569C28.5576 26.8811 28.4118 27.2369 28.3475 27.6115L27.5202 32.2993L27.2545 33.7991C27.2209 33.9645 27.1725 34.1266 27.1099 34.2834Z" fill="#747379"/>
<path opacity="0.5" d="M34.1379 16.2618C33.4464 17.425 32.9617 18.6993 32.7054 20.0281C32.4902 20.9748 32.1295 21.8824 31.636 22.7184L34.2321 24.2183L35.5201 21.2388C35.3663 21.2936 35.2015 21.3104 35.0398 21.2875C34.8782 21.2647 34.7245 21.2029 34.5919 21.1076C34.3801 20.9395 35.2645 19.1572 36.2263 17.4825L34.1379 16.2618Z" fill="#747379"/>
<path d="M48.7118 26.0275H48.6916C48.4798 25.9282 48.2476 25.8803 48.0138 25.8879C47.78 25.8955 47.5513 25.9583 47.3465 26.0712C45.3994 26.9287 44.8109 27.2112 43.6473 27.6685C43.338 27.793 42.7158 27.6921 42.8772 26.6395C42.8756 26.616 42.8756 26.5924 42.8772 26.5689L43.1429 25.069L43.8794 20.9832C43.8794 20.9832 44.0475 20.3409 43.6204 20.0988H43.5902C43.4848 20.0498 43.37 20.0245 43.2539 20.0248C43.0056 19.9953 42.7672 19.9101 42.5564 19.7756C42.3456 19.6411 42.1679 19.4607 42.0365 19.248C41.8063 18.9063 41.6471 18.5219 41.5685 18.1175C41.49 17.713 41.4936 17.2969 41.5792 16.894C41.8886 15.1419 41.5489 13.9145 40.7721 13.4571L40.7116 13.4201C40.2105 13.1545 39.5379 13.1982 38.751 13.6118C36.6762 14.7014 34.5811 17.9297 34.0699 20.8285C33.7337 22.6579 31.9076 25.4726 30.845 26.5083C29.7823 27.5441 29.7083 28.4117 29.7083 28.4117L28.8811 33.0995L28.6154 34.5994C28.4204 35.7192 27.2703 36.802 27.2703 36.802L23.0095 40.0001C21.3016 41.3596 20.0688 43.2258 19.4886 45.3302C19.4886 45.3302 17.8846 46.5745 17.7837 46.6753L18.3318 46.3626L47.8677 29.3836C47.8677 29.3836 48.204 29.1986 48.2813 29.1515C48.3587 29.1045 49.5458 27.9813 49.5458 27.9813C49.4886 27.0128 49.2061 26.3234 48.7118 26.0275ZM40.1769 17.4118C39.8608 19.1941 38.5762 21.1816 37.2983 21.8508C36.4172 22.3115 35.7749 22.0257 35.5597 21.2152C35.464 20.7595 35.464 20.2888 35.5597 19.8331C35.8758 18.0508 37.1638 16.0633 38.4417 15.3975C38.56 15.3339 38.6838 15.281 38.8116 15.2394C39.8608 14.92 40.4594 15.8111 40.1769 17.4118Z" fill="#747379"/>
<path d="M40.1736 17.412C39.8574 19.1943 38.5728 21.1817 37.295 21.8509C36.4139 22.3116 35.7716 22.0258 35.5564 21.2153C35.6849 21.1744 35.8098 21.1227 35.9296 21.0606C37.2075 20.3881 38.4955 18.404 38.8082 16.6217C38.9053 16.1661 38.9053 15.6952 38.8082 15.2396C39.8574 14.9201 40.456 15.8112 40.1736 17.412Z" fill="#CCCBCD"/>
<path d="M38.942 15.3135C39.0622 15.3059 39.1823 15.3295 39.2907 15.3819C39.3991 15.4343 39.4922 15.5139 39.5608 15.6128C40.0888 16.3661 39.581 18.2829 39.3624 18.8949C39.0564 19.7491 37.0757 21.75 36.5309 21.75C36.3508 21.7204 36.1786 21.6544 36.0248 21.5561C35.8711 21.4578 35.7389 21.3293 35.6364 21.1783C35.5466 20.7344 35.5466 20.277 35.6364 19.8332C35.9491 18.0744 37.2236 16.1105 38.4746 15.4615C38.5818 15.4008 38.6944 15.3502 38.8109 15.3101H38.9286M38.9286 15.2261H38.7941C38.6663 15.2676 38.5425 15.3205 38.4242 15.3841C37.1463 16.0567 35.8583 18.0374 35.5422 19.8197C35.4465 20.2754 35.4465 20.7461 35.5422 21.2018C35.652 21.3664 35.7948 21.5063 35.9615 21.6129C36.1282 21.7194 36.3152 21.7901 36.5107 21.8206C37.1026 21.8206 39.0934 19.8029 39.4128 18.9117C39.7323 18.0206 40.4217 15.2126 38.9151 15.2126L38.9286 15.2261Z" fill="#CCCBCD"/>
<path d="M17.771 46.6787L47.8551 29.3836L48.2721 29.1515C48.3461 29.1078 49.5365 27.9779 49.5365 27.9779L19.4726 45.3302C19.4726 45.3302 17.65 46.7392 17.771 46.6787Z" fill="#CCCBCD"/>
<path d="M12.433 54.5444L20.5711 49.7758V59.2423L12.433 64.0074V54.5444Z" fill="#E2E1E2"/>
<path d="M12.7701 54.7361V63.4358L20.2356 59.0641V50.3644L12.7701 54.7361ZM12.4338 64.3438C12.375 64.3433 12.3172 64.3283 12.2656 64.3001C12.2143 64.2705 12.1717 64.2278 12.1422 64.1764C12.1127 64.125 12.0973 64.0668 12.0975 64.0075V54.5445C12.0969 54.4855 12.1118 54.4275 12.1408 54.3761C12.1697 54.3248 12.2116 54.2819 12.2623 54.2519L20.4004 49.4867C20.4515 49.4572 20.5095 49.4417 20.5685 49.4417C20.6275 49.4417 20.6855 49.4572 20.7366 49.4867C20.7875 49.5161 20.8297 49.5582 20.8592 49.6089C20.8887 49.6597 20.9044 49.7173 20.9048 49.7759V59.2424C20.9044 59.301 20.8887 59.3586 20.8592 59.4094C20.8297 59.4601 20.7875 59.5022 20.7366 59.5316L12.5986 64.2967C12.5486 64.3264 12.4918 64.3426 12.4338 64.3438Z" fill="#CCCBCD"/>
<path d="M24.6689 47.7449V48.4174C24.6689 48.7907 24.9312 48.942 25.2507 48.7537L54.1376 32.0807C54.3072 31.97 54.4485 31.8211 54.5501 31.6459C54.6518 31.4707 54.7109 31.2741 54.7227 31.0719V30.3825C54.7227 30.0126 54.4604 29.8612 54.1376 30.0462L25.2507 46.7259C25.08 46.8375 24.9382 46.9881 24.837 47.1653C24.7359 47.3424 24.6783 47.5411 24.6689 47.7449Z" fill="white"/>
<path d="M24.6689 51.8777V52.5502C24.6689 52.9202 24.9312 53.0715 25.2507 52.8865L54.1376 36.2102C54.3076 36.0999 54.4492 35.9511 54.5508 35.7758C54.6525 35.6005 54.7114 35.4036 54.7227 35.2013V34.5287C54.7227 34.1555 54.4604 34.0041 54.1376 34.1925L25.2507 50.8688C25.0813 50.9795 24.9403 51.1285 24.8393 51.3037C24.7382 51.479 24.6798 51.6756 24.6689 51.8777Z" fill="white"/>
<path d="M24.6689 55.987V56.6596C24.6689 57.0295 24.9312 57.1808 25.2507 56.9959L54.1376 40.3195C54.3078 40.2095 54.4495 40.0607 54.5512 39.8853C54.6529 39.71 54.7117 39.5131 54.7227 39.3107V38.6381C54.7227 38.2682 54.4604 38.1169 54.1376 38.3018L25.2507 54.9782C25.0818 55.0894 24.9413 55.2386 24.8403 55.4137C24.7393 55.5889 24.6806 55.7852 24.6689 55.987Z" fill="white"/>
<path d="M12.433 71.8933L20.5711 67.1282V76.5912L12.433 81.3564V71.8933Z" fill="#E2E1E2"/>
<path d="M12.77 72.0852V80.7714L20.2356 76.3997V67.7135L12.77 72.0852ZM12.4338 81.6928C12.3749 81.6932 12.3169 81.6782 12.2656 81.6491C12.2143 81.6195 12.1717 81.5768 12.1422 81.5254C12.1127 81.4741 12.0972 81.4158 12.0975 81.3565V71.8935C12.0975 71.8351 12.1127 71.7778 12.1416 71.7271C12.1705 71.6764 12.2121 71.634 12.2623 71.6043L20.4003 66.8391C20.4514 66.8089 20.5096 66.7926 20.5689 66.7921C20.6283 66.7916 20.6867 66.8068 20.7383 66.8362C20.7899 66.8656 20.8327 66.9081 20.8626 66.9594C20.8924 67.0107 20.9081 67.069 20.9081 67.1283V76.5914C20.9084 76.6506 20.893 76.7089 20.8634 76.7603C20.8339 76.8117 20.7913 76.8543 20.74 76.884L12.6019 81.6491C12.5507 81.6782 12.4927 81.6932 12.4338 81.6928Z" fill="#CCCBCD"/>
<path d="M24.6689 65.0937V65.7663C24.6689 66.1362 24.9312 66.2875 25.2507 66.1025L54.1376 49.4262C54.3078 49.3161 54.4495 49.1673 54.5512 48.992C54.6529 48.8166 54.7117 48.6197 54.7227 48.4173V47.7448C54.7227 47.3715 54.4604 47.2235 54.1376 47.4085L25.2507 64.0848C25.0818 64.1961 24.9413 64.3452 24.8403 64.5204C24.7393 64.6955 24.6806 64.8918 24.6689 65.0937Z" fill="white"/>
<path d="M24.6689 69.23V69.9025C24.6689 70.2758 24.9312 70.4238 25.2507 70.2388L54.1376 53.5625C54.3078 53.4524 54.4495 53.3036 54.5512 53.1283C54.6529 52.9529 54.7117 52.756 54.7227 52.5536V51.881C54.7227 51.5111 54.4604 51.3598 54.1376 51.5448L25.2507 68.2245C25.0817 68.3348 24.9411 68.4833 24.84 68.6579C24.7389 68.8326 24.6803 69.0285 24.6689 69.23Z" fill="white"/>
<path d="M24.6689 73.3394V74.012C24.6689 74.3819 24.9312 74.5332 25.2507 74.3483L54.1376 57.6719C54.3076 57.5616 54.4492 57.4128 54.5508 57.2375C54.6525 57.0622 54.7114 56.8654 54.7227 56.663V55.9905C54.7227 55.6172 54.4604 55.4659 54.1376 55.6542L25.2507 72.3306C25.0817 72.4416 24.941 72.5907 24.84 72.7659C24.7389 72.9411 24.6804 73.1375 24.6689 73.3394Z" fill="white"/>
<path d="M12.433 89.2457L20.5711 84.4772V93.9436L12.433 98.7088V89.2457Z" fill="#E2E1E2"/>
<path d="M12.7701 89.4373V98.1235L20.2356 93.7518V85.0656L12.7701 89.4373ZM12.4338 99.045C12.3749 99.0454 12.3169 99.0303 12.2656 99.0013C12.2143 98.9716 12.1717 98.929 12.1422 98.8776C12.1127 98.8262 12.0973 98.7679 12.0975 98.7087V89.2456C12.0969 89.1867 12.1118 89.1287 12.1408 89.0773C12.1697 89.026 12.2116 88.9831 12.2623 88.9531L20.4004 84.1879C20.4517 84.1575 20.5101 84.1412 20.5698 84.1409C20.6294 84.1405 20.6881 84.156 20.7398 84.1858C20.7914 84.2156 20.8343 84.2585 20.8639 84.3103C20.8935 84.3621 20.9087 84.4208 20.9082 84.4805V93.9435C20.9078 94.0022 20.8921 94.0598 20.8626 94.1105C20.8331 94.1613 20.7908 94.2034 20.74 94.2327L12.6019 98.9979C12.551 99.0281 12.493 99.0444 12.4338 99.045Z" fill="#CCCBCD"/>
<path d="M24.6689 82.446V83.1186C24.6689 83.4885 24.9312 83.6398 25.2507 83.4549L54.1376 66.7987C54.3076 66.6884 54.4492 66.5396 54.5508 66.3643C54.6525 66.189 54.7114 65.9921 54.7227 65.7898V65.1172C54.7227 64.744 54.4604 64.5926 54.1376 64.781L25.2507 81.4573C25.0843 81.5663 24.9452 81.7122 24.8443 81.8837C24.7434 82.0552 24.6834 82.2476 24.6689 82.446Z" fill="white"/>
<path d="M24.6689 86.5791V87.2517C24.6689 87.6216 24.9312 87.7729 25.2507 87.5879L54.1376 70.9116C54.3078 70.8015 54.4495 70.6527 54.5512 70.4774C54.6529 70.302 54.7117 70.1051 54.7227 69.9027V69.2302C54.7227 68.8569 54.4604 68.7089 54.1376 68.8939L25.2507 85.5702C25.0817 85.6813 24.941 85.8304 24.84 86.0056C24.7389 86.1807 24.6804 86.3772 24.6689 86.5791Z" fill="white"/>
<path d="M24.6689 90.6918V91.3643C24.6689 91.7376 24.9312 91.8856 25.2507 91.7006L54.1376 75.0243C54.3079 74.9144 54.4498 74.7657 54.5516 74.5903C54.6533 74.4149 54.7119 74.2179 54.7227 74.0154V73.326C54.7227 72.9561 54.4604 72.8048 54.1376 72.9897L25.2507 89.6695C25.0795 89.7814 24.9375 89.9326 24.8363 90.1103C24.7351 90.2881 24.6777 90.4874 24.6689 90.6918Z" fill="white"/>
<path d="M12.433 106.595L20.5711 101.829V111.296L12.433 116.061V106.595Z" fill="#E2E1E2"/>
<path d="M12.77 106.79V115.473L20.2356 111.101V102.418L12.77 106.79ZM12.4338 116.397C12.3446 116.397 12.259 116.362 12.196 116.299C12.1329 116.236 12.0975 116.15 12.0975 116.061V106.595C12.0975 106.536 12.1127 106.479 12.1416 106.428C12.1705 106.378 12.2121 106.335 12.2623 106.305L20.4003 101.54C20.4515 101.511 20.5095 101.495 20.5685 101.495C20.6275 101.495 20.6855 101.511 20.7366 101.54C20.788 101.57 20.8305 101.613 20.8601 101.664C20.8896 101.715 20.905 101.774 20.9048 101.833V111.299C20.9044 111.358 20.8887 111.416 20.8592 111.466C20.8297 111.517 20.7875 111.559 20.7366 111.588L12.5985 116.354C12.5483 116.382 12.4915 116.397 12.4338 116.397Z" fill="#CCCBCD"/>
<path d="M24.6689 99.7983V100.471C24.6689 100.844 24.9312 100.992 25.2507 100.807L54.1376 84.1308C54.3078 84.0207 54.4495 83.8719 54.5512 83.6966C54.6529 83.5212 54.7117 83.3243 54.7227 83.1219V82.4493C54.7227 82.0794 54.4604 81.9281 54.1376 82.1131L25.2507 98.7928C25.0817 98.9031 24.9411 99.0516 24.84 99.2262C24.7389 99.4009 24.6803 99.5968 24.6689 99.7983Z" fill="white"/>
<path d="M24.6689 103.931V104.604C24.6689 104.977 24.9312 105.128 25.2507 104.94L54.1376 88.2671C54.3072 88.1564 54.4485 88.0075 54.5501 87.8323C54.6518 87.6571 54.7109 87.4604 54.7227 87.2582V86.5688C54.7227 86.1989 54.4604 86.0476 54.1376 86.2326L25.2507 102.912C25.08 103.024 24.9382 103.175 24.837 103.352C24.7359 103.529 24.6783 103.727 24.6689 103.931Z" fill="white"/>
<path d="M24.6689 108.041V108.713C24.6689 109.083 24.9312 109.235 25.2507 109.05L54.1376 92.3732C54.3078 92.2631 54.4495 92.1143 54.5512 91.939C54.6529 91.7637 54.7117 91.5667 54.7227 91.3643V90.6918C54.7227 90.3185 54.4604 90.1705 54.1376 90.3555L25.2507 107.032C25.0818 107.143 24.9413 107.292 24.8403 107.467C24.7393 107.643 24.6806 107.839 24.6689 108.041Z" fill="white"/>
</svg>
