<svg width="64" height="116" viewBox="0 0 64 116" fill="none" xmlns="http://www.w3.org/2000/svg">
<g clip-path="url(#clip0_9857_10779)">
<path d="M50.0183 0.786406L2.1024 28.3109C1.60708 28.5945 1.20569 29.2864 1.20569 29.8564V112.702C1.20569 113.272 1.60708 113.961 2.1024 114.245L2.28459 114.347C2.77992 114.63 3.5827 114.628 4.07802 114.344L51.9939 86.7827C52.4893 86.4991 52.8907 85.8043 52.8907 85.2372V2.42835C52.8907 1.85835 52.4893 1.16924 51.9939 0.88566L51.8117 0.78357C51.3164 0.499988 50.5136 0.502824 50.0183 0.786406Z" fill="#CCCBCD"/>
<path opacity="0.45" d="M50.0183 0.786406L2.1024 28.3109C1.60708 28.5945 1.20569 29.2864 1.20569 29.8564V112.702C1.20569 113.272 1.60708 113.961 2.1024 114.245L2.28459 114.347C2.77992 114.63 3.5827 114.628 4.07802 114.344L51.9939 86.7827C52.4893 86.4991 52.8907 85.8043 52.8907 85.2372V2.42835C52.8907 1.85835 52.4893 1.16924 51.9939 0.88566L51.8117 0.78357C51.3164 0.499988 50.5136 0.502824 50.0183 0.786406Z" fill="black"/>
<path d="M52.8935 85.3024C52.8935 86.0879 52.3413 86.587 51.6552 86.9783L4.42252 114.143C3.74216 114.534 3.1842 114.219 3.1842 113.431V31.3707C3.1842 30.4945 3.65391 29.6834 4.41683 29.2439L51.6524 2.0682C52.2018 1.75059 52.8907 2.1476 52.8907 2.77999V85.3024H52.8935Z" fill="#CCCBCD"/>
<path opacity="0.3" d="M52.8935 85.3024C52.8935 86.0879 52.3413 86.587 51.6552 86.9783L4.42252 114.143C3.74216 114.534 3.1842 114.219 3.1842 113.431V31.3707C3.1842 30.4945 3.65391 29.6834 4.41683 29.2439L51.6524 2.0682C52.2018 1.75059 52.8907 2.1476 52.8907 2.77999V85.3024H52.8935Z" fill="black"/>
<path d="M52.8936 2.42835V2.77999C52.8936 2.14761 52.2047 1.75343 51.6524 2.0682L4.41684 29.2439C4.03254 29.4594 3.72794 29.7742 3.51728 30.14C3.51159 30.1513 3.50589 30.157 3.50305 30.1684L1.45911 28.9915C1.62422 28.7051 1.84911 28.4555 2.10531 28.3109L50.0184 0.786413C50.5137 0.499995 51.3193 0.499995 51.8118 0.783577L51.994 0.888502C52.4893 1.16925 52.8936 1.86119 52.8936 2.43119V2.42835Z" fill="#CCCBCD"/>
<path opacity="0.2" d="M52.8936 2.42835V2.77999C52.8936 2.14761 52.2047 1.75343 51.6524 2.0682L4.41684 29.2439C4.03254 29.4594 3.72794 29.7742 3.51728 30.14C3.51159 30.1513 3.50589 30.157 3.50305 30.1684L1.45911 28.9915C1.62422 28.7051 1.84911 28.4555 2.10531 28.3109L50.0184 0.786413C50.5137 0.499995 51.3193 0.499995 51.8118 0.783577L51.994 0.888502C52.4893 1.16925 52.8936 1.86119 52.8936 2.43119V2.42835Z" fill="black"/>
<path opacity="0.25" d="M51.7235 81.6867C51.7235 82.4949 51.1541 83.011 50.4482 83.4137L5.80597 109.089C5.10283 109.495 4.53064 109.166 4.53064 108.355V35.9222C4.53064 35.0176 5.01458 34.1839 5.80027 33.7301L50.4482 8.04328C51.0147 7.71716 51.7235 8.12552 51.7235 8.77776V81.6867Z" fill="black"/>
<path d="M5.67504 34.6943L50.1521 9.11239C50.3628 8.99045 50.7044 8.99045 50.915 9.11239L51.3449 9.35911C51.5556 9.48105 51.7264 9.77314 51.7264 10.017V82.8069C51.7264 83.0479 51.5556 83.3428 51.3449 83.4648L6.86497 109.044C6.65431 109.166 6.3127 109.166 6.10489 109.044L5.67504 108.797C5.46438 108.675 5.29358 108.383 5.29358 108.139V35.3494C5.29358 35.1084 5.46438 34.8134 5.67504 34.6915V34.6943Z" fill="#F5F5F5"/>
<path d="M6.77383 109.086C6.73113 109.103 6.68274 109.115 6.63434 109.123C6.61157 109.126 6.5831 109.129 6.56033 109.132C6.48347 109.137 6.40376 109.135 6.32974 109.123C6.2785 109.115 6.23296 109.103 6.19026 109.086C6.16179 109.075 6.13047 109.061 6.10485 109.047L5.67785 108.803C5.46719 108.681 5.29639 108.389 5.29639 108.145V35.3522C5.29639 35.2303 5.33624 35.0942 5.40741 34.9779L6.59734 35.6613C6.52901 35.7804 6.48631 35.9166 6.48631 36.0357V108.826C6.48631 109.033 6.60872 109.135 6.77668 109.086H6.77383Z" fill="#E0E0E0"/>
<path d="M51.3449 9.35911L50.915 9.11239C50.7044 8.99045 50.3628 8.99045 50.155 9.11239L5.67504 34.6943C5.46438 34.8163 5.29358 35.1084 5.29358 35.3522V45.1727L6.48351 45.8618L51.7235 19.8403V10.0142C51.7235 9.77314 51.5527 9.47821 51.342 9.35627L51.3449 9.35911Z" fill="#CCCBCD"/>
<path opacity="0.4" d="M51.3449 9.35911L50.915 9.11239C50.7044 8.99045 50.3628 8.99045 50.155 9.11239L5.67504 34.6943C5.46438 34.8163 5.29358 35.1084 5.29358 35.3522V45.1727L6.48351 45.8618L51.7235 19.8403V10.0142C51.7235 9.77314 51.5527 9.47821 51.342 9.35627L51.3449 9.35911Z" fill="white"/>
<path d="M51.7092 9.90075C51.6637 9.74478 51.5156 9.69657 51.342 9.79582L6.86491 35.3778C6.75958 35.4402 6.66279 35.5422 6.59447 35.6613L5.40454 34.9779C5.47286 34.8588 5.56965 34.7539 5.67498 34.6943L50.1549 9.11239C50.3627 8.99045 50.7072 8.99045 50.915 9.11239L51.3448 9.35911C51.5242 9.46403 51.6722 9.68806 51.7121 9.90075H51.7092Z" fill="#CCCBCD"/>
<path opacity="0.6" d="M51.7092 9.90075C51.6637 9.74478 51.5156 9.69657 51.342 9.79582L6.86491 35.3778C6.75958 35.4402 6.66279 35.5422 6.59447 35.6613L5.40454 34.9779C5.47286 34.8588 5.56965 34.7539 5.67498 34.6943L50.1549 9.11239C50.3627 8.99045 50.7072 8.99045 50.915 9.11239L51.3448 9.35911C51.5242 9.46403 51.6722 9.68806 51.7121 9.90075H51.7092Z" fill="white"/>
<path d="M5.29358 35.3522V45.1755L6.48351 45.859V36.0328C6.48351 35.9137 6.52621 35.7776 6.59453 35.6585L5.4046 34.9751C5.33343 35.0914 5.29358 35.2275 5.29358 35.3494V35.3522Z" fill="#CCCBCD"/>
<path d="M15.5047 48.828L42.7506 33.1148C42.8702 33.0467 42.967 33.1006 42.967 33.2395V33.5203C42.967 33.6592 42.8702 33.8266 42.7506 33.8946L15.5019 49.6079C15.3823 49.676 15.2855 49.6221 15.2855 49.4831V49.2024C15.2855 49.0634 15.3823 48.8961 15.5019 48.828H15.5047Z" fill="#CCCBCD"/>
<path d="M16.6121 60.4804V60.8775C16.6121 61.093 16.7629 61.1781 16.9508 61.0731L34.9079 50.7592C35.0958 50.6515 35.2467 50.3906 35.2467 50.1751V49.7781C35.2467 49.5625 35.0958 49.4775 34.9079 49.5824L16.9508 59.8991C16.7629 60.0069 16.6121 60.2678 16.6121 60.4833V60.4804Z" fill="#E0E0E0"/>
<path d="M16.6121 62.9788V63.3758C16.6121 63.5913 16.7629 63.6764 16.9508 63.5715L47.7921 45.8419C47.98 45.7342 48.1309 45.4733 48.1309 45.2578V44.8607C48.1309 44.6452 47.98 44.5601 47.7921 44.6651L16.9508 62.3946C16.7629 62.5024 16.6121 62.7633 16.6121 62.9788Z" fill="#E0E0E0"/>
<path d="M16.6121 65.3552V65.7522C16.6121 65.9678 16.7629 66.0528 16.9508 65.9479L47.7921 48.2184C47.98 48.1106 48.1309 47.8497 48.1309 47.6342V47.2372C48.1309 47.0216 47.98 46.9366 47.7921 47.0415L16.9508 64.771C16.7629 64.8788 16.6121 65.1397 16.6121 65.3552Z" fill="#E0E0E0"/>
<path d="M9.61204 70.3207C9.58073 70.3207 9.55226 70.3122 9.52379 70.2981C9.46971 70.2669 9.43555 70.2101 9.43555 70.1478V64.4109C9.43555 64.3485 9.46971 64.2918 9.52379 64.2606L14.4771 61.4134C14.5312 61.3822 14.5966 61.3822 14.6507 61.4134C14.7048 61.4446 14.739 61.5013 14.739 61.5637V67.3006C14.739 67.363 14.7048 67.4197 14.6507 67.4509L9.70029 70.2981C9.67467 70.3151 9.64336 70.3207 9.61204 70.3207ZM9.78569 64.5101V69.8472L14.3888 67.1985V61.8615L9.78569 64.5101Z" fill="#CCCBCD"/>
<path d="M12.0261 67.6381L10.8732 66.5349L11.2575 65.721L11.9151 66.3506L14.7532 60.3642L15.2486 60.8406L12.0261 67.6381Z" fill="#CCCBCD"/>
<path d="M16.6121 69.4615V69.8585C16.6121 70.074 16.7629 70.1591 16.9508 70.0542L34.9079 59.7403C35.0958 59.6325 35.2467 59.3716 35.2467 59.1561V58.7591C35.2467 58.5436 35.0958 58.4585 34.9079 58.5634L16.9508 68.8801C16.7629 68.9879 16.6121 69.2488 16.6121 69.4643V69.4615Z" fill="#E0E0E0"/>
<path d="M16.6121 71.9598V72.3569C16.6121 72.5724 16.7629 72.6575 16.9508 72.5525L47.7921 54.823C47.98 54.7152 48.1309 54.4543 48.1309 54.2388V53.8418C48.1309 53.6263 47.98 53.5412 47.7921 53.6461L16.9508 71.3757C16.7629 71.4834 16.6121 71.7443 16.6121 71.9598Z" fill="#E0E0E0"/>
<path d="M16.6121 74.3391V74.7361C16.6121 74.9516 16.7629 75.0367 16.9508 74.9318L47.7921 57.2022C47.98 57.0945 48.1309 56.8336 48.1309 56.6181V56.221C48.1309 56.0055 47.98 55.9205 47.7921 56.0254L16.9508 73.7549C16.7629 73.8627 16.6121 74.1236 16.6121 74.3391Z" fill="#E0E0E0"/>
<path d="M9.61204 79.3018C9.58073 79.3018 9.55226 79.2933 9.52379 79.2791C9.46971 79.2479 9.43555 79.1912 9.43555 79.1288V73.392C9.43555 73.3296 9.46971 73.2729 9.52379 73.2417L14.4771 70.3945C14.5312 70.3633 14.5966 70.3633 14.6507 70.3945C14.7048 70.4257 14.739 70.4824 14.739 70.5448V76.2817C14.739 76.344 14.7048 76.4008 14.6507 76.432L9.70029 79.2791C9.67467 79.2961 9.64336 79.3018 9.61204 79.3018ZM9.78569 73.4912V78.8282L14.3888 76.1796V70.8425L9.78569 73.4912Z" fill="#CCCBCD"/>
<path d="M12.0261 76.6191L10.8732 75.516L11.2575 74.7021L11.9151 75.3316L14.7532 69.3481L15.2486 69.8216L12.0261 76.6191Z" fill="#CCCBCD"/>
<path d="M16.6121 78.4454V78.8424C16.6121 79.0579 16.7629 79.143 16.9508 79.0381L34.9079 68.7242C35.0958 68.6164 35.2467 68.3555 35.2467 68.14V67.743C35.2467 67.5275 35.0958 67.4424 34.9079 67.5473L16.9508 77.864C16.7629 77.9718 16.6121 78.2327 16.6121 78.4482V78.4454Z" fill="#E0E0E0"/>
<path d="M16.6121 80.9409V81.3379C16.6121 81.5534 16.7629 81.6385 16.9508 81.5336L47.7921 63.804C47.98 63.6963 48.1309 63.4354 48.1309 63.2199V62.8228C48.1309 62.6073 47.98 62.5222 47.7921 62.6272L16.9508 80.3567C16.7629 80.4645 16.6121 80.7254 16.6121 80.9409Z" fill="#E0E0E0"/>
<path d="M16.6121 83.3202V83.7172C16.6121 83.9327 16.7629 84.0178 16.9508 83.9128L47.7921 66.1833C47.98 66.0755 48.1309 65.8146 48.1309 65.5991V65.2021C48.1309 64.9866 47.98 64.9015 47.7921 65.0064L16.9508 82.736C16.7629 82.8437 16.6121 83.1046 16.6121 83.3202Z" fill="#E0E0E0"/>
<path d="M9.61204 88.2828C9.58073 88.2828 9.55226 88.2743 9.52379 88.2602C9.46971 88.229 9.43555 88.1723 9.43555 88.1099V82.373C9.43555 82.3106 9.46971 82.2539 9.52379 82.2227L14.4771 79.3755C14.5312 79.3443 14.5966 79.3443 14.6507 79.3755C14.7048 79.4067 14.739 79.4634 14.739 79.5258V85.2627C14.739 85.3251 14.7048 85.3818 14.6507 85.413L9.70029 88.2602C9.67467 88.2743 9.64336 88.2828 9.61204 88.2828ZM9.78569 82.4722V87.8093L14.3888 85.1606V79.8236L9.78569 82.4722Z" fill="#CCCBCD"/>
<path d="M12.0261 85.603L10.8732 84.497L11.2575 83.686L11.9151 84.3127L14.7532 78.3291L15.2486 78.8055L12.0261 85.603Z" fill="#CCCBCD"/>
<path d="M16.6121 87.4264V87.8235C16.6121 88.039 16.7629 88.1241 16.9508 88.0191L34.9079 77.7052C35.0958 77.5975 35.2467 77.3366 35.2467 77.1211V76.7241C35.2467 76.5085 35.0958 76.4235 34.9079 76.5284L16.9508 86.8451C16.7629 86.9529 16.6121 87.2138 16.6121 87.4293V87.4264Z" fill="#E0E0E0"/>
<path d="M16.6121 89.9248V90.3218C16.6121 90.5373 16.7629 90.6224 16.9508 90.5175L47.7921 72.7879C47.98 72.6802 48.1309 72.4193 48.1309 72.2037V71.8067C48.1309 71.5912 47.98 71.5061 47.7921 71.6111L16.9508 89.3406C16.7629 89.4484 16.6121 89.7093 16.6121 89.9248Z" fill="#E0E0E0"/>
<path d="M16.6121 92.3012V92.6982C16.6121 92.9138 16.7629 92.9988 16.9508 92.8939L47.7921 75.1644C47.98 75.0566 48.1309 74.7957 48.1309 74.5802V74.1832C48.1309 73.9676 47.98 73.8826 47.7921 73.9875L16.9508 91.717C16.7629 91.8248 16.6121 92.0857 16.6121 92.3012Z" fill="#E0E0E0"/>
<path d="M9.61204 97.2667C9.58073 97.2667 9.55226 97.2582 9.52379 97.244C9.46971 97.2128 9.43555 97.1561 9.43555 97.0937V91.3569C9.43555 91.2945 9.46971 91.2377 9.52379 91.2066L14.4771 88.3594C14.5312 88.3282 14.5966 88.3282 14.6507 88.3594C14.7048 88.3906 14.739 88.4473 14.739 88.5097V94.2466C14.739 94.3089 14.7048 94.3657 14.6507 94.3969L9.70029 97.244C9.67467 97.261 9.64336 97.2667 9.61204 97.2667ZM9.78569 91.4561V96.7931L14.3888 94.1445V88.8074L9.78569 91.4561Z" fill="#CCCBCD"/>
<path d="M12.0261 94.584L10.8732 93.4809L11.2575 92.667L11.9151 93.2966L14.7532 87.3102L15.2486 87.7866L12.0261 94.584Z" fill="#CCCBCD"/>
<path d="M9.43839 55.9885V56.3855C9.43839 56.601 9.58927 56.6861 9.77715 56.5812L47.7922 34.7113C47.9801 34.6036 48.131 34.3427 48.131 34.1272V33.7301C48.131 33.5146 47.9801 33.4295 47.7922 33.5345L9.77431 55.4072C9.58642 55.5149 9.43555 55.7758 9.43555 55.9913L9.43839 55.9885Z" fill="#E0E0E0"/>
<path d="M9.43839 58.5124V58.9094C9.43839 59.1249 9.58927 59.21 9.77715 59.1051L47.7922 37.2352C47.9801 37.1275 48.131 36.8666 48.131 36.651V36.254C48.131 36.0385 47.9801 35.9534 47.7922 36.0584L9.77431 57.9282C9.58642 58.036 9.43555 58.2969 9.43555 58.5124H9.43839Z" fill="#E0E0E0"/>
<path d="M9.43839 61.0363V61.4333C9.43839 61.6488 9.58927 61.7339 9.77715 61.6289L47.7922 39.7591C47.9801 39.6513 48.131 39.3904 48.131 39.1749V38.7779C48.131 38.5624 47.9801 38.4773 47.7922 38.5822L9.77431 60.4521C9.58642 60.5598 9.43555 60.8207 9.43555 61.0363H9.43839Z" fill="#E0E0E0"/>
<path d="M9.43839 100.619V101.016C9.43839 101.231 9.58927 101.316 9.77715 101.211L47.7922 79.3415C47.9801 79.2337 48.131 78.9728 48.131 78.7573V78.3603C48.131 78.1448 47.9801 78.0597 47.7922 78.1646L9.77431 100.034C9.58642 100.142 9.43555 100.403 9.43555 100.619H9.43839Z" fill="#E0E0E0"/>
<path d="M9.43839 103.14V103.537C9.43839 103.752 9.58927 103.837 9.77715 103.732L47.7922 81.8625C47.9801 81.7548 48.131 81.4939 48.131 81.2784V80.8813C48.131 80.6658 47.9801 80.5807 47.7922 80.6857L9.77431 102.556C9.58642 102.663 9.43555 102.924 9.43555 103.14H9.43839Z" fill="#E0E0E0"/>
<path d="M9.84263 38.7552L25.417 29.7912C25.6419 29.6607 25.8241 29.7657 25.8241 30.0237V30.1428C25.8241 30.4009 25.6419 30.7157 25.417 30.8433L9.84263 39.8073C9.61774 39.9378 9.43555 39.8328 9.43555 39.5748V39.4557C9.43555 39.1976 9.61774 38.8828 9.84263 38.7552Z" fill="#FAFAFA"/>
<path d="M9.84263 40.8764L19.1087 35.5479C19.3336 35.4175 19.5158 35.5224 19.5158 35.7804V35.8995C19.5158 36.1576 19.3336 36.4724 19.1087 36.6L9.84263 41.9285C9.61774 42.0589 9.43555 41.954 9.43555 41.696V41.5769C9.43555 41.3188 9.61774 41.004 9.84263 40.8764Z" fill="#FAFAFA"/>
<path d="M41 20.6996L47.926 16.7124C48.0371 16.6472 48.1281 16.701 48.1281 16.8287V17.0924C48.1281 17.22 48.0371 17.3788 47.926 17.4412L41 21.4284C40.8889 21.4936 40.7979 21.4397 40.7979 21.3121V21.0484C40.7979 20.9207 40.8889 20.7619 41 20.6996Z" fill="#CCCBCD"/>
<path d="M41 23.8813L47.926 19.8942C48.0371 19.829 48.1281 19.8828 48.1281 20.0104V20.2742C48.1281 20.4018 48.0371 20.5606 47.926 20.623L41 24.6101C40.8889 24.6754 40.7979 24.6215 40.7979 24.4939V24.2302C40.7979 24.1025 40.8889 23.9437 41 23.8813Z" fill="#CCCBCD"/>
<path d="M42.429 21.4595L47.9261 18.2976C48.0371 18.2324 48.1282 18.2863 48.1282 18.4139V18.6776C48.1282 18.8052 48.0371 18.964 47.9261 19.0264L42.429 22.1884C42.318 22.2536 42.2269 22.1997 42.2269 22.0721V21.8084C42.2269 21.6807 42.318 21.5219 42.429 21.4595Z" fill="#CCCBCD"/>
<path d="M63.4718 46.1907C63.4861 45.8136 63.395 45.5782 63.227 45.4875C63.227 45.4846 63.2299 45.4846 63.2299 45.4846L63.2071 45.4705C63.0278 45.391 61.8378 44.6849 61.667 44.5942C61.667 44.5913 61.6699 44.5913 61.6699 44.5913L61.6471 44.5772C61.4677 44.4978 61.203 44.5743 60.8842 44.8154C57.7072 47.2372 53.3375 47.827 50.0126 46.3694C49.5542 46.0319 49.1301 45.6463 48.7515 45.2067C48.7315 45.184 48.7145 45.1613 48.6945 45.1415H48.6917C48.5835 45.0224 48.4782 44.9345 48.37 44.8778C48.37 44.8778 46.9182 44.0384 46.8129 43.9816L46.7588 43.9505C46.4029 43.7831 46.0756 43.9533 45.8621 44.4807C42.8474 51.9446 36.4223 59.5078 32.1352 61.3993C31.8164 61.541 31.5203 61.7594 31.2926 62.026C30.9908 62.3748 30.8029 62.803 30.8172 63.2482C30.8172 72.8446 36.095 88.1779 46.0926 93.3022C46.6848 93.6879 47.2968 94.0367 47.9259 94.343C61.6813 80.2093 63.4747 57.5681 63.4747 46.1964L63.4718 46.1907Z" fill="#CCCBCD"/>
<path opacity="0.4" d="M63.2071 45.4676C63.0277 45.3882 62.763 45.4648 62.4441 45.7058C58.7463 48.5246 53.4258 48.8649 50.0239 46.3694C53.3489 47.8213 57.7158 47.2343 60.887 44.8097C61.2058 44.5687 61.4706 44.4921 61.6499 44.5715L61.6727 44.5857C61.6727 44.5857 61.6698 44.5857 61.6698 44.5885C61.8378 44.6793 63.0277 45.3825 63.2071 45.4648V45.4676Z" fill="white"/>
<path d="M48.3131 44.8409C47.9572 44.6736 47.6298 44.8437 47.4163 45.3712C44.4017 52.8379 37.9766 60.3982 33.6895 62.2897C33.3706 62.4315 33.0746 62.6499 32.8469 62.9164C32.7216 63.0667 32.6134 63.2255 32.5309 63.3985L30.9766 62.5052C31.0563 62.3322 31.1616 62.1678 31.2869 62.0231C31.5174 61.7566 31.8135 61.5382 32.1295 61.3964C36.4138 59.5049 42.8388 51.9418 45.8563 44.4779C46.0698 43.9504 46.3972 43.7775 46.7531 43.9476L46.8071 43.9788C46.8584 44.0043 47.163 44.1802 47.4989 44.373C47.8291 44.563 48.1821 44.77 48.3131 44.8437V44.8409Z" fill="#CCCBCD"/>
<path opacity="0.4" d="M48.3131 44.8409C47.9572 44.6736 47.6298 44.8437 47.4163 45.3712C44.4017 52.8379 37.9766 60.3982 33.6895 62.2897C33.3706 62.4315 33.0746 62.6499 32.8469 62.9164C32.7216 63.0667 32.6134 63.2255 32.5309 63.3985L30.9766 62.5052C31.0563 62.3322 31.1616 62.1678 31.2869 62.0231C31.5174 61.7566 31.8135 61.5382 32.1295 61.3964C36.4138 59.5049 42.8388 51.9418 45.8563 44.4779C46.0698 43.9504 46.3972 43.7775 46.7531 43.9476L46.8071 43.9788C46.8584 44.0043 47.163 44.1802 47.4989 44.373C47.8291 44.563 48.1821 44.77 48.3131 44.8437V44.8409Z" fill="white"/>
<path opacity="0.3" d="M46.0699 93.2824C36.0836 88.1552 30.8143 72.8304 30.8143 63.2425C30.8058 62.9816 30.8713 62.7349 30.9795 62.5024L32.5338 63.3957C32.4227 63.6282 32.3658 63.8778 32.3715 64.1358C32.3715 73.2189 37.0885 87.4378 46.0699 93.2824Z" fill="black"/>
<path d="M63.4718 46.1907C63.4718 57.5624 61.6784 80.2064 47.9231 94.3373C37.7432 89.3604 32.3715 73.823 32.3715 64.1387C32.3572 63.6906 32.5451 63.2624 32.8469 62.9164C33.0775 62.6498 33.3735 62.4315 33.6895 62.2897C37.9738 60.3982 44.3989 52.8351 47.4164 45.3712C47.6299 44.8437 47.9572 44.6707 48.3131 44.8409L48.3672 44.8721C48.4753 44.9288 48.5807 45.0167 48.6889 45.1358H48.6917C48.7116 45.1557 48.7287 45.1784 48.7486 45.201C51.9483 48.9103 58.2396 48.9075 62.4385 45.7058C62.7573 45.4648 63.0221 45.3882 63.2014 45.4676L63.2242 45.4818C63.2242 45.4818 63.2213 45.4818 63.2213 45.4846C63.3893 45.5754 63.4832 45.8107 63.4661 46.1879L63.4718 46.1907Z" fill="#CCCBCD"/>
<path opacity="0.1" d="M63.4718 46.1907C63.4718 57.5624 61.6784 80.2064 47.9231 94.3373C37.7432 89.3604 32.3715 73.823 32.3715 64.1387C32.3572 63.6906 32.5451 63.2624 32.8469 62.9164C33.0775 62.6498 33.3735 62.4315 33.6895 62.2897C37.9738 60.3982 44.3989 52.8351 47.4164 45.3712C47.6299 44.8437 47.9572 44.6707 48.3131 44.8409L48.3672 44.8721C48.4753 44.9288 48.5807 45.0167 48.6889 45.1358H48.6917C48.7116 45.1557 48.7287 45.1784 48.7486 45.201C51.9483 48.9103 58.2396 48.9075 62.4385 45.7058C62.7573 45.4648 63.0221 45.3882 63.2014 45.4676L63.2242 45.4818C63.2242 45.4818 63.2213 45.4818 63.2213 45.4846C63.3893 45.5754 63.4832 45.8107 63.4661 46.1879L63.4718 46.1907Z" fill="white"/>
<path d="M48.3159 44.8409C47.9601 44.6736 47.6327 44.8437 47.4192 45.3712C44.4045 52.8351 37.9795 60.3982 33.6923 62.2897C33.3735 62.4315 33.0774 62.6499 32.8497 62.9164C32.5479 63.2652 32.3601 63.6934 32.3743 64.1387C32.3743 73.823 37.746 89.3604 47.9259 94.3373C54.7666 67.9925 48.3187 44.8409 48.3187 44.8409H48.3159Z" fill="#CCCBCD"/>
<path opacity="0.05" d="M48.3159 44.8409C47.9601 44.6736 47.6327 44.8437 47.4192 45.3712C44.4045 52.8351 37.9795 60.3982 33.6923 62.2897C33.3735 62.4315 33.0774 62.6499 32.8497 62.9164C32.5479 63.2652 32.3601 63.6934 32.3743 64.1387C32.3743 73.823 37.746 89.3604 47.9259 94.3373C54.7666 67.9925 48.3187 44.8409 48.3187 44.8409H48.3159Z" fill="black"/>
<path opacity="0.4" d="M53.5055 49.9596C56.9386 50.833 59.9818 49.3328 61.7211 48.4396C61.7211 48.4396 62.1253 68.5087 55.1879 81.4882C57.9236 71.3502 58.5954 68.4491 58.7918 60.9342C58.9826 53.5469 56.1074 51.8 53.5055 49.9567V49.9596Z" fill="white"/>
<path d="M50.5795 72.8868L48.4414 74.0274C48.3708 74.0842 48.2845 74.1183 48.194 74.1253C48.1035 74.1322 48.013 74.1116 47.9345 74.0661C47.856 74.0207 47.7932 73.9526 47.7544 73.8709C47.7156 73.7891 47.7026 73.6975 47.7172 73.6083L47.4206 57.8053C47.4284 57.5678 47.4956 57.336 47.616 57.1308C47.7365 56.9257 47.9064 56.7537 48.1103 56.6304L52.1935 54.4661C52.5866 54.26 52.8832 54.4661 52.8349 54.8852L51.3727 71.7257C51.3368 71.9662 51.2469 72.1956 51.1095 72.3967C50.9722 72.5977 50.791 72.7653 50.5795 72.8868Z" fill="#FAFAFA"/>
<path d="M49.2207 81.338C47.8413 82.0663 47.0688 81.0357 47.1516 79.6409C47.1886 78.8344 47.4174 78.0482 47.8191 77.347C48.2208 76.6458 48.784 76.0497 49.4621 75.6077C50.8416 74.8725 51.6141 75.91 51.5313 77.3048C51.4965 78.1118 51.2687 78.8988 50.8667 79.6004C50.4648 80.3019 49.9005 80.8976 49.2207 81.338Z" fill="#FAFAFA"/>
</g>
<defs>
<clipPath id="clip0_9857_10779">
<rect width="63" height="115" fill="white" transform="translate(0.5 0.5)"/>
</clipPath>
</defs>
</svg>
