<svg width="73" height="72" viewBox="0 0 73 72" fill="none" xmlns="http://www.w3.org/2000/svg">
<path d="M32.9544 47.8139C33.5587 47.4156 34.261 47.1913 34.9843 47.1656C35.7076 47.1398 36.4241 47.3135 37.0552 47.6678C41.0204 49.473 44.683 55.6191 45.2361 61.4C45.57 64.833 44.7248 67.3582 43.1491 68.4643C42.4709 68.9443 39.7891 70.8539 39.0796 71.3443C38.4766 71.7286 37.7806 71.9422 37.0659 71.9624C36.3511 71.9827 35.6442 71.8087 35.0204 71.4591C31.0552 69.6539 27.3926 63.5078 26.8396 57.7269C26.5161 54.3147 27.3404 51.7999 28.9265 50.6834L32.9544 47.8139Z" fill="#F7F7F7"/>
<path d="M18.8987 31.3269C16.3186 33.3254 14.4523 36.103 13.5769 39.2469C13.0135 40.9895 13.65 43.7756 15.0691 45.8208C16.4256 47.7826 18.0848 48.5026 19.1283 47.7826L23.97 44.3495C24.3487 44.0598 24.6204 43.6523 24.7422 43.1913C25.114 41.9684 25.6662 40.8078 26.3804 39.7478C28.5365 39.3578 30.761 39.684 32.7143 40.6765C38.7665 43.4313 43.097 49.2226 46.457 57.7686C47.6674 60.8991 50.13 62.6313 51.57 61.5252C52.7178 60.6486 55.0448 59.1565 56.3909 58.1234C57.5387 57.2469 57.6743 54.8052 56.7039 52.353C51.9248 40.28 45.2256 31.4104 36.5856 27.4869C31.5456 25.1913 27.1943 25.4939 23.7822 27.8521L18.8987 31.3269Z" fill="#F7F7F7"/>
<path d="M4.32125 21.5078C5.85599 17.6468 8.4538 14.3001 11.8134 11.8556C12.6378 11.2608 16.1752 8.89213 17.0308 8.37039C22.436 5.05213 32.9021 3.6643 40.843 7.66082C53.8552 14.2034 62.6934 23.313 69.0169 40.9373C70.5717 45.2365 69.3508 47.4173 68.1299 48.3773C66.7421 49.4208 64.5508 50.8191 63.3299 51.7791C61.9421 52.8226 59.6152 51.226 58.3108 48.273C51.9247 33.8521 43.963 25.4521 33.4969 20.673C28.1021 18.2104 23.2395 18.0434 19.2326 19.7756C17.576 21.5795 16.2545 23.6643 15.3299 25.9321C15.1863 26.317 14.9322 26.651 14.5995 26.8921L9.77862 30.2939C8.73514 31.0452 7.08646 30.3565 5.71951 28.3947C4.13342 26.2034 3.59082 23.24 4.32125 21.5078Z" fill="#F7F7F7"/>
<path d="M26.8187 57.7478C27.3717 63.5287 30.9926 69.6747 34.9996 71.48C39.0065 73.2852 41.7196 70.0608 41.1665 64.2904C40.6135 58.52 36.9926 52.3634 32.9856 50.5582C28.9787 48.753 26.2656 51.9669 26.8187 57.7478Z" fill="#E2E1E2"/>
<path d="M13.5769 39.2469C13.0135 40.9895 13.65 43.7756 15.0691 45.8208C16.8639 48.4295 19.243 48.8365 19.9109 46.6034C21.8413 40.4782 26.6413 37.9008 32.7143 40.6765C38.7874 43.4521 43.1178 49.2434 46.4465 57.7895C47.6569 60.92 49.2848 62.9339 51.5595 61.546C53.4691 60.2 53.3856 57.8626 52.603 55.3582C48.8987 43.88 43.5561 35.5321 31.7335 30.92C22.9682 27.4765 16.3735 30.6173 13.5769 39.2469Z" fill="#E2E1E2"/>
<path d="M4.32132 21.5078C3.59088 23.24 4.1335 26.2034 5.66741 28.426C7.41002 30.9408 9.61174 31.3478 10.4465 29.386C14.5161 19.7234 22.9683 15.9356 33.403 20.7043C43.8378 25.473 51.8309 33.8834 58.217 48.3043C59.5213 51.2573 61.4622 52.8956 63.2361 51.8104C65.7091 50.0678 64.8639 46.593 63.8309 43.9113C55.7648 23.2087 42.9613 14.2139 32.4326 10.9269C19.0344 6.74257 9.31958 9.72691 4.32132 21.5078Z" fill="#E2E1E2"/>
<path d="M31.2131 47.3806L34.7456 49.2722C34.8623 49.3664 35.0048 49.423 35.1544 49.4345C35.3039 49.446 35.4535 49.4118 35.5831 49.3364C35.7128 49.2611 35.8166 49.1482 35.8807 49.0126C35.9448 48.877 35.9662 48.7251 35.9422 48.5771L36.4321 22.3677C36.4192 21.9738 36.3082 21.5893 36.1093 21.249C35.9103 20.9088 35.6296 20.6235 35.2926 20.4191L28.5465 16.8295C27.897 16.4877 27.407 16.8295 27.4868 17.5247L29.9026 45.4547C29.9619 45.8537 30.1106 46.2341 30.3375 46.5676C30.5644 46.9011 30.8637 47.179 31.2131 47.3806Z" fill="#CCCBCD"/>
<path d="M33.458 61.3969C35.737 62.6048 37.0133 60.8955 36.8766 58.5822C36.8154 57.2446 36.4374 55.9407 35.7737 54.7778C35.11 53.6149 34.1796 52.6262 33.0591 51.8931C30.7801 50.6738 29.5038 52.3945 29.6405 54.7078C29.6981 56.0462 30.0745 57.3515 30.7385 58.515C31.4025 59.6785 32.3349 60.6666 33.458 61.3969Z" fill="#CCCBCD"/>
</svg>
